<svg width="24" height="24" viewBox="0 0 24 24" fill="none" xmlns="http://www.w3.org/2000/svg">
<path d="M5.44727 0.789062C5.96883 0.648225 6.5159 0.890044 6.76758 1.36426L6.81445 1.46191L8.7168 6.02246C8.89802 6.46971 8.78805 6.97135 8.45312 7.29297L8.38281 7.35547L6.31055 9.04297L5.8623 9.4082L6.10156 9.93457C7.69675 13.4536 10.4735 16.3188 13.9229 18.0312L14.459 18.2969L14.8369 17.834L16.6465 15.6221L16.6455 15.6211C16.9715 15.2242 17.5145 15.0918 17.9795 15.2861H17.9814L22.542 17.1846L22.543 17.1855C23.075 17.4063 23.3621 17.9897 23.209 18.5488L23.208 18.5498L23.1377 18.8076C22.4104 21.4773 19.9319 23.6479 16.9736 23.1855L16.6855 23.1328L15.9492 22.9619C8.63151 21.1252 2.87301 15.3676 1.03613 8.0498L0.866211 7.3125C0.215739 4.23179 2.43627 1.61087 5.19043 0.860352L5.44824 0.790039L5.44727 0.789062Z" stroke="#F3F3F3" stroke-width="1.5"/>
</svg>
