<svg width="26" height="24" viewBox="0 0 26 24" fill="none" xmlns="http://www.w3.org/2000/svg">
<g clip-path="url(#clip0_3_884)">
<path d="M6.50008 9V2H19.5001V9M6.50008 18H4.33341C3.75878 18 3.20768 17.7893 2.80135 17.4142C2.39502 17.0391 2.16675 16.5304 2.16675 16V11C2.16675 10.4696 2.39502 9.96086 2.80135 9.58579C3.20768 9.21071 3.75878 9 4.33341 9H21.6667C22.2414 9 22.7925 9.21071 23.1988 9.58579C23.6051 9.96086 23.8334 10.4696 23.8334 11V16C23.8334 16.5304 23.6051 17.0391 23.1988 17.4142C22.7925 17.7893 22.2414 18 21.6667 18H19.5001M6.50008 14H19.5001V22H6.50008V14Z" stroke="#F3F3F3" stroke-width="2.5" stroke-linecap="round" stroke-linejoin="round"/>
</g>
<defs>
<clipPath id="clip0_3_884">
<rect width="26" height="24" fill="white"/>
</clipPath>
</defs>
</svg>
