<svg width="24" height="24" viewBox="0 0 24 24" fill="none" xmlns="http://www.w3.org/2000/svg">
<path d="M16.6595 0.00198752C16.7196 0.00145987 16.7798 0.000932226 16.8417 0.00038859C16.9078 0.000752357 16.9739 0.00113561 17.04 0.00153639C17.11 0.00128266 17.18 0.000949388 17.2501 0.000542772C17.4398 -0.000308808 17.6295 1.98573e-05 17.8193 0.000613707C18.0181 0.0010882 18.2169 0.000647891 18.4156 0.000354327C18.7494 1.41119e-05 19.0832 0.000461977 19.417 0.00135366C19.8027 0.00237197 20.1883 0.0020421 20.5739 0.0010119C20.9053 0.000162141 21.2367 4.3225e-05 21.5681 0.000532623C21.7659 0.000824013 21.9637 0.000864162 22.1615 0.000245114C22.3475 -0.000296316 22.5334 8.11468e-05 22.7194 0.00116093C22.7876 0.00140788 22.8558 0.0013381 22.9239 0.00092466C23.0171 0.000411503 23.1103 0.00116983 23.2036 0.00198752C23.2557 0.00205807 23.3078 0.00212862 23.3615 0.00220131C23.5995 0.0407593 23.7368 0.151166 23.8876 0.335486C23.9912 0.524579 24.0003 0.676774 23.9977 0.88675C23.998 0.925849 23.9983 0.964948 23.9986 1.00523C23.9993 1.13656 23.9986 1.26785 23.998 1.39918C23.9982 1.49416 23.9985 1.58914 23.9988 1.68412C23.9996 1.94536 23.9992 2.2066 23.9987 2.46784C23.9982 2.74948 23.9989 3.03112 23.9994 3.31276C24.0002 3.83269 24.0001 4.35261 23.9996 4.87254C23.9991 5.35283 23.999 5.83313 23.9992 6.31343C23.9993 6.34528 23.9993 6.37713 23.9993 6.40994C23.9993 6.53922 23.9994 6.66849 23.9995 6.79777C24 8.01073 23.9995 9.22368 23.9985 10.4366C23.9976 11.5145 23.9977 12.5923 23.9986 13.6702C23.9996 14.8809 24 16.0916 23.9994 17.3024C23.9994 17.4314 23.9993 17.5605 23.9992 17.6895C23.9992 17.7213 23.9992 17.7531 23.9992 17.7858C23.999 18.2658 23.9992 18.7458 23.9997 19.2258C24.0002 19.7716 24.0001 20.3174 23.9991 20.8631C23.9986 21.1417 23.9984 21.4203 23.999 21.6988C23.9996 21.9537 23.9993 22.2085 23.9983 22.4634C23.9981 22.5557 23.9982 22.6481 23.9986 22.7405C23.9992 22.8657 23.9986 22.9909 23.9977 23.1162C23.9982 23.1523 23.9986 23.1884 23.9991 23.2256C23.9957 23.4672 23.9385 23.6033 23.7873 23.7901C23.5853 23.9677 23.416 23.9833 23.1526 23.9855C23.1061 23.9859 23.1061 23.9859 23.0586 23.9864C22.956 23.9873 22.8534 23.9879 22.7509 23.9883C22.7158 23.9885 22.6807 23.9887 22.6445 23.9889C22.4587 23.9899 22.2729 23.9906 22.0872 23.991C21.8956 23.9915 21.704 23.9931 21.5125 23.995C21.3649 23.9962 21.2173 23.9966 21.0697 23.9968C20.9991 23.997 20.9285 23.9975 20.8579 23.9984C20.7589 23.9995 20.6599 23.9995 20.5609 23.9992C20.5047 23.9994 20.4484 23.9997 20.3905 24C20.1536 23.9652 20.0156 23.8566 19.8564 23.682C19.761 23.5463 19.7368 23.4694 19.7162 23.3064C19.7059 23.2255 19.7058 23.2255 19.6953 23.1429C19.6882 23.078 19.6812 23.013 19.6745 22.948C19.6685 22.892 19.6685 22.892 19.6625 22.8349C19.6282 22.5052 19.5978 22.1751 19.5674 21.845C19.557 21.7339 19.5467 21.6228 19.5363 21.5117C19.514 21.2735 19.4919 21.0353 19.4698 20.7972C19.4349 20.4205 19.3996 20.0439 19.3642 19.6672C19.3521 19.5381 19.34 19.4089 19.3279 19.2797C19.3233 19.2313 19.3233 19.2313 19.3187 19.1819C19.2843 18.8157 19.2501 18.4496 19.2158 18.0834C19.2112 18.0332 19.2112 18.0332 19.2064 17.9821C19.1556 17.4394 19.1052 16.8966 19.0548 16.3539C19.003 15.7955 18.9507 15.2372 18.8981 14.679C18.8686 14.3659 18.8393 14.0529 18.8106 13.7398C18.7835 13.4457 18.756 13.1517 18.728 12.8577C18.7179 12.7498 18.7079 12.6419 18.6981 12.534C18.6848 12.3867 18.6708 12.2395 18.6566 12.0923C18.6528 12.0496 18.6491 12.0069 18.6453 11.963C18.6152 11.661 18.5708 11.4032 18.3395 11.1887C18.1514 11.0631 17.9828 11.0236 17.7583 11.0659C17.5027 11.2076 17.3104 11.4081 17.1069 11.6155C17.0752 11.6472 17.0435 11.679 17.0109 11.7116C16.8264 11.898 16.6513 12.0899 16.48 12.2884C16.3665 12.417 16.2452 12.5367 16.1225 12.6564C15.9689 12.8081 15.8183 12.9595 15.6785 13.1242C15.516 13.3155 15.3381 13.4895 15.1598 13.6658C15.0315 13.7933 14.9077 13.9218 14.7905 14.0598C14.628 14.2511 14.4501 14.4251 14.2718 14.6014C14.1435 14.7289 14.0197 14.8574 13.9025 14.9954C13.74 15.1867 13.5621 15.3607 13.3838 15.537C13.2555 15.6645 13.1317 15.793 13.0145 15.931C12.852 16.1223 12.6741 16.2963 12.4958 16.4726C12.3675 16.6001 12.2437 16.7286 12.1265 16.8666C11.964 17.0579 11.7861 17.2319 11.6078 17.4082C11.4795 17.5357 11.3557 17.6642 11.2385 17.8022C11.0761 17.9935 10.8982 18.1675 10.7198 18.3438C10.5915 18.4713 10.4677 18.5998 10.3505 18.7378C10.1882 18.929 10.0104 19.1029 9.83216 19.2791C9.67372 19.4365 9.52467 19.5987 9.38 19.769C9.22142 19.9481 9.04906 20.1141 8.87832 20.2816C8.70356 20.2076 8.58404 20.0976 8.446 19.9687C8.29466 19.8285 8.14318 19.6888 7.9874 19.5535C7.84681 19.4312 7.70797 19.3071 7.56969 19.1822C7.43039 19.0564 7.29056 18.9313 7.14906 18.808C6.96702 18.6493 6.78789 18.4874 6.60867 18.3256C6.50905 18.2361 6.40875 18.1475 6.30781 18.0595C6.12576 17.9008 5.94663 17.739 5.76742 17.5771C5.63819 17.461 5.50752 17.3467 5.37654 17.2326C5.2242 17.0985 5.07424 16.9618 4.92415 16.8251C4.81178 16.7259 4.69633 16.6319 4.57855 16.5391C4.6076 16.3897 4.65854 16.2888 4.74469 16.164C4.7693 16.1281 4.79392 16.0922 4.81928 16.0552C4.84587 16.0171 4.87247 15.979 4.89987 15.9398C4.92728 15.9001 4.95469 15.8604 4.98292 15.8196C5.16968 15.5505 5.36083 15.2849 5.55563 15.0216C5.81253 14.6742 6.05967 14.3199 6.30781 13.9662C6.40023 13.8346 6.49272 13.703 6.5853 13.5715C6.60835 13.5388 6.63139 13.506 6.65514 13.4723C6.82463 13.232 6.99676 12.9937 7.16951 12.7558C7.37999 12.4657 7.5847 12.1723 7.78585 11.8757C7.9872 11.5789 8.19332 11.2867 8.4067 10.9984C8.63908 10.684 8.86336 10.3641 9.08788 10.0441C9.2047 9.87768 9.32194 9.71161 9.43915 9.54551C9.57897 9.34735 9.71872 9.14915 9.85814 8.95071C10.096 8.61232 10.3357 8.27533 10.5784 7.94036C10.8784 7.52602 11.1714 7.10687 11.464 6.68719C11.7728 6.2447 12.0845 5.80445 12.4011 5.36746C12.7012 4.95311 12.9941 4.53396 13.2867 4.11428C13.5955 3.67179 13.9073 3.23154 14.2238 2.79455C14.5235 2.3808 14.816 1.96228 15.1082 1.54323C15.7041 0.688767 15.7041 0.688766 15.9297 0.385371C15.9517 0.355642 15.9738 0.325913 15.9965 0.295283C16.1964 0.0873547 16.3725 0.00237603 16.6595 0.00198752Z" fill="#F3F3F3"/>
<path d="M9.92405 1.04029C10.1946 1.27887 10.2356 1.60828 10.3029 1.94684C10.313 1.99692 10.3232 2.047 10.3337 2.09859C10.3551 2.20444 10.3762 2.31033 10.3972 2.41625C10.4291 2.57665 10.462 2.73681 10.495 2.89697C10.7518 4.16664 10.7518 4.16664 10.5754 4.54588C10.3724 4.75457 10.2 4.83431 9.90652 4.8441C9.69941 4.80482 9.54115 4.75742 9.38785 4.60856C9.27043 4.42538 9.223 4.24373 9.17042 4.03422C9.1517 3.96172 9.13294 3.88922 9.11414 3.81673C9.09785 3.75376 9.08156 3.69079 9.06526 3.62782C8.68173 4.18372 8.30306 4.74278 7.92606 5.30313C7.86664 5.3914 7.80721 5.47966 7.74779 5.56792C7.62477 5.75062 7.50177 5.93333 7.37878 6.11605C7.11997 6.50053 6.86096 6.88487 6.60196 7.26921C6.46118 7.47812 6.32041 7.68704 6.17965 7.89596C6.15171 7.93743 6.12377 7.97889 6.09498 8.02161C5.92462 8.27445 5.75427 8.52729 5.58393 8.78014C5.46991 8.94938 5.35589 9.11862 5.24186 9.28786C5.18549 9.37154 5.12911 9.45521 5.07274 9.53889C4.75947 10.0039 4.44611 10.4688 4.13255 10.9336C4.10383 10.9761 4.07511 11.0187 4.04552 11.0626C3.90896 11.265 3.77238 11.4674 3.63577 11.6698C3.37235 12.0602 3.10967 12.4511 2.8493 12.8435C2.8921 12.8327 2.93489 12.8219 2.97898 12.8108C3.75199 12.6187 3.75199 12.6187 4.12214 12.8251C4.31907 12.9807 4.38058 13.1873 4.41498 13.4283C4.38593 13.6317 4.33648 13.8059 4.20466 13.9662C3.93088 14.1524 3.66474 14.2128 3.34223 14.274C3.291 14.2841 3.23978 14.2942 3.187 14.3046C3.07896 14.3258 2.97085 14.3467 2.8627 14.3673C2.69844 14.3988 2.53444 14.4313 2.37044 14.464C2.26499 14.4845 2.15953 14.505 2.05405 14.5254C1.98136 14.5399 1.98136 14.5399 1.90721 14.5546C1.14282 14.6983 1.14282 14.6983 0.819184 14.5451C0.525904 14.2731 0.464534 14.0076 0.391983 13.6238C0.381874 13.5726 0.371765 13.5213 0.361349 13.4686C0.340155 13.3603 0.319276 13.252 0.298693 13.1437C0.26737 12.9794 0.234822 12.8153 0.202116 12.6513C0.181595 12.5457 0.161145 12.44 0.140774 12.3344C0.126319 12.2618 0.126319 12.2618 0.111572 12.1877C-0.0396529 11.3789 -0.0396529 11.3789 0.126899 11.0395C0.317449 10.8329 0.45128 10.7455 0.737395 10.7267C0.979741 10.7307 1.13905 10.8085 1.31576 10.9752C1.4968 11.2689 1.55135 11.6229 1.63415 11.9547C1.66067 11.9148 1.68719 11.8748 1.71452 11.8337C2.04883 11.3307 2.38605 10.8298 2.7237 10.3291C2.78334 10.2406 2.84298 10.1521 2.90261 10.0637C3.02612 9.88043 3.14963 9.6972 3.27315 9.51399C3.53242 9.1294 3.79158 8.74473 4.05074 8.36007C4.19162 8.15097 4.33251 7.94187 4.4734 7.73278C4.52987 7.64896 4.58634 7.56515 4.64282 7.48133C4.75576 7.31371 4.86871 7.14608 4.98166 6.97845C5.00961 6.93697 5.03756 6.89549 5.06635 6.85275C5.12288 6.76886 5.17941 6.68496 5.23594 6.60106C5.37628 6.39277 5.51663 6.18447 5.65698 5.97617C5.92105 5.58423 6.18514 5.1923 6.44928 4.80041C6.57372 4.61578 6.69816 4.43114 6.82259 4.2465C6.88178 4.15869 6.94097 4.07088 7.00016 3.98307C7.08236 3.86113 7.16455 3.73917 7.24674 3.61722C7.27063 3.58179 7.29452 3.54635 7.31914 3.50984C7.48139 3.26904 7.64263 3.02759 7.80338 2.78578C7.7509 2.79416 7.69843 2.80254 7.64436 2.81118C6.87436 2.92477 6.87436 2.92477 6.58823 2.739C6.39399 2.56534 6.31323 2.40076 6.29612 2.13963C6.29926 1.94967 6.34211 1.82389 6.44802 1.66305C6.62459 1.49667 6.77415 1.43758 7.00904 1.38329C7.04126 1.37574 7.07349 1.36819 7.10669 1.36041C7.21411 1.33565 7.32173 1.31207 7.42948 1.28881C7.46754 1.28054 7.5056 1.27227 7.5448 1.26375C7.78992 1.21096 8.03549 1.16081 8.28148 1.11223C8.40913 1.08685 8.5366 1.0606 8.66408 1.03435C8.74662 1.01795 8.82917 1.00159 8.91173 0.98529C8.94912 0.977449 8.98652 0.969609 9.02505 0.961531C9.34179 0.900755 9.63114 0.893705 9.92405 1.04029Z" fill="#F3F3F3"/>
<path d="M3.7373 17.6151C3.92067 17.6907 4.05108 17.8169 4.19298 17.9513C4.24321 17.9982 4.29348 18.045 4.34378 18.0918C4.38022 18.1259 4.38022 18.1259 4.4174 18.1606C4.53132 18.266 4.64865 18.3674 4.76587 18.4692C4.87581 18.5654 4.98424 18.6632 5.09266 18.7612C5.23196 18.887 5.37179 19.0121 5.51329 19.1354C5.69533 19.2941 5.87446 19.456 6.05368 19.6179C6.1533 19.7074 6.2536 19.7959 6.35454 19.8839C6.53659 20.0426 6.71571 20.2045 6.89493 20.3663C6.99456 20.4558 7.09486 20.5444 7.1958 20.6324C7.2252 20.6582 7.2546 20.684 7.28489 20.7106C7.35951 20.7758 7.43457 20.8405 7.50981 20.905C7.55271 20.9424 7.5956 20.9798 7.6398 21.0183C7.6798 21.0528 7.71981 21.0873 7.76102 21.1229C7.85011 21.2172 7.85011 21.2172 7.85011 21.3575C7.66478 21.6286 7.40178 21.8558 7.16821 22.0855C7.0347 22.2175 6.91083 22.3515 6.7927 22.4978C6.5895 22.7371 6.29455 22.9414 5.98065 22.9948C5.51553 23.0306 5.11888 23.0151 4.74451 22.7163C4.66553 22.6453 4.58772 22.573 4.51101 22.4996C4.39282 22.3878 4.27044 22.2863 4.14332 22.1849C3.91852 22.0031 3.70687 21.8106 3.4967 21.6123C3.33513 21.4609 3.16814 21.323 2.99243 21.1879C2.67359 20.9302 2.45978 20.6132 2.3907 20.2041C2.32909 19.4332 2.79364 18.9061 3.2232 18.3168C3.24827 18.2823 3.27335 18.2478 3.29919 18.2123C3.44452 18.0127 3.59059 17.8137 3.7373 17.6151Z" fill="#F3F3F3"/>
</svg>
