<svg width="24" height="26" viewBox="0 0 24 26" fill="none" xmlns="http://www.w3.org/2000/svg">
<path d="M8.49119 0.0264523C8.58674 0.0257403 8.58674 0.0257403 8.68422 0.0250139C8.78956 0.0246613 8.78956 0.0246613 8.89703 0.0243015C8.97073 0.0238502 9.04443 0.0233989 9.12037 0.0229339C9.3652 0.0214865 9.61004 0.020642 9.85488 0.0198552C9.93915 0.0195594 10.0234 0.0192626 10.1077 0.0189649C10.4583 0.0177711 10.8089 0.0167371 11.1595 0.0161159C11.6619 0.0152199 12.1644 0.0133895 12.6668 0.0102438C13.0201 0.00810756 13.3733 0.00703006 13.7266 0.0067383C13.9376 0.00653672 14.1486 0.00587392 14.3595 0.00408359C14.5581 0.00242254 14.7567 0.00207544 14.9553 0.00272506C15.0627 0.00274303 15.1701 0.00139338 15.2775 0C15.8042 0.00375917 15.8042 0.00375918 16.0112 0.168031C16.1815 0.362004 16.1994 0.449633 16.2025 0.700439C16.2038 0.757103 16.2051 0.813767 16.2065 0.872148C16.2089 0.990419 16.2106 1.1087 16.2117 1.22699C16.2271 1.79402 16.3554 2.26312 16.7426 2.69218C17.1469 3.03215 17.6414 3.23178 18.1196 3.44972C18.1983 3.48589 18.2771 3.52208 18.3558 3.55828C18.7693 3.74795 19.1838 3.93517 19.5991 4.12082C19.6397 4.13897 19.6803 4.15713 19.7221 4.17583C19.916 4.26248 20.11 4.34887 20.3043 4.43479C20.6831 4.60287 21.0584 4.77653 21.4301 4.95942C21.4667 4.97741 21.5033 4.9954 21.541 5.01394C22.5683 5.52413 23.3405 6.28315 23.742 7.35905C24.0255 8.20965 23.995 9.08266 23.9931 9.9676C23.9928 10.1762 23.9935 10.3849 23.9941 10.5935C23.9951 11.0009 23.9951 11.4083 23.9948 11.8157C23.9946 12.1468 23.9947 12.4778 23.995 12.8089C23.995 12.8561 23.9951 12.9034 23.9951 12.9521C23.9952 13.0482 23.9953 13.1442 23.9954 13.2402C23.9961 14.1384 23.9958 15.0366 23.9952 15.9347C23.9946 16.7564 23.9953 17.578 23.9967 18.3996C23.998 19.2444 23.9986 20.0892 23.9982 20.934C23.998 21.4078 23.9981 21.8817 23.9991 22.3555C23.9999 22.7584 24 23.1613 23.999 23.5641C23.9985 23.7696 23.9984 23.9751 23.9993 24.1806C24.0002 24.4033 23.9994 24.6259 23.9984 24.8486C23.9989 24.9136 23.9994 24.9786 24 25.0455C23.9968 25.3889 23.9863 25.6052 23.7465 25.8631C23.5426 25.9971 23.4479 25.9869 23.2052 25.986C23.1675 25.986 23.1298 25.986 23.091 25.986C22.9665 25.986 22.8421 25.9851 22.7177 25.9842C22.6314 25.984 22.545 25.9839 22.4587 25.9838C22.2316 25.9833 22.0045 25.9823 21.7774 25.981C21.5456 25.9799 21.3138 25.9794 21.082 25.9788C20.6272 25.9777 20.1725 25.9758 19.7178 25.9735C19.7004 24.9755 19.6891 23.9776 19.6828 22.9795C19.6826 22.9421 19.6823 22.9048 19.6821 22.8663C19.6642 20.0495 19.8396 17.2831 20.192 14.4852C20.1978 14.4394 20.2035 14.3935 20.2094 14.3462C20.22 14.2621 20.2308 14.1781 20.2418 14.094C20.3151 13.6397 20.3151 13.6397 20.1654 13.225C19.973 13.0844 19.7821 13.0865 19.5499 13.1146C19.3776 13.2013 19.3776 13.2013 19.2701 13.3905C19.2349 13.5365 19.2349 13.5365 19.214 13.7027C19.2048 13.767 19.1957 13.8314 19.1862 13.8977C19.177 13.9671 19.1677 14.0365 19.1582 14.108C19.144 14.2126 19.144 14.2126 19.1295 14.3193C19.0446 14.9572 18.9726 15.5966 18.9029 16.2362C18.8972 16.289 18.8914 16.3418 18.8854 16.3961C18.7198 17.9243 18.6309 19.4484 18.6092 20.9845C18.6081 21.0557 18.6071 21.1268 18.6061 21.2001C18.5855 22.791 18.5969 24.3826 18.5987 25.9735C14.2409 25.9735 9.88317 25.9735 5.39336 25.9735C5.39682 24.4368 5.39682 24.4368 5.40036 22.8691C5.3982 22.238 5.3958 21.6071 5.38637 20.9761C5.3858 20.9377 5.38523 20.8993 5.38465 20.8598C5.35947 19.2004 5.24215 17.5557 5.06463 15.905C5.05833 15.8456 5.05202 15.7862 5.04553 15.725C5.00398 15.3341 4.9603 14.9436 4.91469 14.5531C4.90902 14.5036 4.90336 14.4541 4.89752 14.4032C4.88154 14.2656 4.86465 14.1282 4.84739 13.9908C4.84285 13.9512 4.83831 13.9116 4.83363 13.8708C4.80149 13.6266 4.74041 13.4353 4.61 13.225C4.40289 13.0888 4.2954 13.0976 4.05045 13.1146C3.90761 13.1603 3.8487 13.1933 3.76391 13.3148C3.69483 13.4986 3.7135 13.6473 3.72848 13.8424C3.73288 13.9008 3.73288 13.9008 3.73737 13.9603C3.76899 14.3546 3.81871 14.7465 3.86984 15.1387C4.20453 17.7431 4.32072 20.323 4.30574 22.945C4.30553 22.9828 4.30532 23.0206 4.3051 23.0596C4.29956 24.0309 4.28922 25.0022 4.27427 25.9735C3.77571 25.9786 3.27716 25.9825 2.77858 25.9849C2.54705 25.986 2.31555 25.9876 2.08404 25.9901C1.86055 25.9925 1.63708 25.9938 1.41358 25.9944C1.32838 25.9948 1.24318 25.9956 1.15799 25.9968C1.0385 25.9984 0.919073 25.9986 0.799569 25.9985C0.731602 25.999 0.663635 25.9995 0.593609 26C0.375895 25.9679 0.287099 25.906 0.133618 25.7527C0.0236971 25.5778 0.00766202 25.4443 0.00746937 25.2401C0.00714303 25.1806 0.00681604 25.1211 0.00647982 25.0598C0.00669129 24.9945 0.00690314 24.9291 0.00712102 24.8618C0.00690696 24.7924 0.00669268 24.723 0.00647213 24.6515C0.00589541 24.4586 0.00601965 24.2657 0.00625868 24.0729C0.00639648 23.8649 0.00589261 23.6569 0.00547318 23.4489C0.00475887 23.0413 0.00465931 22.6336 0.00479014 22.2259C0.00488989 21.8943 0.00479281 21.5626 0.00455449 21.231C0.00452119 21.1838 0.0044872 21.1366 0.00445289 21.0879C0.00438509 20.9921 0.00431775 20.8962 0.00424969 20.8003C0.00364064 19.9003 0.00376181 19.0003 0.00410283 18.1003C0.00439153 17.2784 0.00376368 16.4564 0.00269833 15.6344C0.00161204 14.7897 0.00115311 13.9451 0.00136298 13.1004C0.00146975 12.6265 0.00133243 12.1525 0.000539067 11.6786C-0.000130186 11.2747 -0.000203053 10.8708 0.000471616 10.4669C0.00079943 10.2612 0.000867259 10.0554 0.000191569 9.84963C-0.00464901 8.26785 0.136774 6.98113 1.27719 5.78488C1.76055 5.33631 2.33747 5.05863 2.93135 4.78114C2.99271 4.75239 3.05406 4.72364 3.11728 4.69402C3.81914 4.36556 4.52292 4.04125 5.23074 3.72545C5.27237 3.70686 5.314 3.68828 5.35689 3.66913C5.55726 3.57975 5.75775 3.49068 5.95847 3.40207C7.00136 2.96094 7.00136 2.96094 7.64685 2.08317C7.72281 1.86526 7.75013 1.6773 7.75133 1.44613C7.75241 1.38857 7.75349 1.33102 7.75461 1.27172C7.75649 1.1513 7.75752 1.03085 7.75767 0.910414C7.76936 0.418157 7.76936 0.418157 7.93493 0.217326C8.13611 0.0399455 8.22701 0.027914 8.49119 0.0264523ZM9.08637 7.43018C9.02595 7.60897 9.02345 7.73845 9.02337 7.92651C9.02316 7.99472 9.02294 8.06293 9.02272 8.1332C9.02271 8.18793 9.02271 8.18793 9.02269 8.24376C9.0225 8.39832 9.0213 8.55287 9.02016 8.70743C9.01804 8.99481 9.01628 9.28217 9.0164 9.56955C9.01645 9.76979 9.01512 9.96999 9.01294 10.1702C9.01208 10.2821 9.01265 10.3941 9.01326 10.506C8.99683 11.7602 8.24582 12.6389 7.46369 13.5561C7.34401 13.6966 7.34401 13.6966 7.22444 13.8372C7.15752 13.9157 7.09019 13.994 7.02282 14.0722C6.74861 14.3863 6.74861 14.3863 6.65234 14.7737C6.68311 15.0126 6.73116 15.1013 6.90414 15.2669C7.08658 15.3569 7.20506 15.3479 7.40773 15.3221C7.82315 15.0853 8.10216 14.6385 8.38809 14.2686C8.47099 14.163 8.55589 14.0594 8.64179 13.9562C9.82106 12.5391 10.2364 11.3404 10.2274 9.49823C10.2267 9.35124 10.2266 9.20435 10.2274 9.05737C10.2284 8.84322 10.2283 8.6291 10.2278 8.41495C10.2281 8.34952 10.2284 8.2841 10.2288 8.21669C10.2255 7.82966 10.2141 7.51253 9.93968 7.21288C9.57056 7.04095 9.34511 7.16891 9.08637 7.43018ZM13.9544 7.3198C13.7449 7.67647 13.7622 8.02476 13.7643 8.42896C13.7641 8.49885 13.764 8.56875 13.7638 8.64076C13.7637 8.78852 13.7639 8.93623 13.7647 9.08398C13.7656 9.27106 13.7651 9.45809 13.7641 9.64516C13.7633 9.82614 13.7639 10.0071 13.7643 10.1881C13.7639 10.2541 13.7636 10.3201 13.7632 10.3882C13.7685 11.0209 13.8682 11.6378 14.1573 12.2074C14.1767 12.2467 14.1961 12.286 14.2161 12.3265C14.4102 12.7079 14.6439 13.0504 14.9057 13.3905C14.9415 13.4371 14.9415 13.4371 14.978 13.4846C15.3481 13.9634 15.7396 14.4235 16.1367 14.8806C16.1727 14.9231 16.2088 14.9655 16.246 15.0093C16.4571 15.2646 16.4571 15.2646 16.7697 15.3394C17.0082 15.3194 17.089 15.2658 17.2558 15.1014C17.352 14.9116 17.3607 14.7518 17.3117 14.5495C17.0643 14.1335 16.7132 13.7773 16.3938 13.4139C15.6142 12.5202 15.0022 11.6556 15.0005 10.4413C15.0003 10.3252 14.9994 10.2092 14.9982 10.0932C14.9951 9.76361 14.9934 9.43401 14.992 9.1044C14.9912 8.90212 14.9895 8.69987 14.9873 8.4976C14.9866 8.42081 14.9863 8.34402 14.9863 8.26723C14.9863 8.15988 14.9852 8.05252 14.984 7.94517C14.9838 7.8842 14.9835 7.82324 14.9832 7.76042C14.9587 7.57371 14.9058 7.47082 14.7938 7.3198C14.6508 7.21217 14.552 7.15986 14.3741 7.13354C14.1917 7.16052 14.098 7.20428 13.9544 7.3198Z" fill="#F3F3F3"/>
<path d="M11.8841 6.08511C11.9652 6.13553 12.0173 6.20442 12.0792 6.29523C12.0988 6.32396 12.1184 6.35269 12.1387 6.38229C12.1692 6.42744 12.1692 6.42744 12.2004 6.47351C12.2204 6.50284 12.2405 6.53217 12.2612 6.56239C12.3464 6.68757 12.4299 6.81316 12.5089 6.9468C12.5966 7.09409 12.69 7.23189 12.7849 7.36936C12.8024 7.39494 12.82 7.42051 12.8381 7.44687C12.8936 7.52761 12.9491 7.60823 13.0047 7.68885C13.0425 7.74397 13.0804 7.79909 13.1183 7.85421C13.2106 7.98851 13.3029 8.12272 13.3953 8.25685C13.3623 8.35755 13.3297 8.4274 13.275 8.50587C13.2606 8.52654 13.2463 8.54721 13.2316 8.56851C13.2167 8.5897 13.2018 8.61089 13.1864 8.63273C13.1713 8.65443 13.1562 8.67614 13.1407 8.69851C13.1036 8.75191 13.0663 8.80515 13.029 8.85825C12.6909 8.61162 12.4719 8.11222 12.2047 7.72227C12.2047 11.449 12.2047 15.1757 12.2047 19.0153C12.4616 18.6404 12.7185 18.2656 12.9832 17.8793C13.0604 17.9357 13.0962 17.9693 13.1538 18.055C13.1751 18.0863 13.1751 18.0863 13.1968 18.1183C13.2113 18.1401 13.2258 18.1618 13.2408 18.1842C13.2557 18.2062 13.2705 18.2282 13.2859 18.2509C13.3225 18.3051 13.359 18.3594 13.3953 18.4139C13.3636 18.5184 13.3268 18.5888 13.2712 18.6689C13.2552 18.6921 13.2393 18.7153 13.2228 18.7392C13.2055 18.764 13.1882 18.7888 13.1704 18.8143C13.1525 18.8402 13.1347 18.8661 13.1163 18.8927C13.0592 18.9755 13.0019 19.0581 12.9445 19.1406C12.8877 19.2227 12.8308 19.3048 12.774 19.3871C12.7387 19.4382 12.7033 19.4892 12.6679 19.5401C12.5747 19.6748 12.4863 19.8129 12.4007 19.9579C12.354 20.036 12.3046 20.1095 12.2541 20.1826C12.235 20.2104 12.2159 20.2382 12.1962 20.2668C12.1768 20.2949 12.1574 20.3229 12.1374 20.3518C12.1174 20.3809 12.0973 20.4099 12.0767 20.4399C12.0278 20.5108 11.9789 20.5817 11.9299 20.6525C11.8511 20.603 11.8001 20.5381 11.7398 20.4497C11.7212 20.4224 11.7026 20.3952 11.6834 20.3672C11.6641 20.3387 11.6449 20.3102 11.625 20.2808C11.6061 20.253 11.5871 20.2253 11.5675 20.1967C11.4852 20.0758 11.4048 19.9542 11.3286 19.8251C11.2391 19.6749 11.1437 19.5345 11.047 19.3943C11.0199 19.3549 11.0199 19.3549 10.9922 19.3146C10.9351 19.2315 10.8779 19.1484 10.8208 19.0654C10.7818 19.0087 10.7428 18.952 10.7038 18.8953C10.6088 18.757 10.5137 18.6188 10.4186 18.4807C10.4516 18.38 10.4842 18.3102 10.539 18.2317C10.5533 18.211 10.5676 18.1904 10.5824 18.1691C10.5973 18.1479 10.6122 18.1267 10.6275 18.1049C10.6426 18.0832 10.6577 18.0614 10.6733 18.0391C10.7104 17.9857 10.7476 17.9324 10.785 17.8793C11.123 18.126 11.342 18.6254 11.6093 19.0153C11.6093 15.2886 11.6093 11.5619 11.6093 7.72227C11.3524 8.09714 11.0955 8.47202 10.8308 8.85825C10.7535 8.80191 10.7178 8.76833 10.6601 8.68258C10.6459 8.66169 10.6318 8.64081 10.6172 8.61928C10.6027 8.59753 10.5881 8.57578 10.5732 8.55337C10.5583 8.53137 10.5434 8.50936 10.5281 8.48668C10.4915 8.43249 10.455 8.37815 10.4186 8.32367C10.4522 8.21027 10.4954 8.1369 10.5553 8.05028C10.5741 8.02306 10.5928 7.99583 10.6121 7.96779C10.6324 7.93862 10.6527 7.90945 10.6736 7.8794C10.7056 7.83306 10.7375 7.78671 10.7694 7.74036C10.8142 7.67544 10.8591 7.61068 10.904 7.54592C10.9821 7.43323 11.0601 7.32037 11.138 7.2074C11.1795 7.14735 11.2209 7.0874 11.2625 7.02755C11.3628 6.88232 11.4598 6.73532 11.5513 6.57821C11.6125 6.47571 11.6789 6.38091 11.7453 6.28557C11.7655 6.25631 11.7655 6.25631 11.7861 6.22645C11.8187 6.17926 11.8514 6.13217 11.8841 6.08511Z" fill="#2B2B2B"/>
</svg>
