<svg width="24" height="24" viewBox="0 0 24 24" fill="none" xmlns="http://www.w3.org/2000/svg">
<path d="M12.2161 2.90687C12.6941 3.32816 12.8144 4.00219 12.9818 4.59003C13.003 4.66427 13.0243 4.73851 13.0456 4.81275C13.0898 4.96754 13.1338 5.12239 13.1776 5.27728C13.2334 5.47416 13.2902 5.67072 13.3472 5.86723C13.3914 6.0202 13.4349 6.17338 13.4782 6.32662C13.4988 6.39912 13.5196 6.47155 13.5408 6.54388C13.6986 7.08448 13.8371 7.61851 13.6022 8.15428C13.4115 8.48961 13.1692 8.7027 12.8039 8.82771C12.2503 8.8955 11.8148 8.77187 11.3109 8.55434C11.2496 8.52903 11.1883 8.50373 11.1252 8.47766C11.0012 8.4264 10.8773 8.37464 10.7537 8.32238C10.4235 8.18407 10.0906 8.05275 9.75773 7.92091C9.40865 8.93312 9.06267 9.94633 8.72376 10.962C8.71166 10.9982 8.69955 11.0345 8.68709 11.0719C8.56553 11.4362 8.44416 11.8006 8.32302 12.1651C8.28839 12.2693 8.25372 12.3734 8.21904 12.4776C8.17616 12.6064 8.13335 12.7353 8.09061 12.8642C8.07161 12.9213 8.0526 12.9783 8.03302 13.0371C8.01641 13.0872 7.9998 13.1372 7.98268 13.1887C7.94071 13.3083 7.94071 13.3083 7.88727 13.415C7.93907 13.3873 7.99088 13.3596 8.04425 13.3311C9.37434 12.6341 10.8143 12.3957 12.2734 12.848C13.0782 13.1107 13.7064 13.5107 14.3537 14.0551C14.4426 14.1265 14.5316 14.1977 14.6209 14.2685C14.6462 14.2214 14.6715 14.1743 14.6975 14.1258C14.9357 13.6908 15.195 13.3045 15.5294 12.935C15.57 12.8901 15.6106 12.8452 15.6524 12.7989C16.4025 12.011 17.3603 11.4886 18.4153 11.228C18.4847 11.2101 18.4847 11.2101 18.5556 11.1918C19.9886 10.8883 21.5132 11.2064 22.7441 11.9748C23.757 12.6634 23.757 12.6634 23.9732 13.095C23.9787 13.2114 23.9807 13.328 23.9811 13.4446C23.9813 13.4809 23.9815 13.5172 23.9817 13.5546C23.9823 13.6769 23.9825 13.7991 23.9827 13.9214C23.983 14.0089 23.9834 14.0963 23.9838 14.1837C23.9847 14.4217 23.9853 14.6596 23.9857 14.8975C23.986 15.0461 23.9863 15.1947 23.9866 15.3432C23.9876 15.8077 23.9884 16.2723 23.9889 16.7368C23.9894 17.2735 23.9908 17.8103 23.9929 18.347C23.9946 18.7616 23.9953 19.1761 23.9955 19.5906C23.9956 19.8384 23.9961 20.0861 23.9975 20.3339C23.9987 20.5669 23.9989 20.7999 23.9984 21.0329C23.9984 21.1185 23.9987 21.2041 23.9994 21.2897C24.0004 21.4064 24 21.5231 23.9993 21.6398C23.9994 21.7051 23.9996 21.7705 23.9997 21.8378C23.9681 22.0352 23.916 22.0957 23.7595 22.2163C23.6203 22.2769 23.6203 22.2769 23.4593 22.3252C23.3981 22.3438 23.3369 22.3623 23.2739 22.3813C23.2071 22.4006 23.1403 22.4198 23.0714 22.4396C23.0367 22.4498 23.002 22.46 22.9662 22.4704C20.8321 23.0943 18.6456 23.5091 16.4379 23.7632C16.3997 23.7677 16.3615 23.7722 16.3221 23.7768C13.8054 24.0723 11.1058 24.0765 8.58925 23.7767C8.46902 23.7624 8.34872 23.7489 8.2284 23.7354C6.53504 23.5439 4.87431 23.2349 3.22114 22.823C3.17187 22.8108 3.1226 22.7985 3.07183 22.7859C2.52035 22.6479 1.97534 22.4988 1.43477 22.3228C1.28702 22.2777 1.14548 22.2443 0.993284 22.2196C0.648941 22.1488 0.399707 21.9225 0.194998 21.6462C-0.14659 21.0986 0.0495674 20.2729 0.121516 19.6559C0.126253 19.6144 0.13099 19.5729 0.135871 19.5302C0.287876 18.2053 0.517474 16.8981 0.832959 15.602C0.846289 15.5471 0.859619 15.4922 0.873354 15.4356C1.76317 11.8346 3.37425 8.4392 5.52012 5.41829C5.70835 5.15318 5.89214 4.88579 6.07025 4.61378C6.17592 4.45291 6.2827 4.2929 6.3909 4.13371C6.42176 4.0875 6.45263 4.0413 6.48442 3.99369C6.96931 3.48283 7.57387 3.26795 8.25134 3.15357C8.31257 3.14283 8.37379 3.13209 8.43687 3.12103C8.57171 3.09754 8.70659 3.07436 8.84152 3.05145C9.03798 3.01805 9.23415 2.98316 9.4303 2.94802C9.59999 2.91777 9.76978 2.88818 9.93962 2.85873C10.0219 2.84438 10.1042 2.82982 10.1865 2.81504C11.7527 2.53492 11.7527 2.53492 12.2161 2.90687Z" fill="#F3F3F3"/>
<path d="M19.2136 9.86771C19.2747 9.86874 19.3358 9.86977 19.3987 9.87083C19.9408 9.79623 20.2706 9.41101 20.6373 9.04176C20.6961 8.98326 20.7548 8.92479 20.8137 8.86635C20.9364 8.7442 21.0587 8.62167 21.1807 8.49887C21.3364 8.34223 21.4931 8.18657 21.65 8.03117C21.7715 7.91075 21.8924 7.78981 22.0131 7.66872C22.0707 7.61115 22.1284 7.55373 22.1862 7.49648C22.5886 7.09759 22.9258 6.7391 22.9712 6.15051C22.9414 5.70404 22.7519 5.3976 22.4234 5.09703C22.1193 4.84977 21.7733 4.84622 21.3928 4.85533C21.0494 4.90434 20.7953 5.06854 20.553 5.31039C20.5528 5.24738 20.5526 5.18437 20.5524 5.11945C20.5504 4.52607 20.5473 3.9327 20.5431 3.33933C20.541 3.03426 20.5393 2.7292 20.5385 2.42413C20.5377 2.12979 20.5358 1.83548 20.5333 1.54116C20.5325 1.42878 20.5321 1.3164 20.532 1.20403C20.5319 1.04679 20.5305 0.889624 20.5287 0.732402C20.5291 0.662477 20.5291 0.662477 20.5295 0.591139C20.526 0.387486 20.5236 0.277383 20.4044 0.107466C20.278 0.0245658 20.2179 0.00272557 20.0686 0.00203805C20.0055 0.00102921 20.0055 0.00102921 19.9411 0C19.8961 0.000431897 19.8511 0.000863794 19.8048 0.00130878C19.7581 0.00110465 19.7115 0.000900518 19.6635 0.000690202C19.565 0.00054521 19.4665 0.00093753 19.3681 0.00182969C19.2174 0.00297182 19.0669 0.00184016 18.9163 0.000475328C18.8206 0.000616323 18.7248 0.000889696 18.6291 0.00130878C18.5841 0.000876882 18.5391 0.000444985 18.4927 0C18.1816 0.00497205 18.1816 0.00497204 18.0145 0.128098C17.8518 0.361366 17.8718 0.598653 17.8699 0.871679C17.8694 0.919567 17.8688 0.967455 17.8683 1.01679C17.8666 1.17524 17.8653 1.33369 17.864 1.49214C17.8629 1.60194 17.8617 1.71174 17.8606 1.82153C17.8577 2.11065 17.855 2.39977 17.8524 2.68889C17.8497 2.98386 17.8468 3.27883 17.8438 3.57379C17.8381 4.15266 17.8327 4.73152 17.8274 5.31039C17.8019 5.2881 17.7764 5.26581 17.7501 5.24285C17.7165 5.21377 17.6829 5.1847 17.6483 5.15475C17.6151 5.12585 17.5818 5.09696 17.5476 5.0672C17.2838 4.8521 16.9283 4.81117 16.596 4.8397C16.248 4.90834 15.9338 5.08987 15.7088 5.36415C15.4986 5.70142 15.4351 6.06089 15.496 6.45285C15.6489 7.00693 16.1797 7.40959 16.5716 7.80346C16.611 7.84317 16.611 7.84317 16.6513 7.8837C16.7902 8.02342 16.9292 8.16297 17.0684 8.30239C17.2113 8.44566 17.3536 8.58954 17.4958 8.73355C17.6061 8.84506 17.7169 8.9561 17.8279 9.06701C17.8805 9.11984 17.933 9.17286 17.9853 9.22606C18.3714 9.61829 18.641 9.86706 19.2136 9.86771Z" fill="#F3F3F3"/>
</svg>
