<svg width="24" height="24" viewBox="0 0 24 24" fill="none" xmlns="http://www.w3.org/2000/svg">
<path d="M23.718 0.098791C23.8831 0.251389 23.967 0.368024 23.9933 0.5946C23.9934 0.653363 23.9935 0.712127 23.9936 0.772671C23.994 0.821967 23.994 0.821967 23.9944 0.872258C23.995 0.982095 23.9947 1.09191 23.9944 1.20174C23.9946 1.28061 23.995 1.35947 23.9954 1.43833C23.9962 1.65235 23.9961 1.86637 23.9959 2.08039C23.9957 2.2591 23.996 2.43781 23.9963 2.61652C23.997 3.03813 23.9969 3.45973 23.9963 3.88135C23.9958 4.31623 23.9965 4.75109 23.9977 5.18597C23.9988 5.55944 23.9991 5.9329 23.9988 6.30637C23.9986 6.52938 23.9988 6.75239 23.9996 6.9754C24.0003 7.18512 24.0001 7.39483 23.9992 7.60455C23.999 7.68146 23.9992 7.75837 23.9997 7.83529C24.0003 7.94041 23.9998 8.04546 23.9989 8.15058C23.9989 8.20936 23.9989 8.26814 23.9989 8.3287C23.9653 8.55779 23.8663 8.6977 23.697 8.85233C23.5906 8.91553 23.4963 8.94821 23.3767 8.97954C23.3313 8.99163 23.2859 9.00372 23.2391 9.01617C23.1891 9.02896 23.1392 9.04175 23.0878 9.05493C23.0344 9.06893 22.9811 9.08294 22.9261 9.09736C22.7456 9.14446 22.5649 9.19079 22.3841 9.23686C22.3525 9.24492 22.321 9.25297 22.2884 9.26128C21.7896 9.3886 21.2903 9.51379 20.7909 9.63852C20.6309 9.6785 20.4709 9.71854 20.3109 9.75858C19.934 9.85287 19.5572 9.94705 19.1803 10.0412C18.7922 10.1381 18.4041 10.2352 18.016 10.3324C17.6809 10.4164 17.3457 10.5002 17.0105 10.584C16.811 10.6338 16.6116 10.6836 16.4122 10.7336C16.2258 10.7804 16.0394 10.8269 15.8529 10.8734C15.7844 10.8905 15.716 10.9076 15.6477 10.9248C15.5546 10.9482 15.4614 10.9713 15.3682 10.9945C15.29 11.014 15.29 11.014 15.2102 11.034C15.0823 11.0615 15.0823 11.0615 14.9419 11.0615C14.9412 11.1042 14.9406 11.1468 14.9399 11.1908C14.8693 13.1083 13.9049 14.9244 12.5548 16.2549C12.4311 16.364 12.3046 16.4672 12.175 16.5692C12.0245 16.6882 11.8786 16.8117 11.7328 16.9362C11.5198 17.1173 11.3038 17.2935 11.0846 17.4672C10.9418 17.5823 10.8018 17.7005 10.6621 17.8193C10.4732 17.9799 10.2836 18.1391 10.0916 18.296C10.0505 18.3296 10.0095 18.3632 9.96712 18.3978C9.8775 18.4703 9.78737 18.5423 9.69689 18.6138C9.65049 18.6508 9.60409 18.6877 9.55629 18.7258C9.51424 18.7589 9.47218 18.7921 9.42885 18.8262C9.28358 18.9601 9.2369 19.0437 9.22079 19.2409C9.22145 19.2919 9.22211 19.3429 9.2228 19.3955C9.22361 19.4824 9.22361 19.4824 9.22444 19.5711C9.22812 19.7056 9.23711 19.8388 9.24894 19.9728C9.30367 20.6111 9.22955 21.0924 8.81928 21.612C8.43859 22.0461 7.978 22.3556 7.40614 22.4776C7.27344 22.4796 7.14148 22.4753 7.00882 22.4714C6.32202 22.4592 5.94255 22.6518 5.40486 23.0571C4.92086 23.4049 4.32324 23.6213 3.75527 23.7876C3.70471 23.8024 3.70471 23.8024 3.65313 23.8176C3.12417 23.9649 2.59589 23.9938 2.04977 23.9981C2.00232 23.9989 2.00232 23.9989 1.9539 23.9996C1.36042 24.0068 0.663123 23.9152 0.215564 23.4796C0.0521609 23.2889 0.00366769 23.1749 0.0020112 22.9279C0.0013475 22.8831 0.000683807 22.8384 0 22.7923C0.0111815 22.66 0.032021 22.5878 0.104399 22.4776C0.339046 22.2957 0.581149 22.2031 0.859146 22.1091C2.10251 21.6857 2.98061 20.8258 3.82613 19.8434C3.91497 19.7419 4.00945 19.6473 4.10631 19.5534C4.2668 19.3951 4.41619 19.2314 4.56286 19.0605C4.67851 18.9304 4.80287 18.8099 4.92688 18.6878C5.04501 18.5679 5.15372 18.441 5.2633 18.3133C5.37562 18.1875 5.49623 18.0713 5.61873 17.9555C5.93822 17.6128 6.13952 17.2638 6.32375 16.8339C6.34962 16.7748 6.37554 16.7156 6.40151 16.6566C6.45763 16.5286 6.51337 16.4004 6.56882 16.2721C6.65993 16.0613 6.75188 15.8509 6.84392 15.6405C6.97776 15.3343 7.11123 15.0279 7.24451 14.7215C7.45236 14.2438 7.66164 13.7667 7.87127 13.2898C7.88871 13.2501 7.90615 13.2104 7.92412 13.1695C8.01252 12.9684 8.10095 12.7672 8.18938 12.5661C8.34775 12.2059 8.50596 11.8456 8.66419 11.4853C8.734 11.3263 8.80382 11.1673 8.87364 11.0084C9.01721 10.6815 9.16078 10.3546 9.30433 10.0277C9.3414 9.94324 9.37848 9.85882 9.41556 9.77441C9.50586 9.56884 9.59608 9.36323 9.68613 9.15755C9.83593 8.81557 9.98627 8.47397 10.1412 8.13426C10.4157 7.53442 10.4157 7.53442 10.6006 6.90336C10.6736 6.56756 10.7971 6.32409 11.0102 6.05535C11.0371 6.02133 11.0639 5.98732 11.0916 5.95227C11.3967 5.61 11.8227 5.39441 12.2694 5.30933C12.7454 5.19149 13.1732 4.94561 13.6084 4.72555C13.7097 4.67486 13.811 4.62421 13.9123 4.57361C14.1296 4.46495 14.3467 4.35596 14.5637 4.24665C14.8776 4.08855 15.1917 3.93109 15.506 3.77378C16.0161 3.51839 16.526 3.26252 17.0358 3.00632C17.5303 2.75776 18.0249 2.50939 18.5197 2.26129C18.5502 2.24598 18.5808 2.23067 18.6122 2.2149C18.9454 2.04782 19.2787 1.88077 19.6119 1.71373C19.7002 1.66946 19.7886 1.62518 19.8769 1.58091C19.9351 1.55173 19.9933 1.52255 20.0515 1.49337C20.4219 1.30773 20.7922 1.12192 21.1623 0.935935C21.3741 0.829558 21.5859 0.723249 21.7977 0.616951C21.8961 0.567511 21.9946 0.518038 22.093 0.46853C22.2269 0.401166 22.3609 0.333915 22.4949 0.26669C22.5342 0.246897 22.5734 0.227104 22.6139 0.206711C22.6497 0.188777 22.6855 0.170843 22.7224 0.152366C22.7688 0.129055 22.7688 0.129055 22.8161 0.105274C23.1039 -0.0290444 23.4327 -0.0387369 23.718 0.098791Z" fill="#F3F3F3"/>
<path d="M7.40358 9.21684C7.59796 9.52487 7.68512 9.88678 7.78713 10.2267C7.81465 10.3181 7.84283 10.4094 7.87108 10.5006C7.88897 10.5595 7.90683 10.6183 7.92463 10.6772C7.9406 10.7298 7.95656 10.7824 7.973 10.8366C8.04106 11.1133 8.03493 11.3322 7.88681 11.5708C7.6948 11.7724 7.48042 11.8539 7.20483 11.9151C7.16869 11.9236 7.13255 11.9322 7.09531 11.9409C7.01933 11.9587 6.94323 11.976 6.86702 11.993C6.75124 12.0189 6.63606 12.0465 6.52083 12.0742C6.44651 12.0913 6.37217 12.1083 6.2978 12.1253C6.2638 12.1335 6.22981 12.1417 6.19478 12.1501C5.93197 12.2069 5.67625 12.2082 5.42387 12.077C5.23259 11.9472 5.13091 11.8108 5.05038 11.6033C5.01488 11.3303 5.12679 11.1375 5.2791 10.9256C5.32091 10.8997 5.32091 10.8997 5.36356 10.8732C5.31286 10.8432 5.26216 10.8132 5.20992 10.7822C5.02055 10.67 4.83162 10.557 4.6428 10.4438C4.56127 10.395 4.47963 10.3465 4.39787 10.2981C4.27985 10.2283 4.16227 10.1577 4.04475 10.0871C4.00856 10.0658 3.97236 10.0446 3.93507 10.0228C3.65822 9.85488 3.39227 9.66396 3.28959 9.35631C3.28098 9.09678 3.32224 8.91959 3.48652 8.7245C3.62968 8.58778 3.77652 8.53103 3.98125 8.52462C4.2192 8.56735 4.39746 8.67167 4.60763 8.79134C4.6713 8.82674 4.6713 8.82674 4.73625 8.86284C4.87117 8.93801 5.00564 9.01392 5.14012 9.08987C5.23175 9.1411 5.32342 9.19228 5.41511 9.2434C5.63932 9.36856 5.86317 9.49433 6.08675 9.6206C6.09918 9.55262 6.09918 9.55262 6.11185 9.48326C6.19399 9.30394 6.27767 9.14361 6.43836 9.02333C6.82311 8.90233 7.07873 8.91863 7.40358 9.21684Z" fill="#F3F3F3"/>
<path d="M13.7494 15.9864C13.7923 15.9381 13.7923 15.9381 13.8361 15.8888C14.0307 15.7744 14.2159 15.792 14.4443 15.7971C14.5342 15.7984 14.5342 15.7984 14.6258 15.7997C14.7948 15.8026 14.9639 15.8072 15.133 15.8124C15.2391 15.8157 15.3452 15.8184 15.4513 15.821C15.519 15.823 15.5867 15.8251 15.6545 15.8271C15.686 15.8279 15.7176 15.8286 15.7501 15.8294C16.0011 15.838 16.1199 15.9039 16.3045 16.0796C16.4704 16.2505 16.5502 16.3624 16.5576 16.6015C16.5152 16.8287 16.4462 17.0045 16.2652 17.1466C16.1273 17.2307 16.1273 17.2307 16.0318 17.2599C16.0512 17.2793 16.0705 17.2988 16.0905 17.3189C16.2927 17.5223 16.4938 17.7267 16.6942 17.9318C16.7691 18.0082 16.8443 18.0842 16.9197 18.16C17.0283 18.2692 17.1359 18.3793 17.2433 18.4897C17.2939 18.5399 17.2939 18.5399 17.3456 18.5912C17.5625 18.8166 17.6449 18.9643 17.6684 19.2704C17.6107 19.5089 17.5209 19.6561 17.3316 19.8061C17.1279 19.8942 16.9781 19.9063 16.7547 19.8525C16.502 19.7462 16.3387 19.5774 16.1488 19.3835C16.1168 19.3513 16.0848 19.3191 16.0518 19.2859C15.9501 19.1836 15.8489 19.0808 15.7477 18.978C15.6786 18.9083 15.6095 18.8386 15.5404 18.769C15.3715 18.5987 15.2029 18.428 15.0346 18.2571C15.0189 18.2832 15.0032 18.3093 14.987 18.3362C14.9551 18.3874 14.9551 18.3874 14.9227 18.4397C14.9019 18.4736 14.8811 18.5075 14.8597 18.5425C14.7497 18.687 14.6196 18.7485 14.4405 18.7849C14.2165 18.7779 14.0253 18.734 13.8512 18.5761C13.5105 18.2044 13.561 17.6941 13.5487 17.2339C13.5461 17.1382 13.5428 17.0425 13.5394 16.9468C13.5376 16.8852 13.5358 16.8237 13.534 16.7621C13.5323 16.707 13.5307 16.6519 13.529 16.5952C13.5352 16.336 13.5756 16.1711 13.7494 15.9864Z" fill="#F3F3F3"/>
</svg>
