<svg width="12" height="24" viewBox="0 0 12 24" fill="none" xmlns="http://www.w3.org/2000/svg">
<path d="M3.07562 5.60835C3.14517 5.60807 3.21472 5.60774 3.28427 5.60734C3.47244 5.60648 3.6606 5.60653 3.84877 5.60681C4.00626 5.60696 4.16374 5.60667 4.32123 5.60637C4.69304 5.6057 5.06484 5.60577 5.43665 5.60632C5.81924 5.60687 6.20182 5.6062 6.58441 5.6049C6.91372 5.60383 7.24303 5.60351 7.57235 5.60379C7.76867 5.60396 7.96497 5.60384 8.16128 5.60301C8.34606 5.60226 8.53082 5.60246 8.7156 5.60336C8.81502 5.60362 8.91443 5.60294 9.01385 5.60222C9.44519 5.60562 9.80474 5.66324 10.158 5.91298C10.6542 6.45555 10.7396 7.29091 10.9111 7.97594C10.9376 8.08122 10.9641 8.1865 10.9906 8.29177C11.0459 8.5113 11.1011 8.73087 11.1561 8.95045C11.2265 9.23109 11.297 9.51168 11.3677 9.79225C11.4354 10.0613 11.5031 10.3304 11.5707 10.5995C11.5835 10.6503 11.5963 10.7012 11.6095 10.7536C11.6458 10.8982 11.6821 11.0429 11.7184 11.1876C11.729 11.2298 11.7396 11.2719 11.7505 11.3154C12.0807 12.6341 12.0807 12.6341 11.7651 13.1572C11.5924 13.3834 11.4197 13.5351 11.1337 13.5982C10.9605 13.0117 10.7996 12.4231 10.6464 11.8315C10.6093 11.6885 10.572 11.5455 10.5347 11.4025C10.4288 10.9968 10.3231 10.591 10.2179 10.1851C10.153 9.93503 10.0879 9.68505 10.0225 9.43511C9.99777 9.34046 9.9732 9.24579 9.94877 9.15108C9.91473 9.01916 9.88025 8.88735 9.84567 8.75556C9.8358 8.71686 9.82592 8.67817 9.81575 8.6383C9.75939 8.42554 9.69749 8.23145 9.57565 8.04311C9.39156 7.98842 9.28226 7.97321 9.10132 8.04009C8.98151 8.19209 9.00489 8.34402 9.02279 8.52616C9.06286 8.73167 9.11658 8.93327 9.17088 9.13569C9.19455 9.22618 9.19455 9.22618 9.2187 9.31849C9.26192 9.48368 9.30573 9.64873 9.34965 9.81375C9.39615 9.98889 9.4421 10.1642 9.48812 10.3394C9.5759 10.6734 9.66417 11.0072 9.75261 11.341C9.85105 11.7125 9.94892 12.0843 10.0468 12.456C10.3328 13.5425 10.6188 14.6291 10.9105 15.7142C10.9371 15.813 10.9636 15.9118 10.9901 16.0105C11.0375 16.1872 11.0852 16.3638 11.1332 16.5403C11.1537 16.6167 11.1743 16.6931 11.1948 16.7695C11.2087 16.8201 11.2087 16.8201 11.2229 16.8718C11.2646 17.0281 11.2845 17.1544 11.2845 17.3176C7.78489 17.3176 4.28531 17.3176 0.679682 17.3176C0.736224 16.8286 0.736224 16.8286 0.790738 16.6216C0.802973 16.5746 0.815207 16.5276 0.827813 16.4791C0.847855 16.4039 0.847855 16.4039 0.868303 16.3272C0.882457 16.2732 0.896612 16.2191 0.911195 16.1634C0.958078 15.9847 1.00539 15.806 1.0527 15.6274C1.08606 15.5007 1.11932 15.374 1.15259 15.2473C1.23166 14.9464 1.31105 14.6455 1.39055 14.3446C1.47841 14.0121 1.56591 13.6795 1.65338 13.3468C1.73057 13.0533 1.80785 12.7599 1.88513 12.4664C1.89358 12.4343 1.90204 12.4022 1.91075 12.3691C2.10051 11.6485 2.29121 10.9281 2.48481 10.2085C2.53059 10.0378 2.57634 9.86712 2.62209 9.69644C2.66466 9.53811 2.70763 9.37988 2.75061 9.22165C2.77614 9.12649 2.80166 9.03133 2.82715 8.93616C2.83885 8.89361 2.85055 8.85107 2.8626 8.80723C2.91843 8.59716 2.96268 8.40672 2.94137 8.18802C2.87017 8.06324 2.87017 8.06324 2.74033 7.99481C2.55966 7.98281 2.55966 7.98281 2.38851 8.04311C2.2099 8.25707 2.16338 8.52414 2.09684 8.78498C2.08367 8.83528 2.07049 8.88557 2.05691 8.93739C2.01353 9.10332 1.97073 9.26939 1.92793 9.43546C1.89788 9.55078 1.86779 9.66608 1.83766 9.78138C1.7585 10.0847 1.67982 10.3881 1.60125 10.6916C1.47526 11.1778 1.34852 11.6639 1.22183 12.1501C1.17757 12.3202 1.13349 12.4903 1.08945 12.6605C1.0625 12.7642 1.03555 12.8679 1.0086 12.9717C0.996332 13.0193 0.98406 13.0669 0.971417 13.1159C0.960147 13.1592 0.948878 13.2025 0.937267 13.247C0.927502 13.2848 0.917737 13.3225 0.907677 13.3613C0.88072 13.4533 0.880721 13.4533 0.830461 13.5499C0.512217 13.4902 0.356672 13.3113 0.177085 13.0668C-0.147948 12.5465 0.0475255 11.8896 0.187154 11.342C0.210615 11.252 0.23409 11.162 0.257579 11.072C0.281713 10.9772 0.30578 10.8825 0.329783 10.7877C0.39296 10.539 0.457026 10.2905 0.521295 10.042C0.585541 9.79301 0.648984 9.54385 0.712468 9.2947C0.785921 9.00652 0.859504 8.71838 0.933867 8.43042C1.03428 8.04137 1.13421 7.65243 1.22621 7.26146C1.23955 7.2053 1.25289 7.14914 1.26663 7.09128C1.28954 6.99386 1.31187 6.89631 1.33338 6.7986C1.41511 6.45234 1.56346 6.13388 1.8545 5.9026C1.88081 5.88087 1.90711 5.85914 1.93421 5.83675C2.3085 5.60313 2.6374 5.60688 3.07562 5.60835Z" fill="#F3F3F3"/>
<path d="M7.24486 0.344521C7.75114 0.693337 8.10471 1.16782 8.21864 1.76348C8.26129 2.47768 8.15199 3.05726 7.67835 3.63227C7.29384 4.03953 6.73157 4.28996 6.16427 4.33515C5.58808 4.3483 5.06396 4.22633 4.59994 3.88889C4.56962 3.8676 4.5393 3.8463 4.50806 3.82436C4.07254 3.49495 3.84973 3.05397 3.74553 2.53636C3.67811 1.86467 3.80427 1.28569 4.24812 0.749075C4.27216 0.719373 4.29619 0.689671 4.32096 0.659069C5.04998 -0.136898 6.34985 -0.173954 7.24486 0.344521Z" fill="#F3F3F3"/>
<path d="M6.35903 18.0422C6.92294 18.0422 7.48686 18.0422 8.06786 18.0422C8.07127 18.7363 8.07403 19.4304 8.07567 20.1245C8.07646 20.4468 8.07753 20.7691 8.07923 21.0914C8.08087 21.4024 8.08177 21.7134 8.08216 22.0244C8.08244 22.1431 8.08299 22.2618 8.0838 22.3804C8.0849 22.5466 8.08505 22.7128 8.08498 22.879C8.08552 22.9281 8.08606 22.9771 8.08662 23.0277C8.08528 23.3226 8.059 23.5478 7.83992 23.7733C7.52688 24.0034 7.3036 24.0192 6.91189 23.9837C6.68679 23.8794 6.55092 23.7456 6.40929 23.549C6.36141 23.4109 6.35282 23.3262 6.35299 23.1831C6.35292 23.1378 6.35285 23.0924 6.35278 23.0458C6.35296 22.9961 6.35314 22.9465 6.35332 22.8954C6.35332 22.8431 6.35331 22.7908 6.3533 22.7369C6.35334 22.5636 6.35373 22.3903 6.35412 22.217C6.35422 22.097 6.35429 21.977 6.35434 21.857C6.35451 21.5732 6.35491 21.2894 6.35541 21.0056C6.35603 20.6507 6.3563 20.2959 6.35658 19.9411C6.35712 19.3081 6.358 18.6752 6.35903 18.0422Z" fill="#F3F3F3"/>
<path d="M3.89631 18.0422C4.46022 18.0422 5.02413 18.0422 5.60513 18.0422C5.60854 18.7086 5.61131 19.375 5.61295 20.0414C5.61373 20.3509 5.6148 20.6603 5.61651 20.9698C5.61815 21.2686 5.61905 21.5674 5.61944 21.8662C5.61972 21.98 5.62026 22.0938 5.62108 22.2077C5.62218 22.3675 5.62232 22.5272 5.62225 22.687C5.62279 22.7338 5.62334 22.7806 5.62389 22.8287C5.62235 23.1565 5.58823 23.4874 5.3662 23.7497C5.33621 23.7712 5.30621 23.7926 5.27531 23.8147C5.23012 23.8483 5.23012 23.8483 5.18401 23.8826C4.96889 24.0221 4.75176 24.0095 4.49942 23.9837C4.23093 23.8987 4.08153 23.7352 3.94656 23.5007C3.89886 23.3631 3.89009 23.2791 3.89026 23.1366C3.89019 23.0917 3.89012 23.0468 3.89005 23.0005C3.89023 22.9514 3.89041 22.9022 3.8906 22.8515C3.89059 22.7997 3.89058 22.7478 3.89058 22.6944C3.89061 22.5227 3.891 22.351 3.8914 22.1793C3.89149 22.0603 3.89156 21.9414 3.89161 21.8225C3.8918 21.5092 3.8923 21.1959 3.89285 20.8827C3.89337 20.5631 3.8936 20.2435 3.89385 19.9239C3.89439 19.2967 3.89527 18.6695 3.89631 18.0422Z" fill="#F3F3F3"/>
</svg>
