<svg width="24" height="20" viewBox="0 0 24 20" fill="none" xmlns="http://www.w3.org/2000/svg">
<path d="M9.70742 0.00110824C9.79002 0.000729872 9.79002 0.000729873 9.8743 0.000343863C10.0553 -0.000286854 10.2364 0.000128846 10.4174 0.000616227C10.5438 0.000584117 10.6702 0.000379623 10.7966 0.000198896C11.061 -6.22712e-05 11.3255 0.000280246 11.59 0.000967663C11.8949 0.00175093 12.1997 0.00149712 12.5046 0.000704755C12.7674 4.94626e-05 13.0301 -3.96569e-05 13.2928 0.000336055C13.4493 0.000559349 13.6058 0.00053618 13.7623 0.00011488C13.9369 -0.000252027 14.1115 0.000308525 14.2861 0.00110824C14.3373 0.000816853 14.3885 0.000525468 14.4412 0.000225253C14.7796 0.00308599 15.0941 0.0322173 15.3758 0.239931C15.4116 0.280801 15.4116 0.280801 15.448 0.322497C15.476 0.353537 15.504 0.384577 15.5328 0.416557C15.5615 0.449701 15.5902 0.482845 15.6197 0.516994C15.6838 0.586997 15.7479 0.656939 15.812 0.726825C15.9113 0.83661 16.0098 0.946853 16.1073 1.05826C16.4585 1.49541 16.4585 1.49541 16.935 1.72522C17.0906 1.699 17.2292 1.65502 17.3782 1.60317C17.5106 1.58999 17.5106 1.58999 17.6381 1.58874C17.679 1.58828 17.7199 1.58783 17.7621 1.58736C17.8033 1.58763 17.8446 1.5879 17.8871 1.58817C17.9535 1.58853 17.9535 1.58853 18.0212 1.58889C19.2725 1.61015 20.3305 2.19628 21.1906 3.10169C21.7401 3.71825 22.151 4.56375 22.2272 5.39793C22.2347 5.47736 22.2347 5.47736 22.2424 5.55839C22.2517 5.66442 22.2594 5.77062 22.2653 5.87691C22.2937 6.21792 22.3658 6.3789 22.6178 6.60384C22.7541 6.72643 22.8486 6.86713 22.9469 7.02223C22.9664 7.05293 22.9859 7.08363 23.006 7.11527C23.7209 8.2689 23.9807 9.5804 23.9968 10.9328C23.9979 10.9883 23.9989 11.0437 24 11.1009C23.9998 11.1794 23.9998 11.1794 23.9996 11.2595C23.9997 11.3059 23.9997 11.3522 23.9998 11.4C23.9524 11.6739 23.7557 11.8699 23.5697 12.0617C23.5265 12.1065 23.4832 12.1513 23.4386 12.1975C23.3918 12.2455 23.3449 12.2936 23.298 12.3416C23.2495 12.3915 23.201 12.4414 23.1526 12.4913C23.0513 12.5955 22.9498 12.6996 22.8482 12.8035C22.7183 12.9364 22.5889 13.07 22.4596 13.2036C22.3598 13.3067 22.2596 13.4094 22.1593 13.5121C22.1115 13.5612 22.0637 13.6104 22.0161 13.6597C21.9495 13.7286 21.8824 13.797 21.8153 13.8654C21.7773 13.9043 21.7393 13.9433 21.7002 13.9835C21.5108 14.1469 21.3138 14.208 21.0648 14.202C20.1821 14.0164 19.2836 13.1355 18.7927 12.3963C18.6576 12.1776 18.5333 11.952 18.4077 11.7275C17.6998 13.7969 17.1352 15.9254 17.0263 18.1265C17.0244 18.1654 17.0224 18.2043 17.0204 18.2444C17.011 18.4384 17.0025 18.6322 16.9955 18.8263C16.9924 18.8978 16.9894 18.9694 16.9863 19.041C16.984 19.1042 16.9817 19.1674 16.9793 19.2326C16.9485 19.4704 16.8767 19.6312 16.7114 19.8007C16.4564 19.967 16.1913 19.9948 15.8952 19.9931C15.8605 19.9933 15.8257 19.9935 15.7899 19.9937C15.6742 19.9941 15.5585 19.994 15.4428 19.9938C15.3595 19.994 15.2763 19.9942 15.193 19.9945C14.9673 19.9952 14.7417 19.9952 14.516 19.9951C14.3274 19.995 14.1388 19.9952 13.9501 19.9955C13.505 19.996 13.0599 19.996 12.6148 19.9957C12.1561 19.9954 11.6975 19.996 11.2388 19.9971C10.8445 19.9979 10.4502 19.9982 10.056 19.998C9.82068 19.9979 9.58542 19.9981 9.35015 19.9987C9.12883 19.9993 8.90752 19.9993 8.6862 19.9986C8.60518 19.9985 8.52416 19.9986 8.44314 19.999C7.50072 20.0033 7.50072 20.0033 7.24237 19.7687C7.04823 19.5437 7.02958 19.3557 7.01797 19.0652C7.01489 18.9947 7.01177 18.9241 7.00861 18.8536C7.00698 18.8164 7.00535 18.7792 7.00367 18.7409C6.89317 16.3094 6.35433 14.0221 5.58577 11.7275C5.5475 11.7963 5.5475 11.7963 5.50845 11.8664C4.96316 12.8314 4.12564 13.8025 3.05883 14.1747C2.77874 14.2224 2.60512 14.1719 2.3569 14.0307C2.23849 13.9273 2.23849 13.9273 2.12031 13.806C2.08762 13.7727 2.08762 13.7727 2.05426 13.7388C1.98296 13.6661 1.91218 13.5929 1.84142 13.5196C1.7917 13.4686 1.74197 13.4176 1.69221 13.3667C1.58831 13.2601 1.48466 13.1534 1.38118 13.0464C1.24868 12.9094 1.11565 12.773 0.982453 12.6367C0.879824 12.5317 0.77743 12.4264 0.67511 12.321C0.626141 12.2706 0.577111 12.2202 0.528015 12.17C0.459469 12.0997 0.391236 12.0291 0.32308 11.9585C0.284231 11.9184 0.245383 11.8784 0.205357 11.8371C-0.0326311 11.5616 0.000848263 11.2918 0.00250391 10.9388C0.00276782 10.8807 0.00303173 10.8226 0.00330363 10.7627C0.021959 9.32426 0.371609 7.7463 1.3274 6.64136C1.35531 6.61717 1.38322 6.59297 1.41197 6.56804C1.64589 6.36297 1.69489 6.20533 1.71933 5.89331C1.72366 5.81677 1.72366 5.81677 1.72808 5.73869C1.82777 4.61057 2.23038 3.69896 3.01203 2.8987C3.03924 2.86741 3.06644 2.83611 3.09447 2.80386C3.69729 2.12191 4.7133 1.70008 5.58577 1.60317C5.75156 1.59552 5.91704 1.59429 6.08298 1.59417C6.1255 1.59358 6.16803 1.593 6.21185 1.59239C6.25486 1.5923 6.29787 1.5922 6.34218 1.59211C6.40882 1.59183 6.40882 1.59183 6.47681 1.59154C6.61527 1.60317 6.61527 1.60317 6.7574 1.65163C6.93231 1.70741 7.0414 1.72782 7.22361 1.69913C7.52207 1.50929 7.7517 1.21191 7.98404 0.946403C8.0818 0.837088 8.18006 0.72834 8.27921 0.620342C8.34058 0.553259 8.40112 0.485364 8.46064 0.416557C8.48863 0.385517 8.51661 0.354477 8.54544 0.322497C8.56928 0.29525 8.59311 0.268003 8.61766 0.239931C8.94446 -0.00104629 9.31939 -0.00109978 9.70742 0.00110824ZM9.65697 13.7428C9.54506 13.9358 9.52967 14.1467 9.56338 14.3666C9.67561 14.5967 9.80688 14.7314 10.0313 14.8464C10.1883 14.8685 10.3394 14.8645 10.4936 14.8224C10.7624 14.7575 11.0905 14.739 11.3358 14.8824C11.4315 14.9531 11.527 15.0241 11.6224 15.0953C11.7905 15.1995 11.8936 15.2303 12.0903 15.2303C12.3256 15.1479 12.5085 15.008 12.6987 14.8464C12.8487 14.7951 12.9593 14.792 13.1169 14.7924C13.1899 14.7923 13.1899 14.7923 13.2644 14.7921C13.382 14.7976 13.4754 14.8148 13.5878 14.8464C13.8072 14.8646 13.9166 14.8698 14.1142 14.7685C14.2757 14.6255 14.4076 14.4962 14.4464 14.2729C14.4583 13.9942 14.3812 13.7975 14.1961 13.5899C13.7135 13.2909 13.0279 13.2642 12.4868 13.4006C12.3671 13.4457 12.253 13.4966 12.1371 13.5509C12.0168 13.5968 11.9693 13.6055 11.8461 13.5633C11.8109 13.5453 11.7757 13.5274 11.7394 13.5089C11.1457 13.2108 10.1267 13.2241 9.65697 13.7428ZM10.1191 16.8767C9.96507 17.103 9.86681 17.281 9.9085 17.5605C9.96429 17.7633 10.0519 17.8832 10.216 18.0088C10.4508 18.137 10.6794 18.1325 10.9292 18.0553C11.1076 18.0133 11.1076 18.0133 11.248 18.0613C11.3884 18.1572 11.3884 18.1572 11.4725 18.2313C11.6839 18.4138 11.8354 18.491 12.1159 18.4738C12.3175 18.4235 12.4507 18.2931 12.6051 18.1572C12.7455 18.0613 12.7455 18.0613 12.8858 18.0133C12.9778 18.0349 13.0697 18.057 13.16 18.0849C13.377 18.1377 13.5803 18.1165 13.7775 18.0088C13.9766 17.8563 14.0641 17.7004 14.1016 17.4489C14.1036 17.2165 13.9998 17.061 13.8744 16.8767C13.5578 16.6365 13.1359 16.5279 12.7455 16.5738C12.5492 16.6219 12.3575 16.6747 12.1783 16.7712C12.0428 16.8367 11.9526 16.8031 11.8096 16.7657C11.7001 16.7185 11.5909 16.6705 11.482 16.6218C11.0248 16.4896 10.5004 16.5874 10.1191 16.8767Z" fill="#F3F3F3"/>
<path d="M17 1C17.166 1.05895 17.2726 1.1395 17.3994 1.24567C17.4396 1.27925 17.4798 1.31284 17.5212 1.34744C17.5837 1.40024 17.5837 1.40024 17.6475 1.4541C17.6886 1.48839 17.7297 1.52268 17.7721 1.55801C17.9465 1.70436 18.1174 1.8512 18.279 2.00744C18.4587 2.17964 18.6498 2.34075 18.8441 2.50146C18.88 2.53137 18.916 2.56127 18.953 2.59208C19.0665 2.68648 19.1802 2.78074 19.2939 2.875C19.3715 2.93943 19.449 3.00388 19.5266 3.06833C19.7155 3.22534 19.9046 3.38225 20.0938 3.53906C20.0261 3.6568 19.9594 3.73847 19.8473 3.8302C19.818 3.85437 19.7887 3.87854 19.7585 3.90344C19.728 3.92822 19.6975 3.95299 19.666 3.97852C19.6351 4.00389 19.6043 4.02927 19.5724 4.05542C19.4964 4.11786 19.4202 4.1801 19.3438 4.24219C18.6517 3.95384 18.2033 3.36998 17.6562 2.91406C17.6562 7.27109 17.6562 11.6281 17.6562 16.1172C18.1822 15.6789 18.7081 15.2406 19.25 14.7891C19.4081 14.8549 19.4813 14.8942 19.5994 14.9944C19.6429 15.0311 19.6429 15.0311 19.6873 15.0685C19.717 15.0939 19.7467 15.1193 19.7773 15.1455C19.8078 15.1712 19.8383 15.197 19.8696 15.2235C19.9446 15.2868 20.0192 15.3504 20.0938 15.4141C20.0287 15.5362 19.9535 15.6185 19.8397 15.7122C19.8069 15.7393 19.7742 15.7664 19.7405 15.7944C19.7051 15.8234 19.6697 15.8524 19.6332 15.8822C19.5967 15.9125 19.5602 15.9427 19.5225 15.9739C19.4055 16.0707 19.2882 16.1672 19.1709 16.2637C19.0544 16.3596 18.9381 16.4557 18.8218 16.5518C18.7495 16.6116 18.6771 16.6712 18.6046 16.7308C18.4139 16.8882 18.2327 17.0496 18.0576 17.2191C17.9619 17.3105 17.8608 17.3965 17.7575 17.4819C17.7184 17.5144 17.6793 17.5469 17.6389 17.5804C17.5992 17.6131 17.5595 17.6459 17.5186 17.6797C17.4776 17.7137 17.4366 17.7477 17.3943 17.7827C17.2942 17.8656 17.194 17.9485 17.0938 18.0312C16.9325 17.9734 16.828 17.8975 16.7047 17.7941C16.6666 17.7623 16.6285 17.7305 16.5892 17.6977C16.5498 17.6644 16.5103 17.631 16.4697 17.5967C16.4308 17.5643 16.392 17.5318 16.3519 17.4984C16.1834 17.357 16.019 17.2149 15.8629 17.0639C15.6796 16.8884 15.4844 16.7242 15.2863 16.5603C15.2308 16.5141 15.2308 16.5141 15.1742 16.4671C15.0573 16.3699 14.9403 16.2728 14.8232 16.1758C14.7434 16.1095 14.6636 16.0431 14.5838 15.9768C14.3893 15.8152 14.1947 15.6536 14 15.4922C14.0676 15.3744 14.1343 15.2928 14.2465 15.201C14.2758 15.1769 14.3051 15.1527 14.3353 15.1278C14.3658 15.103 14.3963 15.0783 14.4277 15.0527C14.4586 15.0274 14.4895 15.002 14.5213 14.9758C14.5973 14.9134 14.6736 14.8511 14.75 14.7891C15.442 15.0774 15.8904 15.6613 16.4375 16.1172C16.4375 11.7602 16.4375 7.40312 16.4375 2.91406C15.9116 3.35234 15.3856 3.79063 14.8438 4.24219C14.6856 4.17631 14.6125 4.13705 14.4944 4.0368C14.4654 4.01238 14.4364 3.98796 14.4065 3.9628C14.3768 3.93737 14.347 3.91194 14.3164 3.88574C14.286 3.86001 14.2555 3.83428 14.2241 3.80777C14.1492 3.74442 14.0745 3.68089 14 3.61719C14.0688 3.48461 14.1571 3.39883 14.2799 3.29755C14.3183 3.26573 14.3566 3.2339 14.3961 3.20111C14.4377 3.16701 14.4792 3.13291 14.522 3.09778C14.5874 3.04359 14.6528 2.98941 14.7182 2.93521C14.8099 2.85932 14.9018 2.78361 14.9937 2.70789C15.1536 2.57613 15.3133 2.4442 15.4727 2.31211C15.5576 2.24191 15.6425 2.17182 15.7276 2.10185C15.9329 1.93205 16.1314 1.76019 16.3189 1.5765C16.4441 1.45667 16.58 1.34583 16.7158 1.23438C16.7572 1.20016 16.7572 1.20016 16.7994 1.16525C16.8662 1.11008 16.9331 1.05502 17 1Z" fill="black"/>
</svg>
