<svg width="13" height="24" viewBox="0 0 13 24" fill="none" xmlns="http://www.w3.org/2000/svg">
<path d="M6.42188 1.78125C6.58787 1.85199 6.6945 1.94865 6.82123 2.07605C6.86144 2.11635 6.90165 2.15666 6.94308 2.19818C7.00558 2.26154 7.00558 2.26154 7.06934 2.32617C7.11046 2.36732 7.15157 2.40847 7.19394 2.45087C7.36838 2.62649 7.53926 2.80269 7.70091 2.99018C7.88056 3.19682 8.07169 3.39015 8.26593 3.58301C8.30188 3.61889 8.33783 3.65478 8.37487 3.69175C8.48841 3.80503 8.60211 3.91814 8.71582 4.03125C8.79338 4.10857 8.87092 4.1859 8.94846 4.26324C9.13739 4.45166 9.32645 4.63995 9.51562 4.82812C9.44798 4.96941 9.38128 5.06741 9.26917 5.17749C9.23986 5.20649 9.21055 5.2355 9.18036 5.26538C9.14984 5.29511 9.11933 5.32484 9.08789 5.35547C9.05701 5.38592 9.02614 5.41638 8.99432 5.44775C8.9183 5.52268 8.84206 5.59737 8.76562 5.67188C8.07359 5.32586 7.62522 4.62522 7.07812 4.07812C7.07812 9.30656 7.07812 14.535 7.07812 19.9219C7.60406 19.3959 8.13 18.87 8.67188 18.3281C8.82998 18.4072 8.90313 18.4543 9.02124 18.5746C9.06475 18.6185 9.06475 18.6185 9.10913 18.6634C9.13886 18.6939 9.16859 18.7244 9.19922 18.7559C9.22967 18.7867 9.26013 18.8176 9.2915 18.8494C9.36643 18.9255 9.44112 19.0017 9.51562 19.0781C9.45062 19.2247 9.37535 19.3234 9.26153 19.4359C9.22881 19.4684 9.19609 19.501 9.16238 19.5345C9.12699 19.5693 9.09159 19.6041 9.05511 19.6399C9.01857 19.6762 8.98202 19.7125 8.94437 19.7499C8.82739 19.866 8.71011 19.9819 8.59277 20.0977C8.47632 20.2128 8.35993 20.328 8.24368 20.4434C8.1714 20.5151 8.09899 20.5867 8.02643 20.6582C7.83573 20.8471 7.65461 21.0408 7.47945 21.2442C7.38377 21.3539 7.28263 21.457 7.17938 21.5596C7.14026 21.5985 7.10113 21.6375 7.06082 21.6777C7.02109 21.717 6.98136 21.7563 6.94043 21.7969C6.89943 21.8377 6.85843 21.8784 6.81619 21.9205C6.71611 22.02 6.61592 22.1194 6.51562 22.2188C6.35441 22.1493 6.24987 22.0582 6.12653 21.9342C6.08843 21.896 6.05033 21.8578 6.01108 21.8185C5.97165 21.7785 5.93222 21.7385 5.8916 21.6973C5.85272 21.6584 5.81383 21.6194 5.77377 21.5793C5.60531 21.4097 5.44083 21.2391 5.28474 21.058C5.10149 20.8473 4.90625 20.6503 4.70819 20.4536C4.6527 20.3982 4.6527 20.3982 4.5961 20.3417C4.47921 20.2251 4.36217 20.1086 4.24512 19.9922C4.1653 19.9126 4.0855 19.833 4.00571 19.7534C3.81122 19.5594 3.6166 19.3656 3.42188 19.1719C3.48952 19.0306 3.55622 18.9326 3.66833 18.8225C3.69764 18.7935 3.72695 18.7645 3.75714 18.7346C3.78766 18.7049 3.81817 18.6752 3.84961 18.6445C3.88049 18.6141 3.91136 18.5836 3.94318 18.5522C4.0192 18.4773 4.09544 18.4026 4.17188 18.3281C4.86391 18.6741 5.31228 19.3748 5.85938 19.9219C5.85938 14.6934 5.85938 9.465 5.85938 4.07812C5.33344 4.60406 4.8075 5.13 4.26562 5.67188C4.10752 5.59282 4.03437 5.54571 3.91626 5.42542C3.88726 5.39611 3.85825 5.3668 3.82837 5.33661C3.79864 5.30609 3.76891 5.27558 3.73828 5.24414C3.70783 5.21326 3.67737 5.18239 3.646 5.15057C3.57107 5.07455 3.49638 4.99831 3.42188 4.92188C3.49067 4.76278 3.57899 4.65984 3.70179 4.53831C3.74014 4.50012 3.77849 4.46193 3.818 4.42258C3.85955 4.38166 3.9011 4.34074 3.94391 4.29858C4.00931 4.23356 4.0747 4.16854 4.14009 4.10351C4.23178 4.01243 4.32367 3.92158 4.41557 3.83072C4.57546 3.67261 4.73513 3.51429 4.89462 3.35578C4.97943 3.27155 5.06436 3.18743 5.14944 3.10347C5.35481 2.89971 5.55325 2.69347 5.74073 2.47305C5.86594 2.32925 6.00192 2.19625 6.1377 2.0625C6.17907 2.02144 6.17907 2.02144 6.22128 1.97955C6.28804 1.91334 6.35494 1.84728 6.42188 1.78125Z" fill="#F3F3F3"/>
<path d="M0 22.875C4.26937 22.875 8.53875 22.875 12.9375 22.875C12.9375 23.2463 12.9375 23.6175 12.9375 24C8.66813 24 4.39875 24 0 24C0 23.6287 0 23.2575 0 22.875Z" fill="#F3F3F3"/>
<path d="M0 0C4.26937 0 8.53875 0 12.9375 0C12.9375 0.37125 12.9375 0.7425 12.9375 1.125C8.66813 1.125 4.39875 1.125 0 1.125C0 0.75375 0 0.3825 0 0Z" fill="#F3F3F3"/>
</svg>
