<svg width="24" height="30" viewBox="0 0 24 30" fill="none" xmlns="http://www.w3.org/2000/svg">
<mask id="path-1-inside-1_37_642" fill="white">
<path d="M4.14022 0.00548314C4.20835 0.0050943 4.27647 0.00470545 4.34666 0.00430482C4.57572 0.00330787 4.80474 0.00409928 5.03381 0.0048822C5.1977 0.00454457 5.3616 0.00410083 5.5255 0.00355861C5.92492 0.00244934 6.32433 0.00269003 6.72376 0.0034122C7.04833 0.00397478 7.3729 0.00405162 7.69748 0.00378016C7.76673 0.00372286 7.76673 0.00372286 7.83738 0.00366441C7.93117 0.00358472 8.02495 0.0035039 8.11874 0.00342198C8.99848 0.00271094 9.87822 0.00352885 10.758 0.00486779C11.5131 0.00598146 12.2682 0.00578803 13.0233 0.00463878C13.8998 0.00330531 14.7764 0.00277941 15.653 0.00354509C15.7464 0.00362449 15.8398 0.00370285 15.9333 0.00378016C16.0023 0.00383784 16.0023 0.00383784 16.0726 0.00389669C16.3969 0.00411204 16.7211 0.00374834 17.0453 0.0031621C17.4816 0.00239063 17.9179 0.00293869 18.3542 0.00438205C18.5146 0.00471248 18.675 0.00461556 18.8354 0.00406732C19.0538 0.00338946 19.2721 0.00423652 19.4905 0.00548314C19.5865 0.00464909 19.5865 0.00464909 19.6844 0.00379819C20.1102 0.00853509 20.1102 0.00853508 20.318 0.1499C20.4519 0.360329 20.4429 0.547989 20.4049 0.784921C20.3404 1.0209 20.2568 1.24866 20.172 1.47818C18.854 5.21747 19.172 9.20718 20.8114 12.7928C20.8303 12.834 20.8491 12.8752 20.8685 12.9177C20.9629 13.1234 21.0581 13.3287 21.1546 13.5334C21.2066 13.6451 21.2066 13.6451 21.2597 13.759C21.307 13.8591 21.307 13.8591 21.3552 13.9612C21.385 14.04 21.385 14.04 21.4154 14.1204C21.3522 14.2451 21.3522 14.2451 21.204 14.299C21.1057 14.3258 21.1057 14.3258 21.0054 14.3531C20.9317 14.3733 20.8581 14.3935 20.7822 14.4143C20.702 14.4356 20.6217 14.4568 20.5391 14.4788C20.498 14.4897 20.4569 14.5007 20.4146 14.5121C18.4023 15.05 16.3564 15.4352 14.2785 15.616C14.2116 15.622 14.1446 15.6279 14.0757 15.6341C12.018 15.794 9.88221 15.7649 7.83644 15.4914C7.79222 15.4856 7.748 15.4799 7.70244 15.4739C5.84945 15.2321 3.97955 14.8646 2.21538 14.2451C2.29344 14.0016 2.38295 13.7748 2.49762 13.546C4.30302 9.86738 4.92886 5.60137 3.54515 1.66902C3.487 1.50814 3.42742 1.34834 3.36388 1.18945C3.24075 0.873229 3.18442 0.626085 3.22591 0.286397C3.44186 -0.0548734 3.77461 0.00230517 4.14022 0.00548314Z"/>
<path d="M22.9126 18.2942C22.9539 18.5286 22.9946 18.7631 23.0352 18.9976C23.0525 19.0958 23.0525 19.0958 23.0701 19.1959C23.621 22.3946 22.953 25.7086 21.4492 28.5699C21.4189 28.6276 21.3887 28.6853 21.3575 28.7447C20.8221 29.7373 20.8221 29.7373 20.4447 29.9845C20.2879 29.9998 20.2879 29.9998 20.0975 29.9995C19.9893 29.9997 19.9893 29.9997 19.8789 30C19.7997 29.9996 19.7205 29.9991 19.6389 29.9986C19.5556 29.9987 19.4722 29.9987 19.3863 29.9987C19.1577 29.9987 18.929 29.998 18.7004 29.9971C18.4614 29.9964 18.2225 29.9963 17.9836 29.9961C17.5311 29.9958 17.0787 29.9947 16.6262 29.9935C16.1111 29.9921 15.596 29.9914 15.0809 29.9908C14.0212 29.9895 12.9615 29.9873 11.9019 29.9845C11.8841 29.4596 11.8707 28.9348 11.8625 28.4097C11.8586 28.1657 11.8533 27.9219 11.8446 27.678C11.7756 25.6923 11.7756 25.6923 12.4632 24.9601C12.4962 24.9275 12.5291 24.8949 12.5631 24.8614C12.6977 24.7239 12.8115 24.574 12.9271 24.4211C13.0648 24.2398 13.2113 24.0655 13.3573 23.8906C13.387 23.8549 13.4167 23.8193 13.4473 23.7825C14.2449 22.8322 15.1308 21.8881 16.1416 21.1546C16.1825 21.1244 16.2234 21.0943 16.2655 21.0632C18.0669 19.7378 20.58 18.2392 22.9126 18.2942Z"/>
<path d="M0.713929 18.2927C1.14443 18.3229 1.54326 18.394 1.95718 18.5156C2.01377 18.5321 2.07036 18.5487 2.12867 18.5658C3.56803 19.001 4.93526 19.7069 6.13904 20.6076C6.19553 20.6497 6.19553 20.6497 6.25316 20.6926C7.4277 21.5752 8.55028 22.6314 9.444 23.7985C9.5117 23.8843 9.57951 23.97 9.64739 24.0556C9.72254 24.151 9.79764 24.2465 9.8727 24.342C9.90644 24.3847 9.94018 24.4273 9.97493 24.4713C10.0476 24.5647 10.1184 24.6597 10.1878 24.7556C10.2867 24.885 10.3839 24.9952 10.4961 25.1115C11.1905 25.8889 11.0837 26.8255 11.0513 27.8071C11.0405 28.1692 11.0335 28.5314 11.0258 28.8935C11.0211 29.1104 11.0163 29.3272 11.0115 29.544C11.0098 29.6183 11.0082 29.6926 11.0065 29.7692C11.0047 29.8488 11.0047 29.8488 11.0029 29.9299C9.97792 29.9431 8.95294 29.953 7.92786 29.9591C7.45188 29.962 6.97594 29.966 6.49999 29.9724C6.08505 29.978 5.67015 29.9817 5.25517 29.9829C5.03551 29.9837 4.81595 29.9854 4.59631 29.9895C4.35087 29.994 4.10554 29.9941 3.86005 29.9939C3.78757 29.9959 3.71508 29.9979 3.6404 30C3.158 29.9944 3.158 29.9944 2.94426 29.8093C2.83147 29.6665 2.73749 29.5247 2.64702 29.3668C2.61851 29.321 2.59001 29.2751 2.56065 29.2279C2.48367 29.1029 2.41286 28.9759 2.34302 28.8468C2.31679 28.7985 2.29055 28.7503 2.26352 28.7006C0.603575 25.5999 -0.112737 21.7542 0.713929 18.2927Z"/>
<path d="M21.7782 15C21.8797 15.2623 21.9803 15.5249 22.0808 15.7876C22.1237 15.8982 22.1237 15.8982 22.1674 16.011C22.3197 16.4108 22.4461 16.7944 22.5231 17.2162C22.4844 17.2238 22.4458 17.2314 22.406 17.2393C18.7421 17.9683 15.4989 19.8483 13.0879 22.7885C13.0457 22.8397 13.0457 22.8397 13.0026 22.892C12.5648 23.4256 12.1525 23.9697 11.7708 24.5467C11.6955 24.6592 11.6161 24.769 11.5361 24.878C11.4951 24.878 11.4541 24.878 11.4119 24.878C11.3299 24.7817 11.3299 24.7817 11.2359 24.646C11.2009 24.5963 11.1659 24.5465 11.1299 24.4953C11.0924 24.4414 11.0548 24.3875 11.0162 24.3319C10.6341 23.793 10.233 23.2834 9.79799 22.7885C9.77012 22.7565 9.74224 22.7244 9.71352 22.6915C9.04775 21.9286 8.35419 21.2007 7.56334 20.5722C7.49569 20.5166 7.42813 20.4609 7.36064 20.405C5.5139 18.8858 3.40602 17.9177 1.10769 17.3429C1.21324 16.864 1.37468 16.4116 1.54609 15.9538C1.56797 15.8953 1.58986 15.8368 1.6124 15.7765C1.70456 15.5331 1.79711 15.2953 1.91465 15.0633C2.35365 15.0983 2.75592 15.222 3.17688 15.3497C5.23198 15.969 7.35144 16.3514 9.48763 16.5197C9.52987 16.5234 9.57212 16.527 9.61565 16.5308C13.4701 16.8594 17.6939 16.3775 21.3538 15.0557C21.5299 15 21.5299 15 21.7782 15Z"/>
<path d="M1.33682 11.3415C1.4467 11.4975 1.4467 11.4975 1.56682 11.7027C1.60694 11.7698 1.64706 11.8368 1.6884 11.9059C1.77343 12.0953 1.77343 12.0953 1.77294 12.2303C1.65962 12.4433 1.45731 12.5661 1.27031 12.7113C1.13361 12.843 1.13361 12.843 1.11901 13.0387C1.16613 13.3265 1.30295 13.4195 1.5215 13.5984C2.55962 14.3121 3.84717 14.5857 5.05574 14.8556C5.11521 14.8689 5.17468 14.8822 5.23595 14.8959C5.29178 14.9078 5.3476 14.9197 5.40512 14.932C5.45374 14.9423 5.50235 14.9527 5.55243 14.9634C5.96127 15.0228 6.22864 14.9426 6.59823 14.7791C6.6471 14.7582 6.69596 14.7372 6.74631 14.7157C6.90164 14.6491 7.05657 14.5816 7.21147 14.514C7.36709 14.4466 7.52278 14.3793 7.67864 14.3124C7.77543 14.2708 7.87206 14.2289 7.96852 14.1865C8.30156 14.0429 8.30156 14.0429 8.50959 14.0429C8.50069 14.1803 8.49155 14.3177 8.4823 14.4551C8.4747 14.5699 8.4747 14.5699 8.46695 14.6871C8.44792 14.914 8.41772 15.1369 8.38484 15.3622C15.885 15.9092 15.885 15.9092 22.7187 13.4107C22.8797 13.193 22.8901 13.1142 22.8551 12.8492C22.7397 12.6986 22.7397 12.6986 22.5822 12.5783C22.5316 12.5358 22.4809 12.4933 22.4287 12.4495C22.3005 12.3452 22.3005 12.3452 22.169 12.2838C22.2119 12.0542 22.3096 11.8743 22.4224 11.6713C22.4737 11.5785 22.4737 11.5785 22.526 11.4838C22.5654 11.4133 22.5654 11.4133 22.6056 11.3415C23.0742 11.407 23.4111 11.7362 23.6932 12.1032C23.992 12.5164 24.0362 12.9138 23.9778 13.4146C23.7713 14.1183 23.2054 14.5183 22.5956 14.8637C20.8983 15.774 18.8742 16.0738 16.9922 16.3163C16.9176 16.326 16.8431 16.3357 16.7663 16.3458C16.5092 16.3772 16.252 16.4049 15.9942 16.4302C15.9378 16.4357 15.8815 16.4413 15.8234 16.447C14.6463 16.5589 13.4745 16.5756 12.2934 16.5722C12.0408 16.5715 11.7882 16.5719 11.5356 16.5726C10.4166 16.5753 9.31161 16.5517 8.19773 16.4302C8.15656 16.8033 8.1154 17.1765 8.07298 17.561C7.82485 17.4985 7.69633 17.4252 7.48703 17.2832C7.42226 17.2394 7.3575 17.1957 7.29078 17.1507C7.22344 17.1047 7.1561 17.0587 7.08673 17.0113C7.02012 16.9662 6.9535 16.9212 6.88487 16.8748C6.78737 16.8087 6.78736 16.8087 6.68789 16.7413C6.59245 16.677 6.59245 16.677 6.49509 16.6113C6.36268 16.5183 6.24417 16.4222 6.12191 16.317C5.81364 16.0936 5.41447 16.0576 5.04863 15.9888C4.81634 15.9449 4.58486 15.897 4.35333 15.8493C4.30781 15.8399 4.26229 15.8306 4.21539 15.821C2.87554 15.5429 1.02577 15.0706 0.21413 13.8544C-0.0110563 13.4739 -0.0293809 13.0926 0.0270142 12.6608C0.175358 12.1591 0.752884 11.3415 1.33682 11.3415Z"/>
</mask>
<path d="M4.14022 0.00548314C4.20835 0.0050943 4.27647 0.00470545 4.34666 0.00430482C4.57572 0.00330787 4.80474 0.00409928 5.03381 0.0048822C5.1977 0.00454457 5.3616 0.00410083 5.5255 0.00355861C5.92492 0.00244934 6.32433 0.00269003 6.72376 0.0034122C7.04833 0.00397478 7.3729 0.00405162 7.69748 0.00378016C7.76673 0.00372286 7.76673 0.00372286 7.83738 0.00366441C7.93117 0.00358472 8.02495 0.0035039 8.11874 0.00342198C8.99848 0.00271094 9.87822 0.00352885 10.758 0.00486779C11.5131 0.00598146 12.2682 0.00578803 13.0233 0.00463878C13.8998 0.00330531 14.7764 0.00277941 15.653 0.00354509C15.7464 0.00362449 15.8398 0.00370285 15.9333 0.00378016C16.0023 0.00383784 16.0023 0.00383784 16.0726 0.00389669C16.3969 0.00411204 16.7211 0.00374834 17.0453 0.0031621C17.4816 0.00239063 17.9179 0.00293869 18.3542 0.00438205C18.5146 0.00471248 18.675 0.00461556 18.8354 0.00406732C19.0538 0.00338946 19.2721 0.00423652 19.4905 0.00548314C19.5865 0.00464909 19.5865 0.00464909 19.6844 0.00379819C20.1102 0.00853509 20.1102 0.00853508 20.318 0.1499C20.4519 0.360329 20.4429 0.547989 20.4049 0.784921C20.3404 1.0209 20.2568 1.24866 20.172 1.47818C18.854 5.21747 19.172 9.20718 20.8114 12.7928C20.8303 12.834 20.8491 12.8752 20.8685 12.9177C20.9629 13.1234 21.0581 13.3287 21.1546 13.5334C21.2066 13.6451 21.2066 13.6451 21.2597 13.759C21.307 13.8591 21.307 13.8591 21.3552 13.9612C21.385 14.04 21.385 14.04 21.4154 14.1204C21.3522 14.2451 21.3522 14.2451 21.204 14.299C21.1057 14.3258 21.1057 14.3258 21.0054 14.3531C20.9317 14.3733 20.8581 14.3935 20.7822 14.4143C20.702 14.4356 20.6217 14.4568 20.5391 14.4788C20.498 14.4897 20.4569 14.5007 20.4146 14.5121C18.4023 15.05 16.3564 15.4352 14.2785 15.616C14.2116 15.622 14.1446 15.6279 14.0757 15.6341C12.018 15.794 9.88221 15.7649 7.83644 15.4914C7.79222 15.4856 7.748 15.4799 7.70244 15.4739C5.84945 15.2321 3.97955 14.8646 2.21538 14.2451C2.29344 14.0016 2.38295 13.7748 2.49762 13.546C4.30302 9.86738 4.92886 5.60137 3.54515 1.66902C3.487 1.50814 3.42742 1.34834 3.36388 1.18945C3.24075 0.873229 3.18442 0.626085 3.22591 0.286397C3.44186 -0.0548734 3.77461 0.00230517 4.14022 0.00548314Z" fill="#F3F3F3"/>
<path d="M22.9126 18.2942C22.9539 18.5286 22.9946 18.7631 23.0352 18.9976C23.0525 19.0958 23.0525 19.0958 23.0701 19.1959C23.621 22.3946 22.953 25.7086 21.4492 28.5699C21.4189 28.6276 21.3887 28.6853 21.3575 28.7447C20.8221 29.7373 20.8221 29.7373 20.4447 29.9845C20.2879 29.9998 20.2879 29.9998 20.0975 29.9995C19.9893 29.9997 19.9893 29.9997 19.8789 30C19.7997 29.9996 19.7205 29.9991 19.6389 29.9986C19.5556 29.9987 19.4722 29.9987 19.3863 29.9987C19.1577 29.9987 18.929 29.998 18.7004 29.9971C18.4614 29.9964 18.2225 29.9963 17.9836 29.9961C17.5311 29.9958 17.0787 29.9947 16.6262 29.9935C16.1111 29.9921 15.596 29.9914 15.0809 29.9908C14.0212 29.9895 12.9615 29.9873 11.9019 29.9845C11.8841 29.4596 11.8707 28.9348 11.8625 28.4097C11.8586 28.1657 11.8533 27.9219 11.8446 27.678C11.7756 25.6923 11.7756 25.6923 12.4632 24.9601C12.4962 24.9275 12.5291 24.8949 12.5631 24.8614C12.6977 24.7239 12.8115 24.574 12.9271 24.4211C13.0648 24.2398 13.2113 24.0655 13.3573 23.8906C13.387 23.8549 13.4167 23.8193 13.4473 23.7825C14.2449 22.8322 15.1308 21.8881 16.1416 21.1546C16.1825 21.1244 16.2234 21.0943 16.2655 21.0632C18.0669 19.7378 20.58 18.2392 22.9126 18.2942Z" fill="#F3F3F3"/>
<path d="M0.713929 18.2927C1.14443 18.3229 1.54326 18.394 1.95718 18.5156C2.01377 18.5321 2.07036 18.5487 2.12867 18.5658C3.56803 19.001 4.93526 19.7069 6.13904 20.6076C6.19553 20.6497 6.19553 20.6497 6.25316 20.6926C7.4277 21.5752 8.55028 22.6314 9.444 23.7985C9.5117 23.8843 9.57951 23.97 9.64739 24.0556C9.72254 24.151 9.79764 24.2465 9.8727 24.342C9.90644 24.3847 9.94018 24.4273 9.97493 24.4713C10.0476 24.5647 10.1184 24.6597 10.1878 24.7556C10.2867 24.885 10.3839 24.9952 10.4961 25.1115C11.1905 25.8889 11.0837 26.8255 11.0513 27.8071C11.0405 28.1692 11.0335 28.5314 11.0258 28.8935C11.0211 29.1104 11.0163 29.3272 11.0115 29.544C11.0098 29.6183 11.0082 29.6926 11.0065 29.7692C11.0047 29.8488 11.0047 29.8488 11.0029 29.9299C9.97792 29.9431 8.95294 29.953 7.92786 29.9591C7.45188 29.962 6.97594 29.966 6.49999 29.9724C6.08505 29.978 5.67015 29.9817 5.25517 29.9829C5.03551 29.9837 4.81595 29.9854 4.59631 29.9895C4.35087 29.994 4.10554 29.9941 3.86005 29.9939C3.78757 29.9959 3.71508 29.9979 3.6404 30C3.158 29.9944 3.158 29.9944 2.94426 29.8093C2.83147 29.6665 2.73749 29.5247 2.64702 29.3668C2.61851 29.321 2.59001 29.2751 2.56065 29.2279C2.48367 29.1029 2.41286 28.9759 2.34302 28.8468C2.31679 28.7985 2.29055 28.7503 2.26352 28.7006C0.603575 25.5999 -0.112737 21.7542 0.713929 18.2927Z" fill="#F3F3F3"/>
<path d="M21.7782 15C21.8797 15.2623 21.9803 15.5249 22.0808 15.7876C22.1237 15.8982 22.1237 15.8982 22.1674 16.011C22.3197 16.4108 22.4461 16.7944 22.5231 17.2162C22.4844 17.2238 22.4458 17.2314 22.406 17.2393C18.7421 17.9683 15.4989 19.8483 13.0879 22.7885C13.0457 22.8397 13.0457 22.8397 13.0026 22.892C12.5648 23.4256 12.1525 23.9697 11.7708 24.5467C11.6955 24.6592 11.6161 24.769 11.5361 24.878C11.4951 24.878 11.4541 24.878 11.4119 24.878C11.3299 24.7817 11.3299 24.7817 11.2359 24.646C11.2009 24.5963 11.1659 24.5465 11.1299 24.4953C11.0924 24.4414 11.0548 24.3875 11.0162 24.3319C10.6341 23.793 10.233 23.2834 9.79799 22.7885C9.77012 22.7565 9.74224 22.7244 9.71352 22.6915C9.04775 21.9286 8.35419 21.2007 7.56334 20.5722C7.49569 20.5166 7.42813 20.4609 7.36064 20.405C5.5139 18.8858 3.40602 17.9177 1.10769 17.3429C1.21324 16.864 1.37468 16.4116 1.54609 15.9538C1.56797 15.8953 1.58986 15.8368 1.6124 15.7765C1.70456 15.5331 1.79711 15.2953 1.91465 15.0633C2.35365 15.0983 2.75592 15.222 3.17688 15.3497C5.23198 15.969 7.35144 16.3514 9.48763 16.5197C9.52987 16.5234 9.57212 16.527 9.61565 16.5308C13.4701 16.8594 17.6939 16.3775 21.3538 15.0557C21.5299 15 21.5299 15 21.7782 15Z" fill="#F3F3F3"/>
<path d="M1.33682 11.3415C1.4467 11.4975 1.4467 11.4975 1.56682 11.7027C1.60694 11.7698 1.64706 11.8368 1.6884 11.9059C1.77343 12.0953 1.77343 12.0953 1.77294 12.2303C1.65962 12.4433 1.45731 12.5661 1.27031 12.7113C1.13361 12.843 1.13361 12.843 1.11901 13.0387C1.16613 13.3265 1.30295 13.4195 1.5215 13.5984C2.55962 14.3121 3.84717 14.5857 5.05574 14.8556C5.11521 14.8689 5.17468 14.8822 5.23595 14.8959C5.29178 14.9078 5.3476 14.9197 5.40512 14.932C5.45374 14.9423 5.50235 14.9527 5.55243 14.9634C5.96127 15.0228 6.22864 14.9426 6.59823 14.7791C6.6471 14.7582 6.69596 14.7372 6.74631 14.7157C6.90164 14.6491 7.05657 14.5816 7.21147 14.514C7.36709 14.4466 7.52278 14.3793 7.67864 14.3124C7.77543 14.2708 7.87206 14.2289 7.96852 14.1865C8.30156 14.0429 8.30156 14.0429 8.50959 14.0429C8.50069 14.1803 8.49155 14.3177 8.4823 14.4551C8.4747 14.5699 8.4747 14.5699 8.46695 14.6871C8.44792 14.914 8.41772 15.1369 8.38484 15.3622C15.885 15.9092 15.885 15.9092 22.7187 13.4107C22.8797 13.193 22.8901 13.1142 22.8551 12.8492C22.7397 12.6986 22.7397 12.6986 22.5822 12.5783C22.5316 12.5358 22.4809 12.4933 22.4287 12.4495C22.3005 12.3452 22.3005 12.3452 22.169 12.2838C22.2119 12.0542 22.3096 11.8743 22.4224 11.6713C22.4737 11.5785 22.4737 11.5785 22.526 11.4838C22.5654 11.4133 22.5654 11.4133 22.6056 11.3415C23.0742 11.407 23.4111 11.7362 23.6932 12.1032C23.992 12.5164 24.0362 12.9138 23.9778 13.4146C23.7713 14.1183 23.2054 14.5183 22.5956 14.8637C20.8983 15.774 18.8742 16.0738 16.9922 16.3163C16.9176 16.326 16.8431 16.3357 16.7663 16.3458C16.5092 16.3772 16.252 16.4049 15.9942 16.4302C15.9378 16.4357 15.8815 16.4413 15.8234 16.447C14.6463 16.5589 13.4745 16.5756 12.2934 16.5722C12.0408 16.5715 11.7882 16.5719 11.5356 16.5726C10.4166 16.5753 9.31161 16.5517 8.19773 16.4302C8.15656 16.8033 8.1154 17.1765 8.07298 17.561C7.82485 17.4985 7.69633 17.4252 7.48703 17.2832C7.42226 17.2394 7.3575 17.1957 7.29078 17.1507C7.22344 17.1047 7.1561 17.0587 7.08673 17.0113C7.02012 16.9662 6.9535 16.9212 6.88487 16.8748C6.78737 16.8087 6.78736 16.8087 6.68789 16.7413C6.59245 16.677 6.59245 16.677 6.49509 16.6113C6.36268 16.5183 6.24417 16.4222 6.12191 16.317C5.81364 16.0936 5.41447 16.0576 5.04863 15.9888C4.81634 15.9449 4.58486 15.897 4.35333 15.8493C4.30781 15.8399 4.26229 15.8306 4.21539 15.821C2.87554 15.5429 1.02577 15.0706 0.21413 13.8544C-0.0110563 13.4739 -0.0293809 13.0926 0.0270142 12.6608C0.175358 12.1591 0.752884 11.3415 1.33682 11.3415Z" fill="#3A3A3A"/>
<path d="M4.14022 0.00548314C4.20835 0.0050943 4.27647 0.00470545 4.34666 0.00430482C4.57572 0.00330787 4.80474 0.00409928 5.03381 0.0048822C5.1977 0.00454457 5.3616 0.00410083 5.5255 0.00355861C5.92492 0.00244934 6.32433 0.00269003 6.72376 0.0034122C7.04833 0.00397478 7.3729 0.00405162 7.69748 0.00378016C7.76673 0.00372286 7.76673 0.00372286 7.83738 0.00366441C7.93117 0.00358472 8.02495 0.0035039 8.11874 0.00342198C8.99848 0.00271094 9.87822 0.00352885 10.758 0.00486779C11.5131 0.00598146 12.2682 0.00578803 13.0233 0.00463878C13.8998 0.00330531 14.7764 0.00277941 15.653 0.00354509C15.7464 0.00362449 15.8398 0.00370285 15.9333 0.00378016C16.0023 0.00383784 16.0023 0.00383784 16.0726 0.00389669C16.3969 0.00411204 16.7211 0.00374834 17.0453 0.0031621C17.4816 0.00239063 17.9179 0.00293869 18.3542 0.00438205C18.5146 0.00471248 18.675 0.00461556 18.8354 0.00406732C19.0538 0.00338946 19.2721 0.00423652 19.4905 0.00548314C19.5865 0.00464909 19.5865 0.00464909 19.6844 0.00379819C20.1102 0.00853509 20.1102 0.00853508 20.318 0.1499C20.4519 0.360329 20.4429 0.547989 20.4049 0.784921C20.3404 1.0209 20.2568 1.24866 20.172 1.47818C18.854 5.21747 19.172 9.20718 20.8114 12.7928C20.8303 12.834 20.8491 12.8752 20.8685 12.9177C20.9629 13.1234 21.0581 13.3287 21.1546 13.5334C21.2066 13.6451 21.2066 13.6451 21.2597 13.759C21.307 13.8591 21.307 13.8591 21.3552 13.9612C21.385 14.04 21.385 14.04 21.4154 14.1204C21.3522 14.2451 21.3522 14.2451 21.204 14.299C21.1057 14.3258 21.1057 14.3258 21.0054 14.3531C20.9317 14.3733 20.8581 14.3935 20.7822 14.4143C20.702 14.4356 20.6217 14.4568 20.5391 14.4788C20.498 14.4897 20.4569 14.5007 20.4146 14.5121C18.4023 15.05 16.3564 15.4352 14.2785 15.616C14.2116 15.622 14.1446 15.6279 14.0757 15.6341C12.018 15.794 9.88221 15.7649 7.83644 15.4914C7.79222 15.4856 7.748 15.4799 7.70244 15.4739C5.84945 15.2321 3.97955 14.8646 2.21538 14.2451C2.29344 14.0016 2.38295 13.7748 2.49762 13.546C4.30302 9.86738 4.92886 5.60137 3.54515 1.66902C3.487 1.50814 3.42742 1.34834 3.36388 1.18945C3.24075 0.873229 3.18442 0.626085 3.22591 0.286397C3.44186 -0.0548734 3.77461 0.00230517 4.14022 0.00548314Z" stroke="#F3F3F3" stroke-width="0.4" mask="url(#path-1-inside-1_37_642)"/>
<path d="M22.9126 18.2942C22.9539 18.5286 22.9946 18.7631 23.0352 18.9976C23.0525 19.0958 23.0525 19.0958 23.0701 19.1959C23.621 22.3946 22.953 25.7086 21.4492 28.5699C21.4189 28.6276 21.3887 28.6853 21.3575 28.7447C20.8221 29.7373 20.8221 29.7373 20.4447 29.9845C20.2879 29.9998 20.2879 29.9998 20.0975 29.9995C19.9893 29.9997 19.9893 29.9997 19.8789 30C19.7997 29.9996 19.7205 29.9991 19.6389 29.9986C19.5556 29.9987 19.4722 29.9987 19.3863 29.9987C19.1577 29.9987 18.929 29.998 18.7004 29.9971C18.4614 29.9964 18.2225 29.9963 17.9836 29.9961C17.5311 29.9958 17.0787 29.9947 16.6262 29.9935C16.1111 29.9921 15.596 29.9914 15.0809 29.9908C14.0212 29.9895 12.9615 29.9873 11.9019 29.9845C11.8841 29.4596 11.8707 28.9348 11.8625 28.4097C11.8586 28.1657 11.8533 27.9219 11.8446 27.678C11.7756 25.6923 11.7756 25.6923 12.4632 24.9601C12.4962 24.9275 12.5291 24.8949 12.5631 24.8614C12.6977 24.7239 12.8115 24.574 12.9271 24.4211C13.0648 24.2398 13.2113 24.0655 13.3573 23.8906C13.387 23.8549 13.4167 23.8193 13.4473 23.7825C14.2449 22.8322 15.1308 21.8881 16.1416 21.1546C16.1825 21.1244 16.2234 21.0943 16.2655 21.0632C18.0669 19.7378 20.58 18.2392 22.9126 18.2942Z" stroke="#F3F3F3" stroke-width="0.4" mask="url(#path-1-inside-1_37_642)"/>
<path d="M0.713929 18.2927C1.14443 18.3229 1.54326 18.394 1.95718 18.5156C2.01377 18.5321 2.07036 18.5487 2.12867 18.5658C3.56803 19.001 4.93526 19.7069 6.13904 20.6076C6.19553 20.6497 6.19553 20.6497 6.25316 20.6926C7.4277 21.5752 8.55028 22.6314 9.444 23.7985C9.5117 23.8843 9.57951 23.97 9.64739 24.0556C9.72254 24.151 9.79764 24.2465 9.8727 24.342C9.90644 24.3847 9.94018 24.4273 9.97493 24.4713C10.0476 24.5647 10.1184 24.6597 10.1878 24.7556C10.2867 24.885 10.3839 24.9952 10.4961 25.1115C11.1905 25.8889 11.0837 26.8255 11.0513 27.8071C11.0405 28.1692 11.0335 28.5314 11.0258 28.8935C11.0211 29.1104 11.0163 29.3272 11.0115 29.544C11.0098 29.6183 11.0082 29.6926 11.0065 29.7692C11.0047 29.8488 11.0047 29.8488 11.0029 29.9299C9.97792 29.9431 8.95294 29.953 7.92786 29.9591C7.45188 29.962 6.97594 29.966 6.49999 29.9724C6.08505 29.978 5.67015 29.9817 5.25517 29.9829C5.03551 29.9837 4.81595 29.9854 4.59631 29.9895C4.35087 29.994 4.10554 29.9941 3.86005 29.9939C3.78757 29.9959 3.71508 29.9979 3.6404 30C3.158 29.9944 3.158 29.9944 2.94426 29.8093C2.83147 29.6665 2.73749 29.5247 2.64702 29.3668C2.61851 29.321 2.59001 29.2751 2.56065 29.2279C2.48367 29.1029 2.41286 28.9759 2.34302 28.8468C2.31679 28.7985 2.29055 28.7503 2.26352 28.7006C0.603575 25.5999 -0.112737 21.7542 0.713929 18.2927Z" stroke="#F3F3F3" stroke-width="0.4" mask="url(#path-1-inside-1_37_642)"/>
<path d="M21.7782 15C21.8797 15.2623 21.9803 15.5249 22.0808 15.7876C22.1237 15.8982 22.1237 15.8982 22.1674 16.011C22.3197 16.4108 22.4461 16.7944 22.5231 17.2162C22.4844 17.2238 22.4458 17.2314 22.406 17.2393C18.7421 17.9683 15.4989 19.8483 13.0879 22.7885C13.0457 22.8397 13.0457 22.8397 13.0026 22.892C12.5648 23.4256 12.1525 23.9697 11.7708 24.5467C11.6955 24.6592 11.6161 24.769 11.5361 24.878C11.4951 24.878 11.4541 24.878 11.4119 24.878C11.3299 24.7817 11.3299 24.7817 11.2359 24.646C11.2009 24.5963 11.1659 24.5465 11.1299 24.4953C11.0924 24.4414 11.0548 24.3875 11.0162 24.3319C10.6341 23.793 10.233 23.2834 9.79799 22.7885C9.77012 22.7565 9.74224 22.7244 9.71352 22.6915C9.04775 21.9286 8.35419 21.2007 7.56334 20.5722C7.49569 20.5166 7.42813 20.4609 7.36064 20.405C5.5139 18.8858 3.40602 17.9177 1.10769 17.3429C1.21324 16.864 1.37468 16.4116 1.54609 15.9538C1.56797 15.8953 1.58986 15.8368 1.6124 15.7765C1.70456 15.5331 1.79711 15.2953 1.91465 15.0633C2.35365 15.0983 2.75592 15.222 3.17688 15.3497C5.23198 15.969 7.35144 16.3514 9.48763 16.5197C9.52987 16.5234 9.57212 16.527 9.61565 16.5308C13.4701 16.8594 17.6939 16.3775 21.3538 15.0557C21.5299 15 21.5299 15 21.7782 15Z" stroke="#F3F3F3" stroke-width="0.4" mask="url(#path-1-inside-1_37_642)"/>
<path d="M1.33682 11.3415C1.4467 11.4975 1.4467 11.4975 1.56682 11.7027C1.60694 11.7698 1.64706 11.8368 1.6884 11.9059C1.77343 12.0953 1.77343 12.0953 1.77294 12.2303C1.65962 12.4433 1.45731 12.5661 1.27031 12.7113C1.13361 12.843 1.13361 12.843 1.11901 13.0387C1.16613 13.3265 1.30295 13.4195 1.5215 13.5984C2.55962 14.3121 3.84717 14.5857 5.05574 14.8556C5.11521 14.8689 5.17468 14.8822 5.23595 14.8959C5.29178 14.9078 5.3476 14.9197 5.40512 14.932C5.45374 14.9423 5.50235 14.9527 5.55243 14.9634C5.96127 15.0228 6.22864 14.9426 6.59823 14.7791C6.6471 14.7582 6.69596 14.7372 6.74631 14.7157C6.90164 14.6491 7.05657 14.5816 7.21147 14.514C7.36709 14.4466 7.52278 14.3793 7.67864 14.3124C7.77543 14.2708 7.87206 14.2289 7.96852 14.1865C8.30156 14.0429 8.30156 14.0429 8.50959 14.0429C8.50069 14.1803 8.49155 14.3177 8.4823 14.4551C8.4747 14.5699 8.4747 14.5699 8.46695 14.6871C8.44792 14.914 8.41772 15.1369 8.38484 15.3622C15.885 15.9092 15.885 15.9092 22.7187 13.4107C22.8797 13.193 22.8901 13.1142 22.8551 12.8492C22.7397 12.6986 22.7397 12.6986 22.5822 12.5783C22.5316 12.5358 22.4809 12.4933 22.4287 12.4495C22.3005 12.3452 22.3005 12.3452 22.169 12.2838C22.2119 12.0542 22.3096 11.8743 22.4224 11.6713C22.4737 11.5785 22.4737 11.5785 22.526 11.4838C22.5654 11.4133 22.5654 11.4133 22.6056 11.3415C23.0742 11.407 23.4111 11.7362 23.6932 12.1032C23.992 12.5164 24.0362 12.9138 23.9778 13.4146C23.7713 14.1183 23.2054 14.5183 22.5956 14.8637C20.8983 15.774 18.8742 16.0738 16.9922 16.3163C16.9176 16.326 16.8431 16.3357 16.7663 16.3458C16.5092 16.3772 16.252 16.4049 15.9942 16.4302C15.9378 16.4357 15.8815 16.4413 15.8234 16.447C14.6463 16.5589 13.4745 16.5756 12.2934 16.5722C12.0408 16.5715 11.7882 16.5719 11.5356 16.5726C10.4166 16.5753 9.31161 16.5517 8.19773 16.4302C8.15656 16.8033 8.1154 17.1765 8.07298 17.561C7.82485 17.4985 7.69633 17.4252 7.48703 17.2832C7.42226 17.2394 7.3575 17.1957 7.29078 17.1507C7.22344 17.1047 7.1561 17.0587 7.08673 17.0113C7.02012 16.9662 6.9535 16.9212 6.88487 16.8748C6.78737 16.8087 6.78736 16.8087 6.68789 16.7413C6.59245 16.677 6.59245 16.677 6.49509 16.6113C6.36268 16.5183 6.24417 16.4222 6.12191 16.317C5.81364 16.0936 5.41447 16.0576 5.04863 15.9888C4.81634 15.9449 4.58486 15.897 4.35333 15.8493C4.30781 15.8399 4.26229 15.8306 4.21539 15.821C2.87554 15.5429 1.02577 15.0706 0.21413 13.8544C-0.0110563 13.4739 -0.0293809 13.0926 0.0270142 12.6608C0.175358 12.1591 0.752884 11.3415 1.33682 11.3415Z" stroke="#F3F3F3" stroke-width="0.4" mask="url(#path-1-inside-1_37_642)"/>
</svg>
