<svg width="24" height="28" viewBox="0 0 24 28" fill="none" xmlns="http://www.w3.org/2000/svg">
<mask id="path-1-inside-1_37_673" fill="white">
<path d="M4.87306 0.0051176C4.93632 0.00475468 4.99958 0.00439175 5.06476 0.00401783C5.27746 0.00308734 5.49012 0.00382599 5.70282 0.00455672C5.85501 0.0042416 6.0072 0.00382744 6.15939 0.00332136C6.53029 0.00228605 6.90117 0.00251069 7.27206 0.00318472C7.57345 0.0037098 7.87484 0.00378151 8.17623 0.00352814C8.24054 0.00347467 8.24053 0.00347467 8.30614 0.00342012C8.39323 0.00334574 8.48031 0.00327031 8.5674 0.00319385C9.38431 0.00253021 10.2012 0.00329359 11.0181 0.00454327C11.7193 0.00558269 12.4204 0.00540216 13.1216 0.00432953C13.9356 0.00308495 14.7495 0.00259411 15.5635 0.00330874C15.6502 0.00338285 15.737 0.00345599 15.8238 0.00352814C15.8878 0.00358198 15.8878 0.00358198 15.9531 0.00363691C16.2542 0.0038379 16.5553 0.00349845 16.8564 0.00295129C17.2615 0.00223125 17.6666 0.00274277 18.0717 0.00408991C18.2207 0.00439831 18.3696 0.00430785 18.5186 0.00379616C18.7214 0.00316349 18.9241 0.00395408 19.1269 0.0051176C19.216 0.00433915 19.216 0.00433915 19.3069 0.00354498C19.7023 0.00796608 19.7023 0.00796607 19.8953 0.139907C20.0196 0.336307 20.0112 0.511456 19.9759 0.732593C19.916 0.952844 19.8384 1.16542 19.7597 1.37964C18.5359 4.86964 18.8311 8.59337 20.3535 11.94C20.371 11.9784 20.3885 12.0169 20.4065 12.0565C20.4941 12.2485 20.5825 12.4401 20.6722 12.6312C20.7205 12.7354 20.7205 12.7354 20.7697 12.8417C20.8136 12.9351 20.8136 12.9351 20.8584 13.0304C20.8861 13.104 20.8861 13.104 20.9143 13.1791C20.8556 13.2954 20.8556 13.2954 20.718 13.3458C20.6267 13.3708 20.6267 13.3708 20.5335 13.3963C20.4652 13.4151 20.3968 13.4339 20.3263 13.4533C20.2518 13.4732 20.1773 13.493 20.1006 13.5135C20.0624 13.5238 20.0243 13.534 19.985 13.5446C18.1165 14.0466 16.2166 14.4062 14.2872 14.5749C14.225 14.5805 14.1629 14.5861 14.0988 14.5918C12.1882 14.741 10.2049 14.7139 8.30526 14.4586C8.2642 14.4532 8.22314 14.4479 8.18084 14.4423C6.4602 14.2166 4.72386 13.8736 3.08571 13.2954C3.1582 13.0681 3.24131 12.8565 3.34779 12.6429C5.02423 9.20956 5.60537 5.22795 4.3205 1.55775C4.2665 1.4076 4.21118 1.25845 4.15218 1.11016C4.03784 0.815014 3.98554 0.584346 4.02406 0.267304C4.22458 -0.0512151 4.53357 0.00215149 4.87306 0.0051176Z"/>
<path d="M22.3045 17.0745C22.3429 17.2933 22.3807 17.5122 22.4184 17.7311C22.4344 17.8227 22.4344 17.8227 22.4508 17.9162C22.9624 20.9016 22.3421 23.9947 20.9457 26.6652C20.9176 26.7191 20.8895 26.7729 20.8605 26.8284C20.3634 27.7548 20.3634 27.7548 20.0129 27.9856C19.8673 27.9998 19.8673 27.9998 19.6905 27.9995C19.5901 27.9998 19.5901 27.9998 19.4875 28C19.414 27.9996 19.3405 27.9992 19.2647 27.9987C19.1873 27.9988 19.1099 27.9988 19.0302 27.9988C18.8178 27.9988 18.6055 27.9981 18.3932 27.9973C18.1713 27.9966 17.9495 27.9965 17.7276 27.9964C17.3075 27.996 16.8873 27.9951 16.4672 27.9939C15.9889 27.9926 15.5105 27.992 15.0322 27.9914C14.0483 27.9902 13.0643 27.9881 12.0803 27.9856C12.0638 27.4956 12.0514 27.0058 12.0438 26.5157C12.0401 26.288 12.0352 26.0604 12.0271 25.8328C11.963 23.9795 11.963 23.9795 12.6015 23.2961C12.6322 23.2657 12.6628 23.2353 12.6943 23.2039C12.8193 23.0757 12.9249 22.9358 13.0323 22.793C13.1602 22.6238 13.2962 22.4611 13.4318 22.2979C13.4594 22.2646 13.4869 22.2313 13.5153 22.197C14.256 21.3101 15.0786 20.4289 16.0172 19.7443C16.0552 19.7161 16.0932 19.688 16.1323 19.659C17.8049 18.422 20.1386 17.0232 22.3045 17.0745Z"/>
<path d="M1.69151 17.0732C2.09126 17.1014 2.46159 17.1677 2.84596 17.2812C2.8985 17.2967 2.95105 17.3121 3.00519 17.328C4.34174 17.7343 5.61131 18.3931 6.72911 19.2338C6.78156 19.2731 6.78156 19.2731 6.83508 19.3131C7.92572 20.1369 8.96812 21.1226 9.798 22.2119C9.86087 22.292 9.92383 22.372 9.98686 22.4519C10.0566 22.541 10.1264 22.6301 10.1961 22.7192C10.2274 22.759 10.2587 22.7989 10.291 22.8399C10.3585 22.9271 10.4243 23.0157 10.4886 23.1053C10.5805 23.226 10.6707 23.3289 10.7749 23.4374C11.4198 24.1629 11.3206 25.0371 11.2905 25.9533C11.2804 26.2913 11.2739 26.6293 11.2668 26.9673C11.2625 27.1697 11.258 27.372 11.2535 27.5744C11.252 27.6438 11.2505 27.7131 11.2489 27.7846C11.2473 27.8589 11.2472 27.8589 11.2456 27.9346C10.2938 27.9469 9.34201 27.9562 8.39016 27.9618C7.94817 27.9646 7.50623 27.9682 7.06428 27.9743C6.67897 27.9795 6.29371 27.9829 5.90837 27.9841C5.7044 27.9847 5.50052 27.9863 5.29658 27.9902C5.06867 27.9944 4.84085 27.9945 4.6129 27.9943C4.5456 27.9962 4.47829 27.9981 4.40895 28C3.961 27.9948 3.961 27.9948 3.76253 27.822C3.65779 27.6888 3.57053 27.5563 3.48651 27.4091C3.46005 27.3663 3.43358 27.3235 3.40632 27.2793C3.33483 27.1627 3.26908 27.0441 3.20423 26.9237C3.17987 26.8786 3.15551 26.8336 3.13041 26.7873C1.58903 23.8933 0.923887 20.3039 1.69151 17.0732Z"/>
<path d="M21.2512 14C21.3455 14.2448 21.4389 14.4899 21.5322 14.735C21.572 14.8383 21.572 14.8383 21.6126 14.9436C21.754 15.3167 21.8714 15.6748 21.9429 16.0685C21.907 16.0756 21.8711 16.0827 21.8342 16.09C18.4319 16.7704 15.4204 18.525 13.1816 21.2692C13.1424 21.3171 13.1424 21.3171 13.1024 21.3659C12.6958 21.8639 12.3131 22.3717 11.9586 22.9103C11.8886 23.0153 11.815 23.1177 11.7406 23.2195C11.7026 23.2195 11.6645 23.2195 11.6253 23.2195C11.5492 23.1296 11.5492 23.1296 11.4619 23.003C11.4294 22.9565 11.3969 22.9101 11.3634 22.8623C11.3286 22.812 11.2938 22.7616 11.2579 22.7098C10.9031 22.2068 10.5306 21.7312 10.1267 21.2692C10.1008 21.2394 10.0749 21.2095 10.0483 21.1787C9.43005 20.4667 8.78604 19.7873 8.05168 19.2008C7.98886 19.1488 7.92612 19.0968 7.86345 19.0447C6.14862 17.6267 4.19131 16.7232 2.05714 16.1867C2.15515 15.7397 2.30506 15.3175 2.46422 14.8902C2.48454 14.8356 2.50487 14.781 2.5258 14.7247C2.61138 14.4975 2.69732 14.2757 2.80646 14.0591C3.21411 14.0917 3.58764 14.2072 3.97853 14.3264C5.88684 14.9044 7.85491 15.2613 9.83851 15.4184C9.87774 15.4218 9.91697 15.4252 9.95739 15.4287C13.5365 15.7355 17.4586 15.2857 20.8571 14.052C21.0206 14 21.0206 14 21.2512 14Z"/>
<path d="M1.33682 16.3902C1.4467 16.5445 1.4467 16.5445 1.56682 16.7472C1.60694 16.8135 1.64706 16.8798 1.6884 16.948C1.77343 17.1353 1.77343 17.1353 1.77294 17.2686C1.65962 17.4791 1.45731 17.6005 1.27031 17.744C1.13361 17.8741 1.13361 17.8741 1.11901 18.0675C1.16613 18.3519 1.30295 18.4439 1.5215 18.6207C2.55962 19.3259 3.84717 19.5963 5.05574 19.8631C5.11521 19.8762 5.17468 19.8894 5.23595 19.9029C5.29178 19.9146 5.3476 19.9264 5.40512 19.9385C5.45374 19.9487 5.50235 19.959 5.55243 19.9695C5.96127 20.0282 6.22864 19.949 6.59823 19.7874C6.64709 19.7667 6.69596 19.7461 6.74631 19.7248C6.90164 19.659 7.05657 19.5923 7.21147 19.5255C7.36709 19.4588 7.52278 19.3923 7.67864 19.3262C7.77542 19.2851 7.87206 19.2437 7.96852 19.2019C8.30156 19.0599 8.30156 19.0599 8.50959 19.0599C8.50069 19.1957 8.49154 19.3315 8.4823 19.4673C8.4747 19.5807 8.4747 19.5807 8.46695 19.6965C8.44792 19.9207 8.41772 20.1411 8.38484 20.3636C15.885 20.9042 15.885 20.9042 22.7187 18.4351C22.8797 18.22 22.8901 18.1422 22.8551 17.8803C22.7397 17.7314 22.7397 17.7314 22.5822 17.6125C22.5316 17.5705 22.4809 17.5285 22.4287 17.4852C22.3004 17.3822 22.3005 17.3822 22.169 17.3215C22.2119 17.0946 22.3096 16.9168 22.4224 16.7162C22.4737 16.6245 22.4737 16.6245 22.526 16.5309C22.5654 16.4613 22.5654 16.4613 22.6056 16.3902C23.0742 16.455 23.4111 16.7803 23.6932 17.143C23.992 17.5514 24.0362 17.9441 23.9778 18.439C23.7713 19.1344 23.2054 19.5297 22.5956 19.8711C20.8983 20.7706 18.8742 21.0669 16.9922 21.3065C16.9176 21.3162 16.8431 21.3258 16.7663 21.3357C16.5092 21.3668 16.252 21.3941 15.9942 21.4191C15.9378 21.4246 15.8815 21.4301 15.8234 21.4357C14.6463 21.5463 13.4745 21.5628 12.2934 21.5594C12.0408 21.5587 11.7882 21.5591 11.5356 21.5599C10.4166 21.5625 9.31161 21.5392 8.19773 21.4191C8.15656 21.7878 8.1154 22.1566 8.07298 22.5366C7.82485 22.4748 7.69633 22.4024 7.48703 22.2621C7.42226 22.2188 7.3575 22.1756 7.29078 22.1311C7.22344 22.0856 7.1561 22.0402 7.08673 21.9933C7.02011 21.9489 6.9535 21.9044 6.88487 21.8585C6.78737 21.7932 6.78736 21.7932 6.68789 21.7266C6.59245 21.663 6.59245 21.663 6.49509 21.5981C6.36268 21.5062 6.24417 21.4112 6.12191 21.3073C5.81364 21.0865 5.41447 21.0509 5.04863 20.9829C4.81634 20.9395 4.58486 20.8922 4.35333 20.845C4.30781 20.8358 4.26229 20.8266 4.21539 20.8171C2.87554 20.5422 1.02577 20.0755 0.21413 18.8736C-0.0110563 18.4976 -0.0293809 18.1207 0.0270142 17.694C0.175358 17.1982 0.752884 16.3902 1.33682 16.3902Z"/>
</mask>
<path d="M4.87306 0.0051176C4.93632 0.00475468 4.99958 0.00439175 5.06476 0.00401783C5.27746 0.00308734 5.49012 0.00382599 5.70282 0.00455672C5.85501 0.0042416 6.0072 0.00382744 6.15939 0.00332136C6.53029 0.00228605 6.90117 0.00251069 7.27206 0.00318472C7.57345 0.0037098 7.87484 0.00378151 8.17623 0.00352814C8.24054 0.00347467 8.24053 0.00347467 8.30614 0.00342012C8.39323 0.00334574 8.48031 0.00327031 8.5674 0.00319385C9.38431 0.00253021 10.2012 0.00329359 11.0181 0.00454327C11.7193 0.00558269 12.4204 0.00540216 13.1216 0.00432953C13.9356 0.00308495 14.7495 0.00259411 15.5635 0.00330874C15.6502 0.00338285 15.737 0.00345599 15.8238 0.00352814C15.8878 0.00358198 15.8878 0.00358198 15.9531 0.00363691C16.2542 0.0038379 16.5553 0.00349845 16.8564 0.00295129C17.2615 0.00223125 17.6666 0.00274277 18.0717 0.00408991C18.2207 0.00439831 18.3696 0.00430785 18.5186 0.00379616C18.7214 0.00316349 18.9241 0.00395408 19.1269 0.0051176C19.216 0.00433915 19.216 0.00433915 19.3069 0.00354498C19.7023 0.00796608 19.7023 0.00796607 19.8953 0.139907C20.0196 0.336307 20.0112 0.511456 19.9759 0.732593C19.916 0.952844 19.8384 1.16542 19.7597 1.37964C18.5359 4.86964 18.8311 8.59337 20.3535 11.94C20.371 11.9784 20.3885 12.0169 20.4065 12.0565C20.4941 12.2485 20.5825 12.4401 20.6722 12.6312C20.7205 12.7354 20.7205 12.7354 20.7697 12.8417C20.8136 12.9351 20.8136 12.9351 20.8584 13.0304C20.8861 13.104 20.8861 13.104 20.9143 13.1791C20.8556 13.2954 20.8556 13.2954 20.718 13.3458C20.6267 13.3708 20.6267 13.3708 20.5335 13.3963C20.4652 13.4151 20.3968 13.4339 20.3263 13.4533C20.2518 13.4732 20.1773 13.493 20.1006 13.5135C20.0624 13.5238 20.0243 13.534 19.985 13.5446C18.1165 14.0466 16.2166 14.4062 14.2872 14.5749C14.225 14.5805 14.1629 14.5861 14.0988 14.5918C12.1882 14.741 10.2049 14.7139 8.30526 14.4586C8.2642 14.4532 8.22314 14.4479 8.18084 14.4423C6.4602 14.2166 4.72386 13.8736 3.08571 13.2954C3.1582 13.0681 3.24131 12.8565 3.34779 12.6429C5.02423 9.20956 5.60537 5.22795 4.3205 1.55775C4.2665 1.4076 4.21118 1.25845 4.15218 1.11016C4.03784 0.815014 3.98554 0.584346 4.02406 0.267304C4.22458 -0.0512151 4.53357 0.00215149 4.87306 0.0051176Z" fill="#F3F3F3"/>
<path d="M22.3045 17.0745C22.3429 17.2933 22.3807 17.5122 22.4184 17.7311C22.4344 17.8227 22.4344 17.8227 22.4508 17.9162C22.9624 20.9016 22.3421 23.9947 20.9457 26.6652C20.9176 26.7191 20.8895 26.7729 20.8605 26.8284C20.3634 27.7548 20.3634 27.7548 20.0129 27.9856C19.8673 27.9998 19.8673 27.9998 19.6905 27.9995C19.5901 27.9998 19.5901 27.9998 19.4875 28C19.414 27.9996 19.3405 27.9992 19.2647 27.9987C19.1873 27.9988 19.1099 27.9988 19.0302 27.9988C18.8178 27.9988 18.6055 27.9981 18.3932 27.9973C18.1713 27.9966 17.9495 27.9965 17.7276 27.9964C17.3075 27.996 16.8873 27.9951 16.4672 27.9939C15.9889 27.9926 15.5105 27.992 15.0322 27.9914C14.0483 27.9902 13.0643 27.9881 12.0803 27.9856C12.0638 27.4956 12.0514 27.0058 12.0438 26.5157C12.0401 26.288 12.0352 26.0604 12.0271 25.8328C11.963 23.9795 11.963 23.9795 12.6015 23.2961C12.6322 23.2657 12.6628 23.2353 12.6943 23.2039C12.8193 23.0757 12.9249 22.9358 13.0323 22.793C13.1602 22.6238 13.2962 22.4611 13.4318 22.2979C13.4594 22.2646 13.4869 22.2313 13.5153 22.197C14.256 21.3101 15.0786 20.4289 16.0172 19.7443C16.0552 19.7161 16.0932 19.688 16.1323 19.659C17.8049 18.422 20.1386 17.0232 22.3045 17.0745Z" fill="#F3F3F3"/>
<path d="M1.69151 17.0732C2.09126 17.1014 2.46159 17.1677 2.84596 17.2812C2.8985 17.2967 2.95105 17.3121 3.00519 17.328C4.34174 17.7343 5.61131 18.3931 6.72911 19.2338C6.78156 19.2731 6.78156 19.2731 6.83508 19.3131C7.92572 20.1369 8.96812 21.1226 9.798 22.2119C9.86087 22.292 9.92383 22.372 9.98686 22.4519C10.0566 22.541 10.1264 22.6301 10.1961 22.7192C10.2274 22.759 10.2587 22.7989 10.291 22.8399C10.3585 22.9271 10.4243 23.0157 10.4886 23.1053C10.5805 23.226 10.6707 23.3289 10.7749 23.4374C11.4198 24.1629 11.3206 25.0371 11.2905 25.9533C11.2804 26.2913 11.2739 26.6293 11.2668 26.9673C11.2625 27.1697 11.258 27.372 11.2535 27.5744C11.252 27.6438 11.2505 27.7131 11.2489 27.7846C11.2473 27.8589 11.2472 27.8589 11.2456 27.9346C10.2938 27.9469 9.34201 27.9562 8.39016 27.9618C7.94817 27.9646 7.50623 27.9682 7.06428 27.9743C6.67897 27.9795 6.29371 27.9829 5.90837 27.9841C5.7044 27.9847 5.50052 27.9863 5.29658 27.9902C5.06867 27.9944 4.84085 27.9945 4.6129 27.9943C4.5456 27.9962 4.47829 27.9981 4.40895 28C3.961 27.9948 3.961 27.9948 3.76253 27.822C3.65779 27.6888 3.57053 27.5563 3.48651 27.4091C3.46005 27.3663 3.43358 27.3235 3.40632 27.2793C3.33483 27.1627 3.26908 27.0441 3.20423 26.9237C3.17987 26.8786 3.15551 26.8336 3.13041 26.7873C1.58903 23.8933 0.923887 20.3039 1.69151 17.0732Z" fill="#F3F3F3"/>
<path d="M21.2512 14C21.3455 14.2448 21.4389 14.4899 21.5322 14.735C21.572 14.8383 21.572 14.8383 21.6126 14.9436C21.754 15.3167 21.8714 15.6748 21.9429 16.0685C21.907 16.0756 21.8711 16.0827 21.8342 16.09C18.4319 16.7704 15.4204 18.525 13.1816 21.2692C13.1424 21.3171 13.1424 21.3171 13.1024 21.3659C12.6958 21.8639 12.3131 22.3717 11.9586 22.9103C11.8886 23.0153 11.815 23.1177 11.7406 23.2195C11.7026 23.2195 11.6645 23.2195 11.6253 23.2195C11.5492 23.1296 11.5492 23.1296 11.4619 23.003C11.4294 22.9565 11.3969 22.9101 11.3634 22.8623C11.3286 22.812 11.2938 22.7616 11.2579 22.7098C10.9031 22.2068 10.5306 21.7312 10.1267 21.2692C10.1008 21.2394 10.0749 21.2095 10.0483 21.1787C9.43005 20.4667 8.78604 19.7873 8.05168 19.2008C7.98886 19.1488 7.92612 19.0968 7.86345 19.0447C6.14862 17.6267 4.19131 16.7232 2.05714 16.1867C2.15515 15.7397 2.30506 15.3175 2.46422 14.8902C2.48454 14.8356 2.50487 14.781 2.5258 14.7247C2.61138 14.4975 2.69732 14.2757 2.80646 14.0591C3.21411 14.0917 3.58764 14.2072 3.97853 14.3264C5.88684 14.9044 7.85491 15.2613 9.83851 15.4184C9.87774 15.4218 9.91697 15.4252 9.95739 15.4287C13.5365 15.7355 17.4586 15.2857 20.8571 14.052C21.0206 14 21.0206 14 21.2512 14Z" fill="#F3F3F3"/>
<path d="M1.33682 16.3902C1.4467 16.5445 1.4467 16.5445 1.56682 16.7472C1.60694 16.8135 1.64706 16.8798 1.6884 16.948C1.77343 17.1353 1.77343 17.1353 1.77294 17.2686C1.65962 17.4791 1.45731 17.6005 1.27031 17.744C1.13361 17.8741 1.13361 17.8741 1.11901 18.0675C1.16613 18.3519 1.30295 18.4439 1.5215 18.6207C2.55962 19.3259 3.84717 19.5963 5.05574 19.8631C5.11521 19.8762 5.17468 19.8894 5.23595 19.9029C5.29178 19.9146 5.3476 19.9264 5.40512 19.9385C5.45374 19.9487 5.50235 19.959 5.55243 19.9695C5.96127 20.0282 6.22864 19.949 6.59823 19.7874C6.64709 19.7667 6.69596 19.7461 6.74631 19.7248C6.90164 19.659 7.05657 19.5923 7.21147 19.5255C7.36709 19.4588 7.52278 19.3923 7.67864 19.3262C7.77542 19.2851 7.87206 19.2437 7.96852 19.2019C8.30156 19.0599 8.30156 19.0599 8.50959 19.0599C8.50069 19.1957 8.49154 19.3315 8.4823 19.4673C8.4747 19.5807 8.4747 19.5807 8.46695 19.6965C8.44792 19.9207 8.41772 20.1411 8.38484 20.3636C15.885 20.9042 15.885 20.9042 22.7187 18.4351C22.8797 18.22 22.8901 18.1422 22.8551 17.8803C22.7397 17.7314 22.7397 17.7314 22.5822 17.6125C22.5316 17.5705 22.4809 17.5285 22.4287 17.4852C22.3004 17.3822 22.3005 17.3822 22.169 17.3215C22.2119 17.0946 22.3096 16.9168 22.4224 16.7162C22.4737 16.6245 22.4737 16.6245 22.526 16.5309C22.5654 16.4613 22.5654 16.4613 22.6056 16.3902C23.0742 16.455 23.4111 16.7803 23.6932 17.143C23.992 17.5514 24.0362 17.9441 23.9778 18.439C23.7713 19.1344 23.2054 19.5297 22.5956 19.8711C20.8983 20.7706 18.8742 21.0669 16.9922 21.3065C16.9176 21.3162 16.8431 21.3258 16.7663 21.3357C16.5092 21.3668 16.252 21.3941 15.9942 21.4191C15.9378 21.4246 15.8815 21.4301 15.8234 21.4357C14.6463 21.5463 13.4745 21.5628 12.2934 21.5594C12.0408 21.5587 11.7882 21.5591 11.5356 21.5599C10.4166 21.5625 9.31161 21.5392 8.19773 21.4191C8.15656 21.7878 8.1154 22.1566 8.07298 22.5366C7.82485 22.4748 7.69633 22.4024 7.48703 22.2621C7.42226 22.2188 7.3575 22.1756 7.29078 22.1311C7.22344 22.0856 7.1561 22.0402 7.08673 21.9933C7.02011 21.9489 6.9535 21.9044 6.88487 21.8585C6.78737 21.7932 6.78736 21.7932 6.68789 21.7266C6.59245 21.663 6.59245 21.663 6.49509 21.5981C6.36268 21.5062 6.24417 21.4112 6.12191 21.3073C5.81364 21.0865 5.41447 21.0509 5.04863 20.9829C4.81634 20.9395 4.58486 20.8922 4.35333 20.845C4.30781 20.8358 4.26229 20.8266 4.21539 20.8171C2.87554 20.5422 1.02577 20.0755 0.21413 18.8736C-0.0110563 18.4976 -0.0293809 18.1207 0.0270142 17.694C0.175358 17.1982 0.752884 16.3902 1.33682 16.3902Z" fill="#3A3A3A"/>
<path d="M4.87306 0.0051176C4.93632 0.00475468 4.99958 0.00439175 5.06476 0.00401783C5.27746 0.00308734 5.49012 0.00382599 5.70282 0.00455672C5.85501 0.0042416 6.0072 0.00382744 6.15939 0.00332136C6.53029 0.00228605 6.90117 0.00251069 7.27206 0.00318472C7.57345 0.0037098 7.87484 0.00378151 8.17623 0.00352814C8.24054 0.00347467 8.24053 0.00347467 8.30614 0.00342012C8.39323 0.00334574 8.48031 0.00327031 8.5674 0.00319385C9.38431 0.00253021 10.2012 0.00329359 11.0181 0.00454327C11.7193 0.00558269 12.4204 0.00540216 13.1216 0.00432953C13.9356 0.00308495 14.7495 0.00259411 15.5635 0.00330874C15.6502 0.00338285 15.737 0.00345599 15.8238 0.00352814C15.8878 0.00358198 15.8878 0.00358198 15.9531 0.00363691C16.2542 0.0038379 16.5553 0.00349845 16.8564 0.00295129C17.2615 0.00223125 17.6666 0.00274277 18.0717 0.00408991C18.2207 0.00439831 18.3696 0.00430785 18.5186 0.00379616C18.7214 0.00316349 18.9241 0.00395408 19.1269 0.0051176C19.216 0.00433915 19.216 0.00433915 19.3069 0.00354498C19.7023 0.00796608 19.7023 0.00796607 19.8953 0.139907C20.0196 0.336307 20.0112 0.511456 19.9759 0.732593C19.916 0.952844 19.8384 1.16542 19.7597 1.37964C18.5359 4.86964 18.8311 8.59337 20.3535 11.94C20.371 11.9784 20.3885 12.0169 20.4065 12.0565C20.4941 12.2485 20.5825 12.4401 20.6722 12.6312C20.7205 12.7354 20.7205 12.7354 20.7697 12.8417C20.8136 12.9351 20.8136 12.9351 20.8584 13.0304C20.8861 13.104 20.8861 13.104 20.9143 13.1791C20.8556 13.2954 20.8556 13.2954 20.718 13.3458C20.6267 13.3708 20.6267 13.3708 20.5335 13.3963C20.4652 13.4151 20.3968 13.4339 20.3263 13.4533C20.2518 13.4732 20.1773 13.493 20.1006 13.5135C20.0624 13.5238 20.0243 13.534 19.985 13.5446C18.1165 14.0466 16.2166 14.4062 14.2872 14.5749C14.225 14.5805 14.1629 14.5861 14.0988 14.5918C12.1882 14.741 10.2049 14.7139 8.30526 14.4586C8.2642 14.4532 8.22314 14.4479 8.18084 14.4423C6.4602 14.2166 4.72386 13.8736 3.08571 13.2954C3.1582 13.0681 3.24131 12.8565 3.34779 12.6429C5.02423 9.20956 5.60537 5.22795 4.3205 1.55775C4.2665 1.4076 4.21118 1.25845 4.15218 1.11016C4.03784 0.815014 3.98554 0.584346 4.02406 0.267304C4.22458 -0.0512151 4.53357 0.00215149 4.87306 0.0051176Z" stroke="#F3F3F3" stroke-width="0.4" mask="url(#path-1-inside-1_37_673)"/>
<path d="M22.3045 17.0745C22.3429 17.2933 22.3807 17.5122 22.4184 17.7311C22.4344 17.8227 22.4344 17.8227 22.4508 17.9162C22.9624 20.9016 22.3421 23.9947 20.9457 26.6652C20.9176 26.7191 20.8895 26.7729 20.8605 26.8284C20.3634 27.7548 20.3634 27.7548 20.0129 27.9856C19.8673 27.9998 19.8673 27.9998 19.6905 27.9995C19.5901 27.9998 19.5901 27.9998 19.4875 28C19.414 27.9996 19.3405 27.9992 19.2647 27.9987C19.1873 27.9988 19.1099 27.9988 19.0302 27.9988C18.8178 27.9988 18.6055 27.9981 18.3932 27.9973C18.1713 27.9966 17.9495 27.9965 17.7276 27.9964C17.3075 27.996 16.8873 27.9951 16.4672 27.9939C15.9889 27.9926 15.5105 27.992 15.0322 27.9914C14.0483 27.9902 13.0643 27.9881 12.0803 27.9856C12.0638 27.4956 12.0514 27.0058 12.0438 26.5157C12.0401 26.288 12.0352 26.0604 12.0271 25.8328C11.963 23.9795 11.963 23.9795 12.6015 23.2961C12.6322 23.2657 12.6628 23.2353 12.6943 23.2039C12.8193 23.0757 12.9249 22.9358 13.0323 22.793C13.1602 22.6238 13.2962 22.4611 13.4318 22.2979C13.4594 22.2646 13.4869 22.2313 13.5153 22.197C14.256 21.3101 15.0786 20.4289 16.0172 19.7443C16.0552 19.7161 16.0932 19.688 16.1323 19.659C17.8049 18.422 20.1386 17.0232 22.3045 17.0745Z" stroke="#F3F3F3" stroke-width="0.4" mask="url(#path-1-inside-1_37_673)"/>
<path d="M1.69151 17.0732C2.09126 17.1014 2.46159 17.1677 2.84596 17.2812C2.8985 17.2967 2.95105 17.3121 3.00519 17.328C4.34174 17.7343 5.61131 18.3931 6.72911 19.2338C6.78156 19.2731 6.78156 19.2731 6.83508 19.3131C7.92572 20.1369 8.96812 21.1226 9.798 22.2119C9.86087 22.292 9.92383 22.372 9.98686 22.4519C10.0566 22.541 10.1264 22.6301 10.1961 22.7192C10.2274 22.759 10.2587 22.7989 10.291 22.8399C10.3585 22.9271 10.4243 23.0157 10.4886 23.1053C10.5805 23.226 10.6707 23.3289 10.7749 23.4374C11.4198 24.1629 11.3206 25.0371 11.2905 25.9533C11.2804 26.2913 11.2739 26.6293 11.2668 26.9673C11.2625 27.1697 11.258 27.372 11.2535 27.5744C11.252 27.6438 11.2505 27.7131 11.2489 27.7846C11.2473 27.8589 11.2472 27.8589 11.2456 27.9346C10.2938 27.9469 9.34201 27.9562 8.39016 27.9618C7.94817 27.9646 7.50623 27.9682 7.06428 27.9743C6.67897 27.9795 6.29371 27.9829 5.90837 27.9841C5.7044 27.9847 5.50052 27.9863 5.29658 27.9902C5.06867 27.9944 4.84085 27.9945 4.6129 27.9943C4.5456 27.9962 4.47829 27.9981 4.40895 28C3.961 27.9948 3.961 27.9948 3.76253 27.822C3.65779 27.6888 3.57053 27.5563 3.48651 27.4091C3.46005 27.3663 3.43358 27.3235 3.40632 27.2793C3.33483 27.1627 3.26908 27.0441 3.20423 26.9237C3.17987 26.8786 3.15551 26.8336 3.13041 26.7873C1.58903 23.8933 0.923887 20.3039 1.69151 17.0732Z" stroke="#F3F3F3" stroke-width="0.4" mask="url(#path-1-inside-1_37_673)"/>
<path d="M21.2512 14C21.3455 14.2448 21.4389 14.4899 21.5322 14.735C21.572 14.8383 21.572 14.8383 21.6126 14.9436C21.754 15.3167 21.8714 15.6748 21.9429 16.0685C21.907 16.0756 21.8711 16.0827 21.8342 16.09C18.4319 16.7704 15.4204 18.525 13.1816 21.2692C13.1424 21.3171 13.1424 21.3171 13.1024 21.3659C12.6958 21.8639 12.3131 22.3717 11.9586 22.9103C11.8886 23.0153 11.815 23.1177 11.7406 23.2195C11.7026 23.2195 11.6645 23.2195 11.6253 23.2195C11.5492 23.1296 11.5492 23.1296 11.4619 23.003C11.4294 22.9565 11.3969 22.9101 11.3634 22.8623C11.3286 22.812 11.2938 22.7616 11.2579 22.7098C10.9031 22.2068 10.5306 21.7312 10.1267 21.2692C10.1008 21.2394 10.0749 21.2095 10.0483 21.1787C9.43005 20.4667 8.78604 19.7873 8.05168 19.2008C7.98886 19.1488 7.92612 19.0968 7.86345 19.0447C6.14862 17.6267 4.19131 16.7232 2.05714 16.1867C2.15515 15.7397 2.30506 15.3175 2.46422 14.8902C2.48454 14.8356 2.50487 14.781 2.5258 14.7247C2.61138 14.4975 2.69732 14.2757 2.80646 14.0591C3.21411 14.0917 3.58764 14.2072 3.97853 14.3264C5.88684 14.9044 7.85491 15.2613 9.83851 15.4184C9.87774 15.4218 9.91697 15.4252 9.95739 15.4287C13.5365 15.7355 17.4586 15.2857 20.8571 14.052C21.0206 14 21.0206 14 21.2512 14Z" stroke="#F3F3F3" stroke-width="0.4" mask="url(#path-1-inside-1_37_673)"/>
<path d="M1.33682 16.3902C1.4467 16.5445 1.4467 16.5445 1.56682 16.7472C1.60694 16.8135 1.64706 16.8798 1.6884 16.948C1.77343 17.1353 1.77343 17.1353 1.77294 17.2686C1.65962 17.4791 1.45731 17.6005 1.27031 17.744C1.13361 17.8741 1.13361 17.8741 1.11901 18.0675C1.16613 18.3519 1.30295 18.4439 1.5215 18.6207C2.55962 19.3259 3.84717 19.5963 5.05574 19.8631C5.11521 19.8762 5.17468 19.8894 5.23595 19.9029C5.29178 19.9146 5.3476 19.9264 5.40512 19.9385C5.45374 19.9487 5.50235 19.959 5.55243 19.9695C5.96127 20.0282 6.22864 19.949 6.59823 19.7874C6.64709 19.7667 6.69596 19.7461 6.74631 19.7248C6.90164 19.659 7.05657 19.5923 7.21147 19.5255C7.36709 19.4588 7.52278 19.3923 7.67864 19.3262C7.77542 19.2851 7.87206 19.2437 7.96852 19.2019C8.30156 19.0599 8.30156 19.0599 8.50959 19.0599C8.50069 19.1957 8.49154 19.3315 8.4823 19.4673C8.4747 19.5807 8.4747 19.5807 8.46695 19.6965C8.44792 19.9207 8.41772 20.1411 8.38484 20.3636C15.885 20.9042 15.885 20.9042 22.7187 18.4351C22.8797 18.22 22.8901 18.1422 22.8551 17.8803C22.7397 17.7314 22.7397 17.7314 22.5822 17.6125C22.5316 17.5705 22.4809 17.5285 22.4287 17.4852C22.3004 17.3822 22.3005 17.3822 22.169 17.3215C22.2119 17.0946 22.3096 16.9168 22.4224 16.7162C22.4737 16.6245 22.4737 16.6245 22.526 16.5309C22.5654 16.4613 22.5654 16.4613 22.6056 16.3902C23.0742 16.455 23.4111 16.7803 23.6932 17.143C23.992 17.5514 24.0362 17.9441 23.9778 18.439C23.7713 19.1344 23.2054 19.5297 22.5956 19.8711C20.8983 20.7706 18.8742 21.0669 16.9922 21.3065C16.9176 21.3162 16.8431 21.3258 16.7663 21.3357C16.5092 21.3668 16.252 21.3941 15.9942 21.4191C15.9378 21.4246 15.8815 21.4301 15.8234 21.4357C14.6463 21.5463 13.4745 21.5628 12.2934 21.5594C12.0408 21.5587 11.7882 21.5591 11.5356 21.5599C10.4166 21.5625 9.31161 21.5392 8.19773 21.4191C8.15656 21.7878 8.1154 22.1566 8.07298 22.5366C7.82485 22.4748 7.69633 22.4024 7.48703 22.2621C7.42226 22.2188 7.3575 22.1756 7.29078 22.1311C7.22344 22.0856 7.1561 22.0402 7.08673 21.9933C7.02011 21.9489 6.9535 21.9044 6.88487 21.8585C6.78737 21.7932 6.78736 21.7932 6.68789 21.7266C6.59245 21.663 6.59245 21.663 6.49509 21.5981C6.36268 21.5062 6.24417 21.4112 6.12191 21.3073C5.81364 21.0865 5.41447 21.0509 5.04863 20.9829C4.81634 20.9395 4.58486 20.8922 4.35333 20.845C4.30781 20.8358 4.26229 20.8266 4.21539 20.8171C2.87554 20.5422 1.02577 20.0755 0.21413 18.8736C-0.0110563 18.4976 -0.0293809 18.1207 0.0270142 17.694C0.175358 17.1982 0.752884 16.3902 1.33682 16.3902Z" stroke="#F3F3F3" stroke-width="0.4" mask="url(#path-1-inside-1_37_673)"/>
</svg>
