<svg width="24" height="24" viewBox="0 0 24 24" fill="none" xmlns="http://www.w3.org/2000/svg">
<path d="M11.9826 0.000169707C12.0303 0.000270605 12.0779 0.000371503 12.127 0.000475459C12.811 0.0028009 13.482 0.0145472 14.1538 0.155252C14.1995 0.164553 14.2451 0.173855 14.2921 0.183438C16.5415 0.653957 18.6106 1.66505 20.2635 3.27313C20.3602 3.3635 20.4645 3.44359 20.5679 3.52609C20.6193 3.58015 20.6691 3.63576 20.7171 3.69288C20.809 3.80103 20.9015 3.90686 20.9993 4.00981C22.6536 5.7553 23.6353 8.13789 23.9388 10.5019C23.9428 10.5331 23.9469 10.5643 23.9511 10.5965C23.9837 10.8641 23.9937 11.1281 23.9951 11.3976C23.9954 11.4419 23.9957 11.4862 23.9961 11.5319C24.0068 13.3819 24.0068 13.3819 23.8451 14.1536C23.8312 14.2221 23.8312 14.2221 23.8169 14.2919C23.3557 16.4969 22.3732 18.515 20.8257 20.1594C20.7427 20.2494 20.6642 20.3391 20.5869 20.4337C20.4965 20.5411 20.4115 20.6302 20.3045 20.7197C20.1974 20.8106 20.0926 20.902 19.9907 20.9988C18.2452 22.6532 15.8624 23.635 13.4984 23.9384C13.4671 23.9425 13.4359 23.9466 13.4038 23.9508C13.1356 23.9835 12.871 23.9934 12.601 23.9947C12.5562 23.995 12.5114 23.9953 12.4653 23.9955C12.3708 23.996 12.2762 23.9963 12.1817 23.9965C12.0407 23.9969 11.8998 23.9984 11.7589 23.9998C11.1261 24.0033 10.5173 23.9495 9.89338 23.8448C9.84018 23.836 9.78697 23.8271 9.73216 23.8181C9.6106 23.7963 9.49018 23.772 9.36961 23.7453C9.30458 23.7309 9.30458 23.7309 9.23824 23.7162C7.21573 23.246 5.35114 22.2467 3.8407 20.8254C3.75072 20.7424 3.66113 20.664 3.56656 20.5868C3.45817 20.4955 3.36799 20.4092 3.27742 20.3013C3.15771 20.1604 3.03472 20.024 2.90873 19.8887C1.53201 18.3557 0.641629 16.4294 0.213776 14.4257C0.204467 14.3824 0.195158 14.3391 0.185567 14.2945C0.0314481 13.5358 -0.00277061 12.7898 0.000169681 12.0176C0.00027058 11.9699 0.00037148 11.9222 0.000475437 11.8731C0.00280207 11.1885 0.0171125 10.5191 0.155254 9.84642C0.164556 9.79901 0.173857 9.75161 0.183441 9.70276C0.631785 7.46074 1.67555 5.37895 3.27318 3.73678C3.36355 3.64016 3.44364 3.5358 3.52614 3.43246C3.5802 3.38105 3.63581 3.33122 3.69293 3.28323C3.80108 3.19129 3.90692 3.09882 4.00987 3.00104C5.52905 1.56123 7.54569 0.64697 9.57443 0.213773C9.61773 0.204464 9.66103 0.195155 9.70564 0.185564C10.4644 0.0314476 11.2104 -0.00277081 11.9826 0.000169707ZM10.9673 6.75355C10.7808 7.04824 10.6839 7.29839 10.7361 7.64601C10.8402 7.99892 11.0946 8.23725 11.4115 8.41026C11.7874 8.57688 12.1207 8.58805 12.5059 8.44354C12.8279 8.29196 13.0799 8.07256 13.2175 7.73964C13.2967 7.43055 13.2741 7.17796 13.1238 6.89693C12.967 6.63351 12.6667 6.44791 12.3777 6.35177C11.8587 6.26232 11.3355 6.3457 10.9673 6.75355ZM10.8905 10.4404C10.7651 10.6639 10.7922 10.9169 10.7956 11.1666C10.7954 11.2284 10.7951 11.2902 10.7948 11.3538C10.7941 11.5225 10.7952 11.6912 10.7966 11.8599C10.7979 12.0367 10.7976 12.2136 10.7976 12.3904C10.7977 12.6873 10.7989 12.9841 10.8008 13.2809C10.803 13.6238 10.8038 13.9667 10.8037 14.3097C10.8036 14.6753 10.8046 15.0408 10.8058 15.4064C10.8061 15.5116 10.8062 15.6167 10.8063 15.7219C10.8065 15.9179 10.8078 16.1139 10.8093 16.31C10.8093 16.3681 10.8092 16.4263 10.8091 16.4863C10.8097 16.5397 10.8103 16.5931 10.811 16.6481C10.8112 16.6945 10.8114 16.7408 10.8117 16.7885C10.8379 16.9736 10.912 17.1019 11.056 17.2207C11.1019 17.2479 11.1019 17.2479 11.1487 17.2757C11.1789 17.2942 11.2092 17.3128 11.2403 17.3319C11.6276 17.5252 12.0608 17.54 12.4799 17.4421C12.758 17.3463 12.982 17.242 13.1519 16.9936C13.2491 16.7393 13.2374 16.4975 13.2364 16.2275C13.2367 16.1676 13.237 16.1077 13.2373 16.046C13.2382 15.8824 13.2381 15.7187 13.2379 15.5551C13.2377 15.4182 13.238 15.2814 13.2383 15.1446C13.2389 14.8218 13.2389 14.4989 13.2383 14.1761C13.2378 13.8434 13.2385 13.5107 13.2397 13.178C13.2408 12.892 13.2411 12.6059 13.2408 12.3199C13.2406 12.1492 13.2407 11.9786 13.2415 11.8079C13.2424 11.6176 13.2417 11.4273 13.2409 11.237C13.2416 11.1525 13.2416 11.1525 13.2423 11.0663C13.239 10.6919 13.192 10.528 12.9307 10.259C12.3386 9.88573 11.3624 9.8737 10.8905 10.4404Z" fill="#F3F3F3"/>
</svg>
