<svg width="24" height="34" viewBox="0 0 24 34" fill="none" xmlns="http://www.w3.org/2000/svg">
<path d="M13.1968 3.80154C13.3315 4.25168 13.3315 4.25168 13.4363 4.75193C13.1968 5.15287 13.1968 5.15287 12.7179 5.46472C11.8349 5.62807 11.8349 5.62807 11.0417 5.70232C10.9627 6.09435 10.8836 6.48638 10.8022 6.8903C11.7699 7.21034 12.5058 6.98515 13.4363 6.6527C14.5712 5.97706 14.8638 5.23143 15.352 4.03914C16.473 4.03328 17.594 4.02896 18.715 4.02609C19.0967 4.02489 19.4783 4.02327 19.8599 4.02122C20.4074 4.01835 20.9548 4.01699 21.5022 4.01594C21.6738 4.01471 21.8454 4.01348 22.0223 4.01222C22.433 4.01217 22.8437 4.02443 23.2542 4.03914C23.6425 4.42444 23.5447 4.85954 23.5648 5.39285C23.5792 5.75526 23.5792 5.75526 23.5938 6.125C23.603 6.39255 23.6123 6.66011 23.6218 6.93578C23.6321 7.21621 23.6424 7.49665 23.6531 7.78559C23.6807 8.55823 23.707 9.3309 23.7322 10.1036C23.748 10.5863 23.7643 11.069 23.7806 11.5517C24.0303 19.0263 24.0213 26.4986 23.9726 33.9763C22.2341 33.9763 20.4956 33.9763 18.7044 33.9763C17.7421 30.5936 16.8509 27.1964 15.9806 23.7893C15.8427 23.2507 15.7048 22.7121 15.5669 22.1735C15.2345 20.8744 14.9028 19.5752 14.5713 18.2759C14.3644 17.4658 14.1568 16.6558 13.949 15.8459C13.7524 15.0785 13.5569 14.3107 13.3615 13.543C13.2597 13.1466 13.2597 13.1466 13.1558 12.7422C13.0962 12.5066 13.0366 12.271 12.9751 12.0283C12.9247 11.8305 12.8743 11.6326 12.8224 11.4288C12.7179 10.9294 12.7179 10.9294 12.7179 10.2166C12.3228 10.2951 11.9277 10.3735 11.5206 10.4542C10.9948 12.05 10.5267 13.6399 10.1502 15.2767C9.47374 18.1782 8.73396 21.0642 8.00351 23.9527C7.8599 24.5215 7.71632 25.0902 7.57276 25.659C7.25957 26.8997 6.94612 28.1404 6.63244 29.381C6.58607 29.5645 6.53969 29.7481 6.49191 29.9372C6.44981 30.1037 6.40771 30.2702 6.36433 30.4417C6.26791 30.8259 6.17389 31.2108 6.08034 31.5957C6.0186 31.8471 5.95687 32.0986 5.89326 32.3577C5.83152 32.611 5.76979 32.8643 5.70618 33.1252C5.53407 33.7387 5.53407 33.7387 5.29461 33.9763C4.90315 33.997 4.51082 34.0017 4.11881 33.9995C3.8819 33.9987 3.64499 33.998 3.4009 33.9972C3.15164 33.9952 2.90238 33.9932 2.64557 33.9911C2.39538 33.9901 2.1452 33.989 1.88743 33.9879C1.26709 33.9851 0.646782 33.9812 0.0264585 33.9763C-0.0248569 26.3371 -0.0234885 18.7049 0.234725 11.0691C0.250991 10.5868 0.266803 10.1045 0.282567 9.62217C0.31245 8.72664 0.344303 7.8312 0.377232 6.93578C0.386474 6.66822 0.395717 6.40066 0.405239 6.125C0.419591 5.76258 0.419591 5.76258 0.434233 5.39285C0.442209 5.18177 0.450185 4.97069 0.458403 4.75321C0.505381 4.27674 0.505381 4.27674 0.744842 4.03914C1.13416 4.00996 1.52471 3.99689 1.91508 3.99036C2.16436 3.98562 2.41364 3.98088 2.67047 3.976C2.94161 3.97203 3.21275 3.96805 3.4921 3.96396C3.90617 3.95656 3.90617 3.95656 4.3286 3.949C5.21432 3.93341 6.10006 3.91943 6.9858 3.90549C7.58461 3.89523 8.18342 3.88487 8.78223 3.8744C10.2537 3.8489 11.7253 3.82472 13.1968 3.80154ZM4.54695 31.5556C4.54976 31.5556 4.54976 31.5556 4.54695 31.5556C4.54414 31.5556 4.54976 31.5556 4.54695 31.5556C4.54414 31.5556 4.54414 31.5556 4.54695 31.5556Z" fill="#F3F3F3"/>
<path d="M6.97081 0.0447814C9.02538 0.0447814 11.08 0.0447814 13.1968 0.0447814C13.6757 1.47036 13.6757 1.47036 13.6757 2.65834C11.4631 2.65834 9.25048 2.65834 6.97081 2.65834C6.97081 1.79587 6.97081 0.933392 6.97081 0.0447814Z" fill="#F3F3F3"/>
<path d="M18.2255 0.0447814C19.8059 0.0447814 21.3864 0.0447814 23.0147 0.0447814C23.2252 1.8778 23.2252 1.8778 23.2542 2.42075C23.0147 2.65834 23.0147 2.65834 22.5479 2.68532C22.3485 2.68407 22.1491 2.68283 21.9437 2.68155C21.7284 2.68078 21.5131 2.68001 21.2912 2.67923C21.0648 2.67723 20.8384 2.67524 20.6051 2.67319C20.3778 2.67212 20.1504 2.67105 19.9162 2.66994C19.3526 2.66713 18.7891 2.66287 18.2255 2.65834C18.2255 1.79587 18.2255 0.933392 18.2255 0.0447814Z" fill="#F3F3F3"/>
<path d="M0.984329 0.0447713C2.01162 0.0447713 4.23621 0.0447759 5.29463 0.0447759C5.29463 0.907251 5.29463 1.76973 5.29463 2.65834C3.71419 2.65834 2.13374 2.65834 0.505407 2.65834C0.505407 2.50152 0.505407 2.34471 0.505407 2.18314C0.342573 2.18314 0.744871 2.18314 0.505407 2.18314C0.505407 1.70796 0.505418 0.0447759 0.505418 0.0447759L0.984329 0.0447713C0.984329 0.206337 0.984329 -0.112042 0.984329 0.0447713Z" fill="#F3F3F3"/>
<path d="M15.1125 0.0447814C15.5866 0.0447814 16.0608 0.0447814 16.5493 0.0447814C16.5493 0.907257 16.5493 1.76973 16.5493 2.65834C16.1541 2.65834 15.759 2.65834 15.3519 2.65834C15.2729 1.79587 15.1939 0.933392 15.1125 0.0447814Z" fill="#F3F3F3"/>
<path d="M8.83212 10.0146C8.92672 10.1194 8.97352 10.2422 9.02572 10.4017C9.04232 10.4522 9.05892 10.5027 9.07602 10.5547C9.10162 10.634 9.10162 10.634 9.12773 10.7148C9.14472 10.7663 9.16171 10.8179 9.17921 10.871C9.251 11.0909 9.32018 11.3107 9.37996 11.5413C9.44685 11.7956 9.52526 12.0374 9.60593 12.2793C9.62081 12.3243 9.63568 12.3692 9.65102 12.4156C9.69802 12.5576 9.74518 12.6994 9.79235 12.8412C9.82447 12.9381 9.85658 13.0351 9.88869 13.132C9.96692 13.3682 10.0453 13.6042 10.1238 13.8402C10.0388 13.9816 9.96629 14.0764 9.85931 14.1765C9.83129 14.2029 9.80327 14.2293 9.77439 14.2565C9.74534 14.2835 9.71629 14.3105 9.68636 14.3383C9.65687 14.366 9.62737 14.3937 9.59698 14.4223C9.52437 14.4905 9.45167 14.5584 9.37889 14.626C8.99842 14.1336 8.88191 13.2987 8.65576 12.6132C7.22923 18.2741 5.8027 23.935 4.33293 29.7675C4.83733 29.2876 5.34173 28.8077 5.86142 28.3132C5.94834 28.4257 5.98568 28.4892 6.03391 28.6395C6.05177 28.6945 6.05177 28.6945 6.06999 28.7507C6.08207 28.7888 6.09414 28.8269 6.10658 28.8661C6.11905 28.9047 6.13153 28.9433 6.14438 28.9831C6.17505 29.0782 6.20551 29.1735 6.23577 29.2689C6.15117 29.4166 6.07259 29.5106 5.96381 29.613C5.93247 29.6427 5.90114 29.6723 5.86885 29.7029C5.83507 29.7345 5.8013 29.7662 5.7665 29.7987C5.73151 29.8318 5.69653 29.8649 5.66049 29.899C5.54853 30.0048 5.43644 30.1103 5.32434 30.2157C5.213 30.3205 5.1017 30.4255 4.99045 30.5306C4.92128 30.5959 4.85206 30.6611 4.78278 30.7261C4.60036 30.8982 4.42324 31.0771 4.24754 31.2675C4.15196 31.37 4.05441 31.4644 3.95559 31.5579C3.91811 31.5934 3.88062 31.629 3.84201 31.6656C3.80401 31.7014 3.76602 31.7372 3.72687 31.7741C3.68761 31.8113 3.64835 31.8485 3.6079 31.8868C3.51206 31.9775 3.41618 32.0681 3.32026 32.1586C3.22858 32.056 3.18169 31.9396 3.13089 31.7843C3.11517 31.7364 3.09945 31.6886 3.08325 31.6393C3.06711 31.5893 3.05096 31.5393 3.03433 31.4877C3.01827 31.439 3.00221 31.3902 2.98565 31.34C2.91634 31.1276 2.85002 30.9149 2.79233 30.6923C2.72407 30.4329 2.64383 30.1864 2.56159 29.9398C2.53863 29.8703 2.53863 29.8703 2.5152 29.7995C2.46681 29.6534 2.41827 29.5073 2.36972 29.3613C2.33666 29.2616 2.30362 29.1618 2.27058 29.062C2.19005 28.8189 2.10938 28.5759 2.02862 28.333C2.11359 28.1916 2.18609 28.0968 2.29306 27.9967C2.32109 27.9703 2.34911 27.9439 2.37798 27.9167C2.40703 27.8897 2.43609 27.8627 2.46602 27.8349C2.49551 27.8071 2.52501 27.7794 2.5554 27.7509C2.62801 27.6827 2.70071 27.6148 2.77349 27.5471C3.15395 28.0396 3.27047 28.8745 3.49662 29.56C4.92315 23.8991 6.34968 18.2382 7.81944 12.4057C7.31505 12.8856 6.81065 13.3655 6.29096 13.86C6.20404 13.7474 6.16669 13.684 6.11847 13.5336C6.10656 13.497 6.09466 13.4603 6.08239 13.4225C6.07031 13.3844 6.05824 13.3463 6.0458 13.3071C6.03332 13.2684 6.02085 13.2298 6.008 13.19C5.97733 13.095 5.94687 12.9997 5.9166 12.9043C6.00722 12.7437 6.09591 12.6473 6.21333 12.5366C6.25007 12.5018 6.2868 12.467 6.32465 12.4311C6.36433 12.3939 6.40401 12.3567 6.44489 12.3183C6.5075 12.259 6.57012 12.1998 6.63273 12.1405C6.7205 12.0575 6.80835 11.9748 6.8962 11.892C7.04905 11.7481 7.20182 11.6038 7.35451 11.4594C7.43569 11.3826 7.51692 11.306 7.59821 11.2295C7.79473 11.0439 7.98717 10.8544 8.17596 10.6476C8.30112 10.5133 8.43071 10.3924 8.56037 10.2707C8.59997 10.2333 8.59997 10.2333 8.64036 10.1951C8.70424 10.1348 8.76817 10.0747 8.83212 10.0146Z" fill="#3A3A3A"/>
<path d="M13.1968 3.80154C13.3315 4.25168 13.3315 4.25168 13.4363 4.75193C13.1968 5.15287 13.1968 5.15287 12.7179 5.46472C11.8349 5.62807 11.8349 5.62807 11.0417 5.70232C10.9627 6.09435 10.8836 6.48638 10.8022 6.8903C11.7699 7.21034 12.5058 6.98515 13.4363 6.6527C14.5712 5.97706 14.8638 5.23143 15.352 4.03914C16.473 4.03328 17.594 4.02896 18.715 4.02609C19.0967 4.02489 19.4783 4.02327 19.8599 4.02122C20.4074 4.01835 20.9548 4.01699 21.5022 4.01594C21.6738 4.01471 21.8454 4.01348 22.0223 4.01222C22.433 4.01217 22.8437 4.02443 23.2542 4.03914C23.6425 4.42444 23.5447 4.85954 23.5648 5.39285C23.5792 5.75526 23.5792 5.75526 23.5938 6.125C23.603 6.39255 23.6123 6.66011 23.6218 6.93578C23.6321 7.21621 23.6424 7.49665 23.6531 7.78559C23.6807 8.55823 23.707 9.3309 23.7322 10.1036C23.748 10.5863 23.7643 11.069 23.7806 11.5517C24.0303 19.0263 24.0213 26.4986 23.9726 33.9763C22.2341 33.9763 20.4956 33.9763 18.7044 33.9763C17.7421 30.5936 16.8509 27.1964 15.9806 23.7893C15.8427 23.2507 15.7048 22.7121 15.5669 22.1735C15.2345 20.8744 14.9028 19.5752 14.5713 18.2759C14.3644 17.4658 14.1568 16.6558 13.949 15.8459C13.7524 15.0785 13.5569 14.3107 13.3615 13.543C13.2597 13.1466 13.2597 13.1466 13.1558 12.7422C13.0962 12.5066 13.0366 12.271 12.9751 12.0283C12.9247 11.8305 12.8743 11.6326 12.8224 11.4288C12.7179 10.9294 12.7179 10.9294 12.7179 10.2166C12.3228 10.2951 11.9277 10.3735 11.5206 10.4542C10.9948 12.05 10.5267 13.6399 10.1502 15.2767C9.47374 18.1782 8.73396 21.0642 8.00351 23.9527C7.8599 24.5215 7.71632 25.0902 7.57276 25.659C7.25957 26.8997 6.94612 28.1404 6.63244 29.381C6.58607 29.5645 6.53969 29.7481 6.49191 29.9372C6.44981 30.1037 6.40771 30.2702 6.36433 30.4417C6.26791 30.8259 6.17389 31.2108 6.08034 31.5957C6.0186 31.8471 5.95687 32.0986 5.89326 32.3577C5.83152 32.611 5.76979 32.8643 5.70618 33.1252C5.53407 33.7387 5.53407 33.7387 5.29461 33.9763C4.90315 33.997 4.51082 34.0017 4.11881 33.9995C3.8819 33.9987 3.64499 33.998 3.4009 33.9972C3.15164 33.9952 2.90238 33.9932 2.64557 33.9911C2.39538 33.9901 2.1452 33.989 1.88743 33.9879C1.26709 33.9851 0.646782 33.9812 0.0264585 33.9763C-0.0248569 26.3371 -0.0234885 18.7049 0.234725 11.0691C0.250991 10.5868 0.266803 10.1045 0.282567 9.62217C0.31245 8.72664 0.344303 7.8312 0.377232 6.93578C0.386474 6.66822 0.395717 6.40066 0.405239 6.125C0.419591 5.76258 0.419591 5.76258 0.434233 5.39285C0.442209 5.18177 0.450185 4.97069 0.458403 4.75321C0.505381 4.27674 0.505381 4.27674 0.744842 4.03914C1.13416 4.00996 1.52471 3.99689 1.91508 3.99036C2.16436 3.98562 2.41364 3.98088 2.67047 3.976C2.94161 3.97203 3.21275 3.96805 3.4921 3.96396C3.90617 3.95656 3.90617 3.95656 4.3286 3.949C5.21432 3.93341 6.10006 3.91943 6.9858 3.90549C7.58461 3.89523 8.18342 3.88487 8.78223 3.8744C10.2537 3.8489 11.7253 3.82472 13.1968 3.80154ZM4.54695 31.5556C4.54976 31.5556 4.54976 31.5556 4.54695 31.5556C4.54414 31.5556 4.54976 31.5556 4.54695 31.5556C4.54414 31.5556 4.54414 31.5556 4.54695 31.5556Z" fill="#F3F3F3"/>
<path d="M6.97081 0.0447814C9.02538 0.0447814 11.08 0.0447814 13.1968 0.0447814C13.6757 1.47036 13.6757 1.47036 13.6757 2.65834C11.4631 2.65834 9.25048 2.65834 6.97081 2.65834C6.97081 1.79587 6.97081 0.933392 6.97081 0.0447814Z" fill="#F3F3F3"/>
<path d="M18.2255 0.0447814C19.8059 0.0447814 21.3864 0.0447814 23.0147 0.0447814C23.2252 1.8778 23.2252 1.8778 23.2542 2.42075C23.0147 2.65834 23.0147 2.65834 22.5479 2.68532C22.3485 2.68407 22.1491 2.68283 21.9437 2.68155C21.7284 2.68078 21.5131 2.68001 21.2912 2.67923C21.0648 2.67723 20.8384 2.67524 20.6051 2.67319C20.3778 2.67212 20.1504 2.67105 19.9162 2.66994C19.3526 2.66713 18.7891 2.66287 18.2255 2.65834C18.2255 1.79587 18.2255 0.933392 18.2255 0.0447814Z" fill="#F3F3F3"/>
<path d="M0.984329 0.0447713C2.01162 0.0447713 4.23621 0.0447759 5.29463 0.0447759C5.29463 0.907251 5.29463 1.76973 5.29463 2.65834C3.71419 2.65834 2.13374 2.65834 0.505407 2.65834C0.505407 2.50152 0.505407 2.34471 0.505407 2.18314C0.342573 2.18314 0.744871 2.18314 0.505407 2.18314C0.505407 1.70796 0.505418 0.0447759 0.505418 0.0447759L0.984329 0.0447713C0.984329 0.206337 0.984329 -0.112042 0.984329 0.0447713Z" fill="#F3F3F3"/>
<path d="M15.1125 0.0447814C15.5866 0.0447814 16.0608 0.0447814 16.5493 0.0447814C16.5493 0.907257 16.5493 1.76973 16.5493 2.65834C16.1541 2.65834 15.759 2.65834 15.3519 2.65834C15.2729 1.79587 15.1939 0.933392 15.1125 0.0447814Z" fill="#F3F3F3"/>
<path d="M8.83212 10.0146C8.92672 10.1194 8.97352 10.2422 9.02572 10.4017C9.04232 10.4522 9.05892 10.5027 9.07602 10.5547C9.10162 10.634 9.10162 10.634 9.12773 10.7148C9.14472 10.7663 9.16171 10.8179 9.17921 10.871C9.251 11.0909 9.32018 11.3107 9.37996 11.5413C9.44685 11.7956 9.52526 12.0374 9.60593 12.2793C9.62081 12.3243 9.63568 12.3692 9.65102 12.4156C9.69802 12.5576 9.74518 12.6994 9.79235 12.8412C9.82447 12.9381 9.85658 13.0351 9.88869 13.132C9.96692 13.3682 10.0453 13.6042 10.1238 13.8402C10.0388 13.9816 9.96629 14.0764 9.85931 14.1765C9.83129 14.2029 9.80327 14.2293 9.77439 14.2565C9.74534 14.2835 9.71629 14.3105 9.68636 14.3383C9.65687 14.366 9.62737 14.3937 9.59698 14.4223C9.52437 14.4905 9.45167 14.5584 9.37889 14.626C8.99842 14.1336 8.88191 13.2987 8.65576 12.6132C7.22923 18.2741 5.8027 23.935 4.33293 29.7675C4.83733 29.2876 5.34173 28.8077 5.86142 28.3132C5.94834 28.4257 5.98568 28.4892 6.03391 28.6395C6.05177 28.6945 6.05177 28.6945 6.06999 28.7507C6.08207 28.7888 6.09414 28.8269 6.10658 28.8661C6.11905 28.9047 6.13153 28.9433 6.14438 28.9831C6.17505 29.0782 6.20551 29.1735 6.23577 29.2689C6.15117 29.4166 6.07259 29.5106 5.96381 29.613C5.93247 29.6427 5.90114 29.6723 5.86885 29.7029C5.83507 29.7345 5.8013 29.7662 5.7665 29.7987C5.73151 29.8318 5.69653 29.8649 5.66049 29.899C5.54853 30.0048 5.43644 30.1103 5.32434 30.2157C5.213 30.3205 5.1017 30.4255 4.99045 30.5306C4.92128 30.5959 4.85206 30.6611 4.78278 30.7261C4.60036 30.8982 4.42324 31.0771 4.24754 31.2675C4.15196 31.37 4.05441 31.4644 3.95559 31.5579C3.91811 31.5934 3.88062 31.629 3.84201 31.6656C3.80401 31.7014 3.76602 31.7372 3.72687 31.7741C3.68761 31.8113 3.64835 31.8485 3.6079 31.8868C3.51206 31.9775 3.41618 32.0681 3.32026 32.1586C3.22858 32.056 3.18169 31.9396 3.13089 31.7843C3.11517 31.7364 3.09945 31.6886 3.08325 31.6393C3.06711 31.5893 3.05096 31.5393 3.03433 31.4877C3.01827 31.439 3.00221 31.3902 2.98565 31.34C2.91634 31.1276 2.85002 30.9149 2.79233 30.6923C2.72407 30.4329 2.64383 30.1864 2.56159 29.9398C2.53863 29.8703 2.53863 29.8703 2.5152 29.7995C2.46681 29.6534 2.41827 29.5073 2.36972 29.3613C2.33666 29.2616 2.30362 29.1618 2.27058 29.062C2.19005 28.8189 2.10938 28.5759 2.02862 28.333C2.11359 28.1916 2.18609 28.0968 2.29306 27.9967C2.32109 27.9703 2.34911 27.9439 2.37798 27.9167C2.40703 27.8897 2.43609 27.8627 2.46602 27.8349C2.49551 27.8071 2.52501 27.7794 2.5554 27.7509C2.62801 27.6827 2.70071 27.6148 2.77349 27.5471C3.15395 28.0396 3.27047 28.8745 3.49662 29.56C4.92315 23.8991 6.34968 18.2382 7.81944 12.4057C7.31505 12.8856 6.81065 13.3655 6.29096 13.86C6.20404 13.7474 6.16669 13.684 6.11847 13.5336C6.10656 13.497 6.09466 13.4603 6.08239 13.4225C6.07031 13.3844 6.05824 13.3463 6.0458 13.3071C6.03332 13.2684 6.02085 13.2298 6.008 13.19C5.97733 13.095 5.94687 12.9997 5.9166 12.9043C6.00722 12.7437 6.09591 12.6473 6.21333 12.5366C6.25007 12.5018 6.2868 12.467 6.32465 12.4311C6.36433 12.3939 6.40401 12.3567 6.44489 12.3183C6.5075 12.259 6.57012 12.1998 6.63273 12.1405C6.7205 12.0575 6.80835 11.9748 6.8962 11.892C7.04905 11.7481 7.20182 11.6038 7.35451 11.4594C7.43569 11.3826 7.51692 11.306 7.59821 11.2295C7.79473 11.0439 7.98717 10.8544 8.17596 10.6476C8.30112 10.5133 8.43071 10.3924 8.56037 10.2707C8.59997 10.2333 8.59997 10.2333 8.64036 10.1951C8.70424 10.1348 8.76817 10.0747 8.83212 10.0146Z" fill="#3A3A3A"/>
</svg>
