<svg width="24" height="24" viewBox="0 0 24 24" fill="none" xmlns="http://www.w3.org/2000/svg">
<path d="M23.718 0.098791C23.8831 0.251389 23.967 0.368024 23.9933 0.5946C23.9934 0.653363 23.9935 0.712127 23.9936 0.772671C23.994 0.821967 23.994 0.821967 23.9944 0.872258C23.995 0.982095 23.9947 1.09191 23.9944 1.20174C23.9946 1.28061 23.995 1.35947 23.9954 1.43833C23.9962 1.65235 23.9961 1.86637 23.9959 2.08039C23.9957 2.2591 23.996 2.43781 23.9963 2.61652C23.997 3.03813 23.9969 3.45973 23.9963 3.88135C23.9958 4.31623 23.9965 4.75109 23.9977 5.18597C23.9988 5.55944 23.9991 5.9329 23.9988 6.30637C23.9986 6.52938 23.9988 6.75239 23.9996 6.9754C24.0003 7.18512 24.0001 7.39483 23.9992 7.60455C23.999 7.68146 23.9992 7.75837 23.9997 7.83529C24.0003 7.94041 23.9998 8.04546 23.9989 8.15058C23.9989 8.20936 23.9989 8.26814 23.9989 8.3287C23.9653 8.55779 23.8663 8.6977 23.697 8.85233C23.5906 8.91553 23.4963 8.94821 23.3767 8.97954C23.3313 8.99163 23.2859 9.00372 23.2391 9.01617C23.1891 9.02896 23.1392 9.04175 23.0878 9.05493C23.0344 9.06893 22.9811 9.08294 22.9261 9.09736C22.7456 9.14446 22.5649 9.19079 22.3841 9.23686C22.3525 9.24492 22.321 9.25297 22.2884 9.26128C21.7896 9.3886 21.2903 9.51379 20.7909 9.63852C20.6309 9.6785 20.4709 9.71854 20.3109 9.75858C19.934 9.85287 19.5572 9.94705 19.1803 10.0412C18.7922 10.1381 18.4041 10.2352 18.016 10.3324C17.6809 10.4164 17.3457 10.5002 17.0105 10.584C16.811 10.6338 16.6116 10.6836 16.4122 10.7336C16.2258 10.7804 16.0394 10.8269 15.8529 10.8734C15.7844 10.8905 15.716 10.9076 15.6477 10.9248C15.5546 10.9482 15.4614 10.9713 15.3682 10.9945C15.29 11.014 15.29 11.014 15.2102 11.034C15.0823 11.0615 15.0823 11.0615 14.9419 11.0615C14.9412 11.1042 14.9406 11.1468 14.9399 11.1908C14.8693 13.1083 13.9049 14.9244 12.5548 16.2549C12.4311 16.364 12.3046 16.4672 12.175 16.5692C12.0245 16.6882 11.8786 16.8117 11.7328 16.9362C11.5198 17.1173 11.3038 17.2935 11.0846 17.4672C10.9418 17.5823 10.8018 17.7005 10.6621 17.8193C10.4732 17.9799 10.2836 18.1391 10.0916 18.296C10.0505 18.3296 10.0095 18.3632 9.96712 18.3978C9.8775 18.4703 9.78737 18.5423 9.69689 18.6138C9.65049 18.6508 9.60409 18.6877 9.55629 18.7258C9.51424 18.7589 9.47218 18.7921 9.42885 18.8262C9.28358 18.9601 9.2369 19.0437 9.22079 19.2409C9.22145 19.2919 9.22211 19.3429 9.2228 19.3955C9.22361 19.4824 9.22361 19.4824 9.22444 19.5711C9.22812 19.7056 9.23711 19.8388 9.24894 19.9728C9.30367 20.6111 9.22955 21.0924 8.81928 21.612C8.43859 22.0461 7.978 22.3556 7.40614 22.4776C7.27344 22.4796 7.14148 22.4753 7.00882 22.4714C6.32202 22.4592 5.94255 22.6518 5.40486 23.0571C4.92086 23.4049 4.32324 23.6213 3.75527 23.7876C3.70471 23.8024 3.70471 23.8024 3.65313 23.8176C3.12417 23.9649 2.59589 23.9938 2.04977 23.9981C2.00232 23.9989 2.00232 23.9989 1.9539 23.9996C1.36042 24.0068 0.663123 23.9152 0.215564 23.4796C0.0521609 23.2889 0.00366769 23.1749 0.0020112 22.9279C0.0013475 22.8831 0.000683807 22.8384 0 22.7923C0.0111815 22.66 0.032021 22.5878 0.104399 22.4776C0.339046 22.2957 0.581149 22.2031 0.859146 22.1091C2.10251 21.6857 2.98061 20.8258 3.82613 19.8434C3.91497 19.7419 4.00945 19.6473 4.10631 19.5534C4.2668 19.3951 4.41619 19.2314 4.56286 19.0605C4.67851 18.9304 4.80287 18.8099 4.92688 18.6878C5.04501 18.5679 5.15372 18.441 5.2633 18.3133C5.37562 18.1875 5.49623 18.0713 5.61873 17.9555C5.93822 17.6128 6.13952 17.2638 6.32375 16.8339C6.34962 16.7748 6.37554 16.7156 6.40151 16.6566C6.45763 16.5286 6.51337 16.4004 6.56882 16.2721C6.65993 16.0613 6.75188 15.8509 6.84392 15.6405C6.97776 15.3343 7.11123 15.0279 7.24451 14.7215C7.45236 14.2438 7.66164 13.7667 7.87127 13.2898C7.88871 13.2501 7.90615 13.2104 7.92412 13.1695C8.01252 12.9684 8.10095 12.7672 8.18938 12.5661C8.34775 12.2059 8.50596 11.8456 8.66419 11.4853C8.734 11.3263 8.80382 11.1673 8.87364 11.0084C9.01721 10.6815 9.16078 10.3546 9.30433 10.0277C9.3414 9.94324 9.37848 9.85882 9.41556 9.77441C9.50586 9.56884 9.59608 9.36323 9.68613 9.15755C9.83593 8.81557 9.98627 8.47397 10.1412 8.13426C10.4157 7.53442 10.4157 7.53442 10.6006 6.90336C10.6736 6.56756 10.7971 6.32409 11.0102 6.05535C11.0371 6.02133 11.0639 5.98732 11.0916 5.95227C11.3967 5.61 11.8227 5.39441 12.2694 5.30933C12.7454 5.19149 13.1732 4.94561 13.6084 4.72555C13.7097 4.67486 13.811 4.62421 13.9123 4.57361C14.1296 4.46495 14.3467 4.35596 14.5637 4.24665C14.8776 4.08855 15.1917 3.93109 15.506 3.77378C16.0161 3.51839 16.526 3.26252 17.0358 3.00632C17.5303 2.75776 18.0249 2.50939 18.5197 2.26129C18.5502 2.24598 18.5808 2.23067 18.6122 2.2149C18.9454 2.04782 19.2787 1.88077 19.6119 1.71373C19.7002 1.66946 19.7886 1.62518 19.8769 1.58091C19.9351 1.55173 19.9933 1.52255 20.0515 1.49337C20.4219 1.30773 20.7922 1.12192 21.1623 0.935935C21.3741 0.829558 21.5859 0.723249 21.7977 0.616951C21.8961 0.567511 21.9946 0.518038 22.093 0.46853C22.2269 0.401166 22.3609 0.333915 22.4949 0.26669C22.5342 0.246897 22.5734 0.227104 22.6139 0.206711C22.6497 0.188777 22.6855 0.170843 22.7224 0.152366C22.7688 0.129055 22.7688 0.129055 22.8161 0.105274C23.1039 -0.0290444 23.4327 -0.0387369 23.718 0.098791Z" fill="#F3F3F3"/>
<path d="M9.73164 4.12302C9.89844 4.44683 9.95372 4.81495 10.0257 5.16243C10.0452 5.25592 10.0653 5.34929 10.0855 5.44268C10.0982 5.50284 10.1108 5.56301 10.1234 5.62319C10.1348 5.67699 10.1461 5.73078 10.1577 5.78621C10.2014 6.06785 10.1762 6.28533 10.0079 6.51018C9.79902 6.69422 9.57836 6.75676 9.29848 6.79369C9.26173 6.79904 9.22499 6.80438 9.18713 6.8099C9.10989 6.82092 9.03257 6.83156 8.95517 6.84182C8.83757 6.85758 8.72042 6.875 8.60321 6.8926C8.52769 6.90316 8.45215 6.91364 8.37658 6.924C8.342 6.92921 8.30742 6.93443 8.27179 6.9398C8.00504 6.97343 7.75017 6.95241 7.51019 6.79974C7.33094 6.65382 7.24154 6.50908 7.1794 6.29536C7.16783 6.02022 7.29612 5.8379 7.46631 5.64016C7.51023 5.61794 7.51023 5.61794 7.55503 5.59527C7.50713 5.56096 7.45924 5.52664 7.4099 5.49129C7.23103 5.36293 7.05266 5.2339 6.87443 5.10467C6.79746 5.049 6.72036 4.99352 6.64313 4.93821C6.53165 4.85835 6.42067 4.77784 6.30975 4.69719C6.27554 4.6729 6.24133 4.6486 6.20609 4.62357C5.94492 4.43221 5.69663 4.21884 5.62116 3.9034C5.63519 3.64411 5.69174 3.4712 5.8724 3.29116C6.02693 3.16744 6.17816 3.1237 6.38266 3.13517C6.61599 3.19847 6.78447 3.31793 6.98342 3.45546C7.04376 3.49627 7.04376 3.49627 7.10532 3.5379C7.23317 3.62454 7.36051 3.71189 7.48786 3.79927C7.57468 3.85829 7.66154 3.91726 7.74843 3.97618C7.96087 4.1204 8.1729 4.2652 8.38463 4.41047C8.40294 4.34384 8.40294 4.34384 8.42161 4.27585C8.51906 4.10437 8.6164 3.95194 8.78696 3.84612C9.18079 3.75912 9.43402 3.79763 9.73164 4.12302Z" fill="#F3F3F3"/>
<path d="M15.9246 11.6638C15.9835 11.6176 15.9835 11.6176 16.0435 11.5704C16.2863 11.4758 16.4884 11.5249 16.7414 11.5672C16.8411 11.5831 16.8411 11.5831 16.9428 11.5993C17.1302 11.6297 17.3173 11.662 17.5043 11.6949C17.6216 11.7156 17.7391 11.7356 17.8565 11.7556C17.9314 11.7687 18.0063 11.7819 18.0812 11.795C18.1162 11.8009 18.1512 11.8068 18.1872 11.8129C18.4645 11.8628 18.5816 11.9544 18.7467 12.1775C18.8921 12.3923 18.9553 12.5283 18.9086 12.7927C18.8094 13.036 18.6922 13.2184 18.4582 13.3458C18.2854 13.4161 18.2854 13.4161 18.1724 13.4329C18.1895 13.4574 18.2066 13.482 18.2243 13.5073C18.4026 13.7637 18.5794 14.0211 18.7555 14.2791C18.8213 14.3752 18.8875 14.471 18.954 14.5665C19.0499 14.7042 19.1443 14.8427 19.2385 14.9815C19.2833 15.045 19.2833 15.0449 19.329 15.1097C19.5187 15.3927 19.5766 15.5686 19.5324 15.9093C19.4136 16.1625 19.2798 16.3102 19.0347 16.4449C18.7878 16.509 18.6183 16.4983 18.382 16.4031C18.1252 16.2454 17.9823 16.0334 17.8154 15.7893C17.7871 15.7487 17.7589 15.7081 17.7298 15.6663C17.6401 15.5373 17.5511 15.4079 17.462 15.2784C17.4012 15.1906 17.3402 15.1028 17.2793 15.015C17.1304 14.8004 16.982 14.5854 16.8338 14.3702C16.8104 14.3964 16.7869 14.4226 16.7627 14.4496C16.7155 14.5009 16.7155 14.5009 16.6674 14.5532C16.6365 14.5872 16.6056 14.6212 16.5737 14.6562C16.4181 14.7976 16.2592 14.8443 16.0516 14.8556C15.8039 14.8119 15.6012 14.7328 15.4437 14.5309C15.1498 14.0669 15.3231 13.5134 15.4151 13.0048C15.4341 12.899 15.4524 12.7932 15.4706 12.6873C15.4826 12.6192 15.4947 12.5511 15.5069 12.483C15.5177 12.4222 15.5285 12.3613 15.5397 12.2986C15.606 12.0143 15.6889 11.8392 15.9246 11.6638Z" fill="#F3F3F3"/>
</svg>
