<svg width="9" height="24" viewBox="0 0 9 24" fill="none" xmlns="http://www.w3.org/2000/svg">
<path d="M1.81175 5.50965C1.87717 5.50937 1.94259 5.50904 2.00801 5.50864C2.18441 5.50778 2.3608 5.50783 2.5372 5.50811C2.685 5.50826 2.83281 5.50796 2.98062 5.50767C3.32957 5.507 3.67852 5.50707 4.02747 5.50762C4.38629 5.50818 4.7451 5.50749 5.10392 5.5062C5.41313 5.50513 5.72233 5.50481 6.03154 5.50509C6.21572 5.50525 6.39989 5.50514 6.58407 5.50431C6.75736 5.50356 6.93062 5.50376 7.1039 5.50466C7.197 5.50492 7.29011 5.50424 7.38321 5.50352C7.84795 5.50742 8.28905 5.58439 8.63798 5.92663C8.89049 6.2358 8.99341 6.54803 8.99411 6.94961C8.99441 7.02722 8.99441 7.02722 8.99471 7.1064C8.99469 7.16267 8.99467 7.21895 8.99465 7.27693C8.99481 7.33658 8.99496 7.39624 8.99512 7.4577C8.99549 7.62102 8.99565 7.78434 8.99568 7.94766C8.99571 8.04986 8.99581 8.15205 8.99593 8.25425C8.99636 8.61125 8.99655 8.96824 8.99652 9.32523C8.99649 9.65723 8.99698 9.98921 8.99772 10.3212C8.99833 10.6068 8.99858 10.8925 8.99855 11.1781C8.99854 11.3484 8.99867 11.5187 8.99916 11.689C8.9997 11.8793 8.99949 12.0695 8.99921 12.2597C8.99947 12.3156 8.99973 12.3715 9 12.4291C8.99771 13.0414 8.88365 13.5599 8.47178 14.0204C8.20529 14.2811 7.86942 14.5156 7.49499 14.5156C7.49461 14.4532 7.49424 14.3908 7.49385 14.3265C7.49023 13.7386 7.48614 13.1506 7.48158 12.5627C7.47925 12.2605 7.47708 11.9582 7.47531 11.6559C7.47359 11.3643 7.47143 11.0726 7.46895 10.781C7.46809 10.6697 7.46739 10.5584 7.46684 10.447C7.46606 10.2912 7.4647 10.1354 7.46321 9.97961C7.46311 9.9335 7.46301 9.88738 7.46291 9.83987C7.46054 9.53303 7.46054 9.53303 7.35503 9.24937C7.21119 9.17488 7.09337 9.18668 6.93516 9.20105C6.8029 9.33906 6.7777 9.44091 6.77764 9.63205C6.77711 9.70422 6.77711 9.70422 6.77657 9.77784C6.77705 9.85697 6.77705 9.85697 6.77754 9.93769C6.77722 10.0219 6.77722 10.0219 6.7769 10.1078C6.77645 10.2636 6.77663 10.4194 6.77706 10.5752C6.77738 10.7432 6.77689 10.9113 6.77649 11.0793C6.77591 11.3705 6.77581 11.6618 6.77604 11.953C6.77636 12.3745 6.77578 12.796 6.77494 13.2175C6.77361 13.9019 6.77279 14.5863 6.7724 15.2706C6.77238 15.3116 6.77235 15.3526 6.77233 15.3948C6.77216 15.6855 6.77202 15.9763 6.77188 16.267C6.77171 16.5988 6.77154 16.9306 6.77135 17.2623C6.77133 17.3032 6.7713 17.3441 6.77128 17.3862C6.77087 18.0677 6.76992 18.7493 6.76858 19.4309C6.76778 19.8512 6.76747 20.2716 6.7678 20.6919C6.76799 20.9801 6.7677 21.2682 6.76701 21.5564C6.76664 21.7226 6.76649 21.8888 6.76696 22.055C6.76735 22.2353 6.76688 22.4156 6.76621 22.5959C6.76669 22.6744 6.76669 22.6744 6.76718 22.7545C6.76472 23.0927 6.73963 23.3904 6.51984 23.6587C6.48851 23.6847 6.45718 23.7108 6.4249 23.7376C6.39369 23.7644 6.36247 23.7912 6.33032 23.8187C6.08379 24.0001 5.88035 24.0215 5.58223 23.9852C5.27013 23.8953 5.09109 23.6881 4.9291 23.4054C4.88481 23.2678 4.87634 23.182 4.87569 23.0393C4.87537 22.9939 4.87505 22.9485 4.87472 22.9017C4.8746 22.852 4.87447 22.8023 4.87435 22.7511C4.87404 22.6987 4.87372 22.6463 4.8734 22.5923C4.87275 22.4783 4.87219 22.3644 4.87173 22.2504C4.87096 22.0701 4.86988 21.8898 4.8687 21.7095C4.86539 21.1968 4.86259 20.6842 4.8602 20.1715C4.85872 19.858 4.85679 19.5446 4.85459 19.2312C4.85385 19.1116 4.85327 18.9921 4.85287 18.8725C4.85231 18.7054 4.85118 18.5383 4.84993 18.3712C4.8499 18.3216 4.84987 18.2721 4.84984 18.2211C4.84939 18.1755 4.84894 18.1298 4.84847 18.0828C4.84827 18.0433 4.84808 18.0038 4.84787 17.9631C4.83364 17.829 4.80124 17.7281 4.74249 17.6077C4.61363 17.527 4.61363 17.527 4.46257 17.5111C4.3252 17.5743 4.25044 17.6123 4.18266 17.7527C4.17811 17.824 4.17643 17.8956 4.17622 17.9671C4.17596 18.0122 4.17571 18.0573 4.17545 18.1038C4.1754 18.1534 4.17535 18.2031 4.1753 18.2542C4.17506 18.3064 4.17483 18.3586 4.17458 18.4123C4.17408 18.526 4.17368 18.6396 4.17336 18.7532C4.17281 18.9331 4.17191 19.1131 4.17088 19.293C4.16801 19.8047 4.16548 20.3164 4.16393 20.8281C4.16295 21.1409 4.16131 21.4536 4.15923 21.7663C4.15857 21.8855 4.15816 22.0047 4.15802 22.1238C4.15779 22.2908 4.15671 22.4578 4.15544 22.6248C4.15565 22.6984 4.15565 22.6984 4.15586 22.7734C4.15214 23.1038 4.12171 23.397 3.9073 23.6587C3.87597 23.6847 3.84463 23.7108 3.81235 23.7376C3.78114 23.7644 3.74993 23.7912 3.71777 23.8187C3.47124 24.0001 3.2678 24.0215 2.96969 23.9852C2.65759 23.8953 2.47854 23.6881 2.31655 23.4054C2.27121 23.2646 2.26395 23.1749 2.26369 23.0283C2.26349 22.9802 2.2633 22.9321 2.26309 22.8825C2.26312 22.803 2.26312 22.803 2.26315 22.7219C2.2629 22.6377 2.2629 22.6377 2.26265 22.5517C2.26224 22.3955 2.26203 22.2393 2.26191 22.0831C2.26173 21.9147 2.26128 21.7464 2.26086 21.578C2.26016 21.2862 2.25962 20.9943 2.25918 20.7025C2.25853 20.2803 2.25755 19.8581 2.25645 19.4358C2.25469 18.7505 2.25305 18.0652 2.25157 17.3798C2.25149 17.3388 2.2514 17.2978 2.25131 17.2555C2.25005 16.6731 2.24894 16.0908 2.24788 15.5084C2.24781 15.4674 2.24773 15.4264 2.24766 15.3842C2.24758 15.3432 2.24751 15.3023 2.24743 15.2601C2.24618 14.5775 2.24458 13.8948 2.24268 13.2122C2.24152 12.791 2.24067 12.3698 2.2402 11.9486C2.23986 11.6601 2.23918 11.3715 2.23824 11.0829C2.23771 10.9163 2.23733 10.7498 2.23735 10.5832C2.2373 10.4027 2.23669 10.2222 2.23593 10.0418C2.23605 9.98898 2.23617 9.93621 2.2363 9.88184C2.23598 9.83348 2.23566 9.78512 2.23533 9.7353C2.23525 9.69364 2.23517 9.65199 2.23508 9.60906C2.22152 9.4737 2.18801 9.3712 2.12994 9.24937C1.9861 9.17488 1.86828 9.18668 1.71007 9.20105C1.58522 9.33342 1.55256 9.42932 1.55151 9.61197C1.55093 9.65533 1.55034 9.69869 1.54974 9.74336C1.54981 9.79055 1.54987 9.83774 1.54994 9.88637C1.54947 9.93635 1.54899 9.98633 1.5485 10.0378C1.54709 10.203 1.54666 10.3682 1.54624 10.5335C1.54545 10.648 1.54461 10.7626 1.5437 10.8771C1.54148 11.1786 1.54009 11.4801 1.53888 11.7816C1.53749 12.0893 1.53532 12.3969 1.53321 12.7046C1.52919 13.3083 1.52605 13.9119 1.52346 14.5156C1.01332 14.444 0.657508 14.2122 0.330357 13.7935C0.0456763 13.3562 0.00977486 12.8909 0.0109869 12.3764C0.0103942 12.2827 0.0103942 12.2827 0.00978952 12.1872C0.00876064 12.0173 0.00861607 11.8474 0.00870483 11.6775C0.00871044 11.5351 0.00830945 11.3927 0.00792196 11.2503C0.00702742 10.9142 0.00688918 10.5781 0.00720547 10.2419C0.0075154 9.89629 0.00644737 9.55067 0.00471822 9.20503C0.0032825 8.90713 0.00275658 8.60923 0.00293785 8.31133C0.0030339 8.1339 0.00278504 7.95649 0.00163657 7.77906C0.000397289 7.58111 0.00105433 7.38321 0.00187504 7.18525C0.00125628 7.12721 0.000637515 7.06917 0 7.00937C0.0041171 6.58075 0.10183 6.2695 0.362066 5.93399C0.394119 5.90503 0.426173 5.87607 0.459198 5.84623C0.506376 5.80149 0.506376 5.80149 0.554508 5.75583C0.94494 5.5089 1.36634 5.50804 1.81175 5.50965Z" fill="white"/>
<path d="M4.48006 0.000212602C4.51878 0.000578498 4.5575 0.000944393 4.5974 0.00132138C5.09242 0.0150361 5.47401 0.190417 5.86214 0.504492C5.89089 0.527598 5.91964 0.550704 5.94925 0.57451C6.26274 0.860928 6.53017 1.37259 6.57093 1.80859C6.59619 2.48969 6.5356 3.05495 6.09304 3.59679C5.6401 4.07714 5.14254 4.31532 4.49756 4.33943C3.92193 4.32829 3.45715 4.11351 3.03091 3.72343C2.54912 3.15705 2.3638 2.61514 2.40985 1.85729C2.50524 1.26455 2.79948 0.729746 3.26928 0.369552C3.65471 0.11853 4.02457 -0.00586839 4.48006 0.000212602Z" fill="white"/>
</svg>
