<svg width="24" height="24" viewBox="0 0 24 24" fill="none" xmlns="http://www.w3.org/2000/svg">
<path d="M5.26409 9.00198C5.40497 9.06948 5.50167 9.13521 5.61086 9.24762C5.64121 9.27858 5.67156 9.30955 5.70283 9.34146C5.75158 9.39183 5.75158 9.39183 5.80131 9.44321C5.87189 9.515 5.94249 9.58677 6.0131 9.65852C6.12319 9.77094 6.23312 9.8835 6.34277 9.99635C7.02309 10.6953 7.71596 11.2697 8.58539 11.7159C8.62831 11.7382 8.62831 11.7382 8.6721 11.761C9.36436 12.1169 10.11 12.3417 10.8776 12.4645C10.9311 12.4732 10.9847 12.4818 11.0398 12.4907C11.3475 12.5274 11.6586 12.5228 11.9681 12.523C12.0181 12.5231 12.0181 12.5231 12.0691 12.5231C14.0468 12.5202 15.9091 11.7328 17.3168 10.3393C17.4986 10.1567 17.6792 9.97295 17.8593 9.78866C17.9706 9.67514 18.0819 9.56173 18.1936 9.44859C18.2625 9.37879 18.3311 9.30876 18.3994 9.23847C18.4454 9.19178 18.4454 9.19178 18.4924 9.14415C18.5327 9.10284 18.5327 9.10284 18.5739 9.06069C18.6429 9.00198 18.6429 9.00198 18.7364 9.00198C18.7365 9.04895 18.7366 9.09591 18.7366 9.1443C18.7384 10.287 18.7411 11.4296 18.745 12.5723C18.7469 13.1249 18.7484 13.6775 18.7491 14.2301C18.7497 14.7117 18.751 15.1933 18.753 15.6749C18.7541 15.93 18.7548 16.185 18.7548 16.44C18.7547 16.6801 18.7556 16.9201 18.7571 17.1602C18.7575 17.2483 18.7575 17.3364 18.7573 17.4244C18.757 17.5448 18.7578 17.6651 18.7589 17.7855C18.7586 17.8203 18.7582 17.855 18.7578 17.8908C18.7621 18.149 18.827 18.293 18.9703 18.5006C19.1728 18.6401 19.3352 18.6709 19.5785 18.641C19.7614 18.5742 19.8731 18.5052 19.9792 18.339C20.0676 18.1203 20.0686 17.9291 20.0702 17.6953C20.0714 17.6274 20.0714 17.6274 20.0727 17.558C20.0753 17.4141 20.0768 17.2701 20.0784 17.1261C20.08 17.0282 20.0816 16.9303 20.0832 16.8324C20.0872 16.593 20.0903 16.3537 20.093 16.1143C20.2328 16.1771 20.3306 16.2465 20.4388 16.3546C20.4692 16.3848 20.4996 16.415 20.531 16.4461C20.5638 16.4791 20.5967 16.5122 20.6305 16.5462C20.6831 16.5985 20.6831 16.5985 20.7366 16.6519C20.8523 16.7672 20.9677 16.8829 21.0831 16.9986C21.1633 17.0788 21.2436 17.159 21.3239 17.2391C21.4921 17.4073 21.6601 17.5756 21.828 17.744C22.0434 17.96 22.2593 18.1755 22.4752 18.391C22.641 18.5565 22.8066 18.7222 22.9722 18.8881C23.0517 18.9677 23.1312 19.0472 23.2109 19.1266C23.3221 19.2376 23.433 19.3489 23.5438 19.4603C23.5769 19.4932 23.6099 19.526 23.644 19.5599C23.6741 19.5903 23.7043 19.6208 23.7354 19.6521C23.7616 19.6784 23.7879 19.7047 23.8149 19.7317C23.9778 19.9232 23.9896 20.0974 23.9893 20.3412C23.9897 20.3926 23.9897 20.3926 23.9902 20.445C23.9911 20.5581 23.9913 20.6712 23.9914 20.7843C23.9917 20.8631 23.992 20.9418 23.9923 21.0206C23.9929 21.1858 23.9931 21.3509 23.993 21.516C23.993 21.7273 23.9943 21.9385 23.9959 22.1497C23.9969 22.3125 23.9971 22.4752 23.9971 22.6379C23.9972 22.7158 23.9976 22.7937 23.9983 22.8715C23.9992 22.9806 23.999 23.0897 23.9984 23.1987C23.9989 23.2307 23.9995 23.2626 24 23.2956C23.997 23.5271 23.9366 23.6588 23.7886 23.8348C23.5897 23.989 23.4084 23.9951 23.1658 23.993C23.1266 23.9932 23.0874 23.9934 23.047 23.9937C22.915 23.9942 22.7831 23.9938 22.6511 23.9933C22.5558 23.9935 22.4605 23.9938 22.3652 23.9941C22.1028 23.9948 21.8404 23.9946 21.5779 23.9942C21.2951 23.994 21.0123 23.9946 20.7295 23.9951C20.2073 23.9958 19.6852 23.996 19.163 23.9957C18.6806 23.9955 18.1982 23.9955 17.7158 23.9958C17.6511 23.9959 17.5864 23.9959 17.5218 23.9959C17.4243 23.996 17.3269 23.996 17.2294 23.9961C16.3233 23.9966 15.4171 23.9968 14.511 23.9964C14.4768 23.9964 14.4426 23.9964 14.4074 23.9964C14.1299 23.9963 13.8524 23.9962 13.5749 23.996C12.4924 23.9956 11.4099 23.996 10.3273 23.997C9.11148 23.9983 7.89563 23.9989 6.67978 23.9985C6.55019 23.9985 6.42059 23.9985 6.291 23.9984C6.25909 23.9984 6.22718 23.9984 6.1943 23.9984C5.71221 23.9983 5.23013 23.9987 4.74804 23.9993C4.1999 24 3.65176 24 3.10363 23.9992C2.82382 23.9988 2.54402 23.9987 2.26421 23.9994C2.00824 24.0001 1.75229 23.9998 1.49632 23.9989C1.40355 23.9988 1.31078 23.9989 1.21801 23.9994C1.0922 24 0.966443 23.9995 0.840633 23.9986C0.804362 23.9991 0.768092 23.9995 0.730722 24C0.48871 23.9967 0.351889 23.9404 0.165177 23.788C0.0158599 23.6036 0.00442741 23.435 0.00593874 23.2055C0.00545715 23.1541 0.00545715 23.1541 0.00496584 23.1017C0.00411245 22.9889 0.00429062 22.876 0.00455684 22.7632C0.00434338 22.6845 0.00409517 22.6058 0.00381378 22.527C0.00339622 22.3622 0.00350908 22.1974 0.00397439 22.0325C0.00451177 21.8216 0.0035664 21.6108 0.00220062 21.3999C0.00134098 21.2373 0.00135561 21.0748 0.00162245 20.9123C0.00162961 20.8345 0.00134733 20.7568 0.000766611 20.6791C6.79231e-05 20.5702 0.000569504 20.4614 0.00137048 20.3525C0.00091822 20.3207 0.000465963 20.2888 0 20.256C0.00618065 19.8533 0.295422 19.6201 0.562364 19.3546C0.614878 19.3018 0.614878 19.3018 0.668453 19.248C0.783693 19.1323 0.89927 19.017 1.01487 18.9016C1.09515 18.8213 1.17542 18.7409 1.25567 18.6605C1.42358 18.4924 1.59166 18.3245 1.75987 18.1567C1.97591 17.9411 2.19153 17.7251 2.40703 17.509C2.57251 17.3431 2.73822 17.1775 2.90399 17.0119C2.98363 16.9323 3.0632 16.8527 3.14269 16.7729C3.25345 16.6619 3.3645 16.5512 3.47564 16.4405C3.50869 16.4073 3.54174 16.3741 3.57579 16.3398C3.62104 16.2949 3.62104 16.2949 3.6672 16.2492C3.70655 16.2099 3.70655 16.2099 3.74669 16.1698C3.81394 16.1143 3.81394 16.1143 3.9075 16.1143C3.90793 16.1749 3.90837 16.2356 3.90882 16.2981C3.91069 16.524 3.91377 16.75 3.9172 16.9759C3.91852 17.0735 3.91951 17.1711 3.92017 17.2688C3.92118 17.4094 3.92336 17.5501 3.92577 17.6907C3.92583 17.7341 3.92588 17.7774 3.92594 17.8221C3.93222 18.1024 3.97683 18.2714 4.14139 18.5006C4.34387 18.6401 4.5063 18.6709 4.74952 18.641C4.93571 18.573 5.04605 18.5046 5.15059 18.3331C5.22795 18.1476 5.23724 17.9886 5.23596 17.7912C5.23627 17.7535 5.23658 17.7158 5.2369 17.6769C5.23777 17.5511 5.23765 17.4252 5.23753 17.2993C5.23796 17.2089 5.23844 17.1185 5.23898 17.0281C5.24027 16.783 5.2407 16.5379 5.24098 16.2927C5.24142 16.0364 5.24265 15.7801 5.24379 15.5238C5.24583 15.0386 5.24717 14.5534 5.24825 14.0682C5.24951 13.5158 5.25157 12.9633 5.25369 12.4109C5.25803 11.2746 5.26139 10.1383 5.26409 9.00198ZM8.42825 15.353C8.18185 15.7759 8.40082 16.3001 8.51322 16.7436C8.52949 16.8084 8.54576 16.8732 8.56201 16.938C8.59599 17.0732 8.63019 17.2082 8.66453 17.3433C8.70834 17.5157 8.7514 17.6883 8.79426 17.861C8.82755 17.9947 8.86135 18.1282 8.89528 18.2617C8.91136 18.3253 8.92727 18.3889 8.943 18.4526C8.96506 18.5417 8.9879 18.6306 9.01076 18.7195C9.0235 18.77 9.03624 18.8205 9.04936 18.8725C9.1266 19.0905 9.22367 19.2528 9.41572 19.3838C9.60003 19.4476 9.7493 19.4708 9.94198 19.4365C10.1664 19.3242 10.2992 19.1939 10.4098 18.9685C10.4415 18.5828 10.3468 18.2329 10.2526 17.8611C10.2363 17.7952 10.2199 17.7294 10.2036 17.6635C10.1695 17.5261 10.135 17.3888 10.1003 17.2516C10.0559 17.0764 10.0126 16.9009 9.96944 16.7254C9.93596 16.5895 9.90197 16.4539 9.86781 16.3182C9.85161 16.2536 9.83557 16.1889 9.81971 16.1242C9.79742 16.0336 9.77436 15.9432 9.75126 15.8529C9.73194 15.7759 9.73194 15.7759 9.71223 15.6974C9.61212 15.413 9.46411 15.2202 9.19352 15.0849C8.88083 15.0451 8.63029 15.0957 8.42825 15.353ZM14.4303 15.4006C14.3385 15.5539 14.2926 15.6802 14.2493 15.8529C14.2268 15.9407 14.2268 15.9407 14.2039 16.0304C14.1883 16.0937 14.1727 16.1571 14.1572 16.2205C14.1407 16.2862 14.1242 16.3519 14.1077 16.4177C14.0732 16.5551 14.0391 16.6926 14.0053 16.8303C13.9622 17.0057 13.9182 17.1809 13.8738 17.356C13.8396 17.4917 13.8058 17.6274 13.7722 17.7632C13.7562 17.8278 13.74 17.8924 13.7236 17.9569C13.5557 18.5449 13.5557 18.5449 13.6668 19.1235C13.8072 19.2825 13.9334 19.4142 14.1499 19.4527C14.3691 19.4623 14.5293 19.4217 14.7134 19.2961C14.8589 19.1042 14.9359 18.934 14.9955 18.7016C15.0034 18.6716 15.0113 18.6416 15.0194 18.6107C15.0449 18.5123 15.0697 18.4138 15.0944 18.3153C15.1121 18.2463 15.1298 18.1773 15.1475 18.1083C15.1843 17.9641 15.2208 17.8197 15.257 17.6753C15.3033 17.4909 15.3506 17.3068 15.3983 17.1228C15.435 16.9805 15.4711 16.838 15.507 16.6955C15.5242 16.6276 15.5416 16.5597 15.5592 16.4919C15.7168 15.9147 15.7168 15.9147 15.5701 15.351C15.429 15.1869 15.3059 15.1051 15.0899 15.0701C14.7916 15.0524 14.6103 15.1595 14.4303 15.4006ZM4.01311 22.035C3.84121 22.2669 3.77526 22.4198 3.81394 22.7118C3.92779 22.9396 4.05907 23.0595 4.28173 23.1798C4.42578 23.2037 4.56623 23.2 4.71189 23.1956C4.7543 23.1952 4.7967 23.1947 4.8404 23.1942C4.93221 23.193 5.02402 23.1915 5.11583 23.1896C5.26164 23.1869 5.40738 23.1856 5.55322 23.1849C5.96772 23.1826 6.38215 23.179 6.79659 23.1709C7.05051 23.1661 7.3043 23.1643 7.55827 23.1643C7.65452 23.1638 7.75078 23.1621 7.847 23.1593C8.63993 23.1366 8.63993 23.1366 8.91763 23.3629C9.02738 23.4669 9.12407 23.577 9.21847 23.6949C9.35027 23.8547 9.43014 23.9155 9.63171 23.9441C9.89875 23.9483 10.0647 23.931 10.2694 23.7413C10.3925 23.5607 10.426 23.4083 10.433 23.1902C10.3559 22.8448 10.0947 22.6105 9.85135 22.3726C9.81846 22.3396 9.78556 22.3065 9.75167 22.2724C9.36853 21.8932 9.09229 21.8159 8.56422 21.8153C8.49789 21.8149 8.49789 21.8149 8.43021 21.8146C8.28423 21.8139 8.13824 21.8136 7.99225 21.8133C7.89059 21.813 7.78892 21.8128 7.68726 21.8125C7.47421 21.812 7.26116 21.8117 7.04811 21.8116C6.7754 21.8113 6.50271 21.8102 6.23001 21.8089C6.02004 21.808 5.81008 21.8077 5.60011 21.8077C5.49959 21.8075 5.39906 21.8072 5.29854 21.8065C5.1578 21.8057 5.01709 21.8058 4.87636 21.8061C4.83503 21.8057 4.79371 21.8053 4.75114 21.8048C4.47028 21.8067 4.23204 21.8421 4.01311 22.035ZM14.4415 22.1036C14.4021 22.141 14.3627 22.1785 14.322 22.2171C14.2814 22.2568 14.2407 22.2966 14.1989 22.3375C14.1563 22.3777 14.1137 22.418 14.0699 22.4594C13.813 22.707 13.6113 22.9015 13.5703 23.2704C13.5794 23.486 13.6517 23.6141 13.7779 23.788C13.9535 23.9482 14.1307 23.9462 14.358 23.9516C14.6446 23.8969 14.8004 23.6942 14.9718 23.4756C15.1628 23.2664 15.3287 23.1939 15.6103 23.171C15.8363 23.1635 16.0613 23.1672 16.2873 23.1726C16.3855 23.173 16.4838 23.1731 16.582 23.173C16.8393 23.1733 17.0965 23.1765 17.3538 23.1804C17.7664 23.1863 18.1789 23.188 18.5915 23.1893C18.7352 23.1902 18.8789 23.1924 19.0226 23.1949C19.1108 23.1957 19.199 23.1964 19.2871 23.1971C19.3269 23.1982 19.3666 23.1992 19.4076 23.2003C19.6594 23.2009 19.7995 23.1597 19.9995 22.9926C20.1582 22.8088 20.2179 22.6674 20.2047 22.4289C20.1545 22.1757 19.9713 22.0085 19.7656 21.8696C19.6362 21.8289 19.5193 21.8169 19.3841 21.8166C19.3458 21.8164 19.3074 21.8162 19.2679 21.8159C19.2054 21.816 19.2054 21.816 19.1416 21.816C19.0974 21.8159 19.0532 21.8157 19.0076 21.8155C18.8614 21.8151 18.7151 21.815 18.5689 21.8149C18.4671 21.8148 18.3654 21.8146 18.2637 21.8145C18.0503 21.8142 17.837 21.8141 17.6237 21.8141C17.3506 21.8141 17.0776 21.8135 16.8045 21.8127C16.5943 21.8122 16.3842 21.8121 16.174 21.8121C16.0733 21.8121 15.9727 21.8118 15.872 21.8115C15.7311 21.811 15.5901 21.8112 15.4491 21.8114C15.3871 21.811 15.3871 21.811 15.3237 21.8106C14.9724 21.8124 14.7054 21.8518 14.4415 22.1036Z" fill="#F3F3F3"/>
<path d="M3.04394 0.0118993C3.07531 0.0118032 3.10668 0.0117072 3.13899 0.0116082C3.24486 0.0113422 3.35072 0.0114112 3.45658 0.0114775C3.53295 0.0113567 3.60931 0.0112157 3.68568 0.0110562C3.89612 0.0106779 4.10655 0.0105948 4.317 0.0105604C4.54372 0.0104739 4.77044 0.0101208 4.99717 0.00980537C5.49317 0.00916931 5.98918 0.00888782 6.48518 0.00868188C6.79471 0.00855272 7.10424 0.00835447 7.41377 0.00814359C8.27028 0.00757304 9.12679 0.00709111 9.9833 0.00693286C10.0381 0.00692258 10.093 0.00691231 10.1495 0.00690172C10.2319 0.0068864 10.2319 0.0068864 10.3161 0.00687077C10.4275 0.00685002 10.5389 0.00682913 10.6503 0.00680809C10.7055 0.00679773 10.7608 0.00678737 10.8177 0.00677669C11.7136 0.00659187 12.6094 0.00577492 13.5052 0.00468566C14.4243 0.00357709 15.3434 0.00299299 16.2625 0.00293838C16.7788 0.00289543 17.2951 0.00262488 17.8114 0.00177703C18.2509 0.00105779 18.6905 0.000815989 19.13 0.00120328C19.3544 0.00138656 19.5788 0.00134022 19.8032 0.000685896C20.0084 9.27303e-05 20.2137 0.000143279 20.419 0.000713536C20.4934 0.000805613 20.5678 0.000658736 20.6421 0.000252905C20.743 -0.000262882 20.8439 8.19013e-05 20.9448 0.000645556C21.0009 0.000617617 21.057 0.000589679 21.1148 0.000560894C21.3384 0.0270336 21.4552 0.111492 21.6016 0.278326C21.9206 0.722762 21.7401 1.56774 21.6572 2.07687C21.4541 3.22252 21.0297 4.36954 20.3269 5.30547C20.2926 5.35294 20.2583 5.40041 20.2229 5.44932C20.0179 5.72856 19.7965 5.98796 19.5595 6.24015C19.531 6.27047 19.5026 6.30079 19.4734 6.33203C19.1575 6.66751 18.8337 6.99486 18.5084 7.32115C18.461 7.36878 18.461 7.36878 18.4126 7.41737C18.2457 7.58496 18.0788 7.75241 17.9117 7.91975C17.7412 8.09051 17.5712 8.26171 17.4013 8.433C17.2684 8.56677 17.1353 8.70021 17.002 8.83357C16.9392 8.8965 16.8766 8.95954 16.814 9.02271C15.9359 9.90919 14.9772 10.613 13.772 10.9818C13.7352 10.9932 13.6984 11.0045 13.6605 11.0162C13.1166 11.1745 12.5766 11.2184 12.012 11.2158C11.9812 11.2157 11.9504 11.2156 11.9188 11.2154C11.4323 11.2126 10.9734 11.1918 10.5033 11.0608C10.4654 11.0502 10.4274 11.0397 10.3882 11.0288C9.38333 10.7393 8.50544 10.2634 7.74417 9.54496C7.71391 9.51654 7.68364 9.48811 7.65246 9.45883C7.3159 9.14124 6.98775 8.81533 6.66051 8.48819C6.5954 8.42322 6.53029 8.35825 6.46518 8.29328C6.33011 8.15845 6.19514 8.02353 6.06022 7.88855C5.88857 7.71686 5.71661 7.54549 5.54456 7.3742C5.41051 7.24064 5.27668 7.10686 5.1429 6.97303C5.07961 6.90977 5.01625 6.84659 4.9528 6.7835C4.59789 6.43035 4.26219 6.07542 3.95427 5.6798C3.90968 5.62443 3.86505 5.5691 3.82033 5.51384C3.26537 4.79904 2.855 3.97272 2.59768 3.10628C2.58014 3.04898 2.56259 2.99167 2.54451 2.93264C2.35904 2.28573 2.25895 1.63572 2.24977 0.962649C2.24873 0.919368 2.24768 0.876087 2.24661 0.831494C2.24768 0.507799 2.32029 0.364239 2.53044 0.120405C2.68424 -0.00667762 2.8544 0.0120964 3.04394 0.0118993ZM9.16575 2.58499C9.07198 2.78066 9.02317 2.93861 9.06543 3.15508C9.13017 3.32674 9.2362 3.46212 9.38064 3.57419C9.62785 3.68004 9.85343 3.68135 10.1174 3.68062C10.1625 3.68086 10.2077 3.6811 10.2542 3.68135C10.403 3.682 10.5517 3.68195 10.7005 3.68185C10.8042 3.68203 10.9079 3.68223 11.0116 3.68245C11.2288 3.6828 11.4459 3.68279 11.6631 3.68254C11.9411 3.68227 12.2191 3.68306 12.4971 3.68415C12.7112 3.68484 12.9253 3.68488 13.1394 3.68473C13.2419 3.68476 13.3444 3.685 13.4468 3.68547C13.5903 3.68605 13.7337 3.68574 13.8771 3.68519C13.9403 3.68573 13.9403 3.68573 14.0047 3.68628C14.3309 3.68356 14.5555 3.63132 14.8012 3.40165C14.9184 3.21888 14.9672 3.08898 14.9473 2.87232C14.8862 2.6526 14.8099 2.53296 14.6217 2.40048C14.404 2.2799 14.1983 2.28449 13.9542 2.28661C13.9072 2.28628 13.8602 2.28595 13.8119 2.28561C13.6572 2.28479 13.5027 2.28533 13.3481 2.28597C13.2403 2.28584 13.1324 2.28566 13.0246 2.28542C12.7989 2.28515 12.5732 2.28555 12.3475 2.28642C12.0585 2.28749 11.7696 2.28688 11.4806 2.28575C11.2581 2.28508 11.0355 2.28529 10.8129 2.28578C10.7064 2.2859 10.5999 2.28575 10.4933 2.28531C10.3443 2.28484 10.1953 2.28557 10.0463 2.28661C10.0025 2.28623 9.95872 2.28585 9.9136 2.28546C9.60839 2.2894 9.37395 2.34202 9.16575 2.58499ZM10.6758 5.22651C10.5759 5.38564 10.5534 5.4919 10.5501 5.6798C10.6306 5.95462 10.7447 6.08084 10.9711 6.2413C11.1495 6.30077 11.3182 6.2966 11.5041 6.29759C11.5427 6.29786 11.5813 6.29812 11.6211 6.2984C11.7028 6.29884 11.7844 6.29915 11.8661 6.29933C11.9905 6.29978 12.1149 6.30123 12.2394 6.30271C12.3188 6.30301 12.3983 6.30326 12.4777 6.30344C12.5332 6.30431 12.5332 6.30431 12.5898 6.30519C12.8908 6.30399 13.0812 6.23431 13.3013 6.01904C13.4182 5.84528 13.4504 5.74826 13.4504 5.53943C13.3698 5.26419 13.2542 5.14057 13.0294 4.97793C12.8735 4.89998 12.6987 4.92149 12.5273 4.91999C12.4662 4.91942 12.4662 4.91942 12.4038 4.91884C12.3175 4.9182 12.2311 4.9177 12.1448 4.91733C12.0131 4.91652 11.8815 4.91447 11.7499 4.9124C11.666 4.91193 11.5821 4.91153 11.4981 4.91122C11.4589 4.9104 11.4197 4.90958 11.3794 4.90873C11.0677 4.90988 10.8985 5.00379 10.6758 5.22651Z" fill="#F3F3F3"/>
</svg>
