<svg width="24" height="34" viewBox="0 0 24 34" fill="none" xmlns="http://www.w3.org/2000/svg">
<path d="M13.1968 3.80154C13.3315 4.25168 13.3315 4.25168 13.4363 4.75193C13.1968 5.15287 13.1968 5.15287 12.7179 5.46472C11.8349 5.62807 11.8349 5.62807 11.0417 5.70232C10.9627 6.09435 10.8836 6.48638 10.8022 6.8903C11.7699 7.21034 12.5058 6.98515 13.4363 6.6527C14.5712 5.97706 14.8638 5.23143 15.352 4.03914C16.473 4.03328 17.594 4.02896 18.715 4.02609C19.0967 4.02489 19.4783 4.02327 19.8599 4.02122C20.4074 4.01835 20.9548 4.01699 21.5022 4.01594C21.6738 4.01471 21.8454 4.01348 22.0223 4.01222C22.433 4.01217 22.8437 4.02443 23.2542 4.03914C23.6425 4.42444 23.5447 4.85954 23.5648 5.39285C23.5792 5.75526 23.5792 5.75526 23.5938 6.125C23.603 6.39255 23.6123 6.66011 23.6218 6.93578C23.6321 7.21621 23.6424 7.49665 23.6531 7.78559C23.6807 8.55823 23.707 9.3309 23.7322 10.1036C23.748 10.5863 23.7643 11.069 23.7806 11.5517C24.0303 19.0263 24.0213 26.4986 23.9726 33.9763C22.2341 33.9763 20.4956 33.9763 18.7044 33.9763C17.7421 30.5936 16.8509 27.1964 15.9806 23.7893C15.8427 23.2507 15.7048 22.7121 15.5669 22.1735C15.2345 20.8744 14.9028 19.5752 14.5713 18.2759C14.3644 17.4658 14.1568 16.6558 13.949 15.8459C13.7524 15.0785 13.5569 14.3107 13.3615 13.543C13.2597 13.1466 13.2597 13.1466 13.1558 12.7422C13.0962 12.5066 13.0366 12.271 12.9751 12.0283C12.9247 11.8305 12.8743 11.6326 12.8224 11.4288C12.7179 10.9294 12.7179 10.9294 12.7179 10.2166C12.3228 10.2951 11.9277 10.3735 11.5206 10.4542C10.9948 12.05 10.5267 13.6399 10.1502 15.2767C9.47374 18.1782 8.73396 21.0642 8.00351 23.9527C7.8599 24.5215 7.71632 25.0902 7.57276 25.659C7.25957 26.8997 6.94612 28.1404 6.63244 29.381C6.58607 29.5645 6.53969 29.7481 6.49191 29.9372C6.44981 30.1037 6.40771 30.2702 6.36433 30.4417C6.26791 30.8259 6.17389 31.2108 6.08034 31.5957C6.0186 31.8471 5.95687 32.0986 5.89326 32.3577C5.83152 32.611 5.76979 32.8643 5.70618 33.1252C5.53407 33.7387 5.53407 33.7387 5.29461 33.9763C4.90315 33.997 4.51082 34.0017 4.11881 33.9995C3.8819 33.9987 3.64499 33.998 3.4009 33.9972C3.15164 33.9952 2.90238 33.9932 2.64557 33.9911C2.39538 33.9901 2.1452 33.989 1.88743 33.9879C1.26709 33.9851 0.646782 33.9812 0.0264585 33.9763C-0.0248569 26.3371 -0.0234885 18.7049 0.234725 11.0691C0.250991 10.5868 0.266803 10.1045 0.282567 9.62217C0.31245 8.72664 0.344303 7.8312 0.377232 6.93578C0.386474 6.66822 0.395717 6.40066 0.405239 6.125C0.419591 5.76258 0.419591 5.76258 0.434233 5.39285C0.442209 5.18177 0.450185 4.97069 0.458403 4.75321C0.505381 4.27674 0.505381 4.27674 0.744842 4.03914C1.13416 4.00996 1.52471 3.99689 1.91508 3.99036C2.16436 3.98562 2.41364 3.98088 2.67047 3.976C2.94161 3.97203 3.21275 3.96805 3.4921 3.96396C3.90617 3.95656 3.90617 3.95656 4.3286 3.949C5.21432 3.93341 6.10006 3.91943 6.9858 3.90549C7.58461 3.89523 8.18342 3.88487 8.78223 3.8744C10.2537 3.8489 11.7253 3.82472 13.1968 3.80154ZM4.54695 31.5556C4.54976 31.5556 4.54976 31.5556 4.54695 31.5556C4.54414 31.5556 4.54976 31.5556 4.54695 31.5556C4.54414 31.5556 4.54414 31.5556 4.54695 31.5556Z" fill="#F3F3F3"/>
<path d="M6.97081 0.0447814C9.02538 0.0447814 11.08 0.0447814 13.1968 0.0447814C13.6757 1.47036 13.6757 1.47036 13.6757 2.65834C11.4631 2.65834 9.25048 2.65834 6.97081 2.65834C6.97081 1.79587 6.97081 0.933392 6.97081 0.0447814Z" fill="#F3F3F3"/>
<path d="M18.2255 0.0447814C19.8059 0.0447814 21.3864 0.0447814 23.0147 0.0447814C23.2252 1.8778 23.2252 1.8778 23.2542 2.42075C23.0147 2.65834 23.0147 2.65834 22.5479 2.68532C22.3485 2.68407 22.1491 2.68283 21.9437 2.68155C21.7284 2.68078 21.5131 2.68001 21.2912 2.67923C21.0648 2.67723 20.8384 2.67524 20.6051 2.67319C20.3778 2.67212 20.1504 2.67105 19.9162 2.66994C19.3526 2.66713 18.7891 2.66287 18.2255 2.65834C18.2255 1.79587 18.2255 0.933392 18.2255 0.0447814Z" fill="#F3F3F3"/>
<path d="M0.984329 0.0447713C2.01162 0.0447713 4.23621 0.0447759 5.29463 0.0447759C5.29463 0.907251 5.29463 1.76973 5.29463 2.65834C3.71419 2.65834 2.13374 2.65834 0.505407 2.65834C0.505407 2.50152 0.505407 2.34471 0.505407 2.18314C0.342573 2.18314 0.744871 2.18314 0.505407 2.18314C0.505407 1.70796 0.505418 0.0447759 0.505418 0.0447759L0.984329 0.0447713C0.984329 0.206337 0.984329 -0.112042 0.984329 0.0447713Z" fill="#F3F3F3"/>
<path d="M15.1125 0.0447814C15.5866 0.0447814 16.0608 0.0447814 16.5493 0.0447814C16.5493 0.907257 16.5493 1.76973 16.5493 2.65834C16.1541 2.65834 15.759 2.65834 15.3519 2.65834C15.2729 1.79587 15.1939 0.933392 15.1125 0.0447814Z" fill="#F3F3F3"/>
<path d="M3.07984 7.60309C3.19726 7.68204 3.27268 7.78991 3.36232 7.9321C3.39076 7.97708 3.41921 8.02206 3.44851 8.0684C3.49272 8.13911 3.49272 8.13911 3.53781 8.21125C3.5669 8.25717 3.59598 8.3031 3.62595 8.35041C3.74934 8.54641 3.87021 8.74306 3.98455 8.95231C4.11162 9.18294 4.24681 9.39869 4.3842 9.61394C4.40963 9.65399 4.43506 9.69404 4.46126 9.7353C4.54157 9.86172 4.622 9.98796 4.70243 10.1142C4.75728 10.2005 4.81213 10.2868 4.86698 10.3731C5.00061 10.5834 5.13435 10.7935 5.26815 11.0036C5.22031 11.1612 5.17313 11.2706 5.09382 11.3935C5.07309 11.4258 5.05237 11.4582 5.03101 11.4916C5.00942 11.5247 4.98784 11.5579 4.9656 11.5921C4.94376 11.6261 4.92192 11.6601 4.89942 11.6951C4.84564 11.7787 4.79172 11.8621 4.73765 11.9452C4.24816 11.559 3.93101 10.7771 3.54403 10.1665C3.54403 16.0017 3.54403 21.8369 3.54403 27.8489C3.91604 27.262 4.28806 26.675 4.67134 26.0702C4.78317 26.1584 4.83492 26.211 4.91846 26.3453C4.94923 26.3943 4.94923 26.3943 4.98063 26.4444C5.00165 26.4784 5.02268 26.5125 5.04435 26.5476C5.06589 26.5821 5.08743 26.6165 5.10962 26.652C5.16262 26.7369 5.21545 26.8219 5.26815 26.9073C5.22217 27.0709 5.16893 27.181 5.08842 27.3065C5.06528 27.3429 5.04214 27.3792 5.01829 27.4166C4.99325 27.4554 4.96822 27.4942 4.94242 27.5342C4.91657 27.5747 4.89072 27.6152 4.86409 27.657C4.78134 27.7866 4.69838 27.9159 4.61539 28.0451C4.53302 28.1736 4.45069 28.3022 4.36847 28.431C4.31734 28.511 4.26612 28.5909 4.2148 28.6707C4.07991 28.8815 3.9518 29.0977 3.8279 29.3247C3.76023 29.4471 3.68868 29.5622 3.61565 29.6767C3.58798 29.7202 3.5603 29.7637 3.53179 29.8085C3.50369 29.8524 3.47559 29.8963 3.44663 29.9415C3.41764 29.987 3.38864 30.0326 3.35876 30.0795C3.28797 30.1905 3.2171 30.3015 3.14616 30.4123C3.03212 30.3349 2.95818 30.2332 2.87093 30.0948C2.84399 30.0522 2.81704 30.0095 2.78927 29.9656C2.76139 29.921 2.7335 29.8763 2.70477 29.8303C2.67726 29.7869 2.64976 29.7435 2.62142 29.6987C2.50226 29.5094 2.38592 29.319 2.27552 29.1169C2.1459 28.8817 2.0078 28.6619 1.8677 28.4424C1.82845 28.3806 1.82845 28.3806 1.78841 28.3175C1.70574 28.1873 1.62295 28.0574 1.54015 27.9274C1.4837 27.8386 1.42725 27.7498 1.37081 27.6609C1.23325 27.4444 1.09558 27.2281 0.957849 27.0119C1.0057 26.8542 1.05287 26.7448 1.13218 26.622C1.15291 26.5896 1.17364 26.5572 1.19499 26.5239C1.21658 26.4907 1.23816 26.4575 1.2604 26.4233C1.28224 26.3894 1.30408 26.3554 1.32658 26.3204C1.38036 26.2367 1.43428 26.1534 1.48835 26.0702C1.97784 26.4564 2.29499 27.2383 2.68197 27.8489C2.68197 22.0137 2.68197 16.1785 2.68197 10.1665C2.30996 10.7535 1.93795 11.3405 1.55466 11.9452C1.44283 11.857 1.39109 11.8044 1.30754 11.6702C1.28703 11.6374 1.26651 11.6047 1.24538 11.571C1.22435 11.537 1.20332 11.5029 1.18165 11.4678C1.16011 11.4334 1.13857 11.3989 1.11638 11.3634C1.06338 11.2786 1.01055 11.1935 0.957849 11.1082C1.00651 10.9306 1.06898 10.8157 1.15584 10.6801C1.18297 10.6375 1.21009 10.5949 1.23804 10.5509C1.26743 10.5053 1.29682 10.4596 1.3271 10.4126C1.37336 10.34 1.41961 10.2674 1.46587 10.1948C1.53072 10.0932 1.59572 9.9918 1.66072 9.8904C1.77382 9.71394 1.88676 9.53724 1.99957 9.36034C2.05956 9.26633 2.11963 9.17246 2.17981 9.07875C2.32507 8.85134 2.46544 8.62117 2.59805 8.37517C2.68662 8.21468 2.7828 8.06625 2.87884 7.91698C2.9081 7.87115 2.9081 7.87115 2.93796 7.8244C2.98518 7.75051 3.0325 7.67678 3.07984 7.60309Z" fill="#3A3A3A"/>
</svg>
