<svg width="21" height="25" viewBox="0 0 21 25" fill="none" xmlns="http://www.w3.org/2000/svg">
<path d="M8.83644 0.000771196C8.94515 0.000644573 9.05386 0.000462337 9.16257 0.000227602C9.38935 -4.73193e-05 9.61611 0.000348106 9.84288 0.00122896C10.1318 0.00229711 10.4206 0.00168121 10.7095 0.000559123C10.9336 -0.000122407 11.1578 9.9052e-05 11.382 0.000583084C11.4884 0.000707062 11.5948 0.0005586 11.7013 0.000118168C12.4404 -0.00226995 13.1043 0.0367865 13.77 0.391884C13.8014 0.40818 13.8327 0.424476 13.865 0.441266C14.1157 0.574993 14.3393 0.72387 14.5493 0.916299C14.5917 0.95491 14.634 0.993522 14.6777 1.0333C15.3749 1.69843 15.7097 2.50746 15.8618 3.44755C15.9384 3.46646 15.9384 3.46646 16.0165 3.48575C16.498 3.6047 16.9794 3.724 17.4608 3.84364C17.7082 3.90513 17.9557 3.9665 18.2032 4.02759C18.4422 4.08657 18.6811 4.14587 18.9199 4.20539C19.011 4.22803 19.102 4.25055 19.1932 4.27295C19.3209 4.30438 19.4486 4.33622 19.5762 4.36817C19.6138 4.37731 19.6514 4.38644 19.6901 4.39586C19.8963 4.44799 20.0895 4.49974 20.2681 4.61942C20.3545 4.82216 20.3736 4.99696 20.3736 5.21595C20.3738 5.24661 20.3739 5.27728 20.374 5.30888C20.3744 5.41152 20.3741 5.51415 20.3737 5.61679C20.3738 5.69117 20.374 5.76555 20.3742 5.83993C20.3746 6.04425 20.3744 6.24856 20.3741 6.45287C20.3739 6.67325 20.3742 6.89364 20.3745 7.11402C20.3749 7.54577 20.3748 7.97751 20.3745 8.40925C20.3743 8.76017 20.3743 9.1111 20.3744 9.46203C20.3744 9.51195 20.3744 9.56188 20.3744 9.61332C20.3744 9.71474 20.3745 9.81617 20.3745 9.91759C20.3748 10.869 20.3745 11.8205 20.374 12.7719C20.3735 13.5882 20.3736 14.4044 20.3741 15.2207C20.3746 16.1685 20.3748 17.1163 20.3745 18.0641C20.3744 18.1652 20.3744 18.2663 20.3744 18.3674C20.3744 18.4171 20.3743 18.4669 20.3743 18.5181C20.3743 18.8685 20.3744 19.2189 20.3746 19.5693C20.3749 19.9965 20.3748 20.4237 20.3743 20.8509C20.3741 21.0688 20.374 21.2867 20.3743 21.5047C20.3745 21.7043 20.3744 21.9039 20.3739 22.1034C20.3738 22.1756 20.3738 22.2477 20.3741 22.3198C20.3769 23.2903 20.3769 23.2903 20.0806 23.6507C19.8076 23.9217 19.5917 24.0373 19.1989 24.0377C19.1673 24.0379 19.1356 24.0381 19.103 24.0382C18.9967 24.0387 18.8904 24.0384 18.7842 24.0382C18.7073 24.0384 18.6304 24.0386 18.5535 24.0389C18.342 24.0394 18.1306 24.0394 17.9191 24.0393C17.6911 24.0393 17.4631 24.0398 17.2352 24.0402C16.7884 24.041 16.3417 24.0413 15.8949 24.0413C15.5318 24.0414 15.1688 24.0416 14.8057 24.0419C13.7766 24.0427 12.7475 24.0431 11.7184 24.0431C11.6351 24.0431 11.6351 24.0431 11.5502 24.043C11.4946 24.043 11.4391 24.043 11.3818 24.043C10.4812 24.043 9.58062 24.0439 8.68002 24.0452C7.75559 24.0466 6.83116 24.0472 5.90673 24.0471C5.38761 24.0471 4.8685 24.0474 4.34938 24.0484C3.90741 24.0492 3.46544 24.0494 3.02347 24.0488C2.79794 24.0485 2.57243 24.0485 2.34691 24.0493C2.14043 24.05 1.93397 24.0499 1.72748 24.0491C1.65282 24.0489 1.57815 24.0491 1.50349 24.0496C1.06522 24.0525 0.72632 24.048 0.381729 23.7461C0.0872841 23.3903 0.0124173 23.095 0.0119213 22.632C0.0118251 22.6013 0.0117286 22.5706 0.0116295 22.539C0.0113647 22.4363 0.0114319 22.3335 0.0114986 22.2308C0.0113774 22.1564 0.0112362 22.0819 0.0110766 22.0075C0.0106988 21.803 0.0106141 21.5985 0.0105795 21.394C0.0104926 21.1734 0.0101391 20.9528 0.00982343 20.7323C0.00918712 20.2501 0.00890407 19.7679 0.00869762 19.2856C0.0085681 18.9846 0.00837014 18.6836 0.00815903 18.3825C0.00758762 17.5492 0.00710459 16.7158 0.00694596 15.8824C0.00693566 15.8291 0.00692509 15.7757 0.00691448 15.7208C0.00690425 15.6674 0.00689427 15.6139 0.00688373 15.5588C0.00686294 15.4505 0.00684186 15.3422 0.00682079 15.2339C0.00681041 15.1802 0.00680001 15.1264 0.00678932 15.0711C0.00660414 14.2 0.00578539 13.3289 0.00469433 12.4579C0.00358335 11.5637 0.00299879 10.6695 0.0029441 9.77531C0.0029011 9.2732 0.0026312 8.77109 0.00178109 8.26898C0.00105998 7.84155 0.000818388 7.41413 0.00120603 6.98671C0.00138941 6.7686 0.00134401 6.5505 0.000687469 6.33239C9.19649e-05 6.13273 0.000145224 5.93309 0.000715364 5.73344C0.00080738 5.66121 0.000661604 5.58897 0.000254024 5.51674C-0.000265136 5.41851 8.45225e-05 5.32033 0.000647414 5.22211C0.000619426 5.16756 0.000591136 5.11302 0.000562299 5.05682C0.021917 4.86649 0.0708661 4.74259 0.158707 4.57255C0.274809 4.50734 0.274809 4.50734 0.417194 4.47225C0.471895 4.45801 0.526596 4.44377 0.582955 4.42909C0.612805 4.422 0.642656 4.41492 0.67341 4.40761C0.771853 4.38415 0.869686 4.35887 0.967571 4.33318C1.1939 4.27418 1.42087 4.21789 1.6479 4.16166C1.73111 4.14092 1.81432 4.12017 1.89752 4.09941C2.1144 4.04532 2.33134 3.99143 2.54828 3.93758C2.77049 3.88239 2.99266 3.82701 3.21483 3.77165C3.6492 3.66343 4.08362 3.55542 4.51808 3.44755C4.53032 3.39018 4.54257 3.3328 4.55518 3.27369C4.57173 3.19736 4.5883 3.12104 4.60487 3.04472C4.61288 3.00703 4.62089 2.96934 4.62915 2.9305C4.84656 1.93518 5.44723 1.09449 6.29933 0.541299C6.52332 0.408979 6.75656 0.298395 7.00246 0.213174C7.06855 0.189826 7.06855 0.189826 7.13598 0.166006C7.69933 -0.0085589 8.2508 -0.00165211 8.83644 0.000771196Z" fill="#2B2B2B"/>
<path d="M15.7681 4.24442C16.2469 4.33602 16.72 4.4421 17.1928 4.5612C17.2589 4.57771 17.3249 4.59421 17.3909 4.6107C17.5276 4.64487 17.6642 4.67915 17.8008 4.71352C17.976 4.75758 18.1512 4.80139 18.3265 4.84512C18.4621 4.87898 18.5976 4.91294 18.7331 4.94694C18.7978 4.96315 18.8625 4.97934 18.9272 4.99549C19.0169 5.01792 19.1066 5.04051 19.1963 5.06311C19.2728 5.0823 19.2728 5.0823 19.3508 5.10188C19.4712 5.13505 19.4712 5.13505 19.565 5.18192C19.5682 7.44714 19.5707 9.71236 19.5721 11.9776C19.5723 12.2448 19.5725 12.5121 19.5727 12.7794C19.5727 12.8326 19.5728 12.8858 19.5728 12.9406C19.5734 13.8028 19.5745 14.665 19.5758 15.5272C19.5771 16.4116 19.5779 17.2959 19.5782 18.1802C19.5784 18.7262 19.579 19.2721 19.5801 19.818C19.5809 20.1921 19.5811 20.5662 19.5809 20.9402C19.5808 21.1562 19.581 21.3722 19.5817 21.5882C19.5824 21.7859 19.5824 21.9835 19.582 22.1811C19.5819 22.2527 19.5821 22.3244 19.5825 22.396C19.5831 22.4931 19.5828 22.5902 19.5823 22.6874C19.5823 22.7414 19.5824 22.7954 19.5824 22.8511C19.5628 23.0125 19.5234 23.1007 19.4243 23.2288C19.2656 23.2817 19.1459 23.2814 18.9785 23.2813C18.9475 23.2814 18.9164 23.2814 18.8844 23.2814C18.7798 23.2815 18.6752 23.2812 18.5707 23.281C18.4946 23.281 18.4186 23.281 18.3425 23.281C18.1386 23.281 17.9346 23.2808 17.7307 23.2804C17.5394 23.2802 17.3482 23.2801 17.1569 23.2801C16.5973 23.2799 16.0377 23.2792 15.478 23.2786C14.228 23.2776 12.9779 23.2767 11.69 23.2757C11.69 18.4649 11.69 13.6541 11.69 8.69755C11.8682 8.75696 12.0091 8.80451 12.17 8.88875C12.2065 8.90766 12.243 8.92657 12.2805 8.94606C12.3383 8.97631 12.3383 8.97631 12.3973 9.00718C12.4803 9.04985 12.5634 9.09248 12.6464 9.13508C12.7764 9.20197 12.9063 9.26911 13.0358 9.33694C13.1615 9.4026 13.2876 9.46718 13.4139 9.53159C13.4523 9.55205 13.4908 9.5725 13.5304 9.59358C13.7609 9.70991 13.9164 9.76592 14.1743 9.68192C14.3265 9.54374 14.3747 9.34756 14.4369 9.15641C14.4481 9.12303 14.4592 9.08964 14.4707 9.05525C14.5071 8.9459 14.5429 8.83639 14.5786 8.72685C14.6037 8.65068 14.6289 8.57452 14.654 8.49835C14.8666 7.85089 15.0668 7.20012 15.2569 6.54569C15.2934 6.42088 15.331 6.29647 15.3691 6.17216C15.5586 5.5415 15.6599 4.89308 15.7681 4.24442Z" fill="#F3F3F3"/>
<path d="M4.61183 4.24442C4.61863 4.28373 4.62543 4.32303 4.63244 4.36352C4.85774 5.65063 5.20176 6.86897 5.605 8.11161C5.62158 8.16281 5.63816 8.214 5.65524 8.26675C5.70334 8.41483 5.75179 8.5628 5.80037 8.71073C5.82197 8.77725 5.82197 8.77725 5.844 8.84511C5.98308 9.34794 5.98308 9.34794 6.29933 9.7288C6.59738 9.72087 6.82592 9.59726 7.08687 9.46201C7.15139 9.42934 7.15139 9.42934 7.21721 9.396C7.35386 9.32671 7.49018 9.2568 7.62648 9.18681C7.76366 9.11675 7.90091 9.04682 8.03826 8.97711C8.12357 8.93377 8.20876 8.89021 8.29383 8.84643C8.33218 8.82687 8.37053 8.80732 8.41005 8.78717C8.44382 8.76982 8.4776 8.75248 8.5124 8.7346C8.59621 8.69755 8.59621 8.69755 8.68996 8.69755C8.68996 13.5083 8.68996 18.3191 8.68996 23.2757C7.45246 23.2757 6.21496 23.2757 4.93996 23.2757C4.93814 22.6546 4.93814 22.6546 4.93629 22.021C4.93497 21.7258 4.93352 21.4306 4.9319 21.1354C4.92982 20.7528 4.92802 20.3702 4.92725 19.9875C4.92664 19.6846 4.92538 19.3817 4.92333 19.0788C4.92227 18.9184 4.92154 18.758 4.92159 18.5976C4.92148 18.4186 4.92021 18.2396 4.91867 18.0606C4.91902 17.9807 4.91902 17.9807 4.91939 17.8993C4.91873 17.8505 4.91808 17.8017 4.91741 17.7515C4.91715 17.688 4.91715 17.688 4.91689 17.6232C4.8976 17.4804 4.8976 17.4804 4.70558 17.3225C2.77972 17.2993 2.77972 17.2993 0.814957 17.2757C0.814957 13.2847 0.814957 9.2938 0.814957 5.18192C1.76934 4.91682 1.76934 4.91682 2.18605 4.82743C2.51757 4.75429 2.84283 4.67179 3.16823 4.57456C3.45505 4.49578 3.74548 4.43293 4.03596 4.36921C4.07881 4.35975 4.12165 4.3503 4.16579 4.34055C4.20432 4.33217 4.24286 4.32379 4.28256 4.31516C4.56388 4.24442 4.56388 4.24442 4.61183 4.24442Z" fill="#F3F3F3"/>
<path d="M8.68996 2.27567C8.69039 2.30167 8.69083 2.32767 8.69128 2.35445C8.69381 2.47277 8.69773 2.59099 8.70168 2.70927C8.70234 2.75017 8.703 2.79108 8.70369 2.83323C8.7052 2.87281 8.70671 2.91239 8.70827 2.95316C8.70974 3.00766 8.70974 3.00766 8.71124 3.06326C8.74687 3.20671 8.81105 3.26047 8.92433 3.3538C9.04352 3.38196 9.04352 3.38196 9.175 3.37806C9.25009 3.37895 9.25009 3.37895 9.32669 3.37985C9.38051 3.37947 9.43432 3.37909 9.48976 3.3787C9.57297 3.37897 9.57297 3.37897 9.65786 3.37924C9.77512 3.37937 9.89239 3.37903 10.0096 3.37824C10.1893 3.37724 10.3688 3.37823 10.5485 3.37943C10.6624 3.37931 10.7763 3.37907 10.8902 3.3787C10.9709 3.37927 10.9709 3.37927 11.0532 3.37985C11.1033 3.37926 11.1533 3.37867 11.2049 3.37806C11.2489 3.37791 11.2929 3.37776 11.3382 3.37761C11.4905 3.34672 11.5467 3.28559 11.6431 3.1663C11.6726 3.06313 11.6726 3.06313 11.6716 2.95316C11.6732 2.91359 11.6747 2.87401 11.6762 2.83323C11.6769 2.79232 11.6776 2.75141 11.6782 2.70927C11.6796 2.66763 11.681 2.626 11.6824 2.58311C11.6858 2.48063 11.6882 2.37819 11.69 2.27567C12.7065 2.24896 13.4968 2.49833 14.2509 3.19248C14.4229 3.3699 14.5618 3.56483 14.69 3.77567C14.719 3.82308 14.719 3.82308 14.7486 3.87144C14.7837 3.96317 14.7837 3.96317 14.7821 4.0507C14.7123 4.20499 14.5978 4.31703 14.4819 4.43778C14.4564 4.46479 14.4308 4.4918 14.4044 4.51963C14.3523 4.57449 14.3 4.6292 14.2475 4.68374C14.1845 4.74939 14.1226 4.81598 14.0608 4.88273C13.1726 5.81688 11.9866 6.47333 10.7964 6.93974C10.7551 6.95618 10.7138 6.97263 10.6713 6.98957C10.2484 7.14988 9.96969 7.11219 9.56007 6.93974C9.51894 6.92278 9.47781 6.90583 9.43544 6.88836C8.05379 6.31023 6.85675 5.47694 5.83058 4.38505C5.80708 4.36116 5.78357 4.33727 5.75935 4.31265C5.59626 4.1367 5.59626 4.1367 5.59602 3.9846C5.88811 3.26972 6.50299 2.76098 7.20131 2.46629C7.24397 2.44979 7.28663 2.43329 7.33058 2.4163C7.36937 2.40125 7.40817 2.38621 7.44814 2.37071C7.85346 2.23745 8.26875 2.26316 8.68996 2.27567Z" fill="#2B2B2B"/>
<path d="M10.1431 7.94755C10.4243 8.0413 10.4243 8.0413 10.94 8.27567C10.94 13.2257 10.94 18.1757 10.94 23.2757C10.445 23.2757 9.94996 23.2757 9.43996 23.2757C9.43996 18.3411 9.43996 13.4066 9.43996 8.32255C9.67199 8.1988 9.90402 8.07505 10.1431 7.94755Z" fill="#F3F3F3"/>
<path d="M0.814957 19.1507C1.92871 19.1507 3.04246 19.1507 4.18996 19.1507C4.18996 20.5119 4.18996 21.8732 4.18996 23.2757C3.67562 23.2786 3.16129 23.2815 2.63136 23.2845C2.46911 23.2857 2.30685 23.287 2.13968 23.2883C2.01134 23.2888 1.883 23.2891 1.75465 23.2894C1.72136 23.2898 1.68808 23.2901 1.65378 23.2905C1.55548 23.2915 1.45722 23.2917 1.35892 23.2916C1.30354 23.292 1.24816 23.2923 1.19111 23.2926C1.03512 23.274 0.971469 23.2458 0.861832 23.135C0.804456 22.9629 0.808783 22.8048 0.809635 22.6256C0.809628 22.5881 0.809622 22.5506 0.809614 22.5119C0.809647 22.3879 0.810012 22.2639 0.810379 22.1399C0.810467 22.0539 0.810533 21.9679 0.81058 21.8819C0.810759 21.6556 0.81122 21.4293 0.811738 21.203C0.812302 20.9314 0.812517 20.6599 0.812791 20.3883C0.813245 19.9758 0.814143 19.5632 0.814957 19.1507Z" fill="#2B2B2B"/>
<path d="M8.89229 0.752053C8.99463 0.7516 9.09696 0.751127 9.1993 0.750635C9.41336 0.749795 9.62741 0.749532 9.84147 0.749615C10.1135 0.74963 10.3855 0.747713 10.6576 0.745288C10.8689 0.743711 11.0803 0.74344 11.2916 0.743514C11.3918 0.743349 11.492 0.742738 11.5922 0.741639C12.6002 0.731615 13.4479 0.937042 14.2031 1.64359C14.5027 1.95547 14.7773 2.334 14.9243 2.74442C14.9089 2.77536 14.8934 2.8063 14.8775 2.83817C14.8522 2.80422 14.8269 2.77026 14.8009 2.73527C14.3434 2.19314 13.6359 1.83047 12.9556 1.6663C12.9067 1.65373 12.9067 1.65373 12.8569 1.64091C12.3825 1.53654 11.8958 1.55714 11.4127 1.5568C11.3124 1.5565 11.212 1.55618 11.1117 1.55586C10.9019 1.5553 10.692 1.55512 10.4822 1.55518C10.2154 1.55519 9.94859 1.55391 9.68179 1.55229C9.47459 1.55124 9.2674 1.55106 9.06019 1.55111C8.96194 1.551 8.86369 1.55059 8.76544 1.54986C8.0377 1.54494 7.30819 1.57903 6.65382 1.93583C6.62323 1.9518 6.59264 1.96777 6.56112 1.98423C6.19227 2.18312 5.88662 2.44493 5.59621 2.74442C5.5498 2.76763 5.5498 2.76763 5.50246 2.7913C5.58412 2.23091 6.04553 1.72178 6.47218 1.37626C7.24145 0.836852 7.97745 0.753008 8.89229 0.752053Z" fill="#F3F3F3"/>
<path d="M5.50246 5.13505C5.69632 5.29875 5.88484 5.46632 6.07082 5.63895C6.82403 6.32277 7.67546 6.86226 8.59621 7.2913C8.62637 7.30545 8.65654 7.31961 8.68762 7.33419C8.85975 7.41482 9.03238 7.49425 9.20558 7.57255C9.07811 7.67343 8.95398 7.74964 8.80678 7.81828C8.74403 7.84785 8.74403 7.84785 8.68002 7.87801C8.61243 7.90953 8.61243 7.90953 8.54347 7.94169C8.22763 8.09017 7.9134 8.24091 7.60268 8.39982C7.56112 8.42099 7.56112 8.42099 7.51872 8.44259C7.38296 8.51178 7.24746 8.58141 7.1123 8.65175C7.06324 8.67677 7.01418 8.7018 6.96364 8.72758C6.92018 8.75007 6.87672 8.77256 6.83194 8.79574C6.72121 8.83817 6.72121 8.83817 6.58058 8.7913C6.53466 8.70693 6.53466 8.70693 6.49471 8.59574C6.47968 8.55442 6.46465 8.5131 6.44917 8.47052C6.43356 8.42556 6.41795 8.38059 6.40187 8.33427C6.38545 8.28804 6.36902 8.2418 6.3521 8.19417C6.21514 7.8021 6.09875 7.40557 5.9886 7.00529C5.93143 6.79799 5.86751 6.5935 5.80128 6.38895C5.50246 5.44702 5.50246 5.44702 5.50246 5.13505Z" fill="#F3F3F3"/>
<path d="M14.8306 5.13505C14.9109 5.29562 14.833 5.46801 14.7925 5.63602C14.7822 5.67891 14.7719 5.72179 14.7613 5.76597C14.6237 6.31741 14.4435 6.85607 14.2641 7.39501C14.1963 7.59878 14.1305 7.80308 14.0656 8.00779C14.0325 8.11076 13.9994 8.21373 13.9663 8.31669C13.9514 8.36432 13.9366 8.41196 13.9212 8.46103C13.9072 8.50416 13.8931 8.54728 13.8786 8.59171C13.8666 8.62935 13.8546 8.66699 13.8423 8.70577C13.7993 8.7913 13.7993 8.7913 13.6587 8.83817C13.5439 8.79078 13.4374 8.74054 13.3277 8.68327C13.2948 8.66663 13.262 8.64999 13.2282 8.63285C13.1215 8.57866 13.0151 8.52384 12.9087 8.46903C12.7999 8.41362 12.691 8.35838 12.5821 8.30316C12.5101 8.2667 12.4382 8.23019 12.3664 8.19363C12.0864 8.05138 11.8044 7.91383 11.52 7.78056C11.4657 7.75505 11.4657 7.75505 11.4102 7.72903C11.3316 7.69234 11.253 7.65585 11.1743 7.61942C11.248 7.47204 11.3974 7.44481 11.5435 7.38505C12.7915 6.85399 13.8804 6.10448 14.8306 5.13505Z" fill="#F3F3F3"/>
<path d="M0.814957 18.0257C1.92871 18.0257 3.04246 18.0257 4.18996 18.0257C4.18996 18.1494 4.18996 18.2732 4.18996 18.4007C3.07621 18.4007 1.96246 18.4007 0.814957 18.4007C0.814957 18.2769 0.814957 18.1532 0.814957 18.0257Z" fill="#F3F3F3"/>
<path d="M10.3397 20.6675C10.4243 20.6975 10.4243 20.6975 10.5181 20.7766C10.5809 20.9219 10.5906 21.0093 10.565 21.1663C10.4484 21.324 10.3815 21.3913 10.187 21.427C10.0145 21.394 9.96168 21.3574 9.86183 21.2132C9.81203 21.052 9.81203 21.052 9.81496 20.885C9.96121 20.6586 10.0871 20.616 10.3397 20.6675Z" fill="#2B2B2B"/>
<path d="M10.3397 17.2925C10.4243 17.3225 10.4243 17.3225 10.5181 17.4016C10.5809 17.5469 10.5906 17.6343 10.565 17.7913C10.4484 17.949 10.3815 18.0163 10.187 18.052C10.0145 18.019 9.96168 17.9824 9.86183 17.8382C9.81203 17.677 9.81203 17.677 9.81496 17.51C9.96121 17.2836 10.0871 17.241 10.3397 17.2925Z" fill="#2B2B2B"/>
<path d="M10.3397 13.9175C10.4243 13.9475 10.4243 13.9475 10.5181 14.0266C10.5809 14.1719 10.5906 14.2593 10.565 14.4163C10.4484 14.574 10.3815 14.6413 10.187 14.677C10.0145 14.644 9.96168 14.6074 9.86183 14.4632C9.81203 14.302 9.81203 14.302 9.81496 14.135C9.96121 13.9086 10.0871 13.866 10.3397 13.9175Z" fill="#2B2B2B"/>
<path d="M10.3397 10.5425C10.4243 10.5725 10.4243 10.5725 10.5181 10.6516C10.5809 10.7969 10.5906 10.8843 10.565 11.0413C10.4484 11.199 10.3815 11.2663 10.187 11.302C10.0145 11.269 9.96168 11.2324 9.86183 11.0882C9.81203 10.927 9.81203 10.927 9.81496 10.76C9.96121 10.5336 10.0871 10.491 10.3397 10.5425Z" fill="#F3F3F3"/>
</svg>
