<svg width="24" height="23" viewBox="0 0 24 23" fill="none" xmlns="http://www.w3.org/2000/svg">
<path d="M9.55556 11.6518C9.83488 11.743 10.11 11.8396 10.3843 11.9446C11.4676 12.3298 12.5892 12.3452 13.6999 12.073C13.9226 12.0187 14.1441 11.9807 14.3704 11.9446C14.3699 12.0166 14.3694 12.0886 14.3689 12.1627C14.3679 12.4325 14.3702 12.7022 14.3735 12.972C14.3745 13.0882 14.3746 13.2044 14.3737 13.3207C14.3638 14.2157 14.3638 14.2157 14.8245 14.9632C14.8702 15.006 14.9159 15.0488 14.963 15.0929C15.0337 15.1719 15.104 15.2514 15.1736 15.3314C15.3743 15.5454 15.5754 15.7589 15.7778 15.9714C15.8439 16.0428 15.8439 16.0428 15.9115 16.1156C17.1521 17.4089 18.5365 17.9097 20.2831 18.1591C21.2882 18.3059 22.225 18.619 22.875 19.4345C23.5819 20.4509 23.8519 21.776 23.8519 23C16.0052 23 8.15852 23 0.0740741 23C0.384187 19.9349 0.384187 19.9349 1.48148 18.9732C2.29306 18.3733 3.22164 18.21 4.2037 18.0763C5.05826 17.9496 5.79913 17.7774 6.51852 17.2893C6.56107 17.2605 6.60362 17.2316 6.64746 17.2019C7.20879 16.8119 7.72394 16.3636 8.22222 15.8982C8.28018 15.8448 8.33814 15.7914 8.39786 15.7363C9.01709 15.148 9.48668 14.6158 9.50492 13.7538C9.50723 13.664 9.50723 13.664 9.50958 13.5723C9.51443 13.3805 9.5188 13.1888 9.52315 12.9971C9.52635 12.8673 9.52958 12.7374 9.53284 12.6076C9.54078 12.289 9.54828 11.9704 9.55556 11.6518Z" fill="#F3F3F3"/>
<path d="M14.963 0.816062C15.2281 1.01995 15.4681 1.23855 15.7037 1.47499C15.7562 1.52699 15.8087 1.579 15.8628 1.63257C16.9939 2.81688 17.3869 4.36756 17.3516 5.95708C17.2874 7.53991 16.5948 8.9794 15.4277 10.0582C14.4104 10.9426 13.1241 11.2813 11.7956 11.2253C10.6272 11.1352 9.62274 10.5591 8.81482 9.74821C8.73604 9.67021 8.73604 9.67021 8.65567 9.59063C7.52463 8.40632 7.13163 6.85564 7.16696 5.26612C7.23113 3.68329 7.92377 2.2438 9.09086 1.16497C10.7376 -0.266753 13.1608 -0.373764 14.963 0.816062Z" fill="#F3F3F3"/>
<path d="M22 13.3357C22.2777 13.4365 22.5144 13.5626 22.763 13.7207C22.8354 13.7664 22.9077 13.8122 22.9822 13.8594C23.0568 13.907 23.1315 13.9547 23.2083 14.0038C23.2844 14.052 23.3604 14.1002 23.4388 14.1499C23.6261 14.2687 23.8131 14.3878 24 14.5071C23.6831 14.8552 23.3179 15.0856 22.9167 15.3308C22.8531 15.3704 22.7895 15.4101 22.724 15.4509C22.2537 15.7414 22.2537 15.7414 22 15.825C22 15.6559 22 15.4867 22 15.3125C21.9341 15.3143 21.8681 15.3161 21.8002 15.3179C21.1759 15.3341 20.5516 15.3463 19.9271 15.3542C19.6061 15.3584 19.2853 15.3641 18.9644 15.3733C18.6541 15.3821 18.344 15.3868 18.0336 15.3889C17.9157 15.3904 17.7979 15.3933 17.6802 15.3976C17.1254 15.4174 16.6541 15.4254 16.2265 15.0332C16.0649 14.8661 15.9194 14.691 15.7778 14.5071C15.734 14.4533 15.6903 14.3994 15.6453 14.3439C15.5556 14.2143 15.5556 14.2143 15.5556 14.0679C17.6822 14.0679 19.8089 14.0679 22 14.0679C22 13.8262 22 13.5846 22 13.3357Z" fill="#F3F3F3"/>
<path d="M2 13.3357C2 13.5773 2 13.8189 2 14.0679C4.10222 14.0679 6.20444 14.0679 8.37037 14.0679C8.24844 14.3089 8.15342 14.4536 7.97685 14.649C7.93436 14.6965 7.89187 14.7439 7.84809 14.7928C7.80044 14.8435 7.7528 14.8942 7.7037 14.9464C7.62402 15.0405 7.62402 15.0405 7.54272 15.1365C7.27757 15.3594 7.14611 15.357 6.8017 15.3541C6.72359 15.3541 6.72359 15.3541 6.64391 15.3542C6.47271 15.354 6.30167 15.3511 6.1305 15.3482C6.01145 15.3476 5.89241 15.347 5.77336 15.3467C5.46073 15.3453 5.14817 15.3417 4.83557 15.3376C4.51631 15.3339 4.19703 15.3322 3.87775 15.3304C3.2518 15.3265 2.62591 15.3202 2 15.3125C2 15.4816 2 15.6507 2 15.825C1.26145 15.5555 0.626133 15.0412 0 14.5804C0.31854 14.3157 0.659227 14.0965 1.00926 13.8757C1.12134 13.8046 1.23342 13.7334 1.34549 13.6623C1.39472 13.6312 1.44396 13.6001 1.49468 13.568C1.85965 13.3357 1.85965 13.3357 2 13.3357Z" fill="#F3F3F3"/>
</svg>
