<svg width="24" height="30" viewBox="0 0 24 30" fill="none" xmlns="http://www.w3.org/2000/svg">
<path d="M23.4005 19.2212C24.1323 20.691 24.0966 22.144 23.8078 23.7198C22.7792 25.7995 21.5131 27.9232 19.7353 29.4453C17.571 30.1698 15.2323 29.9465 12.9655 29.9525C12.0547 29.9564 11.1443 29.9691 10.2336 29.982C9.65186 29.9847 9.07016 29.9868 8.48846 29.9884C7.96094 29.9922 7.43342 29.9961 6.88991 30C5.38915 29.8446 4.64061 29.5297 3.44565 28.6273C2.74093 27.7455 2.74093 27.7455 2.14757 26.787C1.84913 26.3126 1.84913 26.3126 1.54466 25.8285C1.36565 25.5375 1.18663 25.2465 1.0022 24.9467C0.733418 24.5418 0.464638 24.1369 0.187713 23.7198C0.0509053 22.8524 0.0509053 22.8524 0.0349974 21.905C0.0234482 21.5935 0.0118991 21.2819 0 20.9609C0.261961 19.6745 0.81508 19.2275 1.81668 18.4033C8.76999 14.3065 16.7205 14.8463 23.4005 19.2212Z" fill="#F3F3F3"/>
<path d="M4.66738 7.36132C4.66738 3.29577 7.94929 0 11.9977 0C16.0462 0 19.3281 3.29577 19.3281 7.36132V7.77028C19.3281 11.8358 16.0462 15.1316 11.9977 15.1316C7.94929 15.1316 4.66738 11.8358 4.66738 7.77028V7.36132Z" fill="#F3F3F3"/>
</svg>
