<svg width="24" height="21" viewBox="0 0 24 21" fill="none" xmlns="http://www.w3.org/2000/svg">
<mask id="path-1-inside-1_37_674" fill="white">
<path d="M9.70742 0.00110824C9.79002 0.000729872 9.79002 0.000729873 9.8743 0.000343863C10.0553 -0.000286854 10.2364 0.000128846 10.4174 0.000616227C10.5438 0.000584117 10.6702 0.000379623 10.7966 0.000198896C11.061 -6.22712e-05 11.3255 0.000280246 11.59 0.000967663C11.8949 0.00175093 12.1997 0.00149712 12.5046 0.000704755C12.7674 4.94626e-05 13.0301 -3.96569e-05 13.2928 0.000336055C13.4493 0.000559349 13.6058 0.00053618 13.7623 0.00011488C13.9369 -0.000252027 14.1115 0.000308525 14.2861 0.00110824C14.3373 0.000816853 14.3885 0.000525468 14.4412 0.000225253C14.7796 0.00308599 15.0941 0.0322173 15.3758 0.239931C15.4116 0.280801 15.4116 0.280801 15.448 0.322497C15.476 0.353537 15.504 0.384577 15.5328 0.416557C15.5615 0.449701 15.5902 0.482845 15.6197 0.516994C15.6838 0.586997 15.7479 0.656939 15.812 0.726825C15.9113 0.83661 16.0098 0.946853 16.1073 1.05826C16.4585 1.49541 16.4585 1.49541 16.935 1.72522C17.0906 1.699 17.2292 1.65502 17.3782 1.60317C17.5106 1.58999 17.5106 1.58999 17.6381 1.58874C17.679 1.58828 17.7199 1.58783 17.7621 1.58736C17.8033 1.58763 17.8446 1.5879 17.8871 1.58817C17.9535 1.58853 17.9535 1.58853 18.0212 1.58889C19.2725 1.61015 20.3305 2.19628 21.1906 3.10169C21.7401 3.71825 22.151 4.56375 22.2272 5.39793C22.2347 5.47736 22.2347 5.47736 22.2424 5.55839C22.2517 5.66442 22.2594 5.77062 22.2653 5.87691C22.2937 6.21792 22.3658 6.3789 22.6178 6.60384C22.7541 6.72643 22.8486 6.86713 22.9469 7.02223C22.9664 7.05293 22.9859 7.08363 23.006 7.11527C23.7209 8.2689 23.9807 9.5804 23.9968 10.9328C23.9979 10.9883 23.9989 11.0437 24 11.1009C23.9998 11.1794 23.9998 11.1794 23.9996 11.2595C23.9997 11.3059 23.9997 11.3522 23.9998 11.4C23.9524 11.6739 23.7557 11.8699 23.5697 12.0617C23.5265 12.1065 23.4832 12.1513 23.4386 12.1975C23.3918 12.2455 23.3449 12.2936 23.298 12.3416C23.2495 12.3915 23.201 12.4414 23.1526 12.4913C23.0513 12.5955 22.9498 12.6996 22.8482 12.8035C22.7183 12.9364 22.5889 13.07 22.4596 13.2036C22.3598 13.3067 22.2596 13.4094 22.1593 13.5121C22.1115 13.5612 22.0637 13.6104 22.0161 13.6597C21.9495 13.7286 21.8824 13.797 21.8153 13.8654C21.7773 13.9043 21.7393 13.9433 21.7002 13.9835C21.5108 14.1469 21.3138 14.208 21.0648 14.202C20.1821 14.0164 19.2836 13.1355 18.7927 12.3963C18.6576 12.1776 18.5333 11.952 18.4077 11.7275C17.6998 13.7969 17.1352 15.9254 17.0263 18.1265C17.0244 18.1654 17.0224 18.2043 17.0204 18.2444C17.011 18.4384 17.0025 18.6322 16.9955 18.8263C16.9924 18.8978 16.9894 18.9694 16.9863 19.041C16.984 19.1042 16.9817 19.1674 16.9793 19.2326C16.9485 19.4704 16.8767 19.6312 16.7114 19.8007C16.4564 19.967 16.1913 19.9948 15.8952 19.9931C15.8605 19.9933 15.8257 19.9935 15.7899 19.9937C15.6742 19.9941 15.5585 19.994 15.4428 19.9938C15.3595 19.994 15.2763 19.9942 15.193 19.9945C14.9673 19.9952 14.7417 19.9952 14.516 19.9951C14.3274 19.995 14.1388 19.9952 13.9501 19.9955C13.505 19.996 13.0599 19.996 12.6148 19.9957C12.1561 19.9954 11.6975 19.996 11.2388 19.9971C10.8445 19.9979 10.4502 19.9982 10.056 19.998C9.82068 19.9979 9.58542 19.9981 9.35015 19.9987C9.12883 19.9993 8.90752 19.9993 8.6862 19.9986C8.60518 19.9985 8.52416 19.9986 8.44314 19.999C7.50072 20.0033 7.50072 20.0033 7.24237 19.7687C7.04823 19.5437 7.02958 19.3557 7.01797 19.0652C7.01489 18.9947 7.01177 18.9241 7.00861 18.8536C7.00698 18.8164 7.00535 18.7792 7.00367 18.7409C6.89317 16.3094 6.35433 14.0221 5.58577 11.7275C5.5475 11.7963 5.5475 11.7963 5.50845 11.8664C4.96316 12.8314 4.12564 13.8025 3.05883 14.1747C2.77874 14.2224 2.60512 14.1719 2.3569 14.0307C2.23849 13.9273 2.23849 13.9273 2.12031 13.806C2.08762 13.7727 2.08762 13.7727 2.05426 13.7388C1.98296 13.6661 1.91218 13.5929 1.84142 13.5196C1.7917 13.4686 1.74197 13.4176 1.69221 13.3667C1.58831 13.2601 1.48466 13.1534 1.38118 13.0464C1.24868 12.9094 1.11565 12.773 0.982453 12.6367C0.879824 12.5317 0.77743 12.4264 0.67511 12.321C0.626141 12.2706 0.577111 12.2202 0.528015 12.17C0.459469 12.0997 0.391236 12.0291 0.32308 11.9585C0.284231 11.9184 0.245383 11.8784 0.205357 11.8371C-0.0326311 11.5616 0.000848263 11.2918 0.00250391 10.9388C0.00276782 10.8807 0.00303173 10.8226 0.00330363 10.7627C0.021959 9.32426 0.371609 7.7463 1.3274 6.64136C1.35531 6.61717 1.38322 6.59297 1.41197 6.56804C1.64589 6.36297 1.69489 6.20533 1.71933 5.89331C1.72366 5.81677 1.72366 5.81677 1.72808 5.73869C1.82777 4.61057 2.23038 3.69896 3.01203 2.8987C3.03924 2.86741 3.06644 2.83611 3.09447 2.80386C3.69729 2.12191 4.7133 1.70008 5.58577 1.60317C5.75156 1.59552 5.91704 1.59429 6.08298 1.59417C6.1255 1.59358 6.16803 1.593 6.21185 1.59239C6.25486 1.5923 6.29787 1.5922 6.34218 1.59211C6.40882 1.59183 6.40882 1.59183 6.47681 1.59154C6.61527 1.60317 6.61527 1.60317 6.7574 1.65163C6.93231 1.70741 7.0414 1.72782 7.22361 1.69913C7.52207 1.50929 7.7517 1.21191 7.98404 0.946403C8.0818 0.837088 8.18006 0.72834 8.27921 0.620342C8.34058 0.553259 8.40112 0.485364 8.46064 0.416557C8.48863 0.385517 8.51661 0.354477 8.54544 0.322497C8.56928 0.29525 8.59311 0.268003 8.61766 0.239931C8.94446 -0.00104629 9.31939 -0.00109978 9.70742 0.00110824ZM9.65697 13.7428C9.54506 13.9358 9.52967 14.1467 9.56338 14.3666C9.67561 14.5967 9.80688 14.7314 10.0313 14.8464C10.1883 14.8685 10.3394 14.8645 10.4936 14.8224C10.7624 14.7575 11.0905 14.739 11.3358 14.8824C11.4315 14.9531 11.527 15.0241 11.6224 15.0953C11.7905 15.1995 11.8936 15.2303 12.0903 15.2303C12.3256 15.1479 12.5085 15.008 12.6987 14.8464C12.8487 14.7951 12.9593 14.792 13.1169 14.7924C13.1899 14.7923 13.1899 14.7923 13.2644 14.7921C13.382 14.7976 13.4754 14.8148 13.5878 14.8464C13.8072 14.8646 13.9166 14.8698 14.1142 14.7685C14.2757 14.6255 14.4076 14.4962 14.4464 14.2729C14.4583 13.9942 14.3812 13.7975 14.1961 13.5899C13.7135 13.2909 13.0279 13.2642 12.4868 13.4006C12.3671 13.4457 12.253 13.4966 12.1371 13.5509C12.0168 13.5968 11.9693 13.6055 11.8461 13.5633C11.8109 13.5453 11.7757 13.5274 11.7394 13.5089C11.1457 13.2108 10.1267 13.2241 9.65697 13.7428ZM10.1191 16.8767C9.96507 17.103 9.86681 17.281 9.9085 17.5605C9.96429 17.7633 10.0519 17.8832 10.216 18.0088C10.4508 18.137 10.6794 18.1325 10.9292 18.0553C11.1076 18.0133 11.1076 18.0133 11.248 18.0613C11.3884 18.1572 11.3884 18.1572 11.4725 18.2313C11.6839 18.4138 11.8354 18.491 12.1159 18.4738C12.3175 18.4235 12.4507 18.2931 12.6051 18.1572C12.7455 18.0613 12.7455 18.0613 12.8858 18.0133C12.9778 18.0349 13.0697 18.057 13.16 18.0849C13.377 18.1377 13.5803 18.1165 13.7775 18.0088C13.9766 17.8563 14.0641 17.7004 14.1016 17.4489C14.1036 17.2165 13.9998 17.061 13.8744 16.8767C13.5578 16.6365 13.1359 16.5279 12.7455 16.5738C12.5492 16.6219 12.3575 16.6747 12.1783 16.7712C12.0428 16.8367 11.9526 16.8031 11.8096 16.7657C11.7001 16.7185 11.5909 16.6705 11.482 16.6218C11.0248 16.4896 10.5004 16.5874 10.1191 16.8767Z"/>
<path d="M16.4615 2C16.5977 2.06576 16.6852 2.15563 16.7892 2.27406C16.8222 2.31153 16.8552 2.349 16.8892 2.38761C16.9405 2.4465 16.9405 2.4465 16.9928 2.50659C17.0265 2.54485 17.0603 2.5831 17.095 2.62252C17.2382 2.78578 17.3784 2.94959 17.511 3.1239C17.6584 3.31601 17.8152 3.49573 17.9746 3.67503C18.0041 3.70839 18.0336 3.74175 18.064 3.77612C18.1572 3.88143 18.2505 3.98659 18.3438 4.09174C18.4074 4.16363 18.471 4.23552 18.5346 4.30742C18.6897 4.48259 18.8448 4.65763 19 4.83257C18.9445 4.96392 18.8898 5.05502 18.7978 5.15736C18.7737 5.18432 18.7497 5.21129 18.7249 5.23907C18.6999 5.26671 18.6748 5.29435 18.649 5.32282C18.6237 5.35113 18.5984 5.37945 18.5723 5.40862C18.5099 5.47827 18.4473 5.54771 18.3846 5.61697C17.8168 5.29529 17.4489 4.64394 17 4.13532C17 8.99601 17 13.8567 17 18.8647C17.4315 18.3757 17.8631 17.8868 18.3077 17.383C18.4374 17.4565 18.4974 17.5003 18.5944 17.6122C18.63 17.653 18.63 17.653 18.6665 17.6947C18.6909 17.7231 18.7153 17.7514 18.7404 17.7807C18.7654 17.8094 18.7904 17.8381 18.8161 17.8677C18.8776 17.9383 18.9389 18.0092 19 18.0803C18.9467 18.2166 18.8849 18.3083 18.7915 18.4129C18.7647 18.4431 18.7378 18.4734 18.7102 18.5046C18.6811 18.5369 18.6521 18.5692 18.6221 18.6025C18.5922 18.6363 18.5622 18.67 18.5313 18.7048C18.4353 18.8128 18.3391 18.9205 18.2428 19.0281C18.1472 19.1352 18.0517 19.2423 17.9564 19.3495C17.897 19.4162 17.8376 19.4828 17.7781 19.5492C17.6216 19.7248 17.473 19.9049 17.3293 20.094C17.2508 20.196 17.1678 20.2919 17.0831 20.3872C17.051 20.4234 17.0189 20.4597 16.9858 20.497C16.9532 20.5336 16.9206 20.5701 16.887 20.6078C16.8534 20.6457 16.8197 20.6836 16.7851 20.7227C16.703 20.8152 16.6208 20.9077 16.5385 21C16.4062 20.9354 16.3204 20.8508 16.2192 20.7355C16.1879 20.7 16.1567 20.6645 16.1245 20.6279C16.0921 20.5907 16.0598 20.5535 16.0264 20.5152C15.9945 20.479 15.9626 20.4428 15.9298 20.4056C15.7915 20.2478 15.6566 20.0893 15.5285 19.9209C15.3781 19.725 15.2179 19.5419 15.0554 19.359C15.0099 19.3075 15.0099 19.3075 14.9635 19.255C14.8676 19.1466 14.7715 19.0383 14.6755 18.93C14.61 18.8561 14.5445 18.7821 14.479 18.7081C14.3195 18.5277 14.1598 18.3475 14 18.1674C14.0555 18.0361 14.1102 17.945 14.2022 17.8426C14.2263 17.8157 14.2503 17.7887 14.2751 17.7609C14.3001 17.7333 14.3252 17.7057 14.351 17.6772C14.3763 17.6489 14.4016 17.6206 14.4277 17.5914C14.4901 17.5217 14.5527 17.4523 14.6154 17.383C15.1832 17.7047 15.5511 18.3561 16 18.8647C16 14.004 16 9.1433 16 4.13532C15.5685 4.62427 15.1369 5.11321 14.6923 5.61697C14.5626 5.54348 14.5026 5.49968 14.4056 5.38785C14.3819 5.3606 14.3581 5.33336 14.3335 5.30529C14.3091 5.27692 14.2847 5.24855 14.2596 5.21932C14.2346 5.19062 14.2096 5.16191 14.1839 5.13234C14.1224 5.06166 14.0611 4.99079 14 4.91972C14.0564 4.77182 14.1289 4.67612 14.2297 4.56314C14.2611 4.52764 14.2926 4.49213 14.325 4.45555C14.3591 4.41751 14.3932 4.37947 14.4283 4.34027C14.482 4.27982 14.5357 4.21937 14.5893 4.15892C14.6645 4.07425 14.7399 3.98978 14.8153 3.90532C14.9465 3.75833 15.0775 3.61114 15.2084 3.46379C15.278 3.38547 15.3477 3.30728 15.4175 3.22922C15.586 3.03979 15.7488 2.84806 15.9026 2.64314C16.0054 2.50945 16.117 2.38581 16.2284 2.26147C16.2623 2.2233 16.2623 2.2233 16.2969 2.18436C16.3517 2.1228 16.4066 2.06138 16.4615 2Z"/>
</mask>
<path d="M9.70742 0.00110824C9.79002 0.000729872 9.79002 0.000729873 9.8743 0.000343863C10.0553 -0.000286854 10.2364 0.000128846 10.4174 0.000616227C10.5438 0.000584117 10.6702 0.000379623 10.7966 0.000198896C11.061 -6.22712e-05 11.3255 0.000280246 11.59 0.000967663C11.8949 0.00175093 12.1997 0.00149712 12.5046 0.000704755C12.7674 4.94626e-05 13.0301 -3.96569e-05 13.2928 0.000336055C13.4493 0.000559349 13.6058 0.00053618 13.7623 0.00011488C13.9369 -0.000252027 14.1115 0.000308525 14.2861 0.00110824C14.3373 0.000816853 14.3885 0.000525468 14.4412 0.000225253C14.7796 0.00308599 15.0941 0.0322173 15.3758 0.239931C15.4116 0.280801 15.4116 0.280801 15.448 0.322497C15.476 0.353537 15.504 0.384577 15.5328 0.416557C15.5615 0.449701 15.5902 0.482845 15.6197 0.516994C15.6838 0.586997 15.7479 0.656939 15.812 0.726825C15.9113 0.83661 16.0098 0.946853 16.1073 1.05826C16.4585 1.49541 16.4585 1.49541 16.935 1.72522C17.0906 1.699 17.2292 1.65502 17.3782 1.60317C17.5106 1.58999 17.5106 1.58999 17.6381 1.58874C17.679 1.58828 17.7199 1.58783 17.7621 1.58736C17.8033 1.58763 17.8446 1.5879 17.8871 1.58817C17.9535 1.58853 17.9535 1.58853 18.0212 1.58889C19.2725 1.61015 20.3305 2.19628 21.1906 3.10169C21.7401 3.71825 22.151 4.56375 22.2272 5.39793C22.2347 5.47736 22.2347 5.47736 22.2424 5.55839C22.2517 5.66442 22.2594 5.77062 22.2653 5.87691C22.2937 6.21792 22.3658 6.3789 22.6178 6.60384C22.7541 6.72643 22.8486 6.86713 22.9469 7.02223C22.9664 7.05293 22.9859 7.08363 23.006 7.11527C23.7209 8.2689 23.9807 9.5804 23.9968 10.9328C23.9979 10.9883 23.9989 11.0437 24 11.1009C23.9998 11.1794 23.9998 11.1794 23.9996 11.2595C23.9997 11.3059 23.9997 11.3522 23.9998 11.4C23.9524 11.6739 23.7557 11.8699 23.5697 12.0617C23.5265 12.1065 23.4832 12.1513 23.4386 12.1975C23.3918 12.2455 23.3449 12.2936 23.298 12.3416C23.2495 12.3915 23.201 12.4414 23.1526 12.4913C23.0513 12.5955 22.9498 12.6996 22.8482 12.8035C22.7183 12.9364 22.5889 13.07 22.4596 13.2036C22.3598 13.3067 22.2596 13.4094 22.1593 13.5121C22.1115 13.5612 22.0637 13.6104 22.0161 13.6597C21.9495 13.7286 21.8824 13.797 21.8153 13.8654C21.7773 13.9043 21.7393 13.9433 21.7002 13.9835C21.5108 14.1469 21.3138 14.208 21.0648 14.202C20.1821 14.0164 19.2836 13.1355 18.7927 12.3963C18.6576 12.1776 18.5333 11.952 18.4077 11.7275C17.6998 13.7969 17.1352 15.9254 17.0263 18.1265C17.0244 18.1654 17.0224 18.2043 17.0204 18.2444C17.011 18.4384 17.0025 18.6322 16.9955 18.8263C16.9924 18.8978 16.9894 18.9694 16.9863 19.041C16.984 19.1042 16.9817 19.1674 16.9793 19.2326C16.9485 19.4704 16.8767 19.6312 16.7114 19.8007C16.4564 19.967 16.1913 19.9948 15.8952 19.9931C15.8605 19.9933 15.8257 19.9935 15.7899 19.9937C15.6742 19.9941 15.5585 19.994 15.4428 19.9938C15.3595 19.994 15.2763 19.9942 15.193 19.9945C14.9673 19.9952 14.7417 19.9952 14.516 19.9951C14.3274 19.995 14.1388 19.9952 13.9501 19.9955C13.505 19.996 13.0599 19.996 12.6148 19.9957C12.1561 19.9954 11.6975 19.996 11.2388 19.9971C10.8445 19.9979 10.4502 19.9982 10.056 19.998C9.82068 19.9979 9.58542 19.9981 9.35015 19.9987C9.12883 19.9993 8.90752 19.9993 8.6862 19.9986C8.60518 19.9985 8.52416 19.9986 8.44314 19.999C7.50072 20.0033 7.50072 20.0033 7.24237 19.7687C7.04823 19.5437 7.02958 19.3557 7.01797 19.0652C7.01489 18.9947 7.01177 18.9241 7.00861 18.8536C7.00698 18.8164 7.00535 18.7792 7.00367 18.7409C6.89317 16.3094 6.35433 14.0221 5.58577 11.7275C5.5475 11.7963 5.5475 11.7963 5.50845 11.8664C4.96316 12.8314 4.12564 13.8025 3.05883 14.1747C2.77874 14.2224 2.60512 14.1719 2.3569 14.0307C2.23849 13.9273 2.23849 13.9273 2.12031 13.806C2.08762 13.7727 2.08762 13.7727 2.05426 13.7388C1.98296 13.6661 1.91218 13.5929 1.84142 13.5196C1.7917 13.4686 1.74197 13.4176 1.69221 13.3667C1.58831 13.2601 1.48466 13.1534 1.38118 13.0464C1.24868 12.9094 1.11565 12.773 0.982453 12.6367C0.879824 12.5317 0.77743 12.4264 0.67511 12.321C0.626141 12.2706 0.577111 12.2202 0.528015 12.17C0.459469 12.0997 0.391236 12.0291 0.32308 11.9585C0.284231 11.9184 0.245383 11.8784 0.205357 11.8371C-0.0326311 11.5616 0.000848263 11.2918 0.00250391 10.9388C0.00276782 10.8807 0.00303173 10.8226 0.00330363 10.7627C0.021959 9.32426 0.371609 7.7463 1.3274 6.64136C1.35531 6.61717 1.38322 6.59297 1.41197 6.56804C1.64589 6.36297 1.69489 6.20533 1.71933 5.89331C1.72366 5.81677 1.72366 5.81677 1.72808 5.73869C1.82777 4.61057 2.23038 3.69896 3.01203 2.8987C3.03924 2.86741 3.06644 2.83611 3.09447 2.80386C3.69729 2.12191 4.7133 1.70008 5.58577 1.60317C5.75156 1.59552 5.91704 1.59429 6.08298 1.59417C6.1255 1.59358 6.16803 1.593 6.21185 1.59239C6.25486 1.5923 6.29787 1.5922 6.34218 1.59211C6.40882 1.59183 6.40882 1.59183 6.47681 1.59154C6.61527 1.60317 6.61527 1.60317 6.7574 1.65163C6.93231 1.70741 7.0414 1.72782 7.22361 1.69913C7.52207 1.50929 7.7517 1.21191 7.98404 0.946403C8.0818 0.837088 8.18006 0.72834 8.27921 0.620342C8.34058 0.553259 8.40112 0.485364 8.46064 0.416557C8.48863 0.385517 8.51661 0.354477 8.54544 0.322497C8.56928 0.29525 8.59311 0.268003 8.61766 0.239931C8.94446 -0.00104629 9.31939 -0.00109978 9.70742 0.00110824ZM9.65697 13.7428C9.54506 13.9358 9.52967 14.1467 9.56338 14.3666C9.67561 14.5967 9.80688 14.7314 10.0313 14.8464C10.1883 14.8685 10.3394 14.8645 10.4936 14.8224C10.7624 14.7575 11.0905 14.739 11.3358 14.8824C11.4315 14.9531 11.527 15.0241 11.6224 15.0953C11.7905 15.1995 11.8936 15.2303 12.0903 15.2303C12.3256 15.1479 12.5085 15.008 12.6987 14.8464C12.8487 14.7951 12.9593 14.792 13.1169 14.7924C13.1899 14.7923 13.1899 14.7923 13.2644 14.7921C13.382 14.7976 13.4754 14.8148 13.5878 14.8464C13.8072 14.8646 13.9166 14.8698 14.1142 14.7685C14.2757 14.6255 14.4076 14.4962 14.4464 14.2729C14.4583 13.9942 14.3812 13.7975 14.1961 13.5899C13.7135 13.2909 13.0279 13.2642 12.4868 13.4006C12.3671 13.4457 12.253 13.4966 12.1371 13.5509C12.0168 13.5968 11.9693 13.6055 11.8461 13.5633C11.8109 13.5453 11.7757 13.5274 11.7394 13.5089C11.1457 13.2108 10.1267 13.2241 9.65697 13.7428ZM10.1191 16.8767C9.96507 17.103 9.86681 17.281 9.9085 17.5605C9.96429 17.7633 10.0519 17.8832 10.216 18.0088C10.4508 18.137 10.6794 18.1325 10.9292 18.0553C11.1076 18.0133 11.1076 18.0133 11.248 18.0613C11.3884 18.1572 11.3884 18.1572 11.4725 18.2313C11.6839 18.4138 11.8354 18.491 12.1159 18.4738C12.3175 18.4235 12.4507 18.2931 12.6051 18.1572C12.7455 18.0613 12.7455 18.0613 12.8858 18.0133C12.9778 18.0349 13.0697 18.057 13.16 18.0849C13.377 18.1377 13.5803 18.1165 13.7775 18.0088C13.9766 17.8563 14.0641 17.7004 14.1016 17.4489C14.1036 17.2165 13.9998 17.061 13.8744 16.8767C13.5578 16.6365 13.1359 16.5279 12.7455 16.5738C12.5492 16.6219 12.3575 16.6747 12.1783 16.7712C12.0428 16.8367 11.9526 16.8031 11.8096 16.7657C11.7001 16.7185 11.5909 16.6705 11.482 16.6218C11.0248 16.4896 10.5004 16.5874 10.1191 16.8767Z" fill="#F3F3F3"/>
<path d="M16.4615 2C16.5977 2.06576 16.6852 2.15563 16.7892 2.27406C16.8222 2.31153 16.8552 2.349 16.8892 2.38761C16.9405 2.4465 16.9405 2.4465 16.9928 2.50659C17.0265 2.54485 17.0603 2.5831 17.095 2.62252C17.2382 2.78578 17.3784 2.94959 17.511 3.1239C17.6584 3.31601 17.8152 3.49573 17.9746 3.67503C18.0041 3.70839 18.0336 3.74175 18.064 3.77612C18.1572 3.88143 18.2505 3.98659 18.3438 4.09174C18.4074 4.16363 18.471 4.23552 18.5346 4.30742C18.6897 4.48259 18.8448 4.65763 19 4.83257C18.9445 4.96392 18.8898 5.05502 18.7978 5.15736C18.7737 5.18432 18.7497 5.21129 18.7249 5.23907C18.6999 5.26671 18.6748 5.29435 18.649 5.32282C18.6237 5.35113 18.5984 5.37945 18.5723 5.40862C18.5099 5.47827 18.4473 5.54771 18.3846 5.61697C17.8168 5.29529 17.4489 4.64394 17 4.13532C17 8.99601 17 13.8567 17 18.8647C17.4315 18.3757 17.8631 17.8868 18.3077 17.383C18.4374 17.4565 18.4974 17.5003 18.5944 17.6122C18.63 17.653 18.63 17.653 18.6665 17.6947C18.6909 17.7231 18.7153 17.7514 18.7404 17.7807C18.7654 17.8094 18.7904 17.8381 18.8161 17.8677C18.8776 17.9383 18.9389 18.0092 19 18.0803C18.9467 18.2166 18.8849 18.3083 18.7915 18.4129C18.7647 18.4431 18.7378 18.4734 18.7102 18.5046C18.6811 18.5369 18.6521 18.5692 18.6221 18.6025C18.5922 18.6363 18.5622 18.67 18.5313 18.7048C18.4353 18.8128 18.3391 18.9205 18.2428 19.0281C18.1472 19.1352 18.0517 19.2423 17.9564 19.3495C17.897 19.4162 17.8376 19.4828 17.7781 19.5492C17.6216 19.7248 17.473 19.9049 17.3293 20.094C17.2508 20.196 17.1678 20.2919 17.0831 20.3872C17.051 20.4234 17.0189 20.4597 16.9858 20.497C16.9532 20.5336 16.9206 20.5701 16.887 20.6078C16.8534 20.6457 16.8197 20.6836 16.7851 20.7227C16.703 20.8152 16.6208 20.9077 16.5385 21C16.4062 20.9354 16.3204 20.8508 16.2192 20.7355C16.1879 20.7 16.1567 20.6645 16.1245 20.6279C16.0921 20.5907 16.0598 20.5535 16.0264 20.5152C15.9945 20.479 15.9626 20.4428 15.9298 20.4056C15.7915 20.2478 15.6566 20.0893 15.5285 19.9209C15.3781 19.725 15.2179 19.5419 15.0554 19.359C15.0099 19.3075 15.0099 19.3075 14.9635 19.255C14.8676 19.1466 14.7715 19.0383 14.6755 18.93C14.61 18.8561 14.5445 18.7821 14.479 18.7081C14.3195 18.5277 14.1598 18.3475 14 18.1674C14.0555 18.0361 14.1102 17.945 14.2022 17.8426C14.2263 17.8157 14.2503 17.7887 14.2751 17.7609C14.3001 17.7333 14.3252 17.7057 14.351 17.6772C14.3763 17.6489 14.4016 17.6206 14.4277 17.5914C14.4901 17.5217 14.5527 17.4523 14.6154 17.383C15.1832 17.7047 15.5511 18.3561 16 18.8647C16 14.004 16 9.1433 16 4.13532C15.5685 4.62427 15.1369 5.11321 14.6923 5.61697C14.5626 5.54348 14.5026 5.49968 14.4056 5.38785C14.3819 5.3606 14.3581 5.33336 14.3335 5.30529C14.3091 5.27692 14.2847 5.24855 14.2596 5.21932C14.2346 5.19062 14.2096 5.16191 14.1839 5.13234C14.1224 5.06166 14.0611 4.99079 14 4.91972C14.0564 4.77182 14.1289 4.67612 14.2297 4.56314C14.2611 4.52764 14.2926 4.49213 14.325 4.45555C14.3591 4.41751 14.3932 4.37947 14.4283 4.34027C14.482 4.27982 14.5357 4.21937 14.5893 4.15892C14.6645 4.07425 14.7399 3.98978 14.8153 3.90532C14.9465 3.75833 15.0775 3.61114 15.2084 3.46379C15.278 3.38547 15.3477 3.30728 15.4175 3.22922C15.586 3.03979 15.7488 2.84806 15.9026 2.64314C16.0054 2.50945 16.117 2.38581 16.2284 2.26147C16.2623 2.2233 16.2623 2.2233 16.2969 2.18436C16.3517 2.1228 16.4066 2.06138 16.4615 2Z" fill="#3A3A3A"/>
<path d="M9.70742 0.00110824C9.79002 0.000729872 9.79002 0.000729873 9.8743 0.000343863C10.0553 -0.000286854 10.2364 0.000128846 10.4174 0.000616227C10.5438 0.000584117 10.6702 0.000379623 10.7966 0.000198896C11.061 -6.22712e-05 11.3255 0.000280246 11.59 0.000967663C11.8949 0.00175093 12.1997 0.00149712 12.5046 0.000704755C12.7674 4.94626e-05 13.0301 -3.96569e-05 13.2928 0.000336055C13.4493 0.000559349 13.6058 0.00053618 13.7623 0.00011488C13.9369 -0.000252027 14.1115 0.000308525 14.2861 0.00110824C14.3373 0.000816853 14.3885 0.000525468 14.4412 0.000225253C14.7796 0.00308599 15.0941 0.0322173 15.3758 0.239931C15.4116 0.280801 15.4116 0.280801 15.448 0.322497C15.476 0.353537 15.504 0.384577 15.5328 0.416557C15.5615 0.449701 15.5902 0.482845 15.6197 0.516994C15.6838 0.586997 15.7479 0.656939 15.812 0.726825C15.9113 0.83661 16.0098 0.946853 16.1073 1.05826C16.4585 1.49541 16.4585 1.49541 16.935 1.72522C17.0906 1.699 17.2292 1.65502 17.3782 1.60317C17.5106 1.58999 17.5106 1.58999 17.6381 1.58874C17.679 1.58828 17.7199 1.58783 17.7621 1.58736C17.8033 1.58763 17.8446 1.5879 17.8871 1.58817C17.9535 1.58853 17.9535 1.58853 18.0212 1.58889C19.2725 1.61015 20.3305 2.19628 21.1906 3.10169C21.7401 3.71825 22.151 4.56375 22.2272 5.39793C22.2347 5.47736 22.2347 5.47736 22.2424 5.55839C22.2517 5.66442 22.2594 5.77062 22.2653 5.87691C22.2937 6.21792 22.3658 6.3789 22.6178 6.60384C22.7541 6.72643 22.8486 6.86713 22.9469 7.02223C22.9664 7.05293 22.9859 7.08363 23.006 7.11527C23.7209 8.2689 23.9807 9.5804 23.9968 10.9328C23.9979 10.9883 23.9989 11.0437 24 11.1009C23.9998 11.1794 23.9998 11.1794 23.9996 11.2595C23.9997 11.3059 23.9997 11.3522 23.9998 11.4C23.9524 11.6739 23.7557 11.8699 23.5697 12.0617C23.5265 12.1065 23.4832 12.1513 23.4386 12.1975C23.3918 12.2455 23.3449 12.2936 23.298 12.3416C23.2495 12.3915 23.201 12.4414 23.1526 12.4913C23.0513 12.5955 22.9498 12.6996 22.8482 12.8035C22.7183 12.9364 22.5889 13.07 22.4596 13.2036C22.3598 13.3067 22.2596 13.4094 22.1593 13.5121C22.1115 13.5612 22.0637 13.6104 22.0161 13.6597C21.9495 13.7286 21.8824 13.797 21.8153 13.8654C21.7773 13.9043 21.7393 13.9433 21.7002 13.9835C21.5108 14.1469 21.3138 14.208 21.0648 14.202C20.1821 14.0164 19.2836 13.1355 18.7927 12.3963C18.6576 12.1776 18.5333 11.952 18.4077 11.7275C17.6998 13.7969 17.1352 15.9254 17.0263 18.1265C17.0244 18.1654 17.0224 18.2043 17.0204 18.2444C17.011 18.4384 17.0025 18.6322 16.9955 18.8263C16.9924 18.8978 16.9894 18.9694 16.9863 19.041C16.984 19.1042 16.9817 19.1674 16.9793 19.2326C16.9485 19.4704 16.8767 19.6312 16.7114 19.8007C16.4564 19.967 16.1913 19.9948 15.8952 19.9931C15.8605 19.9933 15.8257 19.9935 15.7899 19.9937C15.6742 19.9941 15.5585 19.994 15.4428 19.9938C15.3595 19.994 15.2763 19.9942 15.193 19.9945C14.9673 19.9952 14.7417 19.9952 14.516 19.9951C14.3274 19.995 14.1388 19.9952 13.9501 19.9955C13.505 19.996 13.0599 19.996 12.6148 19.9957C12.1561 19.9954 11.6975 19.996 11.2388 19.9971C10.8445 19.9979 10.4502 19.9982 10.056 19.998C9.82068 19.9979 9.58542 19.9981 9.35015 19.9987C9.12883 19.9993 8.90752 19.9993 8.6862 19.9986C8.60518 19.9985 8.52416 19.9986 8.44314 19.999C7.50072 20.0033 7.50072 20.0033 7.24237 19.7687C7.04823 19.5437 7.02958 19.3557 7.01797 19.0652C7.01489 18.9947 7.01177 18.9241 7.00861 18.8536C7.00698 18.8164 7.00535 18.7792 7.00367 18.7409C6.89317 16.3094 6.35433 14.0221 5.58577 11.7275C5.5475 11.7963 5.5475 11.7963 5.50845 11.8664C4.96316 12.8314 4.12564 13.8025 3.05883 14.1747C2.77874 14.2224 2.60512 14.1719 2.3569 14.0307C2.23849 13.9273 2.23849 13.9273 2.12031 13.806C2.08762 13.7727 2.08762 13.7727 2.05426 13.7388C1.98296 13.6661 1.91218 13.5929 1.84142 13.5196C1.7917 13.4686 1.74197 13.4176 1.69221 13.3667C1.58831 13.2601 1.48466 13.1534 1.38118 13.0464C1.24868 12.9094 1.11565 12.773 0.982453 12.6367C0.879824 12.5317 0.77743 12.4264 0.67511 12.321C0.626141 12.2706 0.577111 12.2202 0.528015 12.17C0.459469 12.0997 0.391236 12.0291 0.32308 11.9585C0.284231 11.9184 0.245383 11.8784 0.205357 11.8371C-0.0326311 11.5616 0.000848263 11.2918 0.00250391 10.9388C0.00276782 10.8807 0.00303173 10.8226 0.00330363 10.7627C0.021959 9.32426 0.371609 7.7463 1.3274 6.64136C1.35531 6.61717 1.38322 6.59297 1.41197 6.56804C1.64589 6.36297 1.69489 6.20533 1.71933 5.89331C1.72366 5.81677 1.72366 5.81677 1.72808 5.73869C1.82777 4.61057 2.23038 3.69896 3.01203 2.8987C3.03924 2.86741 3.06644 2.83611 3.09447 2.80386C3.69729 2.12191 4.7133 1.70008 5.58577 1.60317C5.75156 1.59552 5.91704 1.59429 6.08298 1.59417C6.1255 1.59358 6.16803 1.593 6.21185 1.59239C6.25486 1.5923 6.29787 1.5922 6.34218 1.59211C6.40882 1.59183 6.40882 1.59183 6.47681 1.59154C6.61527 1.60317 6.61527 1.60317 6.7574 1.65163C6.93231 1.70741 7.0414 1.72782 7.22361 1.69913C7.52207 1.50929 7.7517 1.21191 7.98404 0.946403C8.0818 0.837088 8.18006 0.72834 8.27921 0.620342C8.34058 0.553259 8.40112 0.485364 8.46064 0.416557C8.48863 0.385517 8.51661 0.354477 8.54544 0.322497C8.56928 0.29525 8.59311 0.268003 8.61766 0.239931C8.94446 -0.00104629 9.31939 -0.00109978 9.70742 0.00110824ZM9.65697 13.7428C9.54506 13.9358 9.52967 14.1467 9.56338 14.3666C9.67561 14.5967 9.80688 14.7314 10.0313 14.8464C10.1883 14.8685 10.3394 14.8645 10.4936 14.8224C10.7624 14.7575 11.0905 14.739 11.3358 14.8824C11.4315 14.9531 11.527 15.0241 11.6224 15.0953C11.7905 15.1995 11.8936 15.2303 12.0903 15.2303C12.3256 15.1479 12.5085 15.008 12.6987 14.8464C12.8487 14.7951 12.9593 14.792 13.1169 14.7924C13.1899 14.7923 13.1899 14.7923 13.2644 14.7921C13.382 14.7976 13.4754 14.8148 13.5878 14.8464C13.8072 14.8646 13.9166 14.8698 14.1142 14.7685C14.2757 14.6255 14.4076 14.4962 14.4464 14.2729C14.4583 13.9942 14.3812 13.7975 14.1961 13.5899C13.7135 13.2909 13.0279 13.2642 12.4868 13.4006C12.3671 13.4457 12.253 13.4966 12.1371 13.5509C12.0168 13.5968 11.9693 13.6055 11.8461 13.5633C11.8109 13.5453 11.7757 13.5274 11.7394 13.5089C11.1457 13.2108 10.1267 13.2241 9.65697 13.7428ZM10.1191 16.8767C9.96507 17.103 9.86681 17.281 9.9085 17.5605C9.96429 17.7633 10.0519 17.8832 10.216 18.0088C10.4508 18.137 10.6794 18.1325 10.9292 18.0553C11.1076 18.0133 11.1076 18.0133 11.248 18.0613C11.3884 18.1572 11.3884 18.1572 11.4725 18.2313C11.6839 18.4138 11.8354 18.491 12.1159 18.4738C12.3175 18.4235 12.4507 18.2931 12.6051 18.1572C12.7455 18.0613 12.7455 18.0613 12.8858 18.0133C12.9778 18.0349 13.0697 18.057 13.16 18.0849C13.377 18.1377 13.5803 18.1165 13.7775 18.0088C13.9766 17.8563 14.0641 17.7004 14.1016 17.4489C14.1036 17.2165 13.9998 17.061 13.8744 16.8767C13.5578 16.6365 13.1359 16.5279 12.7455 16.5738C12.5492 16.6219 12.3575 16.6747 12.1783 16.7712C12.0428 16.8367 11.9526 16.8031 11.8096 16.7657C11.7001 16.7185 11.5909 16.6705 11.482 16.6218C11.0248 16.4896 10.5004 16.5874 10.1191 16.8767Z" stroke="black" stroke-width="0.4" mask="url(#path-1-inside-1_37_674)"/>
<path d="M16.4615 2C16.5977 2.06576 16.6852 2.15563 16.7892 2.27406C16.8222 2.31153 16.8552 2.349 16.8892 2.38761C16.9405 2.4465 16.9405 2.4465 16.9928 2.50659C17.0265 2.54485 17.0603 2.5831 17.095 2.62252C17.2382 2.78578 17.3784 2.94959 17.511 3.1239C17.6584 3.31601 17.8152 3.49573 17.9746 3.67503C18.0041 3.70839 18.0336 3.74175 18.064 3.77612C18.1572 3.88143 18.2505 3.98659 18.3438 4.09174C18.4074 4.16363 18.471 4.23552 18.5346 4.30742C18.6897 4.48259 18.8448 4.65763 19 4.83257C18.9445 4.96392 18.8898 5.05502 18.7978 5.15736C18.7737 5.18432 18.7497 5.21129 18.7249 5.23907C18.6999 5.26671 18.6748 5.29435 18.649 5.32282C18.6237 5.35113 18.5984 5.37945 18.5723 5.40862C18.5099 5.47827 18.4473 5.54771 18.3846 5.61697C17.8168 5.29529 17.4489 4.64394 17 4.13532C17 8.99601 17 13.8567 17 18.8647C17.4315 18.3757 17.8631 17.8868 18.3077 17.383C18.4374 17.4565 18.4974 17.5003 18.5944 17.6122C18.63 17.653 18.63 17.653 18.6665 17.6947C18.6909 17.7231 18.7153 17.7514 18.7404 17.7807C18.7654 17.8094 18.7904 17.8381 18.8161 17.8677C18.8776 17.9383 18.9389 18.0092 19 18.0803C18.9467 18.2166 18.8849 18.3083 18.7915 18.4129C18.7647 18.4431 18.7378 18.4734 18.7102 18.5046C18.6811 18.5369 18.6521 18.5692 18.6221 18.6025C18.5922 18.6363 18.5622 18.67 18.5313 18.7048C18.4353 18.8128 18.3391 18.9205 18.2428 19.0281C18.1472 19.1352 18.0517 19.2423 17.9564 19.3495C17.897 19.4162 17.8376 19.4828 17.7781 19.5492C17.6216 19.7248 17.473 19.9049 17.3293 20.094C17.2508 20.196 17.1678 20.2919 17.0831 20.3872C17.051 20.4234 17.0189 20.4597 16.9858 20.497C16.9532 20.5336 16.9206 20.5701 16.887 20.6078C16.8534 20.6457 16.8197 20.6836 16.7851 20.7227C16.703 20.8152 16.6208 20.9077 16.5385 21C16.4062 20.9354 16.3204 20.8508 16.2192 20.7355C16.1879 20.7 16.1567 20.6645 16.1245 20.6279C16.0921 20.5907 16.0598 20.5535 16.0264 20.5152C15.9945 20.479 15.9626 20.4428 15.9298 20.4056C15.7915 20.2478 15.6566 20.0893 15.5285 19.9209C15.3781 19.725 15.2179 19.5419 15.0554 19.359C15.0099 19.3075 15.0099 19.3075 14.9635 19.255C14.8676 19.1466 14.7715 19.0383 14.6755 18.93C14.61 18.8561 14.5445 18.7821 14.479 18.7081C14.3195 18.5277 14.1598 18.3475 14 18.1674C14.0555 18.0361 14.1102 17.945 14.2022 17.8426C14.2263 17.8157 14.2503 17.7887 14.2751 17.7609C14.3001 17.7333 14.3252 17.7057 14.351 17.6772C14.3763 17.6489 14.4016 17.6206 14.4277 17.5914C14.4901 17.5217 14.5527 17.4523 14.6154 17.383C15.1832 17.7047 15.5511 18.3561 16 18.8647C16 14.004 16 9.1433 16 4.13532C15.5685 4.62427 15.1369 5.11321 14.6923 5.61697C14.5626 5.54348 14.5026 5.49968 14.4056 5.38785C14.3819 5.3606 14.3581 5.33336 14.3335 5.30529C14.3091 5.27692 14.2847 5.24855 14.2596 5.21932C14.2346 5.19062 14.2096 5.16191 14.1839 5.13234C14.1224 5.06166 14.0611 4.99079 14 4.91972C14.0564 4.77182 14.1289 4.67612 14.2297 4.56314C14.2611 4.52764 14.2926 4.49213 14.325 4.45555C14.3591 4.41751 14.3932 4.37947 14.4283 4.34027C14.482 4.27982 14.5357 4.21937 14.5893 4.15892C14.6645 4.07425 14.7399 3.98978 14.8153 3.90532C14.9465 3.75833 15.0775 3.61114 15.2084 3.46379C15.278 3.38547 15.3477 3.30728 15.4175 3.22922C15.586 3.03979 15.7488 2.84806 15.9026 2.64314C16.0054 2.50945 16.117 2.38581 16.2284 2.26147C16.2623 2.2233 16.2623 2.2233 16.2969 2.18436C16.3517 2.1228 16.4066 2.06138 16.4615 2Z" stroke="black" stroke-width="0.4" mask="url(#path-1-inside-1_37_674)"/>
</svg>
