<svg width="24" height="28" viewBox="0 0 24 28" fill="none" xmlns="http://www.w3.org/2000/svg">
<path d="M23.718 3.66422C23.8831 3.8196 23.967 3.93835 23.9933 4.16905C23.9934 4.22888 23.9935 4.28871 23.9936 4.35036C23.994 4.40055 23.994 4.40055 23.9944 4.45175C23.995 4.56359 23.9947 4.6754 23.9944 4.78723C23.9946 4.86753 23.995 4.94782 23.9954 5.02812C23.9962 5.24603 23.9961 5.46394 23.9959 5.68185C23.9957 5.86381 23.996 6.04577 23.9963 6.22773C23.997 6.657 23.9969 7.08628 23.9963 7.51555C23.9958 7.95834 23.9965 8.40111 23.9977 8.84389C23.9988 9.22415 23.9991 9.60441 23.9988 9.98467C23.9986 10.2117 23.9988 10.4388 23.9996 10.6659C24.0003 10.8794 24.0001 11.0929 23.9992 11.3064C23.999 11.3848 23.9992 11.4631 23.9997 11.5414C24.0003 11.6484 23.9998 11.7554 23.9989 11.8624C23.9989 11.9223 23.9989 11.9821 23.9989 12.0438C23.9653 12.277 23.8663 12.4195 23.697 12.5769C23.5906 12.6413 23.4963 12.6745 23.3767 12.7064C23.3313 12.7188 23.2859 12.7311 23.2391 12.7437C23.1891 12.7568 23.1392 12.7698 23.0878 12.7832C23.0344 12.7975 22.9811 12.8117 22.9261 12.8264C22.7456 12.8744 22.5649 12.9215 22.3841 12.9684C22.3525 12.9766 22.321 12.9848 22.2884 12.9933C21.7896 13.1229 21.2903 13.2504 20.7909 13.3774C20.6309 13.4181 20.4709 13.4589 20.3109 13.4996C19.934 13.5957 19.5572 13.6915 19.1803 13.7874C18.7922 13.886 18.4041 13.9849 18.016 14.0839C17.6809 14.1694 17.3457 14.2548 17.0105 14.34C16.811 14.3908 16.6116 14.4415 16.4122 14.4924C16.2258 14.54 16.0394 14.5874 15.8529 14.6347C15.7844 14.6521 15.716 14.6695 15.6477 14.687C15.5546 14.7109 15.4614 14.7344 15.3682 14.758C15.29 14.7779 15.29 14.7779 15.2102 14.7982C15.0823 14.8263 15.0823 14.8263 14.9419 14.8263C14.9412 14.8697 14.9406 14.9131 14.9399 14.9579C14.8693 16.9103 13.9049 18.7594 12.5548 20.1141C12.4311 20.2252 12.3046 20.3303 12.175 20.4341C12.0245 20.5552 11.8786 20.681 11.7328 20.8078C11.5198 20.9922 11.3038 21.1716 11.0846 21.3484C10.9418 21.4656 10.8018 21.586 10.6621 21.707C10.4732 21.8704 10.2836 22.0326 10.0916 22.1923C10.0505 22.2265 10.0095 22.2607 9.96712 22.2959C9.8775 22.3698 9.78737 22.4431 9.69689 22.5159C9.65049 22.5535 9.60409 22.5912 9.55629 22.6299C9.51424 22.6636 9.47218 22.6974 9.42885 22.7321C9.28358 22.8685 9.2369 22.9536 9.22079 23.1543C9.22145 23.2063 9.22211 23.2582 9.2228 23.3117C9.22361 23.4003 9.22361 23.4003 9.22444 23.4906C9.22812 23.6275 9.23711 23.7631 9.24894 23.8996C9.30367 24.5494 9.22955 25.0395 8.81928 25.5686C8.43859 26.0106 7.978 26.3257 7.40614 26.4499C7.27344 26.4519 7.14148 26.4475 7.00882 26.4437C6.32202 26.4312 5.94255 26.6273 5.40486 27.04C4.92086 27.3941 4.32324 27.6144 3.75527 27.7837C3.70471 27.7989 3.70471 27.7989 3.65313 27.8143C3.12417 27.9642 2.59589 27.9937 2.04977 27.9981C2.00232 27.9988 2.00232 27.9988 1.9539 27.9996C1.36042 28.0069 0.663123 27.9136 0.215564 27.4702C0.0521609 27.276 0.00366769 27.1599 0.0020112 26.9084C0.0013475 26.8628 0.000683807 26.8173 0 26.7703C0.0111815 26.6357 0.032021 26.5621 0.104399 26.4499C0.339046 26.2647 0.581149 26.1704 0.859146 26.0747C2.10251 25.6436 2.98061 24.7681 3.82613 23.7679C3.91497 23.6644 4.00945 23.5682 4.10631 23.4725C4.2668 23.3114 4.41619 23.1447 4.56286 22.9707C4.67851 22.8382 4.80287 22.7155 4.92688 22.5912C5.04501 22.4691 5.15372 22.34 5.2633 22.2099C5.37562 22.0818 5.49623 21.9636 5.61873 21.8456C5.93822 21.4966 6.13952 21.1413 6.32375 20.7036C6.34962 20.6434 6.37554 20.5832 6.40151 20.523C6.45763 20.3927 6.51337 20.2622 6.56882 20.1316C6.65993 19.917 6.75188 19.7027 6.84392 19.4885C6.97776 19.1767 7.11123 18.8648 7.24451 18.5528C7.45236 18.0664 7.66164 17.5807 7.87127 17.095C7.88871 17.0546 7.90615 17.0142 7.92412 16.9726C8.01252 16.7678 8.10095 16.563 8.18938 16.3582C8.34775 15.9914 8.50596 15.6246 8.66419 15.2577C8.734 15.0959 8.80382 14.934 8.87364 14.7722C9.01721 14.4393 9.16078 14.1065 9.30433 13.7736C9.3414 13.6877 9.37848 13.6017 9.41556 13.5158C9.50586 13.3065 9.59608 13.0971 9.68613 12.8877C9.83593 12.5395 9.98627 12.1917 10.1412 11.8458C10.4157 11.235 10.4157 11.235 10.6006 10.5925C10.6736 10.2506 10.7971 10.0027 11.0102 9.72908C11.0371 9.69445 11.0639 9.65981 11.0916 9.62413C11.3967 9.27564 11.8227 9.05613 12.2694 8.9695C12.7454 8.84952 13.1732 8.59916 13.6084 8.37511C13.7097 8.32349 13.811 8.27192 13.9123 8.2204C14.1296 8.10977 14.3467 7.9988 14.5637 7.8875C14.8776 7.72652 15.1917 7.5662 15.506 7.40603C16.0161 7.146 16.526 6.88547 17.0358 6.62462C17.5303 6.37154 18.0249 6.11865 18.5197 5.86604C18.5502 5.85045 18.5808 5.83487 18.6122 5.81881C18.9454 5.64869 19.2787 5.4786 19.6119 5.30853C19.7002 5.26345 19.7886 5.21837 19.8769 5.17329C19.9351 5.14358 19.9933 5.11387 20.0515 5.08416C20.4219 4.89514 20.7922 4.70596 21.1623 4.51659C21.3741 4.40828 21.5859 4.30004 21.7977 4.1918C21.8961 4.14147 21.9946 4.09109 22.093 4.04069C22.2269 3.9721 22.3609 3.90362 22.4949 3.83518C22.5342 3.81502 22.5734 3.79487 22.6139 3.77411C22.6497 3.75585 22.6855 3.73759 22.7224 3.71877C22.7688 3.69504 22.7688 3.69504 22.8161 3.67082C23.1039 3.53406 23.4327 3.52419 23.718 3.66422Z" fill="#F3F3F3"/>
<path d="M19.7168 3.72041C19.5472 4.04863 19.2774 4.30973 19.0341 4.57271C18.9686 4.64352 18.9037 4.71484 18.8388 4.78621C18.7968 4.83194 18.7547 4.87763 18.7127 4.9233C18.6751 4.96415 18.6375 5.005 18.5988 5.0471C18.3931 5.248 18.2006 5.35401 17.9198 5.34491C17.6493 5.2782 17.4715 5.13068 17.2807 4.91882C17.2552 4.89129 17.2298 4.86377 17.2035 4.83541C17.1502 4.77743 17.0971 4.71915 17.0443 4.66059C16.964 4.57171 16.8825 4.48417 16.8009 4.3967C16.7489 4.33988 16.697 4.28299 16.6452 4.22601C16.621 4.20022 16.5969 4.17442 16.5721 4.14785C16.3916 3.945 16.2626 3.72016 16.25 3.43083C16.2667 3.19612 16.334 3.03702 16.4734 2.86038C16.6922 2.69005 16.9151 2.69057 17.1747 2.71704C17.2181 2.74069 17.2181 2.74069 17.2624 2.76482C17.263 2.70483 17.2636 2.64485 17.2643 2.58304C17.2669 2.3589 17.2702 2.13478 17.2739 1.91066C17.2753 1.81395 17.2765 1.71724 17.2775 1.62053C17.279 1.48091 17.2813 1.34132 17.2838 1.20172C17.284 1.159 17.2843 1.11628 17.2846 1.07226C17.2916 0.742686 17.3239 0.410983 17.539 0.163822C17.7595 0.0240999 17.9336 -0.0297163 18.1847 0.0158172C18.3746 0.0724513 18.4972 0.173038 18.6051 0.350297C18.6871 0.581873 18.6859 0.79216 18.6873 1.03841C18.6885 1.11257 18.6885 1.11257 18.6897 1.18823C18.6921 1.34545 18.6936 1.50268 18.695 1.65992C18.6965 1.7668 18.698 1.87368 18.6996 1.98056C18.7033 2.24198 18.7063 2.50339 18.7087 2.76482C18.7738 2.74117 18.7738 2.74117 18.8402 2.71704C19.0366 2.69817 19.2173 2.69034 19.4018 2.77079C19.6989 3.04846 19.8126 3.28215 19.7168 3.72041Z" fill="#F3F3F3"/>
<path d="M18.0092 14.7715C18.0737 14.7676 18.0737 14.7676 18.1395 14.7636C18.358 14.8214 18.4766 14.9674 18.6345 15.1355C18.6971 15.2011 18.6971 15.2011 18.7609 15.2681C18.8784 15.3918 18.9947 15.5168 19.1105 15.6424C19.1833 15.7211 19.2564 15.7994 19.3295 15.8777C19.376 15.9279 19.4225 15.9782 19.4689 16.0284C19.4907 16.0517 19.5125 16.075 19.5349 16.0989C19.7063 16.2858 19.7437 16.4188 19.75 16.6781C19.7465 16.9206 19.7238 17.0586 19.5599 17.2361C19.3693 17.3692 19.1962 17.4461 18.9677 17.4181C18.8107 17.3793 18.8107 17.3793 18.7226 17.3316C18.7225 17.3596 18.7225 17.3875 18.7224 17.4163C18.7215 17.7084 18.7192 18.0003 18.7159 18.2923C18.7149 18.4012 18.7142 18.51 18.714 18.6189C18.7136 18.7757 18.7118 18.9325 18.7097 19.0893C18.71 19.1619 18.71 19.1619 18.7102 19.2359C18.7042 19.5544 18.658 19.7201 18.4582 19.9574C18.2488 20.0876 18.0812 20.129 17.8412 20.1006C17.6349 20.0173 17.5204 19.9182 17.4005 19.7187C17.297 19.4602 17.3009 19.2211 17.3037 18.9447C17.3039 18.8985 17.304 18.8523 17.3041 18.8047C17.3046 18.6578 17.3057 18.5109 17.3068 18.364C17.3073 18.2641 17.3077 18.1642 17.308 18.0643C17.309 17.8201 17.3105 17.5758 17.3123 17.3316C17.2828 17.3391 17.2532 17.3466 17.2227 17.3543C17.164 17.3682 17.164 17.3682 17.104 17.3825C17.0654 17.392 17.0267 17.4014 16.9869 17.4111C16.8069 17.436 16.6714 17.3866 16.5191 17.2839C16.3656 17.1176 16.2614 16.9484 16.25 16.7093C16.2719 16.1963 16.6685 15.8654 16.9852 15.5252C17.051 15.4544 17.1163 15.3831 17.1816 15.3118C17.2238 15.2661 17.2661 15.2205 17.3084 15.1748C17.3462 15.134 17.3839 15.0932 17.4229 15.0511C17.6105 14.869 17.7557 14.7794 18.0092 14.7715Z" fill="#F3F3F3"/>
</svg>
