<svg width="24" height="19" viewBox="0 0 24 19" fill="none" xmlns="http://www.w3.org/2000/svg">
<mask id="path-1-inside-1_37_622" fill="white">
<path d="M9.88377 0.00105283C9.96002 0.000693379 9.96002 0.000693379 10.0378 0.00032667C10.2049 -0.000272511 10.372 0.000122404 10.5391 0.000585415C10.6558 0.000554911 10.7725 0.000360642 10.8891 0.000188951C11.1333 -5.91576e-05 11.3774 0.000266234 11.6216 0.00091928C11.903 0.00166338 12.1844 0.00142226 12.4658 0.000669518C12.7083 4.69894e-05 12.9509 -3.7674e-05 13.1934 0.000319253C13.3378 0.000531382 13.4823 0.000509371 13.6267 0.000109136C13.7879 -0.000239426 13.949 0.000293099 14.1102 0.00105283C14.1575 0.000776011 14.2047 0.000499195 14.2534 0.000213991C14.5658 0.00293169 14.8561 0.0306065 15.1161 0.227934C15.1491 0.266761 15.1491 0.266761 15.1828 0.306372C15.2086 0.33586 15.2345 0.365348 15.2611 0.395729C15.2875 0.427216 15.314 0.458703 15.3413 0.491144C15.4004 0.557647 15.4596 0.624092 15.5188 0.690484C15.6104 0.794779 15.7014 0.89951 15.7914 1.00535C16.1155 1.42064 16.1155 1.42064 16.5554 1.63896C16.699 1.61405 16.8269 1.57227 16.9645 1.52301C17.0867 1.51049 17.0867 1.51049 17.2044 1.5093C17.2422 1.50887 17.2799 1.50844 17.3188 1.508C17.3569 1.50825 17.395 1.5085 17.4342 1.50876C17.4955 1.5091 17.4955 1.5091 17.558 1.50944C18.7131 1.52964 19.6897 2.08646 20.4836 2.94661C20.9909 3.53234 21.3701 4.33556 21.4405 5.12804C21.4474 5.20349 21.4474 5.20349 21.4545 5.28047C21.4631 5.3812 21.4702 5.48209 21.4756 5.58306C21.5019 5.90702 21.5684 6.05995 21.801 6.27365C21.9269 6.39011 22.0141 6.52377 22.1048 6.67112C22.1228 6.70028 22.1408 6.72945 22.1594 6.7595C22.8193 7.85546 23.0591 9.10138 23.074 10.3862C23.075 10.4389 23.0759 10.4916 23.0769 10.5458C23.0767 10.6204 23.0767 10.6204 23.0765 10.6965C23.0766 10.7406 23.0767 10.7846 23.0768 10.83C23.033 11.0902 22.8514 11.2764 22.6798 11.4586C22.6398 11.5012 22.5999 11.5438 22.5587 11.5876C22.5155 11.6333 22.4722 11.6789 22.4289 11.7245C22.3842 11.7719 22.3394 11.8193 22.2947 11.8668C22.2012 11.9658 22.1075 12.0646 22.0137 12.1633C21.8938 12.2896 21.7743 12.4165 21.655 12.5434C21.5629 12.6414 21.4704 12.739 21.3779 12.8365C21.3337 12.8831 21.2896 12.9299 21.2456 12.9767C21.1842 13.0422 21.1222 13.1071 21.0603 13.1721C21.0252 13.2091 20.9901 13.2462 20.954 13.2843C20.7792 13.4395 20.5973 13.4976 20.3675 13.4919C19.5527 13.3156 18.7233 12.4787 18.2702 11.7765C18.1455 11.5688 18.0308 11.3544 17.9148 11.1412C17.2614 13.1071 16.7402 15.1291 16.6397 17.2202C16.6379 17.2572 16.6361 17.2941 16.6342 17.3322C16.6255 17.5164 16.6177 17.7006 16.6112 17.885C16.6084 17.953 16.6056 18.0209 16.6027 18.0889C16.6006 18.149 16.5985 18.2091 16.5963 18.271C16.5679 18.4969 16.5015 18.6496 16.349 18.8106C16.1136 18.9687 15.8689 18.995 15.5956 18.9934C15.5635 18.9936 15.5314 18.9938 15.4984 18.994C15.3916 18.9944 15.2848 18.9943 15.178 18.9941C15.1011 18.9943 15.0242 18.9945 14.9474 18.9948C14.7391 18.9954 14.5308 18.9954 14.3225 18.9953C14.1483 18.9953 13.9742 18.9955 13.8001 18.9957C13.3892 18.9962 12.9784 18.9962 12.5675 18.996C12.1441 18.9957 11.7207 18.9962 11.2974 18.9972C10.9334 18.998 10.5695 18.9983 10.2055 18.9981C9.98832 18.9981 9.77115 18.9982 9.55398 18.9988C9.34969 18.9994 9.1454 18.9993 8.94111 18.9987C8.86632 18.9986 8.79153 18.9987 8.71675 18.9991C7.84682 19.0032 7.84682 19.0032 7.60834 18.7802C7.42914 18.5665 7.41192 18.3879 7.4012 18.1119C7.39836 18.0449 7.39548 17.9779 7.39257 17.9109C7.39106 17.8756 7.38956 17.8402 7.38801 17.8038C7.28601 15.494 6.78861 13.321 6.07918 11.1412C6.04385 11.2065 6.04385 11.2065 6.0078 11.2731C5.50446 12.1899 4.73136 13.1124 3.74661 13.4659C3.48807 13.5113 3.3278 13.4633 3.09867 13.3292C2.98937 13.2309 2.98937 13.2309 2.88029 13.1157C2.85011 13.0841 2.85011 13.0841 2.81931 13.0519C2.7535 12.9828 2.68817 12.9132 2.62284 12.8436C2.57696 12.7952 2.53105 12.7467 2.48512 12.6983C2.38921 12.5971 2.29353 12.4957 2.19802 12.3941C2.0757 12.2639 1.95291 12.1343 1.82996 12.0049C1.73522 11.9051 1.6407 11.805 1.54626 11.7049C1.50105 11.657 1.45579 11.6092 1.41048 11.5615C1.3472 11.4947 1.28422 11.4277 1.2213 11.3605C1.18544 11.3225 1.14958 11.2844 1.11264 11.2452C0.892956 10.9835 0.92386 10.7272 0.925388 10.3919C0.925632 10.3367 0.925875 10.2815 0.926126 10.2246C0.943347 8.85805 1.2661 7.35899 2.14837 6.3093C2.17413 6.28631 2.19989 6.26332 2.22644 6.23964C2.44236 6.04482 2.48759 5.89506 2.51015 5.59864C2.51415 5.52593 2.51415 5.52593 2.51823 5.45175C2.61025 4.38004 2.98189 3.51401 3.70341 2.75377C3.72852 2.72404 3.75364 2.6943 3.77951 2.66367C4.33596 2.01582 5.27381 1.61508 6.07918 1.52301C6.23221 1.51575 6.38496 1.51457 6.53813 1.51446C6.57739 1.5139 6.61664 1.51335 6.65709 1.51277C6.69679 1.51268 6.73649 1.51259 6.7774 1.5125C6.83891 1.51223 6.83891 1.51223 6.90167 1.51196C7.02948 1.52301 7.02948 1.52301 7.16067 1.56905C7.32213 1.62204 7.42283 1.64143 7.59103 1.61418C7.86652 1.43382 8.0785 1.15131 8.29296 0.899083C8.3832 0.795233 8.47391 0.691923 8.56543 0.589325C8.62207 0.525596 8.67795 0.461096 8.7329 0.395729C8.75873 0.366241 8.78456 0.336754 8.81118 0.306372C8.83318 0.280488 8.85518 0.254603 8.87784 0.227934C9.1795 -0.000993967 9.52559 -0.00104479 9.88377 0.00105283ZM9.8372 13.0557C9.7339 13.239 9.7197 13.4393 9.75081 13.6483C9.85441 13.8669 9.97558 13.9948 10.1828 14.1041C10.3277 14.1251 10.4671 14.1213 10.6095 14.0813C10.8576 14.0196 11.1605 14.002 11.3869 14.1383C11.4752 14.2054 11.5634 14.2729 11.6514 14.3406C11.8066 14.4395 11.9018 14.4688 12.0834 14.4688C12.3005 14.3905 12.4694 14.2576 12.6449 14.1041C12.7835 14.0554 12.8855 14.0524 13.031 14.0528C13.0984 14.0526 13.0984 14.0526 13.1672 14.0525C13.2757 14.0577 13.3619 14.074 13.4656 14.1041C13.6681 14.1213 13.7691 14.1263 13.9516 14.03C14.1007 13.8942 14.2224 13.7714 14.2582 13.5592C14.2692 13.2944 14.198 13.1076 14.0272 12.9104C13.5817 12.6263 12.9488 12.601 12.4494 12.7305C12.3389 12.7734 12.2335 12.8218 12.1266 12.8733C12.0155 12.917 11.9716 12.9252 11.858 12.8851C11.8254 12.8681 11.7929 12.851 11.7594 12.8335C11.2114 12.5503 10.2708 12.5629 9.8372 13.0557ZM10.2638 16.0329C10.1216 16.2479 10.0309 16.4169 10.0694 16.6824C10.1209 16.8751 10.2017 16.989 10.3532 17.1084C10.5699 17.2301 10.781 17.2259 11.0116 17.1525C11.1763 17.1126 11.1763 17.1126 11.3059 17.1582C11.4354 17.2494 11.4354 17.2494 11.5131 17.3197C11.7082 17.4931 11.8481 17.5665 12.107 17.5501C12.2931 17.5023 12.4161 17.3785 12.5585 17.2494C12.6881 17.1582 12.6881 17.1582 12.8177 17.1126C12.9026 17.1332 12.9875 17.1541 13.0708 17.1806C13.2711 17.2308 13.4587 17.2106 13.6408 17.1084C13.8246 16.9635 13.9053 16.8154 13.94 16.5765C13.9418 16.3557 13.846 16.208 13.7302 16.0329C13.438 15.8046 13.0485 15.7015 12.6881 15.7451C12.5069 15.7908 12.33 15.841 12.1645 15.9326C12.0395 15.9949 11.9562 15.963 11.8242 15.9275C11.7231 15.8825 11.6223 15.837 11.5218 15.7907C11.0998 15.6651 10.6158 15.758 10.2638 16.0329Z"/>
<path d="M2.42614 2C2.42614 2.48529 2.42614 2.97059 2.42614 3.47059C4.97628 3.47059 7.52643 3.47059 10.1538 3.47059C10.0059 3.95472 9.89067 4.24536 9.67648 4.63787C9.62494 4.73322 9.57339 4.82857 9.52028 4.92682C9.46248 5.02861 9.40468 5.13041 9.34513 5.23529C9.24847 5.42424 9.24847 5.42424 9.14985 5.617C8.8282 6.06475 8.66874 6.06005 8.25094 6.05406C8.15619 6.05422 8.15619 6.05422 8.05952 6.05439C7.85185 6.05388 7.64436 6.04817 7.43672 6.04239C7.29231 6.04102 7.1479 6.03998 7.00349 6.03924C6.62425 6.03644 6.24509 6.02922 5.86589 6.02108C5.4786 6.01354 5.09129 6.01019 4.70398 6.00649C3.94467 5.99862 3.18541 5.98607 2.42614 5.97059C2.42614 6.31029 2.42614 6.65 2.42614 7C1.53022 6.4587 0.759543 5.42568 0 4.5C0.386412 3.96838 0.799688 3.52807 1.2243 3.08456C1.36026 2.94173 1.49622 2.79888 1.63217 2.65602C1.69189 2.59353 1.75162 2.53105 1.81316 2.46667C2.25589 2 2.25589 2 2.42614 2Z"/>
<path d="M21.5739 2C21.5739 2.48529 21.5739 2.97059 21.5739 3.47059C19.0237 3.47059 16.4736 3.47059 13.8462 3.47059C13.9941 3.95472 14.1093 4.24536 14.3235 4.63787C14.3751 4.73322 14.4266 4.82857 14.4797 4.92682C14.5375 5.02861 14.5953 5.13041 14.6549 5.23529C14.7515 5.42424 14.7515 5.42424 14.8501 5.617C15.1718 6.06475 15.3313 6.06005 15.7491 6.05406C15.8438 6.05422 15.8438 6.05422 15.9405 6.05439C16.1481 6.05388 16.3556 6.04817 16.5633 6.04239C16.7077 6.04102 16.8521 6.03998 16.9965 6.03924C17.3757 6.03644 17.7549 6.02922 18.1341 6.02108C18.5214 6.01354 18.9087 6.01019 19.296 6.00649C20.0553 5.99862 20.8146 5.98607 21.5739 5.97059C21.5739 6.31029 21.5739 6.65 21.5739 7C22.4698 6.4587 23.2405 5.42568 24 4.5C23.6136 3.96838 23.2003 3.52807 22.7757 3.08456C22.6397 2.94173 22.5038 2.79888 22.3678 2.65602C22.3081 2.59353 22.2484 2.53105 22.1868 2.46667C21.7441 2 21.7441 2 21.5739 2Z"/>
</mask>
<path d="M9.88377 0.00105283C9.96002 0.000693379 9.96002 0.000693379 10.0378 0.00032667C10.2049 -0.000272511 10.372 0.000122404 10.5391 0.000585415C10.6558 0.000554911 10.7725 0.000360642 10.8891 0.000188951C11.1333 -5.91576e-05 11.3774 0.000266234 11.6216 0.00091928C11.903 0.00166338 12.1844 0.00142226 12.4658 0.000669518C12.7083 4.69894e-05 12.9509 -3.7674e-05 13.1934 0.000319253C13.3378 0.000531382 13.4823 0.000509371 13.6267 0.000109136C13.7879 -0.000239426 13.949 0.000293099 14.1102 0.00105283C14.1575 0.000776011 14.2047 0.000499195 14.2534 0.000213991C14.5658 0.00293169 14.8561 0.0306065 15.1161 0.227934C15.1491 0.266761 15.1491 0.266761 15.1828 0.306372C15.2086 0.33586 15.2345 0.365348 15.2611 0.395729C15.2875 0.427216 15.314 0.458703 15.3413 0.491144C15.4004 0.557647 15.4596 0.624092 15.5188 0.690484C15.6104 0.794779 15.7014 0.89951 15.7914 1.00535C16.1155 1.42064 16.1155 1.42064 16.5554 1.63896C16.699 1.61405 16.8269 1.57227 16.9645 1.52301C17.0867 1.51049 17.0867 1.51049 17.2044 1.5093C17.2422 1.50887 17.2799 1.50844 17.3188 1.508C17.3569 1.50825 17.395 1.5085 17.4342 1.50876C17.4955 1.5091 17.4955 1.5091 17.558 1.50944C18.7131 1.52964 19.6897 2.08646 20.4836 2.94661C20.9909 3.53234 21.3701 4.33556 21.4405 5.12804C21.4474 5.20349 21.4474 5.20349 21.4545 5.28047C21.4631 5.3812 21.4702 5.48209 21.4756 5.58306C21.5019 5.90702 21.5684 6.05995 21.801 6.27365C21.9269 6.39011 22.0141 6.52377 22.1048 6.67112C22.1228 6.70028 22.1408 6.72945 22.1594 6.7595C22.8193 7.85546 23.0591 9.10138 23.074 10.3862C23.075 10.4389 23.0759 10.4916 23.0769 10.5458C23.0767 10.6204 23.0767 10.6204 23.0765 10.6965C23.0766 10.7406 23.0767 10.7846 23.0768 10.83C23.033 11.0902 22.8514 11.2764 22.6798 11.4586C22.6398 11.5012 22.5999 11.5438 22.5587 11.5876C22.5155 11.6333 22.4722 11.6789 22.4289 11.7245C22.3842 11.7719 22.3394 11.8193 22.2947 11.8668C22.2012 11.9658 22.1075 12.0646 22.0137 12.1633C21.8938 12.2896 21.7743 12.4165 21.655 12.5434C21.5629 12.6414 21.4704 12.739 21.3779 12.8365C21.3337 12.8831 21.2896 12.9299 21.2456 12.9767C21.1842 13.0422 21.1222 13.1071 21.0603 13.1721C21.0252 13.2091 20.9901 13.2462 20.954 13.2843C20.7792 13.4395 20.5973 13.4976 20.3675 13.4919C19.5527 13.3156 18.7233 12.4787 18.2702 11.7765C18.1455 11.5688 18.0308 11.3544 17.9148 11.1412C17.2614 13.1071 16.7402 15.1291 16.6397 17.2202C16.6379 17.2572 16.6361 17.2941 16.6342 17.3322C16.6255 17.5164 16.6177 17.7006 16.6112 17.885C16.6084 17.953 16.6056 18.0209 16.6027 18.0889C16.6006 18.149 16.5985 18.2091 16.5963 18.271C16.5679 18.4969 16.5015 18.6496 16.349 18.8106C16.1136 18.9687 15.8689 18.995 15.5956 18.9934C15.5635 18.9936 15.5314 18.9938 15.4984 18.994C15.3916 18.9944 15.2848 18.9943 15.178 18.9941C15.1011 18.9943 15.0242 18.9945 14.9474 18.9948C14.7391 18.9954 14.5308 18.9954 14.3225 18.9953C14.1483 18.9953 13.9742 18.9955 13.8001 18.9957C13.3892 18.9962 12.9784 18.9962 12.5675 18.996C12.1441 18.9957 11.7207 18.9962 11.2974 18.9972C10.9334 18.998 10.5695 18.9983 10.2055 18.9981C9.98832 18.9981 9.77115 18.9982 9.55398 18.9988C9.34969 18.9994 9.1454 18.9993 8.94111 18.9987C8.86632 18.9986 8.79153 18.9987 8.71675 18.9991C7.84682 19.0032 7.84682 19.0032 7.60834 18.7802C7.42914 18.5665 7.41192 18.3879 7.4012 18.1119C7.39836 18.0449 7.39548 17.9779 7.39257 17.9109C7.39106 17.8756 7.38956 17.8402 7.38801 17.8038C7.28601 15.494 6.78861 13.321 6.07918 11.1412C6.04385 11.2065 6.04385 11.2065 6.0078 11.2731C5.50446 12.1899 4.73136 13.1124 3.74661 13.4659C3.48807 13.5113 3.3278 13.4633 3.09867 13.3292C2.98937 13.2309 2.98937 13.2309 2.88029 13.1157C2.85011 13.0841 2.85011 13.0841 2.81931 13.0519C2.7535 12.9828 2.68817 12.9132 2.62284 12.8436C2.57696 12.7952 2.53105 12.7467 2.48512 12.6983C2.38921 12.5971 2.29353 12.4957 2.19802 12.3941C2.0757 12.2639 1.95291 12.1343 1.82996 12.0049C1.73522 11.9051 1.6407 11.805 1.54626 11.7049C1.50105 11.657 1.45579 11.6092 1.41048 11.5615C1.3472 11.4947 1.28422 11.4277 1.2213 11.3605C1.18544 11.3225 1.14958 11.2844 1.11264 11.2452C0.892956 10.9835 0.92386 10.7272 0.925388 10.3919C0.925632 10.3367 0.925875 10.2815 0.926126 10.2246C0.943347 8.85805 1.2661 7.35899 2.14837 6.3093C2.17413 6.28631 2.19989 6.26332 2.22644 6.23964C2.44236 6.04482 2.48759 5.89506 2.51015 5.59864C2.51415 5.52593 2.51415 5.52593 2.51823 5.45175C2.61025 4.38004 2.98189 3.51401 3.70341 2.75377C3.72852 2.72404 3.75364 2.6943 3.77951 2.66367C4.33596 2.01582 5.27381 1.61508 6.07918 1.52301C6.23221 1.51575 6.38496 1.51457 6.53813 1.51446C6.57739 1.5139 6.61664 1.51335 6.65709 1.51277C6.69679 1.51268 6.73649 1.51259 6.7774 1.5125C6.83891 1.51223 6.83891 1.51223 6.90167 1.51196C7.02948 1.52301 7.02948 1.52301 7.16067 1.56905C7.32213 1.62204 7.42283 1.64143 7.59103 1.61418C7.86652 1.43382 8.0785 1.15131 8.29296 0.899083C8.3832 0.795233 8.47391 0.691923 8.56543 0.589325C8.62207 0.525596 8.67795 0.461096 8.7329 0.395729C8.75873 0.366241 8.78456 0.336754 8.81118 0.306372C8.83318 0.280488 8.85518 0.254603 8.87784 0.227934C9.1795 -0.000993967 9.52559 -0.00104479 9.88377 0.00105283ZM9.8372 13.0557C9.7339 13.239 9.7197 13.4393 9.75081 13.6483C9.85441 13.8669 9.97558 13.9948 10.1828 14.1041C10.3277 14.1251 10.4671 14.1213 10.6095 14.0813C10.8576 14.0196 11.1605 14.002 11.3869 14.1383C11.4752 14.2054 11.5634 14.2729 11.6514 14.3406C11.8066 14.4395 11.9018 14.4688 12.0834 14.4688C12.3005 14.3905 12.4694 14.2576 12.6449 14.1041C12.7835 14.0554 12.8855 14.0524 13.031 14.0528C13.0984 14.0526 13.0984 14.0526 13.1672 14.0525C13.2757 14.0577 13.3619 14.074 13.4656 14.1041C13.6681 14.1213 13.7691 14.1263 13.9516 14.03C14.1007 13.8942 14.2224 13.7714 14.2582 13.5592C14.2692 13.2944 14.198 13.1076 14.0272 12.9104C13.5817 12.6263 12.9488 12.601 12.4494 12.7305C12.3389 12.7734 12.2335 12.8218 12.1266 12.8733C12.0155 12.917 11.9716 12.9252 11.858 12.8851C11.8254 12.8681 11.7929 12.851 11.7594 12.8335C11.2114 12.5503 10.2708 12.5629 9.8372 13.0557ZM10.2638 16.0329C10.1216 16.2479 10.0309 16.4169 10.0694 16.6824C10.1209 16.8751 10.2017 16.989 10.3532 17.1084C10.5699 17.2301 10.781 17.2259 11.0116 17.1525C11.1763 17.1126 11.1763 17.1126 11.3059 17.1582C11.4354 17.2494 11.4354 17.2494 11.5131 17.3197C11.7082 17.4931 11.8481 17.5665 12.107 17.5501C12.2931 17.5023 12.4161 17.3785 12.5585 17.2494C12.6881 17.1582 12.6881 17.1582 12.8177 17.1126C12.9026 17.1332 12.9875 17.1541 13.0708 17.1806C13.2711 17.2308 13.4587 17.2106 13.6408 17.1084C13.8246 16.9635 13.9053 16.8154 13.94 16.5765C13.9418 16.3557 13.846 16.208 13.7302 16.0329C13.438 15.8046 13.0485 15.7015 12.6881 15.7451C12.5069 15.7908 12.33 15.841 12.1645 15.9326C12.0395 15.9949 11.9562 15.963 11.8242 15.9275C11.7231 15.8825 11.6223 15.837 11.5218 15.7907C11.0998 15.6651 10.6158 15.758 10.2638 16.0329Z" fill="#F3F3F3"/>
<path d="M2.42614 2C2.42614 2.48529 2.42614 2.97059 2.42614 3.47059C4.97628 3.47059 7.52643 3.47059 10.1538 3.47059C10.0059 3.95472 9.89067 4.24536 9.67648 4.63787C9.62494 4.73322 9.57339 4.82857 9.52028 4.92682C9.46248 5.02861 9.40468 5.13041 9.34513 5.23529C9.24847 5.42424 9.24847 5.42424 9.14985 5.617C8.8282 6.06475 8.66874 6.06005 8.25094 6.05406C8.15619 6.05422 8.15619 6.05422 8.05952 6.05439C7.85185 6.05388 7.64436 6.04817 7.43672 6.04239C7.29231 6.04102 7.1479 6.03998 7.00349 6.03924C6.62425 6.03644 6.24509 6.02922 5.86589 6.02108C5.4786 6.01354 5.09129 6.01019 4.70398 6.00649C3.94467 5.99862 3.18541 5.98607 2.42614 5.97059C2.42614 6.31029 2.42614 6.65 2.42614 7C1.53022 6.4587 0.759543 5.42568 0 4.5C0.386412 3.96838 0.799688 3.52807 1.2243 3.08456C1.36026 2.94173 1.49622 2.79888 1.63217 2.65602C1.69189 2.59353 1.75162 2.53105 1.81316 2.46667C2.25589 2 2.25589 2 2.42614 2Z" fill="#F3F3F3"/>
<path d="M21.5739 2C21.5739 2.48529 21.5739 2.97059 21.5739 3.47059C19.0237 3.47059 16.4736 3.47059 13.8462 3.47059C13.9941 3.95472 14.1093 4.24536 14.3235 4.63787C14.3751 4.73322 14.4266 4.82857 14.4797 4.92682C14.5375 5.02861 14.5953 5.13041 14.6549 5.23529C14.7515 5.42424 14.7515 5.42424 14.8501 5.617C15.1718 6.06475 15.3313 6.06005 15.7491 6.05406C15.8438 6.05422 15.8438 6.05422 15.9405 6.05439C16.1481 6.05388 16.3556 6.04817 16.5633 6.04239C16.7077 6.04102 16.8521 6.03998 16.9965 6.03924C17.3757 6.03644 17.7549 6.02922 18.1341 6.02108C18.5214 6.01354 18.9087 6.01019 19.296 6.00649C20.0553 5.99862 20.8146 5.98607 21.5739 5.97059C21.5739 6.31029 21.5739 6.65 21.5739 7C22.4698 6.4587 23.2405 5.42568 24 4.5C23.6136 3.96838 23.2003 3.52807 22.7757 3.08456C22.6397 2.94173 22.5038 2.79888 22.3678 2.65602C22.3081 2.59353 22.2484 2.53105 22.1868 2.46667C21.7441 2 21.7441 2 21.5739 2Z" fill="#F3F3F3"/>
<path d="M9.88377 0.00105283C9.96002 0.000693379 9.96002 0.000693379 10.0378 0.00032667C10.2049 -0.000272511 10.372 0.000122404 10.5391 0.000585415C10.6558 0.000554911 10.7725 0.000360642 10.8891 0.000188951C11.1333 -5.91576e-05 11.3774 0.000266234 11.6216 0.00091928C11.903 0.00166338 12.1844 0.00142226 12.4658 0.000669518C12.7083 4.69894e-05 12.9509 -3.7674e-05 13.1934 0.000319253C13.3378 0.000531382 13.4823 0.000509371 13.6267 0.000109136C13.7879 -0.000239426 13.949 0.000293099 14.1102 0.00105283C14.1575 0.000776011 14.2047 0.000499195 14.2534 0.000213991C14.5658 0.00293169 14.8561 0.0306065 15.1161 0.227934C15.1491 0.266761 15.1491 0.266761 15.1828 0.306372C15.2086 0.33586 15.2345 0.365348 15.2611 0.395729C15.2875 0.427216 15.314 0.458703 15.3413 0.491144C15.4004 0.557647 15.4596 0.624092 15.5188 0.690484C15.6104 0.794779 15.7014 0.89951 15.7914 1.00535C16.1155 1.42064 16.1155 1.42064 16.5554 1.63896C16.699 1.61405 16.8269 1.57227 16.9645 1.52301C17.0867 1.51049 17.0867 1.51049 17.2044 1.5093C17.2422 1.50887 17.2799 1.50844 17.3188 1.508C17.3569 1.50825 17.395 1.5085 17.4342 1.50876C17.4955 1.5091 17.4955 1.5091 17.558 1.50944C18.7131 1.52964 19.6897 2.08646 20.4836 2.94661C20.9909 3.53234 21.3701 4.33556 21.4405 5.12804C21.4474 5.20349 21.4474 5.20349 21.4545 5.28047C21.4631 5.3812 21.4702 5.48209 21.4756 5.58306C21.5019 5.90702 21.5684 6.05995 21.801 6.27365C21.9269 6.39011 22.0141 6.52377 22.1048 6.67112C22.1228 6.70028 22.1408 6.72945 22.1594 6.7595C22.8193 7.85546 23.0591 9.10138 23.074 10.3862C23.075 10.4389 23.0759 10.4916 23.0769 10.5458C23.0767 10.6204 23.0767 10.6204 23.0765 10.6965C23.0766 10.7406 23.0767 10.7846 23.0768 10.83C23.033 11.0902 22.8514 11.2764 22.6798 11.4586C22.6398 11.5012 22.5999 11.5438 22.5587 11.5876C22.5155 11.6333 22.4722 11.6789 22.4289 11.7245C22.3842 11.7719 22.3394 11.8193 22.2947 11.8668C22.2012 11.9658 22.1075 12.0646 22.0137 12.1633C21.8938 12.2896 21.7743 12.4165 21.655 12.5434C21.5629 12.6414 21.4704 12.739 21.3779 12.8365C21.3337 12.8831 21.2896 12.9299 21.2456 12.9767C21.1842 13.0422 21.1222 13.1071 21.0603 13.1721C21.0252 13.2091 20.9901 13.2462 20.954 13.2843C20.7792 13.4395 20.5973 13.4976 20.3675 13.4919C19.5527 13.3156 18.7233 12.4787 18.2702 11.7765C18.1455 11.5688 18.0308 11.3544 17.9148 11.1412C17.2614 13.1071 16.7402 15.1291 16.6397 17.2202C16.6379 17.2572 16.6361 17.2941 16.6342 17.3322C16.6255 17.5164 16.6177 17.7006 16.6112 17.885C16.6084 17.953 16.6056 18.0209 16.6027 18.0889C16.6006 18.149 16.5985 18.2091 16.5963 18.271C16.5679 18.4969 16.5015 18.6496 16.349 18.8106C16.1136 18.9687 15.8689 18.995 15.5956 18.9934C15.5635 18.9936 15.5314 18.9938 15.4984 18.994C15.3916 18.9944 15.2848 18.9943 15.178 18.9941C15.1011 18.9943 15.0242 18.9945 14.9474 18.9948C14.7391 18.9954 14.5308 18.9954 14.3225 18.9953C14.1483 18.9953 13.9742 18.9955 13.8001 18.9957C13.3892 18.9962 12.9784 18.9962 12.5675 18.996C12.1441 18.9957 11.7207 18.9962 11.2974 18.9972C10.9334 18.998 10.5695 18.9983 10.2055 18.9981C9.98832 18.9981 9.77115 18.9982 9.55398 18.9988C9.34969 18.9994 9.1454 18.9993 8.94111 18.9987C8.86632 18.9986 8.79153 18.9987 8.71675 18.9991C7.84682 19.0032 7.84682 19.0032 7.60834 18.7802C7.42914 18.5665 7.41192 18.3879 7.4012 18.1119C7.39836 18.0449 7.39548 17.9779 7.39257 17.9109C7.39106 17.8756 7.38956 17.8402 7.38801 17.8038C7.28601 15.494 6.78861 13.321 6.07918 11.1412C6.04385 11.2065 6.04385 11.2065 6.0078 11.2731C5.50446 12.1899 4.73136 13.1124 3.74661 13.4659C3.48807 13.5113 3.3278 13.4633 3.09867 13.3292C2.98937 13.2309 2.98937 13.2309 2.88029 13.1157C2.85011 13.0841 2.85011 13.0841 2.81931 13.0519C2.7535 12.9828 2.68817 12.9132 2.62284 12.8436C2.57696 12.7952 2.53105 12.7467 2.48512 12.6983C2.38921 12.5971 2.29353 12.4957 2.19802 12.3941C2.0757 12.2639 1.95291 12.1343 1.82996 12.0049C1.73522 11.9051 1.6407 11.805 1.54626 11.7049C1.50105 11.657 1.45579 11.6092 1.41048 11.5615C1.3472 11.4947 1.28422 11.4277 1.2213 11.3605C1.18544 11.3225 1.14958 11.2844 1.11264 11.2452C0.892956 10.9835 0.92386 10.7272 0.925388 10.3919C0.925632 10.3367 0.925875 10.2815 0.926126 10.2246C0.943347 8.85805 1.2661 7.35899 2.14837 6.3093C2.17413 6.28631 2.19989 6.26332 2.22644 6.23964C2.44236 6.04482 2.48759 5.89506 2.51015 5.59864C2.51415 5.52593 2.51415 5.52593 2.51823 5.45175C2.61025 4.38004 2.98189 3.51401 3.70341 2.75377C3.72852 2.72404 3.75364 2.6943 3.77951 2.66367C4.33596 2.01582 5.27381 1.61508 6.07918 1.52301C6.23221 1.51575 6.38496 1.51457 6.53813 1.51446C6.57739 1.5139 6.61664 1.51335 6.65709 1.51277C6.69679 1.51268 6.73649 1.51259 6.7774 1.5125C6.83891 1.51223 6.83891 1.51223 6.90167 1.51196C7.02948 1.52301 7.02948 1.52301 7.16067 1.56905C7.32213 1.62204 7.42283 1.64143 7.59103 1.61418C7.86652 1.43382 8.0785 1.15131 8.29296 0.899083C8.3832 0.795233 8.47391 0.691923 8.56543 0.589325C8.62207 0.525596 8.67795 0.461096 8.7329 0.395729C8.75873 0.366241 8.78456 0.336754 8.81118 0.306372C8.83318 0.280488 8.85518 0.254603 8.87784 0.227934C9.1795 -0.000993967 9.52559 -0.00104479 9.88377 0.00105283ZM9.8372 13.0557C9.7339 13.239 9.7197 13.4393 9.75081 13.6483C9.85441 13.8669 9.97558 13.9948 10.1828 14.1041C10.3277 14.1251 10.4671 14.1213 10.6095 14.0813C10.8576 14.0196 11.1605 14.002 11.3869 14.1383C11.4752 14.2054 11.5634 14.2729 11.6514 14.3406C11.8066 14.4395 11.9018 14.4688 12.0834 14.4688C12.3005 14.3905 12.4694 14.2576 12.6449 14.1041C12.7835 14.0554 12.8855 14.0524 13.031 14.0528C13.0984 14.0526 13.0984 14.0526 13.1672 14.0525C13.2757 14.0577 13.3619 14.074 13.4656 14.1041C13.6681 14.1213 13.7691 14.1263 13.9516 14.03C14.1007 13.8942 14.2224 13.7714 14.2582 13.5592C14.2692 13.2944 14.198 13.1076 14.0272 12.9104C13.5817 12.6263 12.9488 12.601 12.4494 12.7305C12.3389 12.7734 12.2335 12.8218 12.1266 12.8733C12.0155 12.917 11.9716 12.9252 11.858 12.8851C11.8254 12.8681 11.7929 12.851 11.7594 12.8335C11.2114 12.5503 10.2708 12.5629 9.8372 13.0557ZM10.2638 16.0329C10.1216 16.2479 10.0309 16.4169 10.0694 16.6824C10.1209 16.8751 10.2017 16.989 10.3532 17.1084C10.5699 17.2301 10.781 17.2259 11.0116 17.1525C11.1763 17.1126 11.1763 17.1126 11.3059 17.1582C11.4354 17.2494 11.4354 17.2494 11.5131 17.3197C11.7082 17.4931 11.8481 17.5665 12.107 17.5501C12.2931 17.5023 12.4161 17.3785 12.5585 17.2494C12.6881 17.1582 12.6881 17.1582 12.8177 17.1126C12.9026 17.1332 12.9875 17.1541 13.0708 17.1806C13.2711 17.2308 13.4587 17.2106 13.6408 17.1084C13.8246 16.9635 13.9053 16.8154 13.94 16.5765C13.9418 16.3557 13.846 16.208 13.7302 16.0329C13.438 15.8046 13.0485 15.7015 12.6881 15.7451C12.5069 15.7908 12.33 15.841 12.1645 15.9326C12.0395 15.9949 11.9562 15.963 11.8242 15.9275C11.7231 15.8825 11.6223 15.837 11.5218 15.7907C11.0998 15.6651 10.6158 15.758 10.2638 16.0329Z" stroke="black" stroke-width="0.4" mask="url(#path-1-inside-1_37_622)"/>
<path d="M2.42614 2C2.42614 2.48529 2.42614 2.97059 2.42614 3.47059C4.97628 3.47059 7.52643 3.47059 10.1538 3.47059C10.0059 3.95472 9.89067 4.24536 9.67648 4.63787C9.62494 4.73322 9.57339 4.82857 9.52028 4.92682C9.46248 5.02861 9.40468 5.13041 9.34513 5.23529C9.24847 5.42424 9.24847 5.42424 9.14985 5.617C8.8282 6.06475 8.66874 6.06005 8.25094 6.05406C8.15619 6.05422 8.15619 6.05422 8.05952 6.05439C7.85185 6.05388 7.64436 6.04817 7.43672 6.04239C7.29231 6.04102 7.1479 6.03998 7.00349 6.03924C6.62425 6.03644 6.24509 6.02922 5.86589 6.02108C5.4786 6.01354 5.09129 6.01019 4.70398 6.00649C3.94467 5.99862 3.18541 5.98607 2.42614 5.97059C2.42614 6.31029 2.42614 6.65 2.42614 7C1.53022 6.4587 0.759543 5.42568 0 4.5C0.386412 3.96838 0.799688 3.52807 1.2243 3.08456C1.36026 2.94173 1.49622 2.79888 1.63217 2.65602C1.69189 2.59353 1.75162 2.53105 1.81316 2.46667C2.25589 2 2.25589 2 2.42614 2Z" stroke="black" stroke-width="0.4" mask="url(#path-1-inside-1_37_622)"/>
<path d="M21.5739 2C21.5739 2.48529 21.5739 2.97059 21.5739 3.47059C19.0237 3.47059 16.4736 3.47059 13.8462 3.47059C13.9941 3.95472 14.1093 4.24536 14.3235 4.63787C14.3751 4.73322 14.4266 4.82857 14.4797 4.92682C14.5375 5.02861 14.5953 5.13041 14.6549 5.23529C14.7515 5.42424 14.7515 5.42424 14.8501 5.617C15.1718 6.06475 15.3313 6.06005 15.7491 6.05406C15.8438 6.05422 15.8438 6.05422 15.9405 6.05439C16.1481 6.05388 16.3556 6.04817 16.5633 6.04239C16.7077 6.04102 16.8521 6.03998 16.9965 6.03924C17.3757 6.03644 17.7549 6.02922 18.1341 6.02108C18.5214 6.01354 18.9087 6.01019 19.296 6.00649C20.0553 5.99862 20.8146 5.98607 21.5739 5.97059C21.5739 6.31029 21.5739 6.65 21.5739 7C22.4698 6.4587 23.2405 5.42568 24 4.5C23.6136 3.96838 23.2003 3.52807 22.7757 3.08456C22.6397 2.94173 22.5038 2.79888 22.3678 2.65602C22.3081 2.59353 22.2484 2.53105 22.1868 2.46667C21.7441 2 21.7441 2 21.5739 2Z" stroke="black" stroke-width="0.4" mask="url(#path-1-inside-1_37_622)"/>
</svg>
