<svg width="24" height="32" viewBox="0 0 24 32" fill="none" xmlns="http://www.w3.org/2000/svg">
<mask id="path-1-inside-1_37_668" fill="white">
<path d="M4.01077 0.00582094C4.08169 0.00540814 4.15261 0.00499534 4.22567 0.00457003C4.46412 0.00351165 4.70253 0.00435183 4.94097 0.00518298C5.11159 0.00482455 5.2822 0.00435347 5.45282 0.00377784C5.8686 0.00260024 6.28438 0.00285575 6.70017 0.00362242C7.03804 0.00421966 7.37591 0.00430123 7.71379 0.00401304C7.78588 0.00395222 7.78588 0.00395222 7.85943 0.00389017C7.95705 0.00380556 8.05468 0.00371977 8.15231 0.0036328C9.0681 0.00287796 9.98388 0.00374626 10.8997 0.00516768C11.6857 0.00634996 12.4718 0.00614462 13.2578 0.00492456C14.1703 0.00350894 15.0828 0.00295064 15.9952 0.00376349C16.0925 0.00384778 16.1898 0.00393097 16.2871 0.00401304C16.3589 0.00407428 16.3589 0.00407428 16.4321 0.00413675C16.7696 0.00436537 17.1071 0.00397926 17.4447 0.00335691C17.8988 0.00253791 18.353 0.00311973 18.8071 0.00465201C18.9741 0.0050028 19.1411 0.00489991 19.3081 0.00431789C19.5354 0.00359827 19.7627 0.00449752 19.9901 0.00582094C20.09 0.00493551 20.09 0.00493551 20.1919 0.00403219C20.6351 0.00906091 20.6351 0.0090609 20.8514 0.159135C20.9908 0.382528 20.9814 0.581749 20.9418 0.833278C20.8747 1.0838 20.7877 1.32559 20.6994 1.56925C19.3274 5.5389 19.6585 9.7744 21.3651 13.581C21.3847 13.6247 21.4043 13.6684 21.4245 13.7135C21.5227 13.9319 21.6218 14.1498 21.7223 14.3672C21.7765 14.4857 21.7765 14.4857 21.8317 14.6066C21.8809 14.7129 21.8809 14.7129 21.9311 14.8213C21.9621 14.905 21.9621 14.905 21.9938 14.9904C21.928 15.1227 21.928 15.1227 21.7737 15.18C21.6714 15.2084 21.6714 15.2084 21.5669 15.2374C21.4903 15.2588 21.4136 15.2802 21.3347 15.3023C21.2511 15.3249 21.1676 15.3475 21.0816 15.3707C21.0388 15.3824 20.9961 15.3941 20.952 15.4061C18.8573 15.9772 16.7275 16.3862 14.5645 16.5781C14.4948 16.5844 14.4251 16.5907 14.3533 16.5973C12.2114 16.767 9.98804 16.7362 7.85844 16.4458C7.81241 16.4396 7.76638 16.4335 7.71896 16.4272C5.79004 16.1705 3.84352 15.7804 2.00707 15.1227C2.08832 14.8642 2.1815 14.6234 2.30087 14.3805C4.18025 10.4753 4.83173 5.94645 3.39133 1.77185C3.33079 1.60106 3.26877 1.4314 3.20263 1.26273C3.07445 0.927026 3.01581 0.664656 3.059 0.304041C3.2838 -0.0582539 3.63019 0.00244718 4.01077 0.00582094Z"/>
<path d="M23.6374 19.4889C23.6803 19.7382 23.7226 19.9877 23.7648 20.2372C23.7828 20.3417 23.7828 20.3417 23.8011 20.4482C24.3735 23.8512 23.6795 27.3769 22.1171 30.4209C22.0856 30.4823 22.0541 30.5437 22.0217 30.6069C21.4655 31.6629 21.4655 31.6629 21.0733 31.9259C20.9105 31.9422 20.9105 31.9422 20.7127 31.9418C20.6002 31.9421 20.6002 31.9421 20.4855 31.9424C20.4032 31.9419 20.321 31.9414 20.2362 31.9409C20.1496 31.941 20.063 31.941 19.9738 31.941C19.7362 31.941 19.4986 31.9403 19.2611 31.9393C19.0128 31.9385 18.7646 31.9384 18.5164 31.9383C18.0463 31.9379 17.5762 31.9368 17.1061 31.9355C16.5709 31.934 16.0357 31.9332 15.5005 31.9326C14.3996 31.9312 13.2986 31.9289 12.1977 31.9259C12.1792 31.3675 12.1653 30.8092 12.1568 30.2505C12.1527 29.9909 12.1472 29.7316 12.1381 29.4721C12.0664 27.3595 12.0664 27.3595 12.7809 26.5806C12.8151 26.5459 12.8494 26.5113 12.8846 26.4755C13.0245 26.3293 13.1427 26.1698 13.2628 26.0071C13.4059 25.8143 13.5581 25.6288 13.7098 25.4428C13.7407 25.4048 13.7715 25.3669 13.8033 25.3278C14.632 24.3168 15.5524 23.3124 16.6026 22.532C16.6451 22.4999 16.6876 22.4678 16.7314 22.4348C18.6029 21.0247 21.214 19.4304 23.6374 19.4889Z"/>
<path d="M0.363427 19.6212C0.81732 19.6531 1.23781 19.7283 1.67423 19.8568C1.7339 19.8744 1.79356 19.8919 1.85503 19.9099C3.3726 20.3701 4.81411 21.1165 6.08331 22.0689C6.14287 22.1134 6.14287 22.1134 6.20363 22.1588C7.44198 23.092 8.62556 24.2088 9.56783 25.4428C9.63921 25.5335 9.7107 25.6241 9.78228 25.7146C9.86151 25.8155 9.94069 25.9165 10.0198 26.0175C10.0554 26.0626 10.091 26.1077 10.1276 26.1542C10.2043 26.253 10.2789 26.3533 10.352 26.4548C10.4563 26.5916 10.5588 26.7082 10.677 26.8311C11.4093 27.6531 11.2966 28.6434 11.2624 29.6814C11.251 30.0642 11.2437 30.4472 11.2355 30.8301C11.2306 31.0593 11.2255 31.2886 11.2205 31.5179C11.2187 31.5964 11.217 31.675 11.2152 31.756C11.2134 31.8401 11.2134 31.8401 11.2115 31.9259C10.1308 31.9398 9.05009 31.9503 7.96932 31.9568C7.46747 31.9598 6.96568 31.964 6.46386 31.9708C6.02638 31.9768 5.58894 31.9806 5.15141 31.9819C4.91981 31.9827 4.68832 31.9845 4.45676 31.9889C4.19798 31.9937 3.93931 31.9938 3.68049 31.9935C3.60407 31.9957 3.52765 31.9978 3.44891 32C2.94029 31.9941 2.94029 31.9941 2.71494 31.7984C2.59602 31.6474 2.49694 31.4974 2.40154 31.3305C2.3715 31.282 2.34145 31.2335 2.31049 31.1836C2.22932 31.0515 2.15466 30.9171 2.08103 30.7806C2.05337 30.7296 2.02571 30.6786 1.99721 30.6261C0.247077 27.3475 -0.508155 23.2812 0.363427 19.6212Z"/>
<path d="M22.5197 16.115C22.6273 16.389 22.7339 16.6633 22.8403 16.9378C22.8856 17.0534 22.8856 17.0534 22.9319 17.1713C23.0933 17.5889 23.2272 17.9897 23.3087 18.4304C23.2678 18.4383 23.2269 18.4463 23.1847 18.4545C19.304 19.2161 15.869 21.1802 13.3153 24.252C13.2706 24.3056 13.2706 24.3056 13.225 24.3602C12.7613 24.9176 12.3247 25.4861 11.9204 26.0889C11.8405 26.2065 11.7565 26.3211 11.6717 26.4351C11.6283 26.4351 11.5849 26.4351 11.5402 26.4351C11.4533 26.3344 11.4533 26.3344 11.3538 26.1927C11.3167 26.1407 11.2796 26.0888 11.2415 26.0352C11.2017 25.9789 11.162 25.9225 11.1211 25.8645C10.7164 25.3015 10.2915 24.7691 9.83081 24.252C9.80129 24.2186 9.77176 24.1851 9.74134 24.1507C9.03619 23.3536 8.3016 22.5932 7.46397 21.9366C7.39231 21.8785 7.32075 21.8202 7.24927 21.7619C5.29328 20.1746 3.0607 19.1632 0.626409 18.5627C0.738205 18.0624 0.909187 17.5897 1.09074 17.1114C1.11392 17.0503 1.1371 16.9892 1.16098 16.9262C1.25859 16.6719 1.35661 16.4235 1.4811 16.1811C1.94608 16.2177 2.37214 16.3469 2.818 16.4803C4.99469 17.1274 7.23953 17.5269 9.50209 17.7027C9.54683 17.7065 9.59158 17.7103 9.63769 17.7143C13.7201 18.0576 18.1938 17.5542 22.0702 16.1732C22.2568 16.115 22.2568 16.115 22.5197 16.115Z"/>
<path d="M6.46154 7C6.59774 7.045 6.68523 7.10648 6.78921 7.18752C6.82221 7.21315 6.8552 7.23879 6.8892 7.2652C6.94048 7.3055 6.94048 7.3055 6.99279 7.34662C7.02653 7.37279 7.06027 7.39897 7.09503 7.42593C7.23816 7.53764 7.37837 7.64972 7.51101 7.76898C7.65841 7.90043 7.81524 8.0234 7.97461 8.14607C8.00411 8.1689 8.03361 8.19172 8.064 8.21524C8.15716 8.2873 8.25045 8.35925 8.34375 8.43119C8.40739 8.48038 8.47101 8.52956 8.53463 8.57876C8.68965 8.69861 8.84478 8.81838 9 8.93807C8.9445 9.02794 8.88977 9.09028 8.79778 9.1603C8.77373 9.17875 8.74968 9.1972 8.72491 9.21621C8.69987 9.23512 8.67483 9.25403 8.64904 9.27351C8.6237 9.29288 8.59837 9.31225 8.57227 9.33221C8.50989 9.37987 8.44733 9.42738 8.38462 9.47477C7.8168 9.25467 7.4489 8.80901 7 8.46101C7 11.7867 7 15.1125 7 18.539C7.43154 18.2044 7.86308 17.8699 8.30769 17.5252C8.43742 17.5755 8.49744 17.6055 8.59435 17.682C8.63005 17.71 8.63005 17.71 8.66647 17.7385C8.69086 17.7579 8.71525 17.7773 8.74039 17.7973C8.76537 17.8169 8.79036 17.8366 8.81611 17.8568C8.87758 17.9052 8.93887 17.9537 9 18.0023C8.94666 18.0955 8.88491 18.1583 8.79151 18.2298C8.76467 18.2506 8.73782 18.2713 8.71016 18.2926C8.68112 18.3147 8.65207 18.3368 8.62215 18.3596C8.59216 18.3827 8.56217 18.4058 8.53128 18.4296C8.4353 18.5035 8.33906 18.5772 8.24279 18.6508C8.14723 18.7241 8.05174 18.7973 7.95636 18.8707C7.89705 18.9163 7.83763 18.9619 7.7781 19.0073C7.62162 19.1275 7.47302 19.2507 7.32929 19.3801C7.25079 19.4499 7.1678 19.5155 7.08308 19.5807C7.05098 19.6055 7.01888 19.6303 6.9858 19.6558C6.9532 19.6808 6.92061 19.7059 6.88702 19.7317C6.85338 19.7576 6.81974 19.7835 6.78508 19.8103C6.70296 19.8736 6.62076 19.9368 6.53846 20C6.40618 19.9558 6.3204 19.8979 6.2192 19.819C6.18794 19.7947 6.15668 19.7704 6.12447 19.7454C6.09212 19.72 6.05977 19.6945 6.02644 19.6683C5.99454 19.6435 5.96263 19.6188 5.92976 19.5933C5.79154 19.4854 5.65658 19.3769 5.52851 19.2616C5.37815 19.1276 5.21795 19.0023 5.05544 18.8772C5.00991 18.842 5.00991 18.842 4.96346 18.806C4.86756 18.7319 4.77152 18.6578 4.67548 18.5837C4.60999 18.5331 4.54451 18.4825 4.47904 18.4318C4.31946 18.3085 4.15977 18.1852 4 18.0619C4.0555 17.9721 4.11023 17.9097 4.20222 17.8397C4.22627 17.8213 4.25032 17.8028 4.27509 17.7838C4.30013 17.7649 4.32517 17.746 4.35096 17.7265C4.3763 17.7071 4.40163 17.6877 4.42773 17.6678C4.49011 17.6201 4.55267 17.5726 4.61538 17.5252C5.1832 17.7453 5.5511 18.191 6 18.539C6 15.2133 6 11.8875 6 8.46101C5.56846 8.79555 5.13692 9.13009 4.69231 9.47477C4.56258 9.42449 4.50256 9.39452 4.40565 9.318C4.38185 9.29936 4.35805 9.28072 4.33353 9.26151C4.30914 9.2421 4.28475 9.22269 4.25962 9.20269C4.23463 9.18305 4.20964 9.16341 4.18389 9.14318C4.12242 9.09482 4.06113 9.04633 4 8.99771C4.05645 8.89651 4.12891 8.83103 4.22967 8.75373C4.26114 8.72944 4.2926 8.70514 4.32502 8.68011C4.35912 8.65409 4.39321 8.62806 4.42834 8.60124C4.48199 8.55988 4.53565 8.51852 4.5893 8.47715C4.66453 8.41922 4.73994 8.36143 4.81534 8.30364C4.94653 8.20307 5.07754 8.10236 5.20841 8.00154C5.27799 7.94796 5.34768 7.89445 5.41749 7.84104C5.586 7.71143 5.74882 7.58025 5.90265 7.44005C6.00539 7.34857 6.11696 7.26397 6.22837 7.1789C6.26231 7.15278 6.26232 7.15278 6.29695 7.12614C6.35172 7.08402 6.40662 7.042 6.46154 7Z"/>
</mask>
<path d="M4.01077 0.00582094C4.08169 0.00540814 4.15261 0.00499534 4.22567 0.00457003C4.46412 0.00351165 4.70253 0.00435183 4.94097 0.00518298C5.11159 0.00482455 5.2822 0.00435347 5.45282 0.00377784C5.8686 0.00260024 6.28438 0.00285575 6.70017 0.00362242C7.03804 0.00421966 7.37591 0.00430123 7.71379 0.00401304C7.78588 0.00395222 7.78588 0.00395222 7.85943 0.00389017C7.95705 0.00380556 8.05468 0.00371977 8.15231 0.0036328C9.0681 0.00287796 9.98388 0.00374626 10.8997 0.00516768C11.6857 0.00634996 12.4718 0.00614462 13.2578 0.00492456C14.1703 0.00350894 15.0828 0.00295064 15.9952 0.00376349C16.0925 0.00384778 16.1898 0.00393097 16.2871 0.00401304C16.3589 0.00407428 16.3589 0.00407428 16.4321 0.00413675C16.7696 0.00436537 17.1071 0.00397926 17.4447 0.00335691C17.8988 0.00253791 18.353 0.00311973 18.8071 0.00465201C18.9741 0.0050028 19.1411 0.00489991 19.3081 0.00431789C19.5354 0.00359827 19.7627 0.00449752 19.9901 0.00582094C20.09 0.00493551 20.09 0.00493551 20.1919 0.00403219C20.6351 0.00906091 20.6351 0.0090609 20.8514 0.159135C20.9908 0.382528 20.9814 0.581749 20.9418 0.833278C20.8747 1.0838 20.7877 1.32559 20.6994 1.56925C19.3274 5.5389 19.6585 9.7744 21.3651 13.581C21.3847 13.6247 21.4043 13.6684 21.4245 13.7135C21.5227 13.9319 21.6218 14.1498 21.7223 14.3672C21.7765 14.4857 21.7765 14.4857 21.8317 14.6066C21.8809 14.7129 21.8809 14.7129 21.9311 14.8213C21.9621 14.905 21.9621 14.905 21.9938 14.9904C21.928 15.1227 21.928 15.1227 21.7737 15.18C21.6714 15.2084 21.6714 15.2084 21.5669 15.2374C21.4903 15.2588 21.4136 15.2802 21.3347 15.3023C21.2511 15.3249 21.1676 15.3475 21.0816 15.3707C21.0388 15.3824 20.9961 15.3941 20.952 15.4061C18.8573 15.9772 16.7275 16.3862 14.5645 16.5781C14.4948 16.5844 14.4251 16.5907 14.3533 16.5973C12.2114 16.767 9.98804 16.7362 7.85844 16.4458C7.81241 16.4396 7.76638 16.4335 7.71896 16.4272C5.79004 16.1705 3.84352 15.7804 2.00707 15.1227C2.08832 14.8642 2.1815 14.6234 2.30087 14.3805C4.18025 10.4753 4.83173 5.94645 3.39133 1.77185C3.33079 1.60106 3.26877 1.4314 3.20263 1.26273C3.07445 0.927026 3.01581 0.664656 3.059 0.304041C3.2838 -0.0582539 3.63019 0.00244718 4.01077 0.00582094Z" fill="#F3F3F3"/>
<path d="M23.6374 19.4889C23.6803 19.7382 23.7226 19.9877 23.7648 20.2372C23.7828 20.3417 23.7828 20.3417 23.8011 20.4482C24.3735 23.8512 23.6795 27.3769 22.1171 30.4209C22.0856 30.4823 22.0541 30.5437 22.0217 30.6069C21.4655 31.6629 21.4655 31.6629 21.0733 31.9259C20.9105 31.9422 20.9105 31.9422 20.7127 31.9418C20.6002 31.9421 20.6002 31.9421 20.4855 31.9424C20.4032 31.9419 20.321 31.9414 20.2362 31.9409C20.1496 31.941 20.063 31.941 19.9738 31.941C19.7362 31.941 19.4986 31.9403 19.2611 31.9393C19.0128 31.9385 18.7646 31.9384 18.5164 31.9383C18.0463 31.9379 17.5762 31.9368 17.1061 31.9355C16.5709 31.934 16.0357 31.9332 15.5005 31.9326C14.3996 31.9312 13.2986 31.9289 12.1977 31.9259C12.1792 31.3675 12.1653 30.8092 12.1568 30.2505C12.1527 29.9909 12.1472 29.7316 12.1381 29.4721C12.0664 27.3595 12.0664 27.3595 12.7809 26.5806C12.8151 26.5459 12.8494 26.5113 12.8846 26.4755C13.0245 26.3293 13.1427 26.1698 13.2628 26.0071C13.4059 25.8143 13.5581 25.6288 13.7098 25.4428C13.7407 25.4048 13.7715 25.3669 13.8033 25.3278C14.632 24.3168 15.5524 23.3124 16.6026 22.532C16.6451 22.4999 16.6876 22.4678 16.7314 22.4348C18.6029 21.0247 21.214 19.4304 23.6374 19.4889Z" fill="#F3F3F3"/>
<path d="M0.363427 19.6212C0.81732 19.6531 1.23781 19.7283 1.67423 19.8568C1.7339 19.8744 1.79356 19.8919 1.85503 19.9099C3.3726 20.3701 4.81411 21.1165 6.08331 22.0689C6.14287 22.1134 6.14287 22.1134 6.20363 22.1588C7.44198 23.092 8.62556 24.2088 9.56783 25.4428C9.63921 25.5335 9.7107 25.6241 9.78228 25.7146C9.86151 25.8155 9.94069 25.9165 10.0198 26.0175C10.0554 26.0626 10.091 26.1077 10.1276 26.1542C10.2043 26.253 10.2789 26.3533 10.352 26.4548C10.4563 26.5916 10.5588 26.7082 10.677 26.8311C11.4093 27.6531 11.2966 28.6434 11.2624 29.6814C11.251 30.0642 11.2437 30.4472 11.2355 30.8301C11.2306 31.0593 11.2255 31.2886 11.2205 31.5179C11.2187 31.5964 11.217 31.675 11.2152 31.756C11.2134 31.8401 11.2134 31.8401 11.2115 31.9259C10.1308 31.9398 9.05009 31.9503 7.96932 31.9568C7.46747 31.9598 6.96568 31.964 6.46386 31.9708C6.02638 31.9768 5.58894 31.9806 5.15141 31.9819C4.91981 31.9827 4.68832 31.9845 4.45676 31.9889C4.19798 31.9937 3.93931 31.9938 3.68049 31.9935C3.60407 31.9957 3.52765 31.9978 3.44891 32C2.94029 31.9941 2.94029 31.9941 2.71494 31.7984C2.59602 31.6474 2.49694 31.4974 2.40154 31.3305C2.3715 31.282 2.34145 31.2335 2.31049 31.1836C2.22932 31.0515 2.15466 30.9171 2.08103 30.7806C2.05337 30.7296 2.02571 30.6786 1.99721 30.6261C0.247077 27.3475 -0.508155 23.2812 0.363427 19.6212Z" fill="#F3F3F3"/>
<path d="M22.5197 16.115C22.6273 16.389 22.7339 16.6633 22.8403 16.9378C22.8856 17.0534 22.8856 17.0534 22.9319 17.1713C23.0933 17.5889 23.2272 17.9897 23.3087 18.4304C23.2678 18.4383 23.2269 18.4463 23.1847 18.4545C19.304 19.2161 15.869 21.1802 13.3153 24.252C13.2706 24.3056 13.2706 24.3056 13.225 24.3602C12.7613 24.9176 12.3247 25.4861 11.9204 26.0889C11.8405 26.2065 11.7565 26.3211 11.6717 26.4351C11.6283 26.4351 11.5849 26.4351 11.5402 26.4351C11.4533 26.3344 11.4533 26.3344 11.3538 26.1927C11.3167 26.1407 11.2796 26.0888 11.2415 26.0352C11.2017 25.9789 11.162 25.9225 11.1211 25.8645C10.7164 25.3015 10.2915 24.7691 9.83081 24.252C9.80129 24.2186 9.77176 24.1851 9.74134 24.1507C9.03619 23.3536 8.3016 22.5932 7.46397 21.9366C7.39231 21.8785 7.32075 21.8202 7.24927 21.7619C5.29328 20.1746 3.0607 19.1632 0.626409 18.5627C0.738205 18.0624 0.909187 17.5897 1.09074 17.1114C1.11392 17.0503 1.1371 16.9892 1.16098 16.9262C1.25859 16.6719 1.35661 16.4235 1.4811 16.1811C1.94608 16.2177 2.37214 16.3469 2.818 16.4803C4.99469 17.1274 7.23953 17.5269 9.50209 17.7027C9.54683 17.7065 9.59158 17.7103 9.63769 17.7143C13.7201 18.0576 18.1938 17.5542 22.0702 16.1732C22.2568 16.115 22.2568 16.115 22.5197 16.115Z" fill="#F3F3F3"/>
<path d="M6.46154 7C6.59774 7.045 6.68523 7.10648 6.78921 7.18752C6.82221 7.21315 6.8552 7.23879 6.8892 7.2652C6.94048 7.3055 6.94048 7.3055 6.99279 7.34662C7.02653 7.37279 7.06027 7.39897 7.09503 7.42593C7.23816 7.53764 7.37837 7.64972 7.51101 7.76898C7.65841 7.90043 7.81524 8.0234 7.97461 8.14607C8.00411 8.1689 8.03361 8.19172 8.064 8.21524C8.15716 8.2873 8.25045 8.35925 8.34375 8.43119C8.40739 8.48038 8.47101 8.52956 8.53463 8.57876C8.68965 8.69861 8.84478 8.81838 9 8.93807C8.9445 9.02794 8.88977 9.09028 8.79778 9.1603C8.77373 9.17875 8.74968 9.1972 8.72491 9.21621C8.69987 9.23512 8.67483 9.25403 8.64904 9.27351C8.6237 9.29288 8.59837 9.31225 8.57227 9.33221C8.50989 9.37987 8.44733 9.42738 8.38462 9.47477C7.8168 9.25467 7.4489 8.80901 7 8.46101C7 11.7867 7 15.1125 7 18.539C7.43154 18.2044 7.86308 17.8699 8.30769 17.5252C8.43742 17.5755 8.49744 17.6055 8.59435 17.682C8.63005 17.71 8.63005 17.71 8.66647 17.7385C8.69086 17.7579 8.71525 17.7773 8.74039 17.7973C8.76537 17.8169 8.79036 17.8366 8.81611 17.8568C8.87758 17.9052 8.93887 17.9537 9 18.0023C8.94666 18.0955 8.88491 18.1583 8.79151 18.2298C8.76467 18.2506 8.73782 18.2713 8.71016 18.2926C8.68112 18.3147 8.65207 18.3368 8.62215 18.3596C8.59216 18.3827 8.56217 18.4058 8.53128 18.4296C8.4353 18.5035 8.33906 18.5772 8.24279 18.6508C8.14723 18.7241 8.05174 18.7973 7.95636 18.8707C7.89705 18.9163 7.83763 18.9619 7.7781 19.0073C7.62162 19.1275 7.47302 19.2507 7.32929 19.3801C7.25079 19.4499 7.1678 19.5155 7.08308 19.5807C7.05098 19.6055 7.01888 19.6303 6.9858 19.6558C6.9532 19.6808 6.92061 19.7059 6.88702 19.7317C6.85338 19.7576 6.81974 19.7835 6.78508 19.8103C6.70296 19.8736 6.62076 19.9368 6.53846 20C6.40618 19.9558 6.3204 19.8979 6.2192 19.819C6.18794 19.7947 6.15668 19.7704 6.12447 19.7454C6.09212 19.72 6.05977 19.6945 6.02644 19.6683C5.99454 19.6435 5.96263 19.6188 5.92976 19.5933C5.79154 19.4854 5.65658 19.3769 5.52851 19.2616C5.37815 19.1276 5.21795 19.0023 5.05544 18.8772C5.00991 18.842 5.00991 18.842 4.96346 18.806C4.86756 18.7319 4.77152 18.6578 4.67548 18.5837C4.60999 18.5331 4.54451 18.4825 4.47904 18.4318C4.31946 18.3085 4.15977 18.1852 4 18.0619C4.0555 17.9721 4.11023 17.9097 4.20222 17.8397C4.22627 17.8213 4.25032 17.8028 4.27509 17.7838C4.30013 17.7649 4.32517 17.746 4.35096 17.7265C4.3763 17.7071 4.40163 17.6877 4.42773 17.6678C4.49011 17.6201 4.55267 17.5726 4.61538 17.5252C5.1832 17.7453 5.5511 18.191 6 18.539C6 15.2133 6 11.8875 6 8.46101C5.56846 8.79555 5.13692 9.13009 4.69231 9.47477C4.56258 9.42449 4.50256 9.39452 4.40565 9.318C4.38185 9.29936 4.35805 9.28072 4.33353 9.26151C4.30914 9.2421 4.28475 9.22269 4.25962 9.20269C4.23463 9.18305 4.20964 9.16341 4.18389 9.14318C4.12242 9.09482 4.06113 9.04633 4 8.99771C4.05645 8.89651 4.12891 8.83103 4.22967 8.75373C4.26114 8.72944 4.2926 8.70514 4.32502 8.68011C4.35912 8.65409 4.39321 8.62806 4.42834 8.60124C4.48199 8.55988 4.53565 8.51852 4.5893 8.47715C4.66453 8.41922 4.73994 8.36143 4.81534 8.30364C4.94653 8.20307 5.07754 8.10236 5.20841 8.00154C5.27799 7.94796 5.34768 7.89445 5.41749 7.84104C5.586 7.71143 5.74882 7.58025 5.90265 7.44005C6.00539 7.34857 6.11696 7.26397 6.22837 7.1789C6.26231 7.15278 6.26232 7.15278 6.29695 7.12614C6.35172 7.08402 6.40662 7.042 6.46154 7Z" fill="#3A3A3A"/>
<path d="M4.01077 0.00582094C4.08169 0.00540814 4.15261 0.00499534 4.22567 0.00457003C4.46412 0.00351165 4.70253 0.00435183 4.94097 0.00518298C5.11159 0.00482455 5.2822 0.00435347 5.45282 0.00377784C5.8686 0.00260024 6.28438 0.00285575 6.70017 0.00362242C7.03804 0.00421966 7.37591 0.00430123 7.71379 0.00401304C7.78588 0.00395222 7.78588 0.00395222 7.85943 0.00389017C7.95705 0.00380556 8.05468 0.00371977 8.15231 0.0036328C9.0681 0.00287796 9.98388 0.00374626 10.8997 0.00516768C11.6857 0.00634996 12.4718 0.00614462 13.2578 0.00492456C14.1703 0.00350894 15.0828 0.00295064 15.9952 0.00376349C16.0925 0.00384778 16.1898 0.00393097 16.2871 0.00401304C16.3589 0.00407428 16.3589 0.00407428 16.4321 0.00413675C16.7696 0.00436537 17.1071 0.00397926 17.4447 0.00335691C17.8988 0.00253791 18.353 0.00311973 18.8071 0.00465201C18.9741 0.0050028 19.1411 0.00489991 19.3081 0.00431789C19.5354 0.00359827 19.7627 0.00449752 19.9901 0.00582094C20.09 0.00493551 20.09 0.00493551 20.1919 0.00403219C20.6351 0.00906091 20.6351 0.0090609 20.8514 0.159135C20.9908 0.382528 20.9814 0.581749 20.9418 0.833278C20.8747 1.0838 20.7877 1.32559 20.6994 1.56925C19.3274 5.5389 19.6585 9.7744 21.3651 13.581C21.3847 13.6247 21.4043 13.6684 21.4245 13.7135C21.5227 13.9319 21.6218 14.1498 21.7223 14.3672C21.7765 14.4857 21.7765 14.4857 21.8317 14.6066C21.8809 14.7129 21.8809 14.7129 21.9311 14.8213C21.9621 14.905 21.9621 14.905 21.9938 14.9904C21.928 15.1227 21.928 15.1227 21.7737 15.18C21.6714 15.2084 21.6714 15.2084 21.5669 15.2374C21.4903 15.2588 21.4136 15.2802 21.3347 15.3023C21.2511 15.3249 21.1676 15.3475 21.0816 15.3707C21.0388 15.3824 20.9961 15.3941 20.952 15.4061C18.8573 15.9772 16.7275 16.3862 14.5645 16.5781C14.4948 16.5844 14.4251 16.5907 14.3533 16.5973C12.2114 16.767 9.98804 16.7362 7.85844 16.4458C7.81241 16.4396 7.76638 16.4335 7.71896 16.4272C5.79004 16.1705 3.84352 15.7804 2.00707 15.1227C2.08832 14.8642 2.1815 14.6234 2.30087 14.3805C4.18025 10.4753 4.83173 5.94645 3.39133 1.77185C3.33079 1.60106 3.26877 1.4314 3.20263 1.26273C3.07445 0.927026 3.01581 0.664656 3.059 0.304041C3.2838 -0.0582539 3.63019 0.00244718 4.01077 0.00582094Z" stroke="black" stroke-width="0.4" mask="url(#path-1-inside-1_37_668)"/>
<path d="M23.6374 19.4889C23.6803 19.7382 23.7226 19.9877 23.7648 20.2372C23.7828 20.3417 23.7828 20.3417 23.8011 20.4482C24.3735 23.8512 23.6795 27.3769 22.1171 30.4209C22.0856 30.4823 22.0541 30.5437 22.0217 30.6069C21.4655 31.6629 21.4655 31.6629 21.0733 31.9259C20.9105 31.9422 20.9105 31.9422 20.7127 31.9418C20.6002 31.9421 20.6002 31.9421 20.4855 31.9424C20.4032 31.9419 20.321 31.9414 20.2362 31.9409C20.1496 31.941 20.063 31.941 19.9738 31.941C19.7362 31.941 19.4986 31.9403 19.2611 31.9393C19.0128 31.9385 18.7646 31.9384 18.5164 31.9383C18.0463 31.9379 17.5762 31.9368 17.1061 31.9355C16.5709 31.934 16.0357 31.9332 15.5005 31.9326C14.3996 31.9312 13.2986 31.9289 12.1977 31.9259C12.1792 31.3675 12.1653 30.8092 12.1568 30.2505C12.1527 29.9909 12.1472 29.7316 12.1381 29.4721C12.0664 27.3595 12.0664 27.3595 12.7809 26.5806C12.8151 26.5459 12.8494 26.5113 12.8846 26.4755C13.0245 26.3293 13.1427 26.1698 13.2628 26.0071C13.4059 25.8143 13.5581 25.6288 13.7098 25.4428C13.7407 25.4048 13.7715 25.3669 13.8033 25.3278C14.632 24.3168 15.5524 23.3124 16.6026 22.532C16.6451 22.4999 16.6876 22.4678 16.7314 22.4348C18.6029 21.0247 21.214 19.4304 23.6374 19.4889Z" stroke="black" stroke-width="0.4" mask="url(#path-1-inside-1_37_668)"/>
<path d="M0.363427 19.6212C0.81732 19.6531 1.23781 19.7283 1.67423 19.8568C1.7339 19.8744 1.79356 19.8919 1.85503 19.9099C3.3726 20.3701 4.81411 21.1165 6.08331 22.0689C6.14287 22.1134 6.14287 22.1134 6.20363 22.1588C7.44198 23.092 8.62556 24.2088 9.56783 25.4428C9.63921 25.5335 9.7107 25.6241 9.78228 25.7146C9.86151 25.8155 9.94069 25.9165 10.0198 26.0175C10.0554 26.0626 10.091 26.1077 10.1276 26.1542C10.2043 26.253 10.2789 26.3533 10.352 26.4548C10.4563 26.5916 10.5588 26.7082 10.677 26.8311C11.4093 27.6531 11.2966 28.6434 11.2624 29.6814C11.251 30.0642 11.2437 30.4472 11.2355 30.8301C11.2306 31.0593 11.2255 31.2886 11.2205 31.5179C11.2187 31.5964 11.217 31.675 11.2152 31.756C11.2134 31.8401 11.2134 31.8401 11.2115 31.9259C10.1308 31.9398 9.05009 31.9503 7.96932 31.9568C7.46747 31.9598 6.96568 31.964 6.46386 31.9708C6.02638 31.9768 5.58894 31.9806 5.15141 31.9819C4.91981 31.9827 4.68832 31.9845 4.45676 31.9889C4.19798 31.9937 3.93931 31.9938 3.68049 31.9935C3.60407 31.9957 3.52765 31.9978 3.44891 32C2.94029 31.9941 2.94029 31.9941 2.71494 31.7984C2.59602 31.6474 2.49694 31.4974 2.40154 31.3305C2.3715 31.282 2.34145 31.2335 2.31049 31.1836C2.22932 31.0515 2.15466 30.9171 2.08103 30.7806C2.05337 30.7296 2.02571 30.6786 1.99721 30.6261C0.247077 27.3475 -0.508155 23.2812 0.363427 19.6212Z" stroke="black" stroke-width="0.4" mask="url(#path-1-inside-1_37_668)"/>
<path d="M22.5197 16.115C22.6273 16.389 22.7339 16.6633 22.8403 16.9378C22.8856 17.0534 22.8856 17.0534 22.9319 17.1713C23.0933 17.5889 23.2272 17.9897 23.3087 18.4304C23.2678 18.4383 23.2269 18.4463 23.1847 18.4545C19.304 19.2161 15.869 21.1802 13.3153 24.252C13.2706 24.3056 13.2706 24.3056 13.225 24.3602C12.7613 24.9176 12.3247 25.4861 11.9204 26.0889C11.8405 26.2065 11.7565 26.3211 11.6717 26.4351C11.6283 26.4351 11.5849 26.4351 11.5402 26.4351C11.4533 26.3344 11.4533 26.3344 11.3538 26.1927C11.3167 26.1407 11.2796 26.0888 11.2415 26.0352C11.2017 25.9789 11.162 25.9225 11.1211 25.8645C10.7164 25.3015 10.2915 24.7691 9.83081 24.252C9.80129 24.2186 9.77176 24.1851 9.74134 24.1507C9.03619 23.3536 8.3016 22.5932 7.46397 21.9366C7.39231 21.8785 7.32075 21.8202 7.24927 21.7619C5.29328 20.1746 3.0607 19.1632 0.626409 18.5627C0.738205 18.0624 0.909187 17.5897 1.09074 17.1114C1.11392 17.0503 1.1371 16.9892 1.16098 16.9262C1.25859 16.6719 1.35661 16.4235 1.4811 16.1811C1.94608 16.2177 2.37214 16.3469 2.818 16.4803C4.99469 17.1274 7.23953 17.5269 9.50209 17.7027C9.54683 17.7065 9.59158 17.7103 9.63769 17.7143C13.7201 18.0576 18.1938 17.5542 22.0702 16.1732C22.2568 16.115 22.2568 16.115 22.5197 16.115Z" stroke="black" stroke-width="0.4" mask="url(#path-1-inside-1_37_668)"/>
<path d="M6.46154 7C6.59774 7.045 6.68523 7.10648 6.78921 7.18752C6.82221 7.21315 6.8552 7.23879 6.8892 7.2652C6.94048 7.3055 6.94048 7.3055 6.99279 7.34662C7.02653 7.37279 7.06027 7.39897 7.09503 7.42593C7.23816 7.53764 7.37837 7.64972 7.51101 7.76898C7.65841 7.90043 7.81524 8.0234 7.97461 8.14607C8.00411 8.1689 8.03361 8.19172 8.064 8.21524C8.15716 8.2873 8.25045 8.35925 8.34375 8.43119C8.40739 8.48038 8.47101 8.52956 8.53463 8.57876C8.68965 8.69861 8.84478 8.81838 9 8.93807C8.9445 9.02794 8.88977 9.09028 8.79778 9.1603C8.77373 9.17875 8.74968 9.1972 8.72491 9.21621C8.69987 9.23512 8.67483 9.25403 8.64904 9.27351C8.6237 9.29288 8.59837 9.31225 8.57227 9.33221C8.50989 9.37987 8.44733 9.42738 8.38462 9.47477C7.8168 9.25467 7.4489 8.80901 7 8.46101C7 11.7867 7 15.1125 7 18.539C7.43154 18.2044 7.86308 17.8699 8.30769 17.5252C8.43742 17.5755 8.49744 17.6055 8.59435 17.682C8.63005 17.71 8.63005 17.71 8.66647 17.7385C8.69086 17.7579 8.71525 17.7773 8.74039 17.7973C8.76537 17.8169 8.79036 17.8366 8.81611 17.8568C8.87758 17.9052 8.93887 17.9537 9 18.0023C8.94666 18.0955 8.88491 18.1583 8.79151 18.2298C8.76467 18.2506 8.73782 18.2713 8.71016 18.2926C8.68112 18.3147 8.65207 18.3368 8.62215 18.3596C8.59216 18.3827 8.56217 18.4058 8.53128 18.4296C8.4353 18.5035 8.33906 18.5772 8.24279 18.6508C8.14723 18.7241 8.05174 18.7973 7.95636 18.8707C7.89705 18.9163 7.83763 18.9619 7.7781 19.0073C7.62162 19.1275 7.47302 19.2507 7.32929 19.3801C7.25079 19.4499 7.1678 19.5155 7.08308 19.5807C7.05098 19.6055 7.01888 19.6303 6.9858 19.6558C6.9532 19.6808 6.92061 19.7059 6.88702 19.7317C6.85338 19.7576 6.81974 19.7835 6.78508 19.8103C6.70296 19.8736 6.62076 19.9368 6.53846 20C6.40618 19.9558 6.3204 19.8979 6.2192 19.819C6.18794 19.7947 6.15668 19.7704 6.12447 19.7454C6.09212 19.72 6.05977 19.6945 6.02644 19.6683C5.99454 19.6435 5.96263 19.6188 5.92976 19.5933C5.79154 19.4854 5.65658 19.3769 5.52851 19.2616C5.37815 19.1276 5.21795 19.0023 5.05544 18.8772C5.00991 18.842 5.00991 18.842 4.96346 18.806C4.86756 18.7319 4.77152 18.6578 4.67548 18.5837C4.60999 18.5331 4.54451 18.4825 4.47904 18.4318C4.31946 18.3085 4.15977 18.1852 4 18.0619C4.0555 17.9721 4.11023 17.9097 4.20222 17.8397C4.22627 17.8213 4.25032 17.8028 4.27509 17.7838C4.30013 17.7649 4.32517 17.746 4.35096 17.7265C4.3763 17.7071 4.40163 17.6877 4.42773 17.6678C4.49011 17.6201 4.55267 17.5726 4.61538 17.5252C5.1832 17.7453 5.5511 18.191 6 18.539C6 15.2133 6 11.8875 6 8.46101C5.56846 8.79555 5.13692 9.13009 4.69231 9.47477C4.56258 9.42449 4.50256 9.39452 4.40565 9.318C4.38185 9.29936 4.35805 9.28072 4.33353 9.26151C4.30914 9.2421 4.28475 9.22269 4.25962 9.20269C4.23463 9.18305 4.20964 9.16341 4.18389 9.14318C4.12242 9.09482 4.06113 9.04633 4 8.99771C4.05645 8.89651 4.12891 8.83103 4.22967 8.75373C4.26114 8.72944 4.2926 8.70514 4.32502 8.68011C4.35912 8.65409 4.39321 8.62806 4.42834 8.60124C4.48199 8.55988 4.53565 8.51852 4.5893 8.47715C4.66453 8.41922 4.73994 8.36143 4.81534 8.30364C4.94653 8.20307 5.07754 8.10236 5.20841 8.00154C5.27799 7.94796 5.34768 7.89445 5.41749 7.84104C5.586 7.71143 5.74882 7.58025 5.90265 7.44005C6.00539 7.34857 6.11696 7.26397 6.22837 7.1789C6.26231 7.15278 6.26232 7.15278 6.29695 7.12614C6.35172 7.08402 6.40662 7.042 6.46154 7Z" stroke="black" stroke-width="0.4" mask="url(#path-1-inside-1_37_668)"/>
</svg>
