<svg width="24" height="13" viewBox="0 0 24 13" fill="none" xmlns="http://www.w3.org/2000/svg">
<path d="M1.78125 6.51562C1.85199 6.34963 1.94865 6.243 2.07605 6.11627C2.11635 6.07606 2.15666 6.03585 2.19818 5.99442C2.26154 5.93192 2.26154 5.93192 2.32617 5.86816C2.36732 5.82704 2.40847 5.78593 2.45087 5.74356C2.62649 5.56912 2.80269 5.39824 2.99018 5.23659C3.19682 5.05694 3.39015 4.86581 3.58301 4.67157C3.61889 4.63562 3.65478 4.59967 3.69175 4.56263C3.80503 4.44909 3.91814 4.33539 4.03125 4.22168C4.10857 4.14412 4.1859 4.06658 4.26324 3.98904C4.45166 3.80011 4.63995 3.61105 4.82812 3.42188C4.96941 3.48952 5.06741 3.55622 5.17749 3.66833C5.20649 3.69764 5.2355 3.72695 5.26538 3.75714C5.29511 3.78766 5.32484 3.81817 5.35547 3.84961C5.38592 3.88049 5.41638 3.91136 5.44775 3.94318C5.52268 4.0192 5.59737 4.09544 5.67188 4.17188C5.32586 4.86391 4.62522 5.31228 4.07812 5.85938C9.30656 5.85938 14.535 5.85938 19.9219 5.85938C19.3959 5.33344 18.87 4.8075 18.3281 4.26562C18.4072 4.10752 18.4543 4.03437 18.5746 3.91626C18.6185 3.87275 18.6185 3.87275 18.6634 3.82837C18.6939 3.79864 18.7244 3.76891 18.7559 3.73828C18.7867 3.70783 18.8176 3.67737 18.8494 3.646C18.9255 3.57107 19.0017 3.49638 19.0781 3.42188C19.2247 3.48688 19.3234 3.56215 19.4359 3.67597C19.4684 3.70869 19.501 3.74141 19.5345 3.77512C19.5693 3.81051 19.6041 3.84591 19.6399 3.88239C19.6762 3.91893 19.7125 3.95548 19.7499 3.99313C19.866 4.11011 19.9819 4.22739 20.0977 4.34473C20.2128 4.46118 20.328 4.57757 20.4434 4.69382C20.5151 4.7661 20.5867 4.83851 20.6582 4.91107C20.8471 5.10177 21.0408 5.28289 21.2442 5.45805C21.3539 5.55373 21.457 5.65487 21.5596 5.75812C21.5985 5.79724 21.6375 5.83637 21.6777 5.87668C21.717 5.91641 21.7563 5.95614 21.7969 5.99707C21.8377 6.03807 21.8784 6.07907 21.9205 6.12131C22.02 6.22139 22.1194 6.32158 22.2188 6.42188C22.1493 6.58309 22.0582 6.68763 21.9342 6.81097C21.896 6.84907 21.8578 6.88717 21.8185 6.92642C21.7785 6.96585 21.7385 7.00528 21.6973 7.0459C21.6584 7.08478 21.6194 7.12367 21.5793 7.16373C21.4097 7.33219 21.2391 7.49667 21.058 7.65276C20.8473 7.83601 20.6503 8.03125 20.4536 8.22931C20.3982 8.2848 20.3982 8.2848 20.3417 8.3414C20.2251 8.45829 20.1086 8.57533 19.9922 8.69238C19.9126 8.7722 19.833 8.852 19.7534 8.93179C19.5594 9.12628 19.3656 9.3209 19.1719 9.51562C19.0306 9.44798 18.9326 9.38128 18.8225 9.26917C18.7935 9.23986 18.7645 9.21055 18.7346 9.18036C18.7049 9.14984 18.6752 9.11933 18.6445 9.08789C18.6141 9.05701 18.5836 9.02614 18.5522 8.99432C18.4773 8.9183 18.4026 8.84206 18.3281 8.76562C18.6741 8.07359 19.3748 7.62522 19.9219 7.07812C14.6934 7.07812 9.465 7.07812 4.07812 7.07812C4.60406 7.60406 5.13 8.13 5.67188 8.67188C5.59282 8.82998 5.54571 8.90313 5.42542 9.02124C5.39611 9.05024 5.3668 9.07925 5.33661 9.10913C5.30609 9.13886 5.27558 9.16859 5.24414 9.19922C5.21326 9.22967 5.18239 9.26013 5.15057 9.2915C5.07455 9.36643 4.99831 9.44112 4.92188 9.51562C4.76278 9.44683 4.65984 9.35851 4.53831 9.23571C4.50012 9.19736 4.46193 9.15901 4.42258 9.1195C4.38166 9.07795 4.34074 9.0364 4.29858 8.99359C4.23356 8.92819 4.16854 8.8628 4.10351 8.79741C4.01243 8.70572 3.92158 8.61383 3.83072 8.52193C3.67261 8.36204 3.51429 8.20237 3.35578 8.04288C3.27155 7.95807 3.18743 7.87314 3.10347 7.78806C2.89971 7.58269 2.69347 7.38425 2.47305 7.19677C2.32925 7.07156 2.19625 6.93558 2.0625 6.7998C2.02144 6.75843 2.02144 6.75843 1.97955 6.71622C1.91334 6.64946 1.84728 6.58256 1.78125 6.51562Z" fill="#F3F3F3"/>
<path d="M22.875 12.9375C22.875 8.66813 22.875 4.39875 22.875 0C23.2463 0 23.6175 0 24 0C24 4.26937 24 8.53875 24 12.9375C23.6287 12.9375 23.2575 12.9375 22.875 12.9375Z" fill="#F3F3F3"/>
<path d="M0 12.9375C0 8.66813 0 4.39875 0 0C0.37125 0 0.7425 0 1.125 0C1.125 4.26937 1.125 8.53875 1.125 12.9375C0.75375 12.9375 0.3825 12.9375 0 12.9375Z" fill="#F3F3F3"/>
</svg>
