<svg width="24" height="21" viewBox="0 0 24 21" fill="none" xmlns="http://www.w3.org/2000/svg">
<path d="M20.7493 0.327983C20.8838 0.427475 21.0058 0.539274 21.1301 0.650796C21.7046 1.12263 22.3715 1.29834 23.0993 1.35927C23.2909 1.39855 23.3805 1.45998 23.5197 1.59347C23.6106 1.77292 23.6069 1.95075 23.5703 2.14308C23.4686 2.33847 23.3476 2.51562 23.2163 2.69268C23.113 2.64168 23.0097 2.59067 22.9065 2.53967C22.8747 2.52407 22.843 2.50847 22.8103 2.4924C22.6455 2.41125 22.4811 2.32936 22.3177 2.24535C22.2717 2.22197 22.2717 2.22197 22.2249 2.19813C22.1396 2.15473 22.0546 2.11095 21.9696 2.06716C21.3504 1.797 20.5749 1.79782 19.942 2.02305C19.0516 2.38287 19.0516 2.38287 18.459 3.09434C18.4025 3.26919 18.3949 3.42446 18.3891 3.60765C18.3763 3.9256 18.3763 3.9256 18.2279 4.07918C18.2009 4.09541 18.1739 4.11164 18.1461 4.12836C17.8963 4.30599 17.6875 4.65149 17.6019 4.94106C17.6025 5.07248 17.6069 5.20049 17.6146 5.3314C17.6228 5.58205 17.62 5.77109 17.4565 5.97469C17.4295 6.00167 17.4025 6.02866 17.3747 6.05646C17.1888 6.26054 17.1846 6.47493 17.1878 6.73976C17.1881 6.79953 17.1885 6.8593 17.1888 6.92088C17.1915 7.08559 17.1915 7.08559 17.2319 7.22574C17.2479 7.33932 17.2479 7.33932 17.1918 7.42793C17.1644 7.45434 17.137 7.48075 17.1088 7.50795C16.8591 7.77291 16.7428 8.07465 16.7421 8.43853C16.7804 8.83057 16.9433 9.16451 17.2416 9.42844C17.6153 9.68686 17.9798 9.73717 18.4241 9.74701C18.7972 9.7574 19.087 9.77527 19.3722 10.0374C19.3986 10.0611 19.4249 10.0849 19.452 10.1094C19.512 10.1665 19.569 10.2265 19.6251 10.2872C19.6605 10.2692 19.6958 10.2511 19.7322 10.2325C19.7782 10.2094 19.8243 10.1862 19.8717 10.1623C19.9175 10.1391 19.9632 10.1159 20.0104 10.092C20.1309 10.0374 20.1309 10.0374 20.2321 10.0374C19.9342 9.53578 19.5835 9.25761 19.0182 9.08806C18.77 9.05161 18.5208 9.04461 18.2703 9.03585C17.9434 9.01724 17.7764 8.97935 17.5514 8.73831C17.4572 8.55222 17.4719 8.34135 17.5008 8.13875C17.5853 7.98257 17.6923 7.8693 17.8548 7.789C19.4574 7.6873 21.1907 7.93486 22.4821 8.96374C22.6893 9.16474 22.7917 9.40066 22.8128 9.68587C22.8088 10.0283 22.6957 10.2352 22.4654 10.4869C22.2757 10.6611 22.0567 10.766 21.8253 10.8774C21.7751 10.9024 21.7249 10.9274 21.6732 10.9531C21.5137 11.032 21.3535 11.1094 21.1931 11.1865C21.1388 11.2129 21.0845 11.2392 21.0286 11.2663C20.7741 11.3896 20.5191 11.5119 20.2631 11.6321C20.2228 11.6511 20.1825 11.67 20.1411 11.6895C19.3487 12.0213 18.3355 11.6901 17.5438 11.5186C17.367 11.4806 17.19 11.4437 17.013 11.4066C16.6779 11.3364 16.3431 11.2653 16.0083 11.1938C15.4109 11.0662 14.8132 10.9398 14.2153 10.8141C14.0066 10.7702 13.798 10.7259 13.5895 10.6811C12.9327 10.5404 12.2802 10.408 11.6118 10.3335C11.5699 10.3287 11.528 10.3238 11.4848 10.3189C11.4486 10.3151 11.4123 10.3113 11.375 10.3074C11.2795 10.2872 11.2795 10.2872 11.1277 10.1873C11.5259 9.75155 11.9569 9.42346 12.4515 9.09997C12.7175 8.92574 12.972 8.73836 13.2258 8.5474C13.4194 8.40177 13.6155 8.26112 13.8148 8.12313C14.1977 7.84694 14.4528 7.55333 14.5672 7.08951C14.6232 6.63874 14.5877 6.26427 14.3143 5.89037C14.0935 5.64233 13.8058 5.52612 13.486 5.45006C12.6824 5.409 11.9461 6.06965 11.3388 6.52135C10.5529 7.08648 9.76227 7.31798 8.83354 7.5404C8.53675 7.61198 8.24098 7.68761 7.94511 7.7628C7.84381 7.78821 7.74231 7.8127 7.64073 7.837C6.6451 8.08286 5.75664 8.52137 5.19847 9.41283C5.06035 9.64326 4.9309 9.87614 4.82512 10.1229C4.80189 10.1771 4.77865 10.2313 4.75471 10.2872C3.71674 10.3662 2.67861 10.4423 1.63991 10.5114C1.53982 10.518 1.43973 10.5247 1.33965 10.5315C1.1987 10.5409 1.05775 10.5502 0.916788 10.5595C0.875246 10.5623 0.833703 10.5651 0.790902 10.568C0.75182 10.5705 0.712738 10.573 0.672472 10.5756C0.638926 10.5778 0.60538 10.58 0.570817 10.5823C0.414465 10.5886 0.257874 10.587 0.101389 10.587C0.101389 8.22918 0.101389 5.87139 0.101389 3.44214C0.809504 3.54207 0.809504 3.54207 0.910663 3.59203C0.910663 3.62501 0.910663 3.65798 0.910663 3.69196C0.981128 3.68995 0.981128 3.68995 1.05302 3.6879C1.56857 3.67978 2.06447 3.72273 2.5751 3.7902C2.8009 3.81999 3.02691 3.84809 3.25293 3.8762C3.29825 3.88186 3.34356 3.88752 3.39025 3.89335C3.83689 3.94844 4.28433 3.99233 4.73258 4.03234C4.78525 4.03705 4.78525 4.03705 4.83898 4.04186C5.03003 4.05888 5.22112 4.07549 5.41225 4.09167C5.41225 4.12465 5.41225 4.15762 5.41225 4.1916C6.29731 4.18857 7.18235 4.1847 8.0674 4.17982C8.47835 4.17758 8.8893 4.17561 9.30026 4.17429C9.65848 4.17314 10.0167 4.17147 10.3749 4.16918C10.5646 4.16798 10.7542 4.16705 10.9438 4.16674C11.1557 4.16638 11.3674 4.16486 11.5792 4.16324C11.642 4.16331 11.7047 4.16338 11.7694 4.16346C12.1581 4.15925 12.4173 4.10956 12.7204 3.85786C12.7515 3.83237 12.7826 3.80688 12.8147 3.78062C12.8474 3.75342 12.8801 3.72622 12.9138 3.6982C14.0829 2.74417 15.3105 1.87469 16.6915 1.24373C16.7336 1.22429 16.7758 1.20486 16.8192 1.18483C19.8529 -0.202561 19.8529 -0.202561 20.7493 0.327983Z" fill="#F3F3F3"/>
<path d="M13.5556 6.19016C13.7007 6.27979 13.7827 6.33918 13.859 6.48994C13.8847 6.74443 13.8927 6.96745 13.7832 7.20192C13.4923 7.51802 13.156 7.76321 12.7969 7.99822C12.3788 8.27613 11.9727 8.56648 11.5733 8.86988C11.5127 8.91509 11.4514 8.95928 11.3892 9.00236C11.0885 9.21372 10.8325 9.46613 10.574 9.72471C10.4978 9.80086 10.4213 9.8766 10.3446 9.95228C10.0369 10.2218 10.0369 10.2218 9.90119 10.5839C9.90018 10.7347 9.90018 10.7347 9.98022 10.8274C10.1576 10.9507 10.3318 10.9433 10.5419 10.9487C10.9795 10.9607 11.4098 10.9955 11.8424 11.0618C11.8974 11.0703 11.9524 11.0787 12.0091 11.0874C12.869 11.2248 13.7203 11.4097 14.5722 11.5882C14.7616 11.6277 14.951 11.6668 15.1405 11.7058C15.3238 11.7437 15.5071 11.7818 15.6903 11.82C15.7774 11.8382 15.8645 11.8562 15.9516 11.8742C16.0722 11.8991 16.1928 11.9244 16.3133 11.9498C16.3666 11.9607 16.3666 11.9607 16.4209 11.9718C16.5916 12.0082 16.7424 12.0488 16.8938 12.1359C16.7099 12.4034 16.5243 12.6697 16.3374 12.9353C16.3167 12.9651 16.2959 12.9949 16.2746 13.0255C15.8437 13.6405 15.3598 14.0486 14.6121 14.2098C14.2996 14.2623 13.9821 14.2744 13.666 14.2935C13.587 14.2985 13.508 14.3035 13.429 14.3086C13.2617 14.3193 13.0944 14.3298 12.927 14.3401C12.6662 14.3561 12.4054 14.3728 12.1446 14.3895C11.3761 14.4385 10.6075 14.4857 9.83856 14.5285C9.72541 14.5349 9.61227 14.5413 9.49913 14.5478C9.29582 14.5594 9.09248 14.5701 8.88909 14.5803C8.79929 14.5853 8.7095 14.5903 8.61971 14.5954C8.58037 14.5971 8.54104 14.5988 8.50051 14.6006C8.15843 14.6213 7.92686 14.7252 7.69465 14.9713C7.56341 15.1064 7.43106 15.2339 7.28685 15.3554C7.1356 15.4838 6.99381 15.618 6.85377 15.7582C6.68376 15.9285 6.50795 16.0867 6.32426 16.2423C6.20957 16.3434 6.10186 16.4496 5.99391 16.5577C5.82391 16.7279 5.6481 16.8862 5.46441 17.0417C5.34971 17.1428 5.24201 17.249 5.13406 17.3571C4.96405 17.5273 4.78825 17.6856 4.60455 17.8411C4.48986 17.9422 4.38215 18.0484 4.27421 18.1565C4.1042 18.3267 3.92839 18.485 3.7447 18.6405C3.63 18.7416 3.5223 18.8478 3.41435 18.9559C3.24435 19.1262 3.06854 19.2844 2.88485 19.44C2.77015 19.5411 2.66245 19.6473 2.5545 19.7554C2.38469 19.9254 2.20915 20.0835 2.02559 20.2388C1.86897 20.3769 1.72335 20.5253 1.57709 20.674C1.54077 20.7089 1.50446 20.7437 1.46704 20.7796C1.43484 20.8145 1.40264 20.8494 1.36947 20.8854C1.13385 21.0281 0.912379 21.0009 0.641958 20.992C0.590026 20.9911 0.538094 20.9902 0.484588 20.9892C0.356807 20.9869 0.229122 20.9836 0.101389 20.9795C0.0824358 20.2781 0.0682451 19.5767 0.0594591 18.8751C0.0552412 18.5493 0.0495244 18.2236 0.0403374 17.8979C0.0315207 17.5833 0.026701 17.2689 0.0246069 16.9542C0.0231155 16.8344 0.0202025 16.7146 0.015824 16.5948C-0.0162581 15.6807 -0.0162579 15.6807 0.179583 15.4355C0.369199 15.2724 0.579014 15.1698 0.810524 15.0767C0.961566 15.0119 1.09066 14.9254 1.22718 14.8347C1.2759 14.8038 1.32461 14.773 1.37481 14.7412C1.42402 14.71 1.47323 14.6787 1.52394 14.6465C1.63346 14.5772 1.74298 14.5078 1.85251 14.4385C1.90655 14.4043 1.9606 14.3701 2.01628 14.3348C2.21194 14.2111 2.4078 14.0877 2.60392 13.9647C2.69515 13.9072 2.78616 13.8494 2.87692 13.7913C3.10938 13.643 3.34293 13.5037 3.58684 13.3744C4.28402 12.9947 4.57617 12.6491 4.84036 11.9134C4.96301 11.5845 5.10503 11.2634 5.24488 10.9413C5.29412 10.827 5.34222 10.7123 5.39011 10.5974C5.7279 9.79628 6.18955 9.08868 7.0308 8.73831C7.56563 8.54501 8.12597 8.41811 8.67727 8.2795C8.89208 8.22525 9.10662 8.16996 9.32116 8.11463C9.48038 8.07407 9.63995 8.0351 9.79958 7.99615C10.3962 7.84575 10.8849 7.65981 11.3866 7.30597C11.518 7.21407 11.6526 7.12732 11.7872 7.04007C11.9538 6.93177 12.1192 6.8216 12.2848 6.71165C12.3865 6.6442 12.4882 6.57678 12.59 6.50943C12.6524 6.46813 12.7148 6.42676 12.7771 6.38532C13.0494 6.20494 13.2268 6.14808 13.5556 6.19016Z" fill="#F3F3F3"/>
<path d="M19.6314 5.76858C19.6826 5.769 19.7337 5.76941 19.7864 5.76984C20.7481 5.79111 21.5436 6.17773 22.2754 6.77416C22.3578 6.84082 22.4414 6.90571 22.5253 6.97045C22.8649 7.23559 23.1006 7.43656 23.2099 7.86082C23.2176 8.07537 23.1771 8.23337 23.1151 8.43853C22.8914 8.43853 22.8679 8.42048 22.701 8.29176C21.3673 7.34112 19.7 6.99726 18.0767 7.04091C17.956 7.03954 17.956 7.03954 17.9054 6.98958C17.8951 6.88418 17.8951 6.88418 17.8928 6.75225C17.8915 6.70923 17.8902 6.6662 17.8888 6.62187C17.9095 6.45775 17.9558 6.37149 18.0572 6.24012C18.1777 6.15542 18.1777 6.15542 18.3164 6.08398C18.3614 6.06015 18.4063 6.03632 18.4527 6.01177C18.8524 5.83423 19.1919 5.76397 19.6314 5.76858Z" fill="#F3F3F3"/>
<path d="M19.6795 4.18275C19.7195 4.18211 19.7596 4.18147 19.8008 4.18081C19.8437 4.18044 19.8866 4.18007 19.9308 4.17969C19.9754 4.17929 20.0201 4.17889 20.0661 4.17847C20.1606 4.17778 20.2551 4.17724 20.3496 4.17685C20.4457 4.17628 20.5418 4.17526 20.6379 4.17378C20.7773 4.17163 20.9167 4.17084 21.0562 4.17032C21.0985 4.16945 21.1409 4.16858 21.1846 4.16767C21.5677 4.16905 21.915 4.2823 22.1988 4.54544C22.2316 4.57563 22.2645 4.60581 22.2984 4.63691C22.3521 4.68853 22.3521 4.68853 22.407 4.7412C22.4498 4.78187 22.4925 4.82253 22.5366 4.86443C22.6778 5.00028 22.8176 5.13752 22.9571 5.27519C23.0055 5.32246 23.054 5.36972 23.1025 5.41698C23.1711 5.48466 23.1711 5.48466 23.2412 5.5537C23.2826 5.59439 23.324 5.63507 23.3666 5.67699C23.5494 5.87915 23.5843 6.02081 23.583 6.29008C23.5834 6.36737 23.5834 6.36737 23.5838 6.44622C23.5706 6.58717 23.5427 6.66988 23.4692 6.78972C23.2557 6.70404 23.1018 6.55452 22.9318 6.40562C21.9614 5.57424 20.7696 4.96424 19.4477 5.05211C19.0574 5.08818 18.679 5.1565 18.31 5.2908C18.3162 5.00093 18.4012 4.84834 18.6015 4.63776C18.9073 4.37731 19.2719 4.18848 19.6795 4.18275Z" fill="#F3F3F3"/>
<path d="M20.8643 2.57714C20.9024 2.57569 20.9405 2.57424 20.9797 2.57275C21.5584 2.56647 22.0385 2.8524 22.5271 3.12987C22.5824 3.16097 22.6377 3.19207 22.6947 3.22412C22.852 3.31294 23.0089 3.40244 23.1657 3.4921C23.2051 3.51436 23.2446 3.53662 23.2852 3.55956C23.3786 3.61236 23.4714 3.66593 23.564 3.72006C23.6119 3.74795 23.6597 3.77584 23.709 3.80457C23.8817 3.93648 23.9611 4.06323 23.9987 4.27572C24.0035 4.69285 24.0035 4.69285 23.8485 4.87548C23.7859 4.93267 23.7859 4.93267 23.7221 4.99102C23.506 4.81482 23.3046 4.63117 23.1108 4.43134C22.5107 3.81429 21.8762 3.4699 20.9997 3.43674C20.8428 3.43364 20.6861 3.43268 20.5292 3.43277C20.4462 3.43272 20.4462 3.43272 20.3614 3.43267C19.9397 3.43538 19.5343 3.46742 19.1193 3.54207C19.1289 3.33882 19.1536 3.25894 19.2989 3.11035C19.4806 2.97639 19.6788 2.88985 19.8875 2.8051C19.9414 2.7824 19.9414 2.7824 19.9965 2.75923C20.2979 2.63316 20.5385 2.58111 20.8643 2.57714Z" fill="#F3F3F3"/>
</svg>
