<svg width="270" height="339" viewBox="0 0 270 339" fill="none" xmlns="http://www.w3.org/2000/svg">
<path d="M133.451 0C133.451 0 136.773 0.00376968 139.061 0.221222C139.145 0.229218 139.229 0.237219 139.316 0.245458C141.954 0.50795 144.465 1.05444 147.032 1.69592C147.199 1.7367 147.199 1.7367 147.369 1.7783C151.247 2.73037 155.151 4.02516 158.719 5.83651C159.001 5.97831 159.285 6.11433 159.57 6.24961C165.356 9.02232 170.221 13.0826 172.433 19.242C172.808 20.3635 173.133 21.4993 173.456 22.6366C173.649 23.3073 173.842 23.9778 174.036 24.6482C174.092 24.8428 174.148 25.0375 174.204 25.2321C174.624 26.6939 175.078 28.1411 175.575 29.5789C175.804 30.2455 176.013 30.9091 176.191 31.5913C176.366 32.2457 176.584 32.8201 176.879 33.4295C176.924 33.5212 176.968 33.6128 177.013 33.7073C177.107 33.9005 177.201 34.0934 177.296 34.286C177.445 34.5867 177.59 34.8885 177.736 35.1905C178.306 36.3651 178.919 37.4823 179.656 38.5633C179.736 38.6819 179.816 38.8005 179.899 38.9227C180.97 40.4832 182.123 41.9452 183.417 43.3255C183.726 43.6564 184.028 43.9911 184.325 44.333C184.445 44.4707 184.445 44.4707 184.568 44.6112C184.755 44.8264 184.942 45.0419 185.129 45.2576C185.909 46.1423 186.731 46.9406 187.628 47.7063C187.754 47.8139 187.88 47.9215 188.01 48.0324C189.27 49.0849 190.598 50.041 191.973 50.938C193.368 51.8481 194.644 52.8005 195.895 53.9001C196.025 54.0025 196.155 54.105 196.288 54.2106C196.588 54.4534 196.828 54.6857 197.076 54.9784C197.413 55.3737 197.751 55.7671 198.097 56.1553C199.258 57.4667 200.323 58.8283 201.357 60.2412C201.618 60.5967 201.88 60.952 202.141 61.3073C202.319 61.5482 202.496 61.7893 202.673 62.0304C203.174 62.7095 203.68 63.3823 204.198 64.0478C204.813 64.8404 205.399 65.6491 205.979 66.4672C206.259 66.8625 206.542 67.2553 206.828 67.647C208.148 69.4591 209.428 71.2964 210.668 73.1644C211.04 73.7229 211.425 74.2699 211.819 74.813C212.378 75.5883 212.916 76.3742 213.442 77.1714C213.812 77.7257 214.19 78.2742 214.569 78.8224C215.033 79.4945 215.493 80.1684 215.943 80.8501C217.054 82.5231 218.222 84.1592 219.394 85.7903C220.568 87.4288 221.708 89.0846 222.789 90.7858C222.917 90.9824 222.917 90.9824 223.047 91.183C223.368 91.6945 223.62 92.1406 223.777 92.7254C223.562 93.3918 223.021 93.6033 222.429 93.9287C222.307 93.9991 222.185 94.0695 222.06 94.1421C221.815 94.2828 221.57 94.4223 221.324 94.5604C220.906 94.7962 220.497 95.045 220.086 95.2928C219.131 95.8447 218.144 96.3292 217.154 96.8145C216.876 96.9517 216.598 97.0907 216.321 97.2307C213.778 98.5144 211.214 99.7571 208.606 100.904C207.597 101.354 206.621 101.862 205.651 102.39C205.541 102.449 205.432 102.509 205.319 102.57C205.176 102.648 205.176 102.648 205.029 102.729C204.743 102.864 204.471 102.941 204.161 103.007C204.161 103.153 204.161 103.299 204.161 103.45C204.264 103.487 204.366 103.524 204.472 103.563C204.957 103.769 205.382 104.022 205.831 104.298C207.005 105.011 208.191 105.702 209.379 106.392C210.057 106.785 210.732 107.181 211.402 107.587C212.168 108.048 212.951 108.473 213.738 108.897C214.719 109.428 215.694 109.965 216.654 110.533C217.376 110.954 218.104 111.363 218.831 111.773C219.129 111.94 219.426 112.108 219.724 112.276C220.107 112.492 220.489 112.708 220.872 112.923C222.669 113.937 224.419 115.02 226.157 116.132C226.108 117.546 225.843 118.801 225.428 120.151C225.322 120.505 225.216 120.859 225.11 121.213C225.035 121.463 225.035 121.463 224.959 121.718C224.82 122.209 224.71 122.701 224.605 123.2C224.474 123.757 224.277 124.292 224.09 124.833C223.446 126.787 222.835 128.749 222.267 130.726C221.907 131.97 221.514 133.203 221.115 134.436C220.799 135.414 220.498 136.394 220.211 137.381C219.08 141.279 219.08 141.279 218.35 143.068C218.026 143.87 217.753 144.684 217.484 145.506C217.072 146.754 216.652 147.998 216.22 149.239C216.172 149.377 216.124 149.515 216.075 149.657C215.804 150.431 215.523 151.2 215.233 151.967C215.137 152.231 215.042 152.495 214.947 152.76C214.757 153.284 214.558 153.802 214.347 154.317C214.067 155.005 213.836 155.704 213.613 156.412C213.461 156.834 213.461 156.834 213.244 157.263C212.999 157.759 212.834 158.251 212.668 158.778C212.403 159.601 212.099 160.382 211.721 161.16C211.576 161.478 211.451 161.791 211.33 162.118C211.111 162.712 210.86 163.288 210.601 163.866C210.208 164.753 209.845 165.647 209.502 166.556C209.079 167.66 208.606 168.744 208.138 169.829C207.888 170.41 207.642 170.992 207.409 171.581C206.771 173.193 206.056 174.775 205.342 176.355C204.805 177.545 204.273 178.737 203.751 179.934C203.682 180.092 203.682 180.092 203.611 180.254C203.388 180.765 203.166 181.276 202.945 181.788C202.545 182.708 202.134 183.618 201.678 184.511C201.374 185.108 201.09 185.714 200.803 186.318C199.117 189.846 197.403 193.358 195.657 196.856C195.492 197.186 195.328 197.517 195.163 197.847C194.259 199.665 193.335 201.468 192.351 203.244C191.926 204.011 191.52 204.784 191.134 205.572C190.776 206.3 190.399 207.01 189.99 207.711C189.571 208.43 189.185 209.157 188.818 209.904C188.221 211.117 187.563 212.29 186.89 213.462C186.585 213.993 186.281 214.525 185.976 215.056C185.861 215.257 185.861 215.257 185.744 215.461C185.133 216.529 184.537 217.602 183.964 218.691C183.314 219.927 182.621 221.127 181.895 222.32C181.603 222.803 181.317 223.289 181.031 223.775C180.971 223.878 180.911 223.98 180.849 224.085C180.483 224.707 180.119 225.33 179.756 225.954C178.044 228.894 176.292 231.804 174.48 234.685C174.099 235.291 173.72 235.899 173.34 236.506C172.512 237.832 171.68 239.155 170.842 240.475C170.267 241.383 169.705 242.298 169.15 243.218C168.687 243.981 168.198 244.723 167.699 245.463C167.517 245.736 167.335 246.01 167.153 246.284C166.19 247.73 165.225 249.173 164.232 250.599C163.896 251.085 163.581 251.575 163.289 252.09C162.801 252.933 162.189 253.687 161.585 254.449C161.136 255.02 160.766 255.562 160.466 256.228C160.269 256.621 160.072 257.014 159.875 257.408C160.409 257.23 160.523 257.046 160.862 256.606C161.018 256.405 161.018 256.405 161.177 256.201C161.337 255.995 161.337 255.995 161.499 255.786C161.699 255.539 161.899 255.294 162.099 255.048C162.558 254.474 162.986 253.886 163.404 253.281C164.699 251.421 166.056 249.616 167.472 247.847C167.69 247.575 167.907 247.303 168.124 247.03C168.192 246.944 168.26 246.858 168.331 246.769C168.695 246.306 169.029 245.838 169.332 245.334C169.427 245.182 169.521 245.029 169.618 244.873C169.716 244.873 169.813 244.873 169.913 244.873C169.954 244.787 169.994 244.702 170.036 244.614C170.206 244.288 170.395 244.004 170.611 243.707C170.689 243.598 170.768 243.489 170.849 243.377C170.933 243.262 171.017 243.148 171.104 243.029C171.19 242.91 171.277 242.791 171.366 242.668C171.839 242.019 172.317 241.374 172.801 240.734C173.486 239.829 174.138 238.902 174.79 237.973C175.173 237.429 175.559 236.888 175.947 236.347C177.807 233.767 177.807 233.767 179.554 231.111C180.049 230.328 180.571 229.561 181.087 228.792C181.404 228.318 181.721 227.844 182.037 227.37C182.16 227.186 182.283 227.001 182.406 226.817C182.523 226.642 182.64 226.467 182.756 226.292C183.365 225.379 183.365 225.379 183.636 224.974C183.826 224.689 184.016 224.405 184.206 224.12C184.724 223.343 185.243 222.567 185.763 221.792C186.955 220.015 188.13 218.232 189.252 216.411C189.423 216.14 189.596 215.87 189.768 215.6C192.53 211.274 195.21 206.891 197.768 202.441C198.032 201.985 198.297 201.529 198.561 201.073C199.934 198.71 201.293 196.34 202.614 193.948C202.866 193.493 203.119 193.038 203.372 192.582C204.74 190.116 206.084 187.638 207.409 185.148C207.482 185.011 207.554 184.875 207.629 184.734C207.824 184.368 208.018 184.002 208.212 183.636C208.264 183.538 208.316 183.44 208.369 183.339C208.829 182.467 209.268 181.586 209.708 180.704C210.048 180.021 210.391 179.339 210.733 178.658C211.063 178.001 211.393 177.343 211.722 176.686C211.891 176.349 212.06 176.013 212.229 175.676C213.111 173.919 213.992 172.164 214.82 170.38C215.079 169.825 215.357 169.303 215.676 168.779C215.822 168.481 215.964 168.182 216.102 167.881C216.182 167.709 216.262 167.536 216.344 167.358C216.429 167.174 216.514 166.99 216.598 166.806C216.73 166.522 216.861 166.237 216.993 165.953C217.078 165.767 217.164 165.581 217.25 165.395C217.459 164.943 217.669 164.491 217.883 164.041C218.306 163.154 218.709 162.261 219.096 161.358C219.182 161.158 219.268 160.959 219.354 160.759C219.525 160.361 219.696 159.963 219.866 159.564C220.248 158.672 220.644 157.817 221.138 156.981C221.241 156.723 221.337 156.462 221.424 156.198C221.613 155.655 221.823 155.15 222.088 154.64C222.444 153.952 222.718 153.249 222.989 152.524C223.247 151.846 223.531 151.179 223.813 150.511C223.863 150.393 223.913 150.276 223.964 150.155C224.104 149.825 224.245 149.495 224.385 149.165C224.426 149.069 224.467 148.973 224.509 148.874C224.705 148.415 224.906 147.959 225.114 147.506C225.395 146.878 225.63 146.238 225.862 145.59C226.092 144.957 226.346 144.333 226.6 143.709C226.701 143.457 226.803 143.205 226.904 142.953C226.953 142.831 227.002 142.71 227.052 142.584C227.177 142.267 227.295 141.947 227.412 141.626C227.554 141.241 227.717 140.884 227.91 140.522C228.26 139.831 228.496 139.117 228.731 138.382C228.821 138.108 228.91 137.834 229 137.56C229.044 137.427 229.087 137.294 229.132 137.157C229.304 136.636 229.481 136.116 229.663 135.598C229.717 135.443 229.771 135.288 229.827 135.128C229.995 134.713 229.995 134.713 230.201 134.393C230.493 133.878 230.672 133.344 230.853 132.784C230.909 132.613 230.909 132.613 230.967 132.439C231.087 132.076 231.205 131.712 231.323 131.349C231.442 130.987 231.561 130.626 231.68 130.264C231.754 130.04 231.827 129.816 231.9 129.591C232.133 128.882 232.387 128.185 232.652 127.487C232.777 127.122 232.9 126.757 233.021 126.39C233.053 126.294 233.085 126.197 233.118 126.097C233.209 125.823 233.3 125.549 233.39 125.275C233.464 125.054 233.538 124.833 233.612 124.612C233.645 124.511 233.679 124.411 233.713 124.307C233.812 124.012 233.91 123.718 234.008 123.423C234.04 123.328 234.072 123.233 234.104 123.136C234.169 122.94 234.235 122.745 234.3 122.549C234.433 122.152 234.565 121.754 234.696 121.356C234.885 120.783 235.086 120.217 235.3 119.653C235.605 118.824 235.826 117.982 236.048 117.128C236.269 116.297 236.526 115.478 236.785 114.657C236.882 114.35 236.979 114.042 237.075 113.734C237.138 113.533 237.202 113.331 237.265 113.13C237.352 112.853 237.438 112.575 237.524 112.298C237.579 112.117 237.635 111.935 237.693 111.748C237.844 111.254 237.844 111.254 237.819 110.676C237.719 110.624 237.619 110.572 237.516 110.519C237.375 110.446 237.233 110.372 237.087 110.297C236.928 110.214 236.768 110.132 236.604 110.046C236.247 109.862 235.89 109.677 235.533 109.492C234.612 109.015 233.691 108.537 232.769 108.061C231.226 107.263 229.684 106.464 228.15 105.647C227.604 105.357 227.054 105.077 226.498 104.805C224.628 103.881 222.812 102.842 220.99 101.828C220.99 101.73 220.99 101.633 220.99 101.533C221.065 101.5 221.14 101.468 221.217 101.434C223.105 100.609 224.936 99.7131 226.747 98.7307C226.879 98.6593 227.012 98.5879 227.148 98.5144C228.516 97.7753 229.88 97.0293 231.231 96.2606C232.117 95.757 233.018 95.2914 233.934 94.8448C234.458 94.5892 234.963 94.3195 235.457 94.0117C235.378 93.457 235.252 93.1369 234.889 92.711C234.803 92.6085 234.717 92.5061 234.629 92.4005C234.537 92.2935 234.445 92.1864 234.35 92.0762C234.16 91.8513 233.97 91.6265 233.781 91.4016C233.688 91.2928 233.595 91.184 233.5 91.0719C233.171 90.6832 232.852 90.2881 232.532 89.8918C232.005 89.2475 231.456 88.6275 230.896 88.0121C230.441 87.5114 229.995 87.0024 229.552 86.4908C229.486 86.4147 229.42 86.3386 229.352 86.2601C228.554 85.3407 227.766 84.4207 227.027 83.4527C226.658 82.9858 226.269 82.5359 225.88 82.0851C224.915 80.9675 223.974 79.8337 223.067 78.669C222.364 77.7678 221.641 76.89 220.893 76.0263C220.449 75.5145 220.014 74.9977 219.588 74.472C218.869 73.5879 218.125 72.7252 217.381 71.8622C217.006 71.4269 216.631 70.9909 216.257 70.5549C216.184 70.4698 216.111 70.3847 216.035 70.297C215.603 69.7935 215.174 69.2878 214.746 68.7803C214.094 68.0056 213.431 67.2417 212.749 66.4926C212.533 66.2558 212.32 66.0177 212.107 65.7783C211.381 64.9595 210.625 64.1825 209.842 63.4182C209.476 63.0432 209.476 63.0431 209.151 62.6359C208.914 62.2945 208.914 62.2945 208.59 62.1583C208.59 62.0123 208.59 61.8663 208.59 61.7159C209.138 61.9106 209.537 62.1495 209.992 62.5086C211.15 63.3686 212.416 64.0406 213.671 64.7448C214.209 65.0489 214.739 65.3636 215.27 65.6792C216.449 66.3775 217.645 67.0452 218.842 67.7118C220.033 68.3753 221.218 69.0488 222.398 69.7319C222.518 69.8007 222.637 69.8694 222.76 69.9402C222.916 70.0306 222.916 70.0306 223.076 70.1227C223.371 70.2891 223.371 70.2891 223.795 70.4166C223.795 70.5139 223.795 70.6113 223.795 70.7115C223.911 70.7437 224.026 70.7759 224.145 70.809C224.859 71.0721 225.497 71.4357 226.159 71.806C227.804 72.7135 229.465 73.5824 231.139 74.4351C231.282 74.5079 231.424 74.5807 231.571 74.6557C234.218 76.0041 236.884 77.3022 239.59 78.5274C239.686 78.5707 239.781 78.6139 239.879 78.6585C244.58 80.7868 249.372 82.7108 254.253 84.3872C254.807 84.5779 255.361 84.7708 255.915 84.9642C258.041 85.7046 260.173 86.4152 262.324 87.0807C262.466 87.125 262.608 87.1692 262.754 87.2149C264.343 87.7101 265.929 88.1804 267.547 88.5686C268.375 88.7768 269.187 89.0313 270 89.2927C269.933 90.9535 269.733 92.5647 269.471 94.2048C269.341 95.042 269.229 95.8818 269.115 96.7213C269.089 96.9067 269.089 96.9067 269.062 97.0959C269.047 97.2053 269.032 97.3147 269.017 97.4275C268.967 97.6984 268.967 97.6984 268.819 97.9934C268.754 98.5017 268.699 99.01 268.647 99.5199C268.581 100.136 268.475 100.715 268.315 101.315C268.126 102.113 268.001 102.927 267.862 103.735C267.764 104.299 267.665 104.864 267.565 105.428C267.546 105.539 267.526 105.65 267.506 105.764C267.14 107.85 266.734 109.912 266.225 111.969C265.84 113.541 265.52 115.126 265.208 116.715C264.98 117.86 264.707 118.977 264.375 120.098C264.205 120.688 264.071 121.282 263.948 121.883C263.787 122.664 263.593 123.428 263.37 124.194C263.064 125.25 262.805 126.315 262.554 127.386C262.248 128.675 261.928 129.953 261.542 131.221C261.181 132.406 260.895 133.609 260.605 134.812C260.169 136.614 259.702 138.399 259.142 140.168C258.883 140.99 258.662 141.814 258.457 142.652C258.241 143.499 257.989 144.336 257.738 145.174C257.686 145.35 257.635 145.526 257.581 145.707C257.366 146.431 257.146 147.138 256.862 147.838C256.799 148.083 256.741 148.329 256.686 148.575C256.471 149.464 256.193 150.326 255.902 151.193C255.858 151.324 255.815 151.454 255.77 151.589C255.573 152.169 255.373 152.745 255.154 153.316C254.938 153.885 254.759 154.463 254.583 155.046C254.348 155.812 254.09 156.554 253.782 157.294C253.558 157.86 253.361 158.434 253.162 159.009C252.709 160.317 252.237 161.618 251.76 162.917C251.724 163.013 251.689 163.109 251.653 163.208C251.193 164.457 250.729 165.705 250.258 166.95C250.06 167.48 249.872 168.014 249.684 168.548C249.49 169.094 249.292 169.627 249.047 170.152C248.753 170.785 248.528 171.438 248.3 172.097C248.034 172.865 247.757 173.613 247.412 174.35C247.229 174.76 247.074 175.179 246.916 175.599C246.606 176.413 246.258 177.201 245.883 177.987C245.537 178.743 245.222 179.513 244.905 180.281C244.778 180.585 244.652 180.888 244.525 181.192C244.463 181.341 244.401 181.491 244.337 181.644C244.274 181.794 244.212 181.943 244.148 182.097C244.085 182.249 244.021 182.401 243.956 182.558C243.894 182.706 243.832 182.855 243.769 183.008C243.714 183.139 243.659 183.271 243.602 183.406C243.258 184.227 242.903 185.042 242.538 185.853C242.477 185.989 242.477 185.989 242.414 186.129C242.241 186.513 242.068 186.897 241.895 187.281C241.768 187.564 241.641 187.847 241.514 188.129C241.401 188.38 241.401 188.38 241.286 188.636C241.137 188.971 240.991 189.306 240.846 189.643C240.622 190.166 240.389 190.685 240.153 191.203C240.087 191.348 240.087 191.348 240.019 191.497C239.876 191.81 239.733 192.124 239.59 192.438C239.541 192.546 239.492 192.654 239.441 192.765C239.191 193.313 238.941 193.862 238.691 194.41C238.442 194.957 238.193 195.505 237.944 196.052C237.332 197.396 236.715 198.735 236.045 200.051C235.638 200.852 235.251 201.663 234.866 202.475C233.911 204.487 232.906 206.468 231.87 208.44C231.33 209.471 230.807 210.511 230.29 211.554C229.591 212.961 228.855 214.344 228.095 215.719C227.681 216.469 227.275 217.223 226.87 217.978C225.967 219.664 225.041 221.336 224.094 222.998C223.684 223.718 223.282 224.442 222.881 225.167C221.85 227.03 220.76 228.857 219.638 230.668C219.255 231.289 218.892 231.919 218.54 232.558C218.112 233.322 217.663 234.074 217.217 234.826C217.165 234.914 217.113 235.001 217.06 235.091C216.201 236.537 215.319 237.965 214.411 239.38C214.043 239.956 213.679 240.534 213.314 241.112C213.167 241.345 213.019 241.578 212.872 241.811C212.572 242.285 212.273 242.759 211.975 243.235C211.234 244.413 210.486 245.584 209.709 246.738C209.303 247.341 208.907 247.948 208.516 248.56C207.579 250.023 206.618 251.469 205.614 252.887C205.273 253.378 204.943 253.877 204.613 254.375C204.091 255.164 203.549 255.932 202.987 256.693C202.643 257.172 202.318 257.662 201.993 258.154C201.204 259.35 200.363 260.506 199.519 261.664C199.179 262.132 198.842 262.604 198.506 263.076C197.986 263.804 197.461 264.529 196.934 265.251C196.664 265.623 196.396 265.997 196.13 266.372C194.666 268.429 193.163 270.456 191.614 272.45C191.374 272.76 191.134 273.07 190.894 273.38C190.804 273.497 190.804 273.497 190.712 273.616C190.293 274.16 189.881 274.709 189.471 275.259C188.587 276.443 187.67 277.591 186.723 278.725C186.074 279.508 185.455 280.306 184.851 281.123C184.207 281.991 183.532 282.821 182.82 283.635C182.312 284.218 181.828 284.815 181.354 285.427C180.724 286.24 180.066 287.024 179.391 287.8C178.991 288.262 178.605 288.728 178.236 289.215C177.867 289.7 177.471 290.144 177.055 290.588C176.324 291.377 175.678 292.216 175.04 293.08C174.581 293.697 174.096 294.244 173.544 294.78C173.236 295.084 172.968 295.411 172.7 295.75C171.6 297.111 170.452 298.432 169.258 299.713C168.116 300.947 167.063 302.259 166.011 303.571C165.238 304.533 164.413 305.434 163.568 306.333C163.221 306.703 162.882 307.079 162.551 307.464C162.238 307.827 161.914 308.17 161.573 308.506C160.65 309.416 159.833 310.424 158.997 311.413C158.136 312.431 157.252 313.426 156.358 314.416C155.767 315.073 155.185 315.738 154.613 316.413C153.843 317.32 153.061 318.211 152.245 319.077C151.571 319.794 150.932 320.527 150.316 321.295C149.942 321.757 149.558 322.21 149.173 322.663C148.67 323.253 148.175 323.848 147.687 324.451C147.246 324.994 146.789 325.514 146.313 326.027C145.765 326.62 145.263 327.231 144.772 327.87C144.127 328.708 143.435 329.483 142.708 330.25C142.1 330.894 141.533 331.563 140.978 332.255C140.634 332.68 140.277 333.091 139.914 333.5C139.666 333.78 139.421 334.062 139.177 334.344C138.616 334.985 138.033 335.604 137.446 336.221C136.641 337.071 135.843 337.925 135.075 338.811C133.826 338.653 132.756 336.928 131.975 336.009C131.686 335.671 131.397 335.333 131.108 334.995C130.993 334.86 130.993 334.86 130.875 334.723C130.428 334.201 129.975 333.687 129.512 333.179C128.955 332.566 128.43 331.932 127.909 331.289C126.679 329.791 125.401 328.327 124.096 326.893C123.637 326.386 123.197 325.868 122.767 325.336C122.153 324.577 121.502 323.861 120.839 323.146C120.446 322.72 120.063 322.287 119.684 321.849C119.385 321.508 119.078 321.173 118.772 320.838C118.339 320.359 117.925 319.871 117.527 319.363C117.016 318.715 116.467 318.109 115.904 317.506C115.463 317.03 115.045 316.542 114.639 316.036C114.139 315.415 113.615 314.828 113.07 314.248C112.558 313.701 112.065 313.152 111.603 312.561C110.997 311.784 110.329 311.072 109.657 310.353C109.254 309.922 108.865 309.48 108.479 309.034C108.197 308.715 107.908 308.402 107.619 308.09C106.947 307.366 106.313 306.629 105.703 305.852C105.25 305.294 104.763 304.769 104.276 304.24C103.806 303.728 103.348 303.207 102.894 302.681C102.797 302.569 102.797 302.569 102.699 302.455C101.935 301.572 101.175 300.686 100.44 299.777C99.9946 299.229 99.5339 298.702 99.0557 298.183C98.3334 297.397 97.6581 296.581 96.989 295.75C96.6789 295.365 96.3682 294.981 96.0572 294.598C95.9759 294.497 95.8947 294.397 95.8109 294.294C95.1913 293.532 94.5562 292.786 93.9139 292.043C93.4036 291.452 92.9136 290.848 92.4295 290.236C92.0494 289.767 91.6549 289.312 91.2595 288.856C90.5133 287.993 89.8036 287.108 89.1034 286.209C88.7618 285.77 88.4118 285.339 88.058 284.911C87.499 284.232 86.9552 283.544 86.4139 282.852C85.894 282.188 85.363 281.535 84.8288 280.883C84.0663 279.951 83.329 279.003 82.6005 278.045C82.0898 277.373 81.5693 276.711 81.0391 276.054C80.2213 275.032 79.4303 273.987 78.6472 272.938C78.0786 272.178 77.4971 271.428 76.9127 270.68C75.8156 269.275 74.7451 267.854 73.699 266.41C73.2986 265.864 72.8916 265.322 72.4841 264.781C71.4921 263.463 70.5191 262.134 69.5837 260.775C69.2332 260.266 68.8741 259.766 68.5075 259.269C67.9669 258.533 67.4621 257.777 66.9587 257.015C66.6474 256.546 66.3331 256.084 65.9888 255.638C65.3644 254.827 64.8148 253.963 64.2511 253.11C63.9888 252.714 63.7248 252.319 63.4608 251.924C62.2983 250.182 62.2983 250.182 61.999 249.733C61.816 249.459 61.6326 249.185 61.4489 248.911C58.7628 244.907 56.1515 240.845 53.6737 236.708C53.4238 236.291 53.173 235.874 52.9221 235.457C51.8559 233.685 50.7931 231.912 49.7505 230.126C49.6859 230.015 49.6213 229.905 49.5548 229.791C48.6872 228.306 47.8369 226.813 47.0046 225.308C46.6682 224.7 46.3278 224.095 45.9862 223.49C45.8199 223.194 45.6536 222.899 45.4874 222.604C45.3788 222.411 45.27 222.218 45.161 222.025C44.2239 220.366 43.3269 218.687 42.4351 217.003C41.7808 215.767 41.1208 214.536 40.4412 213.314C39.6248 211.842 38.872 210.346 38.1497 208.826C38.0124 208.537 37.8752 208.248 37.7379 207.959C37.6694 207.815 37.6008 207.671 37.5302 207.522C37.0833 206.586 36.6138 205.666 36.1233 204.752C35.6211 203.816 35.1704 202.882 34.774 201.895C34.5045 201.275 34.1999 200.676 33.895 200.072C33.5205 199.32 33.1705 198.557 32.8203 197.793C32.744 197.627 32.6677 197.461 32.5891 197.29C32.4317 196.948 32.2744 196.605 32.1172 196.263C31.9042 195.8 31.6899 195.337 31.475 194.875C30.6488 193.093 29.857 191.298 29.0923 189.489C28.6627 188.473 28.6627 188.473 28.1836 187.48C27.9138 186.954 27.6951 186.416 27.4798 185.867C27.287 185.379 27.0867 184.894 26.8855 184.409C26.8055 184.216 26.7254 184.023 26.6453 183.829C26.6037 183.729 26.5621 183.629 26.5193 183.525C25.5564 181.2 24.615 178.867 23.6836 176.529C23.589 176.291 23.4944 176.054 23.3997 175.817C23.3547 175.704 23.3096 175.591 23.2632 175.474C23.0046 174.827 22.7397 174.183 22.4685 173.541C22.2106 172.927 21.9858 172.317 21.7857 171.682C21.3589 170.373 20.8588 169.098 20.3014 167.839C20.0465 167.226 19.8405 166.607 19.636 165.977C19.5211 165.63 19.4059 165.283 19.2906 164.936C19.2274 164.746 19.1643 164.557 19.1012 164.367C19.0692 164.271 19.0372 164.174 19.0043 164.076C18.9397 163.881 18.8752 163.687 18.8107 163.492C18.5074 162.577 18.2042 161.663 17.8703 160.759C17.464 159.656 17.0997 158.539 16.7297 157.423C16.6106 157.065 16.4915 156.707 16.3724 156.349C16.2928 156.109 16.2133 155.87 16.1339 155.631C15.9071 154.949 15.6789 154.267 15.449 153.586C14.2195 149.939 13.0618 146.269 11.9505 142.584C11.8977 142.41 11.8449 142.235 11.7905 142.056C11.5553 141.27 11.3337 140.484 11.1392 139.687C10.9865 139.062 10.8058 138.458 10.5956 137.85C10.3767 137.196 10.1975 136.53 10.013 135.865C9.968 135.704 9.92301 135.542 9.87666 135.375C9.73383 134.86 9.59188 134.344 9.45019 133.828C9.40743 133.673 9.36466 133.518 9.32059 133.358C8.57904 130.659 7.89718 127.945 7.21744 125.229C7.17379 125.055 7.13014 124.881 7.08517 124.701C6.58567 122.705 6.09229 120.707 5.61901 118.705C5.41881 117.863 5.2028 117.027 4.96818 116.194C4.83099 115.674 4.74415 115.151 4.66176 114.621C4.52734 113.807 4.35864 113.02 4.13586 112.224C3.85962 111.234 3.67367 110.246 3.50387 109.233C3.30993 108.077 3.07571 106.928 2.81535 105.785C2.62709 104.943 2.47341 104.095 2.31829 103.247C2.25314 102.893 2.18798 102.538 2.12281 102.184C2.08963 102.003 2.05644 101.823 2.02226 101.637C1.924 101.103 1.82468 100.571 1.72493 100.038C1.23334 97.4109 0.76151 94.7979 0.458548 92.1417C0.383914 91.5072 0.303474 90.8929 0.136854 90.2754C0.0111944 89.7701 -0.00811081 89.3664 0.00249624 88.8503C0.948189 88.6141 1.89388 88.3779 2.83957 88.1417C2.9934 88.1033 2.9934 88.1033 3.15033 88.0641C3.35963 88.0119 3.56893 87.9596 3.77824 87.9073C4.30251 87.7765 4.82674 87.6454 5.35088 87.514C6.22112 87.2959 7.09141 87.0787 7.96419 86.871C12.9026 85.6881 17.7196 83.9431 22.4247 82.0444C22.7725 81.9046 23.1207 81.7658 23.4689 81.6272C23.5967 81.5763 23.7244 81.5254 23.856 81.473C24.1025 81.3748 24.349 81.2768 24.5955 81.1788C25.4038 80.8564 26.2079 80.5249 27.0107 80.1895C27.4386 80.011 27.8672 79.8345 28.296 79.6582C30.1865 78.8753 32.049 78.0442 33.8998 77.1726C34.0548 77.0997 34.0548 77.0997 34.2129 77.0253C35.6142 76.3652 37.0036 75.6833 38.3873 74.9872C38.7692 74.7954 39.1518 74.6048 39.5344 74.4142C44.9863 71.7041 44.9863 71.7042 50.2839 68.7093C50.8168 68.3921 51.358 68.0905 51.9002 67.7898C52.9282 67.2173 53.9375 66.6166 54.9439 66.0071C55.2867 65.8003 55.6311 65.5964 55.9753 65.3922C57.0827 64.7335 58.1782 64.0558 59.272 63.375C59.4237 63.2808 59.5753 63.1867 59.7316 63.0897C60.359 62.6981 60.9755 62.3084 61.5648 61.8611C61.7094 61.7645 61.854 61.6679 62.003 61.5685C62.1492 61.6171 62.2953 61.6658 62.4459 61.7159C62.3193 61.8513 62.1928 61.9866 62.0624 62.1261C60.8939 63.3775 60.8939 63.3775 59.7587 64.659C59.4815 64.9738 59.1973 65.2816 58.9119 65.5891C58.3365 66.2092 57.7786 66.8324 57.2515 67.4949C56.5622 68.3522 55.8052 69.1393 55.0458 69.9347C54.5004 70.5088 53.9787 71.0862 53.4872 71.707C52.9132 72.43 52.278 73.0697 51.62 73.7151C51.1022 74.2237 50.6151 74.7459 50.145 75.2992C49.8542 75.6277 49.5463 75.9338 49.2339 76.2417C48.6363 76.8326 48.081 77.4457 47.5362 78.085C47.3958 78.2489 47.2553 78.4127 47.1147 78.5764C46.8815 78.8482 46.6482 79.12 46.4151 79.3918C45.528 80.4263 44.6276 81.4449 43.7047 82.4476C43.0136 83.1993 42.3411 83.9646 41.6799 84.7425C40.9476 85.6025 40.2096 86.4514 39.4356 87.2742C38.4726 88.3012 37.5856 89.3874 36.6987 90.4799C36.4885 90.7381 36.277 90.995 36.0645 91.2513C35.7522 91.6285 35.4429 92.0078 35.1361 92.3895C35.0554 92.4892 34.9748 92.5888 34.8916 92.6914C34.615 93.0507 34.4127 93.3746 34.2781 93.8089C34.4863 94.4169 35.0364 94.6004 35.579 94.8965C35.6956 94.9688 35.8123 95.041 35.9325 95.1154C37.1538 95.8657 38.4428 96.4631 39.7377 97.074C40.8049 97.5774 41.8673 98.0904 42.9292 98.6049C43.2359 98.7534 43.5427 98.9018 43.8496 99.0501C44.3382 99.2864 44.8259 99.5245 45.3135 99.7629C45.6368 99.92 45.9611 100.075 46.2856 100.229C46.5028 100.334 46.7199 100.44 46.9371 100.545C47.0905 100.617 47.0905 100.617 47.247 100.69C47.4968 100.813 47.7388 100.95 47.9791 101.09C48.0278 101.236 48.0765 101.382 48.1267 101.533C46.1048 102.849 44.0535 104.083 41.9347 105.238C41.2186 105.629 40.5115 106.028 39.8156 106.454C39.2568 106.791 38.6909 107.115 38.1254 107.441C35.5295 108.929 35.5295 108.929 32.9713 110.48C32.6266 110.676 32.6266 110.676 32.3313 110.676C32.3982 111.005 32.466 111.333 32.5343 111.662C32.572 111.845 32.6097 112.028 32.6485 112.217C32.7565 112.667 32.8974 113.051 33.0694 113.478C33.1415 113.761 33.2133 114.044 33.2816 114.328C33.435 114.936 33.624 115.533 33.8075 116.132C34.0773 117.013 34.3283 117.892 34.5456 118.787C34.8428 119.96 35.1506 121.113 35.5894 122.243C35.7579 122.707 35.8881 123.178 36.0218 123.653C36.1391 124.044 36.26 124.434 36.3817 124.824C36.4304 124.98 36.4304 124.98 36.4802 125.14C36.6393 125.646 36.8035 126.146 36.9998 126.639C37.1658 127.091 37.2806 127.509 37.3873 127.976C37.6713 129.155 38.1169 130.272 38.5447 131.404C38.7562 131.97 38.9581 132.54 39.1588 133.109C39.1933 133.207 39.2278 133.305 39.2633 133.405C39.5951 134.348 39.9096 135.296 40.2186 136.246C40.5822 137.36 40.9585 138.457 41.4227 139.534C41.6982 140.178 41.9604 140.828 42.2219 141.478C42.2692 141.595 42.3164 141.711 42.3651 141.831C42.6477 142.535 42.9107 143.243 43.163 143.958C43.5246 144.977 43.9175 145.982 44.3225 146.985C44.4365 147.267 44.55 147.55 44.6634 147.833C45.3508 149.544 46.0651 151.244 46.7836 152.943C47.0327 153.533 47.2795 154.124 47.5207 154.717C47.9315 155.728 48.3466 156.724 48.8492 157.694C49.0605 158.108 49.2454 158.531 49.4316 158.956C49.7309 159.628 50.0462 160.292 50.3589 160.957C50.5698 161.408 50.7766 161.86 50.9822 162.313C52.563 165.793 54.1801 169.262 55.905 172.673C56.1431 173.145 56.3785 173.617 56.6128 174.09C57.645 176.175 58.6962 178.242 59.8233 180.277C60.219 180.992 60.6006 181.714 60.9789 182.438C61.6164 183.656 62.2756 184.862 62.9418 186.065C63.5195 187.108 64.0903 188.155 64.6561 189.205C66.7249 193.06 66.7249 193.06 68.9735 196.81C69.2554 197.271 69.5172 197.741 69.7782 198.214C70.1047 198.802 70.4407 199.385 70.7772 199.968C70.8439 200.085 70.9106 200.201 70.9793 200.321C71.3906 201.034 71.8251 201.722 72.2912 202.4C72.4746 202.682 72.6258 202.964 72.7701 203.268C73.0724 203.898 73.4452 204.473 73.8248 205.059C74.4152 205.976 74.9786 206.909 75.5483 207.839C76.9522 210.125 78.3782 212.397 79.8189 214.66C79.9039 214.794 79.9889 214.927 80.0765 215.065C80.4008 215.573 80.7264 216.08 81.0616 216.581C81.3938 217.08 81.7087 217.588 82.024 218.098C82.5787 218.99 83.1513 219.868 83.7389 220.738C84.2547 221.506 84.7467 222.287 85.2293 223.076C85.6397 223.742 86.0801 224.382 86.5315 225.021C86.9862 225.667 87.4291 226.321 87.8735 226.974C88.0689 227.26 88.2644 227.547 88.4599 227.834C88.5549 227.973 88.6499 228.112 88.7477 228.256C90.338 230.586 91.9576 232.894 93.614 235.178C94.2378 236.039 94.8533 236.906 95.4656 237.775C95.9369 238.444 96.4109 239.111 96.8875 239.776C97.2934 240.342 97.6973 240.91 98.0962 241.481C98.6903 242.332 99.295 243.175 99.8993 244.018C100.081 244.272 100.263 244.526 100.444 244.781C101.216 245.862 101.993 246.94 102.772 248.016C103.207 248.617 103.64 249.22 104.069 249.825C104.666 250.666 105.28 251.49 105.914 252.302C106.281 252.774 106.627 253.254 106.963 253.749C107.42 254.413 107.938 255.001 108.487 255.59C108.799 255.933 108.799 255.933 109.115 256.336C109.359 256.681 109.359 256.681 109.684 256.818C109.334 255.871 108.797 255.125 108.208 254.311C107.15 252.803 106.124 251.274 105.11 249.736C104.54 248.875 103.953 248.028 103.355 247.186C102.538 246.037 101.751 244.87 100.975 243.693C100.729 243.321 100.483 242.949 100.237 242.578C100.176 242.487 100.116 242.396 100.053 242.302C99.6237 241.658 99.1774 241.029 98.7236 240.403C98.2418 239.736 97.7952 239.062 97.3823 238.351C97.1298 237.93 96.864 237.521 96.5944 237.111C95.5379 235.503 94.5633 233.851 93.5938 232.19C93.4191 231.892 93.2443 231.594 93.0696 231.295C92.2021 229.813 91.3389 228.328 90.4789 226.841C90.0479 226.096 89.6123 225.355 89.1744 224.614C88.474 223.429 87.7896 222.234 87.1083 221.038C86.8134 220.521 86.5163 220.004 86.2168 219.49C85.3228 217.949 84.4783 216.389 83.6628 214.805C83.1352 213.782 82.5926 212.77 82.0199 211.771C81.5782 210.993 81.1789 210.195 80.7807 209.395C80.4212 208.672 80.0558 207.953 79.6852 207.236C79.6332 207.135 79.5813 207.035 79.5277 206.931C79.3697 206.626 79.2114 206.32 79.0532 206.015C78.2286 204.423 77.4156 202.827 76.6174 201.222C76.5406 201.067 76.4637 200.913 76.3845 200.754C76.3147 200.613 76.2448 200.473 76.1728 200.328C76.1067 200.196 76.0406 200.063 75.9725 199.926C75.8408 199.662 75.7093 199.397 75.578 199.132C75.2703 198.515 74.9563 197.907 74.6124 197.309C74.2931 196.743 74.0528 196.166 73.8193 195.56C73.5408 194.866 73.2077 194.198 72.8808 193.526C72.7352 193.224 72.5897 192.922 72.4443 192.62C72.3745 192.476 72.3047 192.331 72.2329 192.182C71.4636 190.583 70.73 188.968 69.9918 187.354C69.5985 186.496 69.1998 185.641 68.7935 184.788C68.2267 183.597 67.6992 182.388 67.1701 181.18C66.8011 180.338 66.4278 179.499 66.0349 178.668C65.6247 177.8 65.2312 176.926 64.8434 176.048C64.5235 175.325 64.1975 174.605 63.8674 173.887C62.9715 171.934 62.1241 169.963 61.2834 167.986C61.0135 167.352 60.7432 166.718 60.4726 166.084C60.3824 165.871 60.3824 165.871 60.2904 165.654C59.9901 164.951 59.6781 164.26 59.3254 163.581C59.1012 163.125 58.9353 162.648 58.7646 162.17C58.5139 161.485 58.2548 160.813 57.9435 160.152C57.6134 159.446 57.3383 158.727 57.0698 157.997C56.659 156.886 56.215 155.79 55.7703 154.693C55.2677 153.448 54.7945 152.193 54.3268 150.935C54.2435 150.711 54.1603 150.488 54.0771 150.265C53.8592 149.68 53.6422 149.094 53.4256 148.508C53.3377 148.271 53.2495 148.033 53.1612 147.796C52.5701 146.206 52.0108 144.609 51.4808 142.998C51.3077 142.475 51.1298 141.954 50.9523 141.432C49.9332 138.427 48.9955 135.406 48.1267 132.354C48.079 132.186 48.0313 132.019 47.9822 131.847C47.7256 130.943 47.4731 130.039 47.223 129.134C47.0828 128.629 46.9408 128.124 46.7987 127.619C46.2353 125.61 45.7067 123.597 45.2314 121.565C45.0976 120.995 44.9567 120.427 44.8081 119.86C44.7734 119.727 44.7388 119.594 44.703 119.456C44.6385 119.21 44.5728 118.964 44.5059 118.719C44.3139 117.982 44.1842 117.334 44.2886 116.574C44.5972 116.266 44.814 116.102 45.1835 115.892C45.2816 115.832 45.3796 115.772 45.4806 115.71C45.6998 115.576 45.9202 115.444 46.1416 115.314C46.5213 115.089 46.8963 114.857 47.271 114.625C48.963 113.577 50.6812 112.578 52.4077 111.588C53.3361 111.056 54.254 110.514 55.1617 109.947C55.8254 109.539 56.4969 109.144 57.1684 108.749C58.52 107.954 59.8671 107.152 61.2097 106.342C61.9846 105.875 62.7624 105.416 63.549 104.969C63.7003 104.882 63.8516 104.795 64.0074 104.706C64.2953 104.542 64.5841 104.379 64.8741 104.218C65.0016 104.145 65.1291 104.072 65.2605 103.996C65.373 103.933 65.4856 103.87 65.6016 103.805C65.6806 103.736 65.7597 103.668 65.8411 103.597C65.8411 103.403 65.8411 103.208 65.8411 103.007C63.528 101.743 61.1533 100.644 58.7484 99.5693C57.8756 99.1782 57.0095 98.7736 56.1443 98.366C55.5413 98.0883 54.9297 97.836 54.3154 97.5847C53.8765 97.4004 53.4456 97.2038 53.0143 97.0026C52.2903 96.667 51.5635 96.3391 50.8335 96.0169C50.5403 95.8869 50.2472 95.7567 49.9541 95.6266C49.7565 95.5391 49.5588 95.4521 49.3609 95.3655C48.0911 94.8091 46.9122 94.21 45.7648 93.4218C45.8805 92.7285 46.1538 92.2518 46.549 91.6798C46.6141 91.584 46.6792 91.4881 46.7462 91.3893C47.3104 90.5666 47.9069 89.7693 48.5109 88.9755C48.9714 88.3692 49.4134 87.7555 49.8428 87.1267C50.3303 86.4145 50.8425 85.7286 51.3733 85.0481C52.5592 83.5208 53.6677 81.9342 54.7788 80.3524C55.4227 79.4358 56.0867 78.5371 56.7632 77.6445C57.364 76.8487 57.9402 76.0375 58.5119 75.2208C59.0845 74.4053 59.674 73.6034 60.2685 72.8038C60.8196 72.0622 61.3607 71.3204 61.8646 70.5456C62.3417 69.8143 62.8621 69.1251 63.3962 68.435C64.1989 67.3973 64.9611 66.3441 65.6935 65.2552C65.7538 65.1658 65.8141 65.0765 65.8762 64.9845C66.7327 63.7145 67.5635 62.4301 68.3835 61.1363C69.257 59.7619 70.1522 58.4288 71.1555 57.1444C71.2521 57.0159 71.3488 56.8874 71.4484 56.755C72.5301 55.3459 73.8196 54.2924 75.2888 53.3102C77.7763 51.6396 80.1742 49.901 82.4252 47.9205C82.5946 47.7722 82.7652 47.6252 82.9367 47.4792C83.8019 46.738 84.6061 45.9414 85.4101 45.1349C85.5439 45.0017 85.6778 44.8685 85.8157 44.7313C86.5694 43.9773 87.2958 43.2113 87.9842 42.3975C88.0611 42.3077 88.138 42.2179 88.2172 42.1254C90.6802 39.2297 92.3839 36.1466 93.739 32.6088C93.8447 32.3362 93.9536 32.0649 94.0646 31.7944C94.597 30.4747 94.9575 29.1386 95.3006 27.7611C95.3562 27.5424 95.4118 27.3237 95.4676 27.105C95.7714 25.9075 96.0628 24.7074 96.3396 23.5033C97.3087 19.3206 98.7756 15.1112 101.86 12.0188C102.061 11.8177 102.061 11.8177 102.265 11.6127C106.873 7.24883 113.137 4.54762 119.132 2.72821C119.271 2.6857 119.411 2.64319 119.555 2.59939C123.545 1.39828 129.17 0.294913 133.451 0Z" fill="white"/>
<path d="M171.152 18.876C171.447 19.0235 171.447 19.0235 171.622 19.5448C171.685 19.7671 171.746 19.9896 171.807 20.2125C172.013 20.9555 172.229 21.6814 172.516 22.3977C172.9 23.4661 173.156 24.5854 173.454 25.6806C173.543 26.0071 173.633 26.3335 173.722 26.66C173.991 27.6422 174.258 28.6247 174.512 29.6108C175.938 35.1189 177.976 40.3777 180.435 45.5039C180.91 46.5386 180.783 47.3702 180.415 48.4252C180.381 48.523 180.347 48.6207 180.312 48.7214C180.099 49.3266 179.861 49.9119 179.588 50.4921C179.446 50.8141 179.318 51.1355 179.194 51.4645C179.152 51.575 179.11 51.6856 179.067 51.7995C178.986 52.0152 178.906 52.2312 178.827 52.4477C178.545 53.1929 178.205 53.9001 177.843 54.6091C177.126 56.0174 176.502 57.4637 175.876 58.914C175.127 60.6474 174.355 62.3562 173.497 64.0383C173.231 64.5656 172.982 65.101 172.73 65.6351C171.785 67.6389 170.753 69.5865 169.676 71.5226C169.612 71.6372 169.549 71.7518 169.484 71.8699C168.694 73.2975 167.867 74.7008 167.019 76.0941C166.94 76.2234 166.861 76.3526 166.78 76.4858C166.426 77.0677 166.071 77.6496 165.716 78.2313C165.105 79.2332 164.499 80.2382 163.899 81.2469C163.621 81.7011 163.331 82.1422 163.033 82.5828C162.459 82.3918 162.251 82.0374 161.907 81.5689C161.775 81.3931 161.643 81.2174 161.511 81.0419C161.444 80.9536 161.378 80.8653 161.309 80.7744C161.025 80.4022 160.729 80.0407 160.431 79.6795C160.324 79.5498 160.218 79.4202 160.108 79.2866C159.885 79.017 159.662 78.7474 159.44 78.4779C159.332 78.3452 159.223 78.2125 159.112 78.0758C159.014 77.9569 158.917 77.8381 158.816 77.7157C158.587 77.4374 158.816 77.7157 158.309 77.1264C158.235 77.1264 158.409 77.1264 158.309 77.1264C158.111 76.9306 158.111 76.9306 157.875 76.6471C157.432 76.1254 156.976 75.619 156.51 75.1172C155.83 74.3813 155.173 73.6272 154.525 72.8636C153.968 72.2095 153.395 71.5736 152.809 70.9454C151.888 69.9004 153.069 71.225 152.809 70.9454C152.408 70.4903 152.092 70.1092 151.888 69.9004C151.247 69.2803 151.888 69.9004 151.247 69.2803C150.386 68.2654 149.426 67.343 148.485 66.4026C148.275 66.1922 148.065 65.9819 147.854 65.7715C147.415 65.3319 146.976 64.8927 146.536 64.4536C145.976 63.8941 145.417 63.3336 144.858 62.7728C144.425 62.3384 143.991 61.9046 143.557 61.471C143.351 61.2648 143.145 61.0583 142.939 60.8516C141.242 58.8749 140.758 57.6605 139.091 57.7673C138.679 57.7659 138.679 57.7659 138.46 58.004C138.412 58.0938 138.364 58.1837 138.314 58.2763C138.231 58.423 138.231 58.423 138.147 58.5727C138.093 58.6762 138.039 58.7797 137.984 58.8863C137.873 59.0888 137.762 59.291 137.65 59.4929C137.602 59.5833 137.554 59.6736 137.505 59.7667C137.332 60.0444 137.152 60.2488 136.904 60.4624C136.581 60.5212 136.581 60.5212 136.231 60.5177C136.115 60.5188 135.999 60.52 135.879 60.5212C135.729 60.4921 135.729 60.4921 135.576 60.4624C135.24 59.9604 135.226 59.7007 135.188 59.1075C135.171 58.8672 135.171 58.8672 135.155 58.6219C135.147 58.4993 135.14 58.3767 135.133 58.2504C134.987 58.2504 134.84 58.2504 134.69 58.2504C134.665 58.3359 134.64 58.4215 134.614 58.5096C134.384 59.2499 134.153 59.8613 133.656 60.4624C133.383 60.5949 133.383 60.5949 133.066 60.6099C132.205 59.9873 131.581 59.1192 131.071 58.1991C131.073 58.1029 130.852 58.0292 130.409 58.0292C129.818 58.0292 129.539 58.1029 129.539 58.2504C129.496 58.3401 129.437 58.4298 129.393 58.5223C129.154 58.914 128.982 59.1096 128.684 59.3933C128.291 59.7674 127.927 60.1544 127.573 60.5649C126.974 61.2555 126.333 61.9008 125.685 62.5454C125.515 62.7162 125.515 62.7162 125.341 62.8904C124.849 63.3815 124.358 63.8617 123.821 64.3047C123.349 64.6995 122.961 65.1412 122.562 65.6088C121.982 66.2695 121.34 66.873 120.713 67.4885C120.024 68.1686 119.374 68.8687 118.747 69.6055C118.674 69.6905 118.601 69.7754 118.527 69.863C118.387 70.0263 118.248 70.1897 118.109 70.3533C117.465 71.1099 116.812 71.855 116.136 72.5825C115.395 73.3806 114.704 74.2128 114.023 75.0618C113.376 75.863 112.728 76.6547 112.03 77.4122C111.436 78.0635 110.914 78.7521 110.392 79.4617C109.88 80.1354 109.331 80.775 108.78 81.4163C108.453 81.7994 108.135 82.1878 107.823 82.5828C107.126 82.362 106.875 81.7922 106.522 81.2003C106.463 81.1039 106.404 81.0075 106.343 80.9082C105.976 80.3066 105.622 79.6981 105.268 79.089C104.745 78.1924 104.207 77.3061 103.665 76.421C102.689 74.8234 101.732 73.2162 100.8 71.5921C100.475 71.0293 100.146 70.4694 99.8168 69.909C98.3872 67.4709 97.0251 65.0043 95.6996 62.5085C95.6435 62.4031 95.5874 62.2976 95.5297 62.1889C94.8255 60.8635 94.139 59.5307 93.4709 58.1868C93.2574 57.7585 93.0409 57.3321 92.821 56.907C91.9335 55.1813 91.1266 53.4239 90.3391 51.6511C90.2879 51.536 90.2367 51.4208 90.184 51.3022C88.4884 47.4826 88.4884 47.4826 88.6323 46.7478C88.7893 46.4541 88.9666 46.1827 89.153 45.9067C89.3882 45.5402 89.577 45.1671 89.7671 44.7754C90.0798 44.1355 90.4146 43.5161 90.7699 42.8994C92.1557 40.4822 93.1966 37.9083 94.122 35.2848C94.207 35.0475 94.2944 34.8111 94.3836 34.5754C94.7699 33.5473 95.0711 32.5098 95.349 31.4478C95.3935 31.2806 95.4379 31.1135 95.4837 30.9412C95.6769 30.214 95.8677 29.4862 96.0583 28.7582C96.0856 28.6545 96.2347 28.1666 96.2347 28.1666C96.0871 28.6828 96.0583 28.7582 96.7698 26.1574C97.0466 24.9223 97.3289 23.7837 97.709 22.6123C98.0103 21.6701 98.2214 20.738 98.3752 19.7609C98.5701 19.7609 98.7649 19.7609 98.9657 19.7609C99.2049 20.3113 99.3463 20.8412 99.4639 21.4291C100.497 26.3512 102.27 30.8688 105.461 34.8028C105.554 34.9242 105.647 35.0457 105.744 35.1709C107.457 37.3892 109.515 39.5233 111.66 41.33C111.884 41.5241 112.102 41.7256 112.317 41.9302C113.569 43.12 114.931 44.1348 116.323 45.1561C116.641 45.3917 116.957 45.6305 117.271 45.8722C118.718 46.983 120.225 47.9927 121.749 48.9949C122.415 49.4337 123.069 49.8862 123.721 50.3452C124.212 50.6872 124.711 51.0144 125.214 51.3377C125.319 51.4053 125.424 51.4729 125.532 51.5425C128.184 53.2427 130.852 54.8941 133.687 56.2728C134.099 56.4807 134.099 56.4807 134.542 56.7757C135.243 56.8836 135.759 56.579 136.36 56.2595C136.572 56.15 136.783 56.0406 136.995 55.9312C137.103 55.8751 137.211 55.8189 137.321 55.7611C137.624 55.6054 137.928 55.455 138.234 55.3067C139.61 54.639 140.926 53.8938 142.236 53.1062C142.496 52.952 142.758 52.8028 143.021 52.654C144.987 51.5374 146.867 50.262 148.714 48.9598C148.82 48.8851 148.926 48.8104 149.036 48.7335C150.46 47.7307 151.835 46.6857 153.179 45.5778C153.692 45.1556 154.217 44.7518 154.748 44.3514C155.582 43.7154 156.358 43.0349 157.128 42.3237C157.365 42.1114 157.601 41.8994 157.839 41.6877C158.094 41.4573 158.349 41.2269 158.604 40.9965C158.676 40.9329 158.747 40.8693 158.82 40.8038C160.724 39.1049 162.507 37.267 164.066 35.2452C164.128 35.1665 164.189 35.0878 164.253 35.0068C166.621 31.962 168.229 28.6 169.454 24.9592C169.487 24.8634 169.519 24.7676 169.553 24.6688C169.889 23.6695 170.173 22.729 170.266 21.678C170.315 21.6293 170.364 21.5806 170.414 21.5305C170.488 21.0546 170.547 20.5775 170.607 20.0996C170.711 19.6057 170.868 19.289 171.152 18.876Z" fill="#161616"/>
<path d="M148.804 70.0479C149.985 70.2736 150.882 71.3419 151.692 72.1678C151.789 72.266 151.886 72.3643 151.986 72.4655C152.624 73.1141 153.24 73.7729 153.823 74.472C154.017 74.6991 154.21 74.9263 154.404 75.1535C154.987 75.8386 155.563 76.529 156.129 77.2278C156.546 77.74 156.974 78.2349 157.421 78.7209C158.089 79.4543 158.699 80.2244 159.305 81.009C159.594 81.3823 159.89 81.748 160.192 82.1104C160.267 82.2019 160.342 82.2934 160.42 82.3877C160.564 82.5625 160.709 82.7361 160.857 82.9081C161.156 83.276 161.342 83.5676 161.439 84.0344C161.312 84.7096 161.009 85.2353 160.669 85.8271C160.597 85.9544 160.526 86.0816 160.452 86.2127C159.727 87.4843 158.939 88.716 158.142 89.9436C157.742 90.5619 157.359 91.1891 156.983 91.8219C156.681 92.326 156.369 92.8233 156.056 93.3204C155.611 94.0275 155.171 94.7364 154.736 95.4495C154.158 96.3912 153.555 97.3162 152.949 98.2406C152.526 98.8865 152.109 99.5349 151.703 100.191C151.623 100.319 151.544 100.446 151.462 100.578C151.311 100.822 151.161 101.066 151.012 101.311C150.944 101.421 150.875 101.531 150.805 101.644C150.746 101.74 150.687 101.836 150.627 101.936C150.398 102.235 150.146 102.426 149.837 102.639C149.182 100.947 148.698 99.2275 148.241 97.4731C147.871 96.0619 147.472 94.6618 147.051 93.2651C147.022 93.17 146.994 93.075 146.964 92.9771C146.717 92.1537 146.467 91.344 146.147 90.5461C146.085 90.3452 146.026 90.1432 145.972 89.9401C145.942 89.8296 145.912 89.719 145.881 89.6051C145.85 89.4898 145.819 89.3745 145.787 89.2558C145.573 88.4723 145.353 87.6968 145.087 86.9291C144.907 86.3867 144.742 85.84 144.578 85.2925C144.546 85.1867 144.514 85.0809 144.48 84.9719C143.907 83.0394 144.038 81.7634 144.818 79.9283C144.875 79.792 144.931 79.6557 144.99 79.5153C145.106 79.2355 145.223 78.9559 145.341 78.6766C145.621 78.0022 145.893 77.3249 146.165 76.6471C146.215 76.5233 146.264 76.3994 146.316 76.2718C146.53 75.7359 146.741 75.1997 146.942 74.6586C147.279 73.7522 147.653 72.8599 148.02 71.965C148.096 71.7785 148.172 71.5921 148.248 71.4056C148.433 70.953 148.618 70.5004 148.804 70.0479Z" fill="#161616"/>
<path d="M121.051 70.1954C121.747 71.4267 122.34 72.6226 122.79 73.9685C122.975 74.4859 123.194 74.9718 123.431 75.4674C123.749 76.1353 123.989 76.7805 124.185 77.4922C124.362 78.0712 124.611 78.6183 124.849 79.1743C125.102 79.7941 125.308 80.4258 125.51 81.0637C125.596 81.3936 125.596 81.3936 125.775 81.5505C125.932 82.5402 125.687 83.3975 125.372 84.33C125.031 85.3561 124.776 86.3991 124.52 87.4493C124.197 88.7685 123.853 90.0688 123.431 91.3601C123.156 92.2125 122.917 93.0756 122.675 93.9379C122.625 94.113 122.574 94.2881 122.523 94.4685C122.407 94.8746 122.295 95.2812 122.186 95.6891C122.051 96.1912 121.908 96.69 121.755 97.1868C121.404 98.329 121.129 99.4244 120.972 100.613C120.881 101.151 120.7 101.56 120.461 102.049C120.359 102.343 120.259 102.637 120.165 102.934C119.656 102.724 119.428 102.494 119.123 102.04C119.033 101.905 118.942 101.771 118.849 101.633C118.748 101.478 118.646 101.324 118.542 101.164C118.486 101.08 118.431 100.997 118.374 100.911C116.418 97.9588 114.594 94.9167 112.784 91.8734C112.722 91.7681 112.659 91.6628 112.595 91.5544C112.162 90.827 111.734 90.0975 111.308 89.3664C111.236 89.2421 111.163 89.1179 111.089 88.9899C110.34 87.7013 109.59 86.411 108.9 85.0898C108.818 84.9346 108.737 84.7795 108.653 84.6197C108.48 84.1411 108.459 83.9378 108.651 83.4676C108.953 83.1778 108.953 83.1779 109.352 82.8869C110.419 82.0573 111.297 81.0819 112.194 80.0758C112.289 79.9696 112.385 79.8633 112.483 79.7538C112.734 79.4702 112.981 79.1836 113.227 78.8961C113.363 78.7384 113.5 78.5807 113.636 78.4231C114.434 77.4986 115.221 76.5667 115.991 75.6189C116.437 75.0759 116.892 74.5412 117.347 74.0063C117.783 73.4939 118.21 72.9759 118.634 72.4535C119.082 71.9063 119.535 71.3644 119.999 70.8313C120.106 70.7091 120.212 70.5869 120.321 70.4609C120.608 70.1954 120.608 70.1954 121.051 70.1954Z" fill="#161616"/>
<path d="M139.208 60.4624C140.761 60.5427 141.937 61.8049 142.945 62.8956C143.178 63.1641 143.409 63.4344 143.637 63.7067C143.809 63.9069 143.809 63.9069 143.985 64.1111C144.939 65.2497 144.939 65.2497 144.966 65.9188C144.738 66.3217 144.588 66.4827 144.154 66.6545C144.011 66.6875 143.868 66.7206 143.72 66.7546C143.564 66.792 143.407 66.8293 143.246 66.8678C143.001 66.9227 143.001 66.9227 142.751 66.9787C142.428 67.0545 142.105 67.1303 141.783 67.2062C141.639 67.2388 141.496 67.2713 141.348 67.3048C140.964 67.3917 140.964 67.3917 140.537 67.5409C138.842 67.7494 137.121 67.7158 135.417 67.7157C134.948 67.716 134.479 67.7187 134.01 67.7215C131.713 67.7281 129.55 67.5592 127.307 67.034C127.101 66.9888 127.101 66.9888 126.892 66.9427C126.165 66.7759 125.538 66.5831 124.889 66.2137C124.828 65.9117 124.828 65.9117 124.889 65.4763C125.173 65.0795 125.521 64.7495 125.87 64.4095C125.97 64.3094 126.07 64.2094 126.173 64.1062C126.385 63.8952 126.598 63.685 126.812 63.4756C127.139 63.1549 127.463 62.8311 127.787 62.5068C127.993 62.3021 128.2 62.0976 128.407 61.8933C128.504 61.7964 128.601 61.6995 128.701 61.5996C128.792 61.5105 128.884 61.4213 128.978 61.3295C129.058 61.2508 129.309 61.1333 129.392 61.0523C129.667 60.8424 129.717 60.8177 130.056 60.7573C130.32 61.1644 130.502 61.5053 130.637 61.9739C130.715 62.1747 130.715 62.1747 130.794 62.3795C138.692 62.527 138.692 62.527 138.692 62.527C138.711 62.4116 138.805 62.0012 138.825 61.8824C138.851 61.7331 138.877 61.5839 138.904 61.4302C138.93 61.2813 138.955 61.1325 138.982 60.9791C139.061 60.6099 139.061 60.6099 139.208 60.4624Z" fill="#161616"/>
<path d="M134.863 81.8178C134.993 81.8177 135.123 81.8176 135.256 81.8175C136.618 81.8176 137.977 81.8387 139.336 81.9117C139.443 81.9174 139.55 81.923 139.661 81.9289C141.938 82.0651 141.938 82.0651 142.308 82.4353C142.314 82.681 142.315 82.927 142.308 83.1727C140.819 83.3134 139.337 83.3465 137.842 83.3501C137.724 83.3505 137.606 83.3509 137.484 83.3513C136.86 83.3535 136.236 83.3549 135.612 83.3556C134.973 83.3564 134.334 83.3599 133.695 83.3641C133.197 83.3669 132.7 83.3676 132.203 83.3679C131.968 83.3683 131.732 83.3695 131.497 83.3714C130.124 83.382 128.868 83.2986 127.546 82.8777C127.595 82.6344 127.644 82.3911 127.694 82.1404C130.086 81.8983 132.46 81.8159 134.863 81.8178Z" fill="#161616"/>
<path d="M181.871 49.6971C182.151 49.7433 182.151 49.7433 182.461 49.8446C182.86 50.5944 183.067 51.3956 183.282 52.2133C183.336 52.4152 183.336 52.4152 183.392 52.6211C183.475 52.9346 183.559 53.2482 183.641 53.5618C183.782 54.0916 183.924 54.6209 184.066 55.1502C184.2 55.6471 184.333 56.1443 184.465 56.6414C184.531 56.8882 184.597 57.1348 184.663 57.3814C184.997 58.6231 185.319 59.8508 185.502 61.1254C185.589 61.6679 185.731 62.1931 185.868 62.7245C186.306 64.4629 186.739 66.2114 186.97 67.9908C187.024 68.3403 187.093 68.6729 187.174 69.0164C187.348 69.7907 187.463 70.5689 187.572 71.3544C187.594 71.5055 187.615 71.6567 187.637 71.8125C187.705 72.2934 187.773 72.7743 187.84 73.2553C187.907 73.728 187.974 74.2006 188.041 74.6732C188.085 74.9871 188.129 75.3011 188.173 75.6151C188.273 76.3335 188.376 77.0513 188.489 77.7679C188.806 79.8041 188.942 81.8348 189.049 83.8916C189.076 84.3861 189.103 84.8806 189.13 85.3751C189.147 85.6792 189.163 85.9834 189.179 86.2876C189.186 86.4251 189.194 86.5627 189.201 86.7044C189.208 86.8237 189.214 86.9431 189.22 87.0661C189.245 87.3607 189.282 87.6543 189.324 87.9469C189.458 88.8957 189.5 89.8527 189.555 90.8088C189.561 90.9239 189.568 91.039 189.574 91.1576C189.732 93.9901 189.734 96.8202 189.724 99.6562C189.722 100.191 189.722 100.727 189.722 101.262C189.722 103.929 189.701 106.595 189.628 109.261C189.626 109.37 189.623 109.479 189.62 109.591C189.527 113.02 189.527 113.02 189.252 113.846C189.222 114.252 189.2 114.655 189.183 115.061C189.172 115.31 189.16 115.56 189.149 115.81C189.14 116.006 189.14 116.006 189.131 116.207C188.944 120.423 188.558 124.592 187.931 128.767C187.792 129.73 187.704 130.693 187.628 131.662C187.538 132.801 187.393 133.891 187.163 135.011C186.957 136.046 186.822 137.093 186.673 138.137C186.511 139.268 186.321 140.391 186.119 141.514C186.006 142.149 185.896 142.785 185.788 143.42C185.77 143.524 185.753 143.628 185.734 143.735C185.698 143.947 185.662 144.158 185.626 144.37C185.475 145.255 185.322 146.141 185.169 147.026C185.123 147.296 185.076 147.567 185.03 147.838C184.775 149.318 184.489 150.759 184.083 152.206C183.908 152.862 183.795 153.528 183.679 154.198C183.411 155.742 183.088 157.274 182.757 158.806C182.732 158.921 182.707 159.036 182.682 159.154C182.381 160.549 182.059 161.935 181.707 163.318C181.542 163.969 181.388 164.622 181.234 165.276C180.624 167.85 180 170.421 179.278 172.965C179.103 173.583 178.934 174.203 178.767 174.823C178.182 176.984 177.587 179.139 176.935 181.282C176.703 182.049 176.495 182.81 176.329 183.594C176.223 184.065 176.076 184.522 175.929 184.982C175.897 185.082 175.866 185.181 175.833 185.284C175.73 185.607 175.627 185.931 175.523 186.254C175.378 186.708 175.234 187.163 175.09 187.618C175.052 187.735 175.015 187.852 174.977 187.973C174.711 188.814 174.455 189.657 174.204 190.503C173.457 193.006 172.647 195.488 171.814 197.963C171.771 198.089 171.729 198.216 171.685 198.346C171.654 198.438 171.623 198.53 171.591 198.625C171.285 199.535 170.993 200.449 170.703 201.364C170.6 201.689 170.496 202.014 170.392 202.339C170.231 202.845 170.07 203.352 169.91 203.858C169.753 204.351 169.596 204.844 169.439 205.337C169.392 205.486 169.345 205.636 169.296 205.79C169.035 206.606 168.746 207.401 168.421 208.194C168.251 208.618 168.109 209.047 167.971 209.482C167.636 210.508 167.269 211.521 166.897 212.534C166.838 212.696 166.778 212.858 166.717 213.025C166.469 213.699 166.22 214.373 165.971 215.047C165.343 216.752 164.72 218.457 164.156 220.185C163.91 220.93 163.624 221.649 163.314 222.37C162.952 223.235 162.64 224.119 162.319 225C160.597 229.724 158.785 234.414 156.953 239.097C156.717 239.702 156.484 240.308 156.252 240.914C155.871 241.904 155.471 242.887 155.069 243.868C154.264 245.832 154.264 245.832 153.481 247.804C152.83 249.466 152.101 251.092 151.378 252.724C150.976 253.634 150.58 254.548 150.184 255.461C149.569 256.877 148.936 258.283 148.287 259.684C148.13 260.025 147.972 260.365 147.814 260.706C147.734 260.879 147.654 261.053 147.571 261.232C147.333 261.747 147.096 262.262 146.859 262.778C146.103 264.426 145.339 266.066 144.513 267.68C144.268 268.163 144.027 268.647 143.785 269.131C143.685 269.331 143.585 269.53 143.486 269.729C143.301 270.097 143.118 270.465 142.935 270.834C142.267 272.181 141.579 273.519 140.888 274.855C140.841 274.946 140.793 275.038 140.745 275.132C140.149 276.286 139.542 277.433 138.913 278.569C138.836 278.71 138.759 278.85 138.679 278.994C138.438 279.428 138.196 279.861 137.954 280.293C137.874 280.438 137.794 280.582 137.711 280.731C136.621 282.672 136.621 282.672 136.109 283.141C135.914 283.141 135.719 283.141 135.518 283.141C135.499 274.931 135.48 266.721 135.462 258.511C135.459 257.524 135.457 256.538 135.455 255.552C135.455 255.454 135.455 255.356 135.454 255.255C135.448 252.427 135.441 249.6 135.435 246.773C135.424 242.056 135.413 237.338 135.403 232.621C135.402 232.436 135.402 232.251 135.401 232.061C135.371 218.021 135.361 203.981 135.37 189.94C135.237 189.969 135.5 189.913 135.37 189.94C135.37 189.94 135.37 188.539 135.37 187.286C135.37 185.369 135.37 184.853 135.37 183.378C135.37 183.009 135.37 182.567 135.37 181.092C135.37 180.429 135.37 180.429 135.37 179.47C135.37 171.002 135.37 162.535 135.37 153.81C135.858 153.713 135.016 150.593 135.518 150.492C137.383 149.787 134.933 151.742 135.739 149.976C136.147 148.755 137.384 151.338 136.847 150.197C135.941 148.595 135.518 147.764 135.924 143.589C135.001 145.184 135.656 143.522 135.518 143.488C135.256 143.225 135.347 142.842 135.344 142.487C135.342 142.305 135.341 142.122 135.339 141.934C135.337 141.732 135.336 141.53 135.335 141.329C135.334 141.176 135.334 141.176 135.333 141.021C135.33 140.481 135.328 139.942 135.327 139.402C135.325 138.849 135.32 138.296 135.314 137.744C135.31 137.315 135.309 136.887 135.309 136.458C135.308 136.255 135.306 136.052 135.303 135.848C135.277 133.796 135.339 133.828 136.714 130.344C136.858 130.043 136.998 129.741 137.137 129.438C137.924 127.733 138.802 126.088 139.712 124.446C140.108 123.729 140.498 123.009 140.888 122.289C141.007 122.069 141.007 122.069 141.128 121.845C141.633 120.914 142.136 119.982 142.639 119.049C142.812 118.726 142.986 118.404 143.16 118.082C143.582 117.3 144.003 116.517 144.422 115.733C145.283 114.128 146.169 112.542 147.108 110.981C147.57 110.211 148.011 109.433 148.438 108.644C148.784 108.007 149.144 107.378 149.505 106.749C149.582 106.616 149.658 106.482 149.737 106.345C150.391 105.204 151.057 104.07 151.727 102.939C151.902 102.641 152.077 102.343 152.251 102.045C153.608 99.7242 154.993 97.4176 156.46 95.1638C156.815 94.6146 157.16 94.0601 157.504 93.5047C158.042 92.6398 158.597 91.7882 159.166 90.9433C159.611 90.2816 160.045 89.6135 160.475 88.9424C161.173 87.8572 161.897 86.7908 162.625 85.7257C163.437 84.5367 164.242 83.346 165.01 82.1281C165.226 81.7891 165.443 81.4518 165.661 81.1144C166.879 79.2216 168.045 77.3032 169.175 75.3568C169.248 75.2325 169.321 75.1081 169.395 74.98C170.709 72.7281 171.945 70.4359 173.161 68.1308C173.208 68.0427 173.254 67.9547 173.302 67.8639C174.744 65.1307 176.119 62.37 177.442 59.5776C177.523 59.4067 177.604 59.2359 177.688 59.0599C178.872 56.5557 179.99 54.0271 181.083 51.4821C181.341 50.8849 181.605 50.2907 181.871 49.6971Z" fill="#161616"/>
<path d="M86.5298 49.5497C86.6272 49.5497 86.7247 49.5497 86.825 49.5497C87.4986 50.7732 88.1315 52.0093 88.7257 53.2733C89.4267 54.76 90.1778 56.2141 90.9584 57.6605C91.0368 57.8058 91.1152 57.9511 91.1959 58.1008C91.8286 59.2724 92.4621 60.4436 93.1032 61.6106C93.5372 62.4013 93.9602 63.1965 94.3734 63.9982C95.2852 65.7662 96.2491 67.5003 97.2375 69.2265C97.489 69.6674 97.7373 70.1101 97.985 70.5532C98.5491 71.562 99.1291 72.5605 99.718 73.555C100.104 74.2076 100.484 74.8634 100.858 75.5227C101.312 76.32 101.78 77.1082 102.254 77.8938C102.659 78.5668 103.061 79.2419 103.46 79.9191C103.55 80.0722 103.55 80.0722 103.642 80.2284C104.009 80.8519 104.373 81.4769 104.735 82.1029C105.68 83.7335 106.645 85.3451 107.66 86.9326C108.079 87.5873 108.483 88.2502 108.885 88.9148C109.536 89.9865 110.213 91.0395 110.9 92.0883C111.455 92.9361 112 93.7896 112.539 94.6476C113.071 95.4948 113.613 96.334 114.172 97.1638C114.719 97.9767 115.243 98.8011 115.752 99.6385C115.962 99.9812 116.173 100.322 116.388 100.662C117.195 101.938 117.971 103.23 118.736 104.532C119.228 105.369 119.732 106.196 120.252 107.017C120.809 107.899 121.32 108.796 121.811 109.717C122.658 111.278 123.522 112.828 124.418 114.362C124.993 115.348 125.553 116.343 126.11 117.339C126.199 117.497 126.287 117.655 126.378 117.818C126.693 118.382 127.008 118.945 127.323 119.509C127.922 120.581 128.529 121.647 129.155 122.704C131.157 126.092 132.661 129.625 134.238 133.139C134.347 133.457 134.347 133.457 134.512 133.716C134.699 134.154 134.689 134.507 134.688 134.983C134.688 135.172 134.688 135.361 134.687 135.555C134.686 135.761 134.684 135.966 134.683 136.172C134.682 136.382 134.682 136.593 134.682 136.804C134.68 137.358 134.678 137.911 134.674 138.465C134.671 139.031 134.67 139.596 134.668 140.161C134.665 141.27 134.66 142.379 134.654 143.488C134.545 143.525 133.82 154.179 136.182 152.778C136.038 152.829 138.61 150.154 135.797 147.248C137.502 149.785 135.591 147.345 135.444 147.396C134.246 147.893 136.508 145.888 135.887 147.027C135.366 148.334 134.685 149.4 135.149 150.714C135.974 152.552 132.59 153.289 134.359 154.253C134.359 162.672 134.359 171.091 134.359 179.765C134.359 180.724 134.359 180.797 134.359 181.977C134.359 183.157 134.359 182.272 134.359 183.82C134.359 185.664 134.359 185.738 134.211 188.318C134.161 189.203 134.211 189.203 134.211 190.088C134.211 220.795 134.211 251.503 134.211 283.141C134.016 283.19 133.821 283.238 133.621 283.289C132.928 282.421 132.368 281.512 131.831 280.542C131.749 280.395 131.666 280.249 131.582 280.097C130.93 278.931 130.288 277.76 129.655 276.584C129.312 275.951 128.96 275.327 128.586 274.712C128.22 274.109 127.894 273.499 127.587 272.864C127.212 272.102 126.824 271.351 126.415 270.606C125.811 269.496 125.294 268.349 124.773 267.198C124.396 266.367 124.009 265.546 123.592 264.735C122.811 263.208 122.137 261.63 121.447 260.06C121.229 259.564 121.008 259.069 120.788 258.574C120.098 257.024 119.421 255.473 118.818 253.887C118.601 253.327 118.366 252.81 118.059 252.292C117.657 251.59 117.405 250.857 117.143 250.094C116.81 249.134 116.421 248.196 116.041 247.254C115.906 246.918 115.771 246.582 115.636 246.246C115.204 245.17 114.766 244.097 114.318 243.027C113.956 242.156 113.608 241.279 113.258 240.403C113.184 240.216 113.109 240.03 113.035 239.844C112.886 239.472 112.738 239.1 112.589 238.728C112.434 238.34 112.279 237.952 112.123 237.564C112.064 237.416 112.064 237.416 112.004 237.266C111.894 236.994 111.785 236.722 111.676 236.45C111.421 235.808 111.174 235.163 110.927 234.518C110.73 234.01 110.528 233.506 110.324 233.001C109.469 230.878 108.672 228.733 107.883 226.584C107.656 225.967 107.427 225.35 107.197 224.734C107.161 224.638 107.125 224.543 107.088 224.444C106.9 223.943 106.707 223.444 106.51 222.946C105.712 220.927 104.987 218.884 104.311 216.821C104.117 216.236 103.891 215.671 103.654 215.102C103.33 214.313 103.071 213.527 102.863 212.7C102.759 212.324 102.609 211.981 102.445 211.628C102.276 211.198 102.161 210.756 102.039 210.31C101.875 209.716 101.708 209.159 101.439 208.605C101.12 207.936 100.947 207.238 100.765 206.524C100.589 205.837 100.376 205.196 100.111 204.54C100.033 204.344 99.9562 204.147 99.8802 203.95C99.8465 203.865 99.8129 203.78 99.7782 203.692C99.6837 203.408 99.6082 203.117 99.5366 202.826C99.3802 202.196 99.1959 201.577 99.0031 200.957C98.9678 200.843 98.9325 200.729 98.8962 200.611C98.7816 200.24 98.6666 199.869 98.5516 199.498C98.4716 199.239 98.3916 198.981 98.3116 198.722C97.7865 197.023 97.2592 195.325 96.7299 193.627C96.4754 192.81 96.2234 191.992 95.9769 191.172C95.9302 191.017 95.8834 190.862 95.8353 190.702C95.749 190.414 95.6632 190.127 95.578 189.839C95.4115 189.285 95.2384 188.758 95.0082 188.226C94.7707 187.668 94.6276 187.12 94.4921 186.53C94.31 185.741 94.31 185.741 94.0481 184.975C93.8984 184.6 93.8434 184.266 93.7909 183.867C93.6157 182.756 93.3012 181.693 92.9921 180.614C92.7681 179.82 92.5561 179.023 92.3424 178.226C92.2574 177.91 92.1725 177.593 92.0875 177.277C92.047 177.126 92.0065 176.975 91.9648 176.82C91.8468 176.383 91.7262 175.948 91.6054 175.512C91.4411 174.912 91.3012 174.311 91.1798 173.7C91.0609 173.129 90.9355 172.581 90.737 172.032C90.4844 171.332 90.3544 170.609 90.2206 169.879C90.1636 169.398 90.1636 169.398 89.9251 169C89.8547 168.656 89.7912 168.313 89.7313 167.967C89.5702 167.074 89.3871 166.188 89.1777 165.304C89.1538 165.202 89.1299 165.101 89.1052 164.996C88.9978 164.548 88.8832 164.104 88.7522 163.663C88.5269 162.85 88.3562 162.027 88.1813 161.202C88.1426 161.021 88.1039 160.84 88.0641 160.653C87.7119 158.993 87.3771 157.331 87.0486 155.667C86.9517 155.18 86.8512 154.693 86.7512 154.207C86.4999 152.957 86.2845 151.701 86.063 150.445C85.9112 149.59 85.7551 148.74 85.5611 147.893C85.2417 146.463 85.0516 145.007 84.8352 143.558C84.7101 142.723 84.5822 141.889 84.4539 141.054C84.417 140.813 84.417 140.813 84.3793 140.568C84.2394 139.659 84.0922 138.753 83.9372 137.847C83.5792 135.728 83.2946 133.612 83.1345 131.469C83.0516 130.358 82.9111 129.31 82.6507 128.226C82.4156 127.086 82.3462 125.917 82.2488 124.759C82.2376 124.626 82.2265 124.494 82.2149 124.357C82.1676 123.791 82.1205 123.225 82.075 122.66C82.0049 121.799 81.9273 120.94 81.8417 120.08C81.6344 117.992 81.4592 115.915 81.406 113.816C81.4021 113.668 81.3982 113.52 81.3942 113.368C81.3916 113.239 81.389 113.11 81.3864 112.977C81.3822 112.658 81.3822 112.658 81.2155 112.372C81.1921 112.019 81.1776 111.671 81.1694 111.319C81.1664 111.207 81.1634 111.095 81.1603 110.979C81.1504 110.595 81.1419 110.212 81.1336 109.828C81.1305 109.692 81.1274 109.556 81.1242 109.415C81.0308 105.189 81.0456 100.961 81.0489 96.7339C81.0495 95.8146 81.0491 94.8954 81.0483 93.9761C81.0477 93.0735 81.0476 92.1708 81.048 91.2682C81.0482 90.7358 81.0482 90.2035 81.0477 89.6711C81.043 83.8098 81.043 83.8098 81.4416 81.6875C81.5806 80.8192 81.6036 79.9391 81.6491 79.062C81.7333 77.571 81.862 76.0995 82.0856 74.622C82.2369 73.6002 82.3234 72.5803 82.3964 71.5502C82.4784 70.4161 82.5951 69.3117 82.814 68.196C82.9837 67.3183 83.0879 66.4379 83.1899 65.5501C83.3561 64.1338 83.6041 62.7477 83.8961 61.3523C84.094 60.4041 84.2654 59.4572 84.4078 58.4992C84.5393 57.618 84.7118 56.7692 84.9446 55.9081C85.0784 55.3438 85.1612 54.7773 85.2474 54.2042C85.8603 50.2185 85.8603 50.2185 86.5298 49.5497Z" fill="#161616"/>
<path d="M130.056 148.575C130.056 145.684 132.402 143.34 135.296 143.34C138.191 143.34 140.537 145.684 140.537 148.575V149.018C140.537 151.909 138.191 154.253 135.296 154.253C132.402 154.253 130.056 151.909 130.056 149.018V148.575Z" fill="white"/>
<path d="M130.056 186.327C130.056 183.436 132.402 181.092 135.296 181.092C138.191 181.092 140.537 183.436 140.537 186.327V186.77C140.537 189.661 138.191 192.005 135.296 192.005C132.402 192.005 130.056 189.661 130.056 186.77V186.327Z" fill="white"/>
</svg>
